<svg id="Group_17" data-name="Group 17" xmlns="http://www.w3.org/2000/svg" width="522.957" height="478.029" viewBox="0 0 522.957 478.029">
  <path id="Path_338" data-name="Path 338" d="M746.982,367.094A185.354,185.354,0,0,0,733.992,204L437.863,245l283.786-59.143a184.717,184.717,0,0,0-146.642-72.2c-102.192,0-185.035,82.843-185.035,185.035a186.455,186.455,0,0,0,1.716,25.205Z" transform="translate(-258.787 -83.298)" fill="#f2f2f2"/>
  <path id="Path_339" data-name="Path 339" d="M409.909,519.317a185.094,185.094,0,0,0,339.934,12.574Z" transform="translate(-266.356 -237.301)" fill="#f2f2f2"/>
  <path id="Path_340" data-name="Path 340" d="M657.421,478.672c0,72.715-107.211,131.658-239.457,131.658-71.046,0-134.865-17.009-178.715-44.031-28.611-17.625-48.726-39.518-56.795-63.71a74.988,74.988,0,0,1-3.947-23.917c0-72.708,198.437-400.684,239.457-131.651S657.421,405.964,657.421,478.672Z" transform="translate(-178.508 -132.3)" fill="#21deba"/>
  <path id="Path_341" data-name="Path 341" d="M539.383,670.268c0,26.848-84.789,48.617-189.389,48.617-40.287,0-77.635-3.229-108.329-8.737-28.611-17.625-48.726-39.518-56.795-63.71,32.472-14.8,94.252-24.787,165.124-24.787C454.594,621.651,539.383,643.42,539.383,670.268Z" transform="translate(-180.923 -276.151)" opacity="0.1"/>
  <path id="Path_342" data-name="Path 342" d="M465.09,237.331c-15.009-25.361-44.7-26.543-44.7-26.543s-28.936-3.7-47.5,34.925c-17.3,36-41.179,70.762-3.844,79.19l6.744-20.99,4.176,22.553a146.09,146.09,0,0,0,15.974.273c39.983-1.291,78.061.378,76.835-13.97C471.143,293.7,479.531,261.734,465.09,237.331Z" transform="translate(-243.336 -120.135)" fill="#2f2e41"/>
  <path id="Path_343" data-name="Path 343" d="M373.994,603.493a59.206,59.206,0,0,1-1.915,8.242c-.939,2.641-2.389,5.083-3.248,7.752-2.737,8.505,1.057,17.989,7.118,24.554a40.067,40.067,0,0,0,19.535,11.6c5.468,1.375,11.153,1.573,16.788,1.764,15.6.529,31.607,1,46.392-4.012a80.6,80.6,0,0,0,13.478-6.123,10.092,10.092,0,0,0,3.5-2.754,9.624,9.624,0,0,0,1.262-5.649c-.033-6.615-1.374-13.2-1.056-19.8.176-3.66.861-7.316.524-10.965a20.227,20.227,0,0,0-15.459-17.424c-4.194-.9-8.544-.41-12.814,0a326.712,326.712,0,0,1-33.349,1.491c-11.377-.073-22.683-1.809-34-1.991-3.348-.054-3.28.978-4.346,4.218A78.93,78.93,0,0,0,373.994,603.493Z" transform="translate(-250.418 -264.198)" fill="#2f2e41"/>
  <path id="Path_344" data-name="Path 344" d="M421.431,340.026c-.547,2.863-1.138,5.83-2.858,8.183-1.979,2.707-5.206,4.253-7.336,6.843-3.2,3.9-3.389,9.385-3.4,14.432-.012,4.65.082,9.609,2.675,13.468,1.683,2.5,4.243,4.261,6.746,5.947,9.724,6.553,20.231,13.223,31.954,13.439,4.857.09,10.066-1.165,13.262-4.824a19.913,19.913,0,0,0,3.211-5.729,76.07,76.07,0,0,0,5.385-23.158,27.193,27.193,0,0,0-1.025-11.125c-1.424-3.971-4.3-7.238-6.207-11a24.5,24.5,0,0,1-2.358-14.495,1.565,1.565,0,0,0-.083-1.05,1.53,1.53,0,0,0-1.261-.511l-23.246-1.673a50.578,50.578,0,0,1-6.454-.738c-1.253-.255-4.563-2.035-5.758-1.561C422.464,327.348,421.884,337.652,421.431,340.026Z" transform="translate(-265.568 -164.059)" fill="#a0616a"/>
  <path id="Path_345" data-name="Path 345" d="M421.431,341.2c-.547,2.863-1.138,5.83-2.858,8.183-1.979,2.707-5.206,4.253-7.336,6.843-3.2,3.9-3.389,9.385-3.4,14.433-.012,4.65.082,9.609,2.675,13.468,1.683,2.5,4.243,4.261,6.746,5.947,9.724,6.553,20.231,13.223,31.954,13.439,4.857.09,10.066-1.165,13.262-4.824a19.913,19.913,0,0,0,3.211-5.729,76.07,76.07,0,0,0,5.385-23.158,27.193,27.193,0,0,0-1.025-11.125c-1.424-3.971-4.3-7.238-6.207-11a24.5,24.5,0,0,1-2.358-14.495,1.565,1.565,0,0,0-.083-1.05,1.53,1.53,0,0,0-1.261-.511l-23.246-1.673a50.6,50.6,0,0,1-6.454-.738c-1.253-.255-4.563-2.035-5.758-1.561C422.464,328.518,421.884,338.822,421.431,341.2Z" transform="translate(-265.568 -164.503)" opacity="0.1"/>
  <circle id="Ellipse_54" data-name="Ellipse 54" cx="34.104" cy="34.104" r="34.104" transform="translate(143.988 110.875)" fill="#a0616a"/>
  <path id="Path_346" data-name="Path 346" d="M429.92,407.617a20.917,20.917,0,0,0,5.99,4.787,18.823,18.823,0,0,0,7.484,1.425c6.148.173,12.812-.954,17.089-5.373,5.513-5.7,5.331-14.886,9.652-21.533a4.8,4.8,0,0,1,1.392-1.523,4.513,4.513,0,0,1,2.368-.544c5.457-.051,10.211,3.488,14.5,6.862a19.1,19.1,0,0,1,5.1,5.2,17.622,17.622,0,0,1,1.721,5.271c2.129,10.393,2.819,21.02,3.5,31.607.378,5.848.756,11.7.728,17.561-.093,19.306-4.58,38.288-9.042,57.071-.575,2.42-1.362,5.125-3.563,6.285a8.784,8.784,0,0,1-3.109.759c-12.781,1.5-25.588,3-38.455,3.2q-7.532.116-15.057-.365a8.11,8.11,0,0,1-2.536-.442,7.154,7.154,0,0,1-2.765-2.348c-6.96-8.771-7.371-20.9-7.326-32.092q.163-41.061,2.934-82.057c.152-2.256.186-5-1.44-6.77C422.021,399.282,426.092,403.615,429.92,407.617Z" transform="translate(-269.275 -186.252)" fill="#d0cde1"/>
  <path id="Path_347" data-name="Path 347" d="M393.6,356.207c-1.152,2.085-9.644,7.263-11.284,8.991-9.16,9.655-25.879,9.293-34.256,19.635-2.948,3.639-4.479,8.21-5.605,12.755-1.593,6.428-2.443,13.439.225,19.5,2.568,5.832,7.973,9.865,11.643,15.074,4.029,5.72,5.841,12.666,7.577,19.444,1.282,5,2.575,10.133,2.075,15.276-.568,5.846-3.4,11.2-5.067,16.831s-1.959,12.339,1.9,16.764c2.837,3.251,7.288,4.54,11.542,5.265a132.607,132.607,0,0,0,16.451,1.432c4.863.215,10.223.257,13.962-2.861,2.95-2.46,4.232-6.452,4.4-10.289s-.632-7.641-1.133-11.449c-.518-3.948-.718-7.93-.884-11.908q-1.122-26.774-.306-53.583a45.6,45.6,0,0,0-.542-11.119c-1.043-4.781-3.627-9.054-5.783-13.446-4.279-8.719-6.3-17.189-5.642-26.88C393.531,356.075,397.7,348.787,393.6,356.207Z" transform="translate(-240.182 -174.221)" fill="#575a89"/>
  <path id="Path_348" data-name="Path 348" d="M495.8,354.9c1.754,1.8,7.716,2.4,9.948,3.559a34.854,34.854,0,0,0,6.54,2.264,84.9,84.9,0,0,1,22.973,10.544,13.942,13.942,0,0,1,3.842,3.318,15.211,15.211,0,0,1,2.125,6c1.093,5.413,2.191,10.892,1.946,16.409-.261,5.856-2.025,11.528-3.775,17.123l-6.539,20.9c-4.881,15.6-9.793,31.362-11.166,47.653a112.1,112.1,0,0,0,1.006,27.065,3.209,3.209,0,0,1-.33,2.621,2.582,2.582,0,0,1-1.6.737c-3.156.494-6.21-1.116-9.07-2.54a100.434,100.434,0,0,0-27.686-9.059,64.365,64.365,0,0,0,8.6-17.727,107.286,107.286,0,0,0,2.6-12.191l3.042-17.593a172.868,172.868,0,0,0,2.609-19.455,24.355,24.355,0,0,0-.423-7.329,35.552,35.552,0,0,0-2.778-6.609c-5.013-10.428-7.365-22.327-5.393-33.728.863-4.989,2.541-9.985,1.841-15-.673-4.822.026-8.569-1.211-13.34C487.821,338.933,492.5,351.5,495.8,354.9Z" transform="translate(-294.49 -172.185)" fill="#575a89"/>
  <path id="Path_349" data-name="Path 349" d="M347.332,422.275c-2.285,4.743-6.106,8.783-7.407,13.884a30.333,30.333,0,0,0-.646,7.257c-.031,3.671-.051,7.417,1.077,10.911.726,2.25,1.907,4.324,2.757,6.53a23.675,23.675,0,0,1,1.551,9.674c-.23,4.568-1.781,9-1.9,13.575-.191,7.19,3.135,13.95,6.38,20.369a14.974,14.974,0,0,1,21.766-7.126,4.463,4.463,0,0,0,.981-3.254q.36-12.513.694-25.027c.351-12.9.686-25.977-2.282-38.538-1.34-5.671-3.425-11.321-7.248-15.72-2.013-2.316-8.845-8.417-12.149-5.822-1.486,1.167-1.139,4.343-1.374,5.952A25.251,25.251,0,0,1,347.332,422.275Z" transform="translate(-239.537 -195.176)" fill="#575a89"/>
  <path id="Path_350" data-name="Path 350" d="M556.155,401.335a34.9,34.9,0,0,1,1.167,10.5q.066,10.817-.287,21.631a40.325,40.325,0,0,1-1.405,10.952c-.738,2.321-1.877,4.5-2.639,6.81-2.284,6.932-1.036,14.45-.84,21.746a24.71,24.71,0,0,1-.6,7.035c-1.206,4.523-4.445,8.178-6.706,12.276-2.147,3.892-3.443,8.255-6.008,11.886s-7,6.508-11.308,5.393c-3.261-.845-5.578-3.731-7.18-6.693a32.83,32.83,0,0,1-3.394-21.3c1.609-8.855,6.81-16.711,8.686-25.514,2.576-12.088-1.339-24.562-1.223-36.92a17.847,17.847,0,0,1,.778-5.723c.984-2.823,3.1-5.077,5.049-7.341a92.69,92.69,0,0,0,6.787-8.907c1.4-2.084,3.3-7.446,5.774-7.891C548.339,388.282,554.782,397.061,556.155,401.335Z" transform="translate(-306.801 -187.903)" fill="#575a89"/>
  <path id="Path_351" data-name="Path 351" d="M286.752,602.36a33.662,33.662,0,0,0-9.364-1,23.371,23.371,0,0,0-21.7,27.551,39.256,39.256,0,0,0,3.711,10.139c2.483,5.04,5.462,10.068,10.059,13.3a39.179,39.179,0,0,0,8.877,4.226l24.213,9.122c3.562,1.342,7.125,2.684,10.722,3.928a209.72,209.72,0,0,0,56,11.133c5.814.346,11.716.443,17.388-.881a5.66,5.66,0,0,0,3.561-1.924,6.1,6.1,0,0,0,.8-2.628l1.49-10.431a8.737,8.737,0,0,0-.127-4.4c-.683-1.753-2.393-2.856-4.025-3.793-15.919-9.143-34.505-14.187-47.9-26.735-3.154-2.954-5.794-7.637-9.626-9.643-4.346-2.276-9.464-3.574-13.956-5.671C307.051,610.074,297.4,604.807,286.752,602.36Z" transform="translate(-207.664 -268.441)" fill="#2f2e41"/>
  <path id="Path_352" data-name="Path 352" d="M338.327,624.182c8.558,2.682,44.692,21.261,50.885,27.748-.83.3-29-15.486-29.842-15.74-7.683-2.306-15.408-4.627-22.7-8-1.468-.679-9.535-3.869-9.17-5.721C327.909,620.378,336.807,623.706,338.327,624.182Z" transform="translate(-235.065 -276.201)" opacity="0.1"/>
  <path id="Path_353" data-name="Path 353" d="M495.6,724.532a2.01,2.01,0,0,0,1.357-.4,2.1,2.1,0,0,0,.424-1.561q-.02-7.105-.04-14.21c-4.086-1.947-8.657-2.571-13.144-3.171l-20.933-2.8c.481.064-3.273,9.016-2.7,10.211,1.014,2.106,8.768,3.973,10.956,4.968C479.125,721.029,487.029,724.83,495.6,724.532Z" transform="translate(-285.563 -306.803)" fill="#a0616a"/>
  <path id="Path_354" data-name="Path 354" d="M403.307,705.689c-3.952.63-8.364,1.186-10.923,4.263-3.246,3.9-1.864,9.718-.316,14.551a6.266,6.266,0,0,0,1.346,2.648c1.057,1.042,2.676,1.2,4.158,1.289,3.6.228,7.44.407,10.59-1.361a46.425,46.425,0,0,0,4.114-3.058,26.378,26.378,0,0,1,7.563-3.458,76.49,76.49,0,0,1,15.182-3.129A23.612,23.612,0,0,0,441,716.38a6.627,6.627,0,0,0,4.212-4.089c.73-2.582-.771-5.215-2.211-7.48-1.793-2.821-3.693-5.792-6.366-7.869-3.9-3.03-5.83-.7-9.759,1.235A82.8,82.8,0,0,1,403.307,705.689Z" transform="translate(-258.952 -304.18)" fill="#a0616a"/>
  <path id="Path_355" data-name="Path 355" d="M365.3,712.027l-25.1-7.418a33.218,33.218,0,0,0-9.339-1.81c-3.183,0-6.513,1.046-8.577,3.469-1.946,2.284-2.5,5.406-2.988,8.367l-1.038,6.334a31.813,31.813,0,0,0-.581,9.727c.475,3.227,2.122,6.451,4.986,8.014,3.473,1.895,7.729.969,11.605.177a126.341,126.341,0,0,1,23.783-2.55c3-.036,6.155,0,8.809-1.405a11,11,0,0,0,5.367-8.764C372.722,720.756,370.918,713.688,365.3,712.027Z" transform="translate(-231.272 -306.957)" fill="#2f2e41"/>
  <path id="Path_356" data-name="Path 356" d="M526.465,704.174c3.253-.57,6.125-2.419,9.242-3.511,4.388-1.536,9.143-1.536,13.792-1.519,1.707.006,3.524.045,4.945.99,2.048,1.363,2.573,4.092,2.921,6.527l2.1,14.694a23.056,23.056,0,0,1,.172,8.324c-.616,2.723-2.472,5.348-5.174,6.05-3.282.853-6.5-1.243-9.6-2.62-7.745-3.442-16.747-2.562-24.822-5.135-1.5-.477-3.1-1.207-3.715-2.656a6.045,6.045,0,0,1-.289-2.539c.138-4.723-.858-11.172.564-15.686C517.882,703.034,522.833,704.174,526.465,704.174Z" transform="translate(-306.567 -305.568)" fill="#2f2e41"/>
  <path id="Path_357" data-name="Path 357" d="M554.57,592.647a43.581,43.581,0,0,1,15.352-1.049c4.1.452,8.333,1.594,11.329,4.435,3.647,3.458,4.819,8.8,4.917,13.829a43.207,43.207,0,0,1-9.391,27.593,25.038,25.038,0,0,1-5.369,5.168,35.34,35.34,0,0,1-6.985,3.366L510.2,667.378c-14.265,5.627-28.581,11.27-43.46,14.979a3.387,3.387,0,0,1-4.558-1.652,112.345,112.345,0,0,1-11.884-21.74,1.465,1.465,0,0,1,.647-2.31L489.3,634.619a38.776,38.776,0,0,0,7.806-5.379,19.38,19.38,0,0,0,4.008-5.58c.8-1.661.869-5.579,1.885-6.807.994-1.2,4.4-1.3,5.966-1.77a54.136,54.136,0,0,0,6.5-2.455c8.579-3.838,16.219-9.415,24.444-13.909A62.716,62.716,0,0,1,554.57,592.647Z" transform="translate(-281.563 -264.643)" fill="#2f2e41"/>
  <path id="Path_358" data-name="Path 358" d="M545.862,617.406c-6.589,4.949-15.121,9.5-21.652,14.578-2.229,1.734-39.384,22.623-39.909,25.4,6.093,1.027,44.9-26.125,50.457-28.834s10.475-6.53,15.353-10.322c1.243-.966,6.511-3.872,2.943-4.952C551.043,612.664,547.346,616.416,545.862,617.406Z" transform="translate(-294.598 -272.944)" opacity="0.1"/>
  <path id="Path_359" data-name="Path 359" d="M469.247,360.015H411.406a8.861,8.861,0,0,0-8.861,8.861v3.245h-.629v7.256h.629v5.079h-.629v4.354h.629V442.35a8.861,8.861,0,0,0,8.861,8.861h57.841a8.86,8.86,0,0,0,8.861-8.86V368.875a8.861,8.861,0,0,0-8.86-8.86Z" transform="translate(-263.322 -176.824)" fill="#3f3d56"/>
  <path id="Path_360" data-name="Path 360" d="M298.887,175.57,269.55,160.2l-40.513,6.287-8.382,37.02,20.865-.8,5.829-13.6v13.377l9.627-.37,5.588-21.653,3.492,23.05,34.227-.7Z" transform="translate(-83.769 -60.819)" fill="#2f2e41"/>
  <path id="Path_361" data-name="Path 361" d="M361.079,527.946a15.244,15.244,0,0,0,5.476,5.448,10.709,10.709,0,0,0,9.414-.252,16.57,16.57,0,0,0,6.793-6.811c3.188-5.63,3.849-12.367,3.451-18.825s-1.777-12.817-2.387-19.258c-.444-4.682-.48-9.393-.515-14.1a4.687,4.687,0,0,1,.592-2.851c.706-.964,2-1.23,3.145-1.571,6.435-1.912,10.706-7.943,13.768-13.917,2.045-3.989,3.823-8.349,3.428-12.814s-3.6-8.963-8.063-9.419c-3.676-.376-7.071,1.959-9.723,4.533a41.691,41.691,0,0,0-12.207,24.4c-.582,4.54-.415,9.2-1.65,13.611-2.637,9.41-10.886,15.18-15,23.648C353.075,509.1,355.575,519.69,361.079,527.946Z" transform="translate(-245.609 -204.736)" fill="#a0616a"/>
  <path id="Path_362" data-name="Path 362" d="M536.812,474.821a17.784,17.784,0,0,1-9.973,9.583,13.775,13.775,0,0,1-8.67.531,9.614,9.614,0,0,1-6.351-5.681,15.3,15.3,0,0,1-.715-4.267c-.413-6.346-.253-12.885,2.052-18.812.889-2.286,2.088-4.454,2.79-6.8a34.125,34.125,0,0,0,1.05-8.3l.758-17.315a11.272,11.272,0,0,0-.257-3.754c-.756-2.505-3.1-4.134-5.246-5.628-5.189-3.608-10.316-7.819-12.83-13.617a9.551,9.551,0,0,1-.887-5.641c.709-3.438,4.179-5.664,7.608-6.414a17.019,17.019,0,0,1,20.4,13.714c.339,1.954.335,3.95.533,5.923.421,4.186,1.75,8.221,2.581,12.345,2.048,10.159.987,20.659,3.012,30.816C534.362,459.988,540.747,465.529,536.812,474.821Z" transform="translate(-299.949 -187.563)" fill="#a0616a"/>
  <circle id="Ellipse_55" data-name="Ellipse 55" cx="7.256" cy="7.256" r="7.256" transform="translate(170.522 207.632)" fill="#d0cde1"/>
  <path id="Path_363" data-name="Path 363" d="M935.04,423.632a38.874,38.874,0,1,0,38.874,38.874,38.874,38.874,0,0,0-38.874-38.874Zm19.212,29.015c.02.42.031.85.031,1.28,0,13.115-9.972,28.237-28.227,28.237a27.707,27.707,0,0,1-15.173-4.484,20.088,20.088,0,0,0,2.365.143,19.873,19.873,0,0,0,12.317-4.249,9.928,9.928,0,0,1-9.266-6.89,9.346,9.346,0,0,0,1.863.184,9.975,9.975,0,0,0,2.609-.348,9.921,9.921,0,0,1-7.953-9.727v-.123a9.681,9.681,0,0,0,4.5,1.239,9.932,9.932,0,0,1-3.082-13.248,28.091,28.091,0,0,0,20.435,10.371,9.71,9.71,0,0,1-.256-2.263,9.909,9.909,0,0,1,17.149-6.778,19.694,19.694,0,0,0,6.3-2.406,9.948,9.948,0,0,1-4.362,5.488,20.04,20.04,0,0,0,5.693-1.566A20.178,20.178,0,0,1,954.252,452.647Z" transform="translate(-450.957 -200.975)" fill="#3f3d56"/>
  <circle id="Ellipse_56" data-name="Ellipse 56" cx="6.908" cy="6.908" r="6.908" transform="translate(464.675 107.622)" fill="#3f3d56"/>
  <path id="Path_364" data-name="Path 364" d="M936.746,221.5H919.477a8.66,8.66,0,0,0-8.635,8.635V247.4a8.66,8.66,0,0,0,8.635,8.635h17.269a8.66,8.66,0,0,0,8.635-8.635V230.132a8.66,8.66,0,0,0-8.635-8.635Zm-8.635,27.631a10.362,10.362,0,1,1,10.362-10.362A10.362,10.362,0,0,1,928.112,249.128Zm11.225-19a2.584,2.584,0,1,1,1.833-.757,2.59,2.59,0,0,1-1.833.757Z" transform="translate(-456.529 -124.237)" fill="#3f3d56"/>
  <path id="Path_365" data-name="Path 365" d="M912.886,183.859a40.982,40.982,0,1,0,40.982,40.982A40.982,40.982,0,0,0,912.886,183.859Zm21.166,49.253A12.124,12.124,0,0,1,921.964,245.2H904.695a12.124,12.124,0,0,1-12.088-12.088V215.843a12.124,12.124,0,0,1,12.088-12.088h17.269a12.124,12.124,0,0,1,12.088,12.088Z" transform="translate(-441.747 -109.948)" fill="#3f3d56"/>
  <path id="Path_366" data-name="Path 366" d="M645.324,64.718a40.324,40.324,0,1,0,40.324,40.324,40.324,40.324,0,0,0-40.324-40.324Zm12.714,24.4h-5.162c-3.524,0-4.2,1.667-4.2,4.124v5.22h8.394l-1.1,8.189h-7.3v22.227h-9.359V106.65h-6.712V98.462h6.712V92.408c0-7.253,5.03-11.2,11.508-11.2,3.1,0,6.434.234,7.209.336Z" transform="translate(-340.42 -64.718)" fill="#3f3d56"/>
</svg>
