<svg id="Group_18" data-name="Group 18" xmlns="http://www.w3.org/2000/svg" width="617.38" height="355.643" viewBox="0 0 617.38 355.643">
  <path id="Path_367" data-name="Path 367" d="M604.812,429.3l-39.368,18.632,34.843-26.053a196.619,196.619,0,0,0-19.024-25.034L410.528,439.282l154.222-58.83a196.588,196.588,0,0,0-22.4-17.07l-260.16,41.9a194.974,194.974,0,0,0-42.7,121.676H631.1A194.869,194.869,0,0,0,604.812,429.3Z" transform="translate(-170.9 -243.248)" fill="#f2f2f2"/>
  <path id="Path_368" data-name="Path 368" d="M543.795,335.314A195.942,195.942,0,0,0,307.554,386.1C369.059,372.619,476.144,349.291,543.795,335.314Z" transform="translate(-193.633 -227.278)" fill="#f2f2f2"/>
  <path id="Path_369" data-name="Path 369" d="M570.893,331.876c-6.7,19.843-16.979,37.923-37.923,37.923s-36.743-17.012-37.923-37.923c-1.508-26.72,16.5-38.033,37.923-37.923C558.283,294.084,578.847,308.327,570.893,331.876Z" transform="translate(-256.226 -220.058)" fill="#2f2e41"/>
  <rect id="Rectangle_66" data-name="Rectangle 66" width="62.029" height="90.398" transform="translate(245.457 106.773)" fill="#2f2e41"/>
  <path id="Path_370" data-name="Path 370" d="M536.238,415.074s1.984,28.438-2.645,33.067,41,8.6,40.342,3.307-9.259-39.681-6.613-46.955S536.238,415.074,536.238,415.074Z" transform="translate(-269.02 -256.397)" fill="#ffb8b8"/>
  <path id="Path_371" data-name="Path 371" d="M536.238,415.074s1.984,28.438-2.645,33.067,41,8.6,40.342,3.307-9.259-39.681-6.613-46.955S536.238,415.074,536.238,415.074Z" transform="translate(-269.02 -256.397)" opacity="0.1"/>
  <path id="Path_372" data-name="Path 372" d="M439.752,510.59l-23.763,80.353-.952,3.237H375.05c15.911-49.25,55.244-121.878,55.244-121.878l6.141-1.392Z" transform="translate(-216.176 -279.163)" fill="#21deba"/>
  <path id="Path_373" data-name="Path 373" d="M439.752,510.59l-23.763,80.353-.952,3.237H375.05c15.911-49.25,55.244-121.878,55.244-121.878l6.141-1.392Z" transform="translate(-216.176 -279.163)" opacity="0.1"/>
  <circle id="Ellipse_57" data-name="Ellipse 57" cx="29.76" cy="29.76" r="29.76" transform="translate(245.394 109.076)" fill="#ffb8b8"/>
  <path id="Path_374" data-name="Path 374" d="M571.62,458.686s-10.582,9.92-22.486,7.936-16.9-16.46-16.9-16.46L520.7,458.686s-3.307,23.808,11.9,26.454,37.035,3.307,41.665,0S571.62,458.686,571.62,458.686Z" transform="translate(-264.721 -272.233)" fill="#3f3d56"/>
  <path id="Path_375" data-name="Path 375" d="M579.712,495.353l-1.9,6.167-26.793,87.352H435.71a27.02,27.02,0,0,0,.539-3.237c1.492-12.434.613-43.8.613-45.96,0-2.651,11.235-68.118,13.893-72.754a4.3,4.3,0,0,1,1.578-1.319c3.084-1.772,9.9-3.756,17.256-5.508.007-.007.007-.007.013-.007,4.109-1,8.4-1.918,12.288-2.7h.007c3.816-.766,7.239-1.392,9.743-1.8a39.9,39.9,0,0,1,4.083-.566c.613,0,1.059.726,1.359,1.838,1.006,3.623.619,11.382.619,11.382a20.094,20.094,0,0,0,2.97,2.784,37.731,37.731,0,0,0,8.3,4.948,49.219,49.219,0,0,0,7.872,2.684h.007a57.52,57.52,0,0,0,8.625,1.5,26.614,26.614,0,0,0,7.126-.14h.013c7.013-1.159,9.584-5.514,10.782-8.991.213-.633.38-1.239.526-1.792,0-.007.007-.02.007-.027.44-1.7.626-2.89,1.092-2.87h.007c1.205.113,16.41,13.147,26.287,21.7,4.689,4.056,8.172,7.12,8.385,7.306Z" transform="translate(-236.437 -273.855)" fill="#21deba"/>
  <path id="Path_376" data-name="Path 376" d="M630.2,520.591,603.4,607.944H592.54a7.147,7.147,0,0,0,1.192-4.888c-.346-2.437,7.2-27.273,14.465-50.383,6.607-21,12.98-40.553,12.98-40.553l6.28,2.97S628.584,517.215,630.2,520.591Z" transform="translate(-288.819 -292.927)" opacity="0.1"/>
  <path id="Path_377" data-name="Path 377" d="M651.391,597.584c-1.305.326-1.165,4.2-1.239,8.205H598.83a7.564,7.564,0,0,0,1.638-5.554c-.34-2.338,4.722-26.44,9.83-49.717,4.016-18.408,8.065-36.3,9.47-42.531.346-1.505.533-2.318.533-2.318l.606.286.013.007,13.26,6.3.013.007s20.5,39.027,13.893,48.285-6.62,9.257-3.976,13.893S654.028,596.925,651.391,597.584Z" transform="translate(-290.919 -290.773)" fill="#21deba"/>
  <circle id="Ellipse_58" data-name="Ellipse 58" cx="14.97" cy="14.97" r="14.97" transform="translate(261.774 51.94)" fill="#2f2e41"/>
  <path id="Path_378" data-name="Path 378" d="M523.559,263.969a14.97,14.97,0,0,1,13.471-14.894c-.491-.049-.99-.076-1.5-.076a14.97,14.97,0,1,0,0,29.939c.505,0,1-.027,1.5-.076A14.97,14.97,0,0,1,523.559,263.969Z" transform="translate(-264.779 -205.044)" fill="#2f2e41"/>
  <path id="Path_379" data-name="Path 379" d="M517.649,333.8s-.313-1.74-12.537,2.844-19.553,38.415-13.44,58.28c2.463,8.006.459,13.778-2.811,17.816-12.273,15.155-7.442,37.918,10.435,45.712q.757.33,1.545.652l7.641,4.584s-9.74-12.816-4.866-29.21a84.053,84.053,0,0,0,1.517-43.029c-.559-2.4-1.194-4.875-1.916-7.4-6.112-21.394-3.14-18.923,18.254-40.316,0,0,12.225,9.169,22.922,13.753s19.865,9.169,12.225,24.45-25.978,29.034-13.753,48.9,13.753,12.225,12.225,19.865h0l-1.528,7.641,9.169-9.169L556.615,461.4s19.865,0,25.978-15.281l3.056,3.056s12.225-21.393-10.7-41.259c0,0-7.641-4.584,3.056-19.865s2.481-48.135-11.271-54.248S517.649,333.8,517.649,333.8Z" transform="translate(-251.916 -232.461)" fill="#2f2e41"/>
  <path id="Path_380" data-name="Path 380" d="M400.378,296.659l-25.462,44.1h5.952v5.952l28.938-50.053Z" transform="translate(-125.223 -99.085)" fill="#3f3d56"/>
  <rect id="Rectangle_67" data-name="Rectangle 67" width="103" height="41" transform="translate(504.264 285.643)" fill="#f2f2f2"/>
  <rect id="Rectangle_68" data-name="Rectangle 68" width="77.256" height="6.66" transform="translate(517.147 337.661)" fill="#f2f2f2"/>
  <rect id="Rectangle_69" data-name="Rectangle 69" width="77.256" height="5.328" transform="translate(517.147 349.649)" fill="#f2f2f2"/>
  <ellipse id="Ellipse_59" data-name="Ellipse 59" cx="2.5" cy="3" rx="2.5" ry="3" transform="translate(8.264 4.643)" fill="#21deba"/>
  <circle id="Ellipse_60" data-name="Ellipse 60" cx="3" cy="3" r="3" transform="translate(15.264 4.643)" fill="#21deba"/>
  <ellipse id="Ellipse_61" data-name="Ellipse 61" cx="2.5" cy="3" rx="2.5" ry="3" transform="translate(23.264 4.643)" fill="#21deba"/>
  <path id="Path_381" data-name="Path 381" d="M753.88,538.643H136.5V183H753.88Zm-616.048-1.332H752.547V184.332H137.832Z" transform="translate(-136.5 -183)" fill="#2f2e41"/>
  <rect id="Rectangle_70" data-name="Rectangle 70" width="616.048" height="1.332" transform="translate(0.666 13.378)" fill="#2f2e41"/>
  <rect id="Rectangle_71" data-name="Rectangle 71" width="20" height="1" transform="translate(8.264 24.643)" fill="#2f2e41"/>
  <rect id="Rectangle_72" data-name="Rectangle 72" width="20" height="1" transform="translate(8.264 30.643)" fill="#2f2e41"/>
  <rect id="Rectangle_73" data-name="Rectangle 73" width="20" height="1" transform="translate(8.264 35.643)" fill="#2f2e41"/>
  <path id="Path_382" data-name="Path 382" d="M651.251,231.988H403.5V220H651.251Zm-246.419-1.332H649.919v-9.324H404.832Z" transform="translate(-225.679 -195.358)" fill="#2f2e41"/>
  <path id="Path_383" data-name="Path 383" d="M759.164,228.828a2.664,2.664,0,1,1,2.664-2.664A2.664,2.664,0,0,1,759.164,228.828Zm0-4a1.332,1.332,0,1,0,1.332,1.332A1.332,1.332,0,0,0,759.164,224.832Z" transform="translate(-343.582 -196.527)" fill="#2f2e41"/>
  <rect id="Rectangle_74" data-name="Rectangle 74" width="1.332" height="3.656" transform="translate(416.491 31.567) rotate(-45.868)" fill="#2f2e41"/>
  <path id="Path_384" data-name="Path 384" d="M992.82,231.988H979.5V220h13.32Zm-11.988-1.332h10.656v-9.324H980.832Z" transform="translate(-418.064 -195.358)" fill="#2f2e41"/>
  <path id="Path_385" data-name="Path 385" d="M1017.82,231.988H1004.5V220h13.32Zm-11.988-1.332h10.656v-9.324h-10.656Z" transform="translate(-426.414 -195.358)" fill="#2f2e41"/>
  <path id="Path_386" data-name="Path 386" d="M1042.82,231.988H1029.5V220h13.32Zm-11.988-1.332h10.656v-9.324h-10.656Z" transform="translate(-434.764 -195.358)" fill="#2f2e41"/>
  <rect id="Rectangle_75" data-name="Rectangle 75" width="13" height="11" transform="translate(442.264 322.643)" fill="#ff6584"/>
  <rect id="Rectangle_76" data-name="Rectangle 76" width="12" height="11" transform="translate(459.264 322.643)" fill="#f2f2f2"/>
  <rect id="Rectangle_77" data-name="Rectangle 77" width="12" height="11" transform="translate(476.264 322.643)" fill="#f2f2f2"/>
  <path id="Path_387" data-name="Path 387" d="M640.71,527.407H186.5V269H640.71Zm-452.878-1.332H639.378V270.332H187.832Z" transform="translate(-153.2 -211.724)" fill="#2f2e41"/>
  <path id="Path_388" data-name="Path 388" d="M284.625,621.285v6.257L274.231,621.2a.365.365,0,0,0-.549.313v13.713a.365.365,0,0,0,.549.313l10.394-6.344v6.257a.182.182,0,0,0,.182.182h3.224a.182.182,0,0,0,.182-.182V621.285a.182.182,0,0,0-.182-.182h-3.224a.182.182,0,0,0-.182.182Z" transform="translate(-182.319 -329.328)" fill="#3f3d56"/>
  <path id="Path_389" data-name="Path 389" d="M246.856,635.634h-2.9a.365.365,0,0,1-.368-.363v-13.8a.365.365,0,0,1,.368-.363h2.9a.365.365,0,0,1,.368.363v13.8a.365.365,0,0,1-.368.363Zm7.992,0h-2.9a.365.365,0,0,1-.368-.363v-13.8a.365.365,0,0,1,.368-.363h2.9a.365.365,0,0,1,.368.363v13.8a.365.365,0,0,1-.368.363Z" transform="translate(-172.269 -329.328)" fill="#3f3d56"/>
  <path id="Path_390" data-name="Path 390" d="M215.5,621.482v13.777a.355.355,0,0,0,.531.327l10.921-6.888a.39.39,0,0,0,0-.649l-10.921-6.889a.351.351,0,0,0-.531.322Z" transform="translate(-162.886 -329.33)" fill="#21deba"/>
  <rect id="Rectangle_78" data-name="Rectangle 78" width="410.92" height="2.664" transform="translate(54.945 282.383)" fill="#2f2e41"/>
  <rect id="Rectangle_79" data-name="Rectangle 79" width="71.595" height="2.664" transform="translate(54.945 282.383)" fill="#21deba"/>
  <rect id="Rectangle_80" data-name="Rectangle 80" width="188" height="8" transform="translate(34.264 323.643)" fill="#f2f2f2"/>
  <rect id="Rectangle_81" data-name="Rectangle 81" width="41" height="7" transform="translate(34.264 341.643)" fill="#f2f2f2"/>
  <rect id="Rectangle_82" data-name="Rectangle 82" width="103" height="41" transform="translate(504.264 70.643)" fill="#f2f2f2"/>
  <rect id="Rectangle_83" data-name="Rectangle 83" width="77.256" height="6.66" transform="translate(517.147 123.21)" fill="#f2f2f2"/>
  <rect id="Rectangle_84" data-name="Rectangle 84" width="77.256" height="6.66" transform="translate(517.147 135.197)" fill="#f2f2f2"/>
  <rect id="Rectangle_85" data-name="Rectangle 85" width="77.256" height="6.66" transform="translate(517.147 147.185)" fill="#f2f2f2"/>
  <rect id="Rectangle_86" data-name="Rectangle 86" width="103" height="40" transform="translate(504.264 178.643)" fill="#f2f2f2"/>
  <rect id="Rectangle_87" data-name="Rectangle 87" width="77.256" height="6.66" transform="translate(517.147 230.435)" fill="#f2f2f2"/>
  <rect id="Rectangle_88" data-name="Rectangle 88" width="77.256" height="6.66" transform="translate(517.147 242.423)" fill="#f2f2f2"/>
  <rect id="Rectangle_89" data-name="Rectangle 89" width="77.256" height="6.66" transform="translate(517.147 254.411)" fill="#f2f2f2"/>
  <path id="Path_391" data-name="Path 391" d="M793.445,600.509l-1.375-1.038c-4.888-3.758-8.112-6.194-8.405-9.552a4.8,4.8,0,0,1,4.407-5.285,5.217,5.217,0,0,1,4.116,1.51,5.218,5.218,0,0,1,3.792-2.2,4.8,4.8,0,0,1,5.258,4.439c.294,3.359-2.458,6.317-6.619,10.867Z" transform="translate(-352.646 -316.908)" fill="#ff6584"/>
  <path id="Path_392" data-name="Path 392" d="M820.623,574.619l-.754-1.549c-2.649-5.568-4.415-9.2-3.152-12.327a4.8,4.8,0,0,1,6.326-2.707,5.158,5.158,0,0,0,7.36,2.974,4.8,4.8,0,0,1,2.669,6.343c-1.263,3.126-5.058,4.512-10.832,6.677Z" transform="translate(-363.555 -308.139)" fill="#ff6584"/>
  <path id="Path_393" data-name="Path 393" d="M810.623,641.619l-.754-1.549c-2.649-5.568-4.415-9.2-3.152-12.328a4.8,4.8,0,0,1,6.326-2.707,5.158,5.158,0,0,0,7.36,2.974,4.8,4.8,0,0,1,2.669,6.342c-1.263,3.126-5.058,4.512-10.832,6.677Z" transform="translate(-360.215 -330.517)" fill="#ff6584"/>
</svg>
