<svg xmlns="http://www.w3.org/2000/svg" width="582.338" height="455.201" viewBox="0 0 582.338 455.201">
  <g id="Group_19" data-name="Group 19" transform="translate(0 0)">
    <path id="Path_394" data-name="Path 394" d="M935.644,543.354l52.768-78.472L935.752,551.8l.11,8.83q-5.778.044-11.445-.192l2.617-113.5-.072-.876.1-.169.251-10.725-57.788-83.9,57.719,75.873.2,2.267,1.977-85.757L879.51,256.655l50.055,71.921-.522-177.667v-.591l.017.582,3.313,140.025,45.49-56.878-45.341,68.941.993,76.708,41.86-74.864L933.67,390.973l.553,42.653L995.1,329.342l-60.69,119.164Z" transform="translate(-412.76 -106.841)" fill="#e6e6e6"/>
    <path id="Path_395" data-name="Path 395" d="M765.547,684.024l25.564-38.016L765.6,688.114l.053,4.278q-2.8.021-5.544-.093l1.268-54.988-.035-.424.047-.082.121-5.2-28-40.646,27.963,36.758.1,1.1.958-41.546-24.181-42.141,24.25,34.843-.253-86.072v-.286l.008.282,1.605,67.836L786,534.178l-21.966,33.4.481,37.162L784.8,568.47l-20.2,41.732.268,20.664,29.492-50.521-29.4,57.73Z" transform="translate(-360.315 -239.218)" fill="#e6e6e6"/>
    <path id="Path_396" data-name="Path 396" d="M162.547,684.4l25.564-38.016L162.6,688.493l.053,4.278q-2.8.021-5.544-.093l1.268-54.988-.035-.424.047-.082.121-5.2-28-40.646L158.477,628.1l.1,1.1.958-41.546-24.181-42.141,24.25,34.843-.253-86.072v-.286l.008.282,1.605,67.836L183,534.556l-21.966,33.4.481,37.162L181.8,568.849l-20.2,41.732.268,20.664,29.492-50.521-29.4,57.73Z" transform="translate(-127.795 -239.364)" fill="#e6e6e6"/>
    <path id="Path_397" data-name="Path 397" d="M677.3,469.057s-9.484-26.87-16.333-18.44,10.537,22.655,10.537,22.655Z" transform="translate(-331.726 -222.006)" fill="#ffb9b9"/>
    <path id="Path_398" data-name="Path 398" d="M727.388,438.781l-5.705,2.114s-2.725,12.111-1.671,14.218,1.581.527,0,4.742-6.322,15.279-6.849,16.859-30.558-10.01-30.558-15.806c0,0-6.322,7.376-9.483,8.957,0,0,34.773,25.289,39.514,28.45s7.376,1.581,11.591-2.107,22.128-34.246,22.128-34.246Z" transform="translate(-337.027 -218.074)" fill="#575a89"/>
    <path id="Path_399" data-name="Path 399" d="M709.513,774.08s.527,5.8,1.581,6.322,8.957,13.7,0,16.333-14.225,1.581-16.333,2.634-38.988,3.161-39.514-2.634,17.913-6.849,17.913-6.849,16.859-11.064,19.494-16.859S709.513,774.08,709.513,774.08Z" transform="translate(-330.13 -346.062)" fill="#2f2e41"/>
    <path id="Path_400" data-name="Path 400" d="M887.878,760.354s12.645,21.6,9.483,24.236-33.947,12.234-38.461,12.645c-5.8.527-10.01-4.215-5.269-6.849s14.752-13.7,14.752-17.386v-9.483Z" transform="translate(-405.843 -342.073)" fill="#2f2e41"/>
    <path id="Path_401" data-name="Path 401" d="M845.783,530.537s11.064,13.7-6.322,35.826l-28.977,36.88s17.913,28.45,18.44,43.2,4.215,11.591,5.269,17.913,5.8,3.161,2.107,7.9-17.386,8.957-21.6,5.269a13.061,13.061,0,0,1-4.215-10.537c0-2.107-7.376-14.225-7.9-17.913s-20.021-33.719-20.021-33.719-6.322-17.913,1.054-27.924,12.25-24.208,12.25-24.208-21.734,26.315-37.013,32.638c0,0-5.8,1.054-4.742,3.688s0,4.215-1.581,6.849-8.344,53.467-12.032,61.37-2.107,12.645-6.322,15.279-23.182.527-23.182-2.107,2.634-9.483,4.215-13.172,9.924-66.639,8.871-74.015.527-17.386,8.43-21.6S780.452,533.7,782.56,533.7,845.783,530.537,845.783,530.537Z" transform="translate(-351.63 -253.455)" fill="#2f2e41"/>
    <circle id="Ellipse_62" data-name="Ellipse 62" cx="22.128" cy="22.128" r="22.128" transform="translate(366.126 150.108)" fill="#ffb9b9"/>
    <path id="Path_402" data-name="Path 402" d="M773.672,363.319s6.849,12.118,15.279,13.7-22.128,25.816-22.128,25.816-7.376-23.182-13.7-24.236S773.672,363.319,773.672,363.319Z" transform="translate(-367.505 -188.975)" fill="#ffb9b9"/>
    <path id="Path_403" data-name="Path 403" d="M752.014,419.635c0,6.849,20.547,26.343,20.547,26.343l19.494,16.333s.527,5.8,2.634,6.322,4.742.527,2.634,3.688-7.376,10.01-2.634,11.064A38.737,38.737,0,0,0,799,483.8c1.265.074,2.75.142,4.421.206,3.9.137,8.777.227,14.062.19q2.253-.008,4.584-.053c19.921-.4,43-2.687,41.111-10.237-3.161-12.645-1.054-16.859-7.9-23.709s-17.913-30.558-17.913-30.558-22.128-37.407-40.568-37.407l-3.83-1.006a8.771,8.771,0,0,0-9.573,3.677c-3.7,5.632-9.531,14.094-12.94,16.823-5.269,4.215-6.091,1.191-6.091,1.191S752.014,412.786,752.014,419.635Z" transform="translate(-367.448 -195.767)" fill="#575a89"/>
    <path id="Path_404" data-name="Path 404" d="M822.749,574.27s-15.279,23.709-5.8,27.924,14.752-24.762,14.752-24.762Z" transform="translate(-391.293 -270.319)" fill="#ffb9b9"/>
    <path id="Path_405" data-name="Path 405" d="M757.573,338.71c-.849-.107-1.118-1.179-1.261-2.023-.765-4.52-4.134-8.805-8.659-9.535a12.26,12.26,0,0,0-5.159.416,19.575,19.575,0,0,0-6.62,3.258,10.919,10.919,0,0,1-3.308,2.077c-.83.244-4.356,1.811-5.18,2.076-1.811.583-3.31,2.479-5.175,2.1-1.785-.359-2.462-2.514-2.749-4.311-.653-4.1,1.691-10.206,4.021-13.636,1.769-2.6,4.761-4.1,7.754-5.076a55.709,55.709,0,0,1,10.753-2.137c4.922-.581,10.02-.89,14.737.632s9.012,5.243,9.892,10.12c.183,1.016.218,2.057.443,3.064.548,2.458,2.175,4.524,3.124,6.857a13.2,13.2,0,0,1-.4,10.7c-1.314,2.642-3.6,5.181-3.105,8.09l-4.066-3.206a2.953,2.953,0,0,1-1.357-3.456l.591-5.091a4.479,4.479,0,0,0-.264-2.752C759.775,333.73,758.99,338.888,757.573,338.71Z" transform="translate(-354.854 -168.973)" fill="#2f2e41"/>
    <path id="Path_406" data-name="Path 406" d="M833.04,468.477l-4.963,20.637c5.005.179,11.628.274,18.646.137,1.77-5.311,3.462-10.848,4.758-16.032,4.742-18.967-3.161-47.944-7.376-61.643s-14.752-17.386-14.752-17.386a48.047,48.047,0,0,0-12.118,6.322C810.385,405.254,833.04,468.477,833.04,468.477Z" transform="translate(-392.1 -200.879)" opacity="0.1" style="isolation: isolate"/>
    <path id="Path_407" data-name="Path 407" d="M832.141,474.056l-5.169,21.485c1.265.074,2.75.142,4.42.206,3.9.137,8.778.227,14.062.19,1.9-5.643,3.741-11.6,5.126-17.139,4.742-18.967-3.161-47.944-7.376-61.643s-13.435,1.317-13.435,1.317,3.688-8.957-3.161-4.215S832.141,474.056,832.141,474.056Z" transform="translate(-395.416 -207.512)" opacity="0.1" style="isolation: isolate"/>
    <path id="Path_408" data-name="Path 408" d="M825.922,392.475s10.537,3.688,14.752,17.386,12.118,42.676,7.376,61.643S833.3,514.179,833.3,514.179s-10.01-7.376-13.7-5.8l10.01-41.622S806.955,403.539,813.8,398.8A48.05,48.05,0,0,1,825.922,392.475Z" transform="translate(-390.777 -200.218)" fill="#575a89"/>
    <path id="Path_409" data-name="Path 409" d="M668.952,461.8v13.669H670.3V463.823" transform="translate(-335.419 -226.948)" fill="#3f3d56"/>
    <path id="Path_410" data-name="Path 410" d="M670.3,435.539V401.593h-1.351v31.924" transform="translate(-335.419 -203.734)" fill="#3f3d56"/>
    <circle id="Ellipse_63" data-name="Ellipse 63" cx="16.611" cy="16.611" r="16.611" transform="translate(317.597 168.346)" fill="#21deba"/>
    <rect id="Rectangle_90" data-name="Rectangle 90" width="198.087" height="136.491" transform="translate(83.544 316.532)" fill="#e6e6e6"/>
    <path id="Path_411" data-name="Path 411" d="M431.076,273.235h0c-16.821,0-30.458,15.133-30.458,33.8v23.718h7.295l4.223-8.788-1.056,8.788h46.886l3.839-7.989-.96,7.989h5.279V312.132C466.124,290.65,450.432,273.235,431.076,273.235Z" transform="translate(-231.948 -154.238)" fill="#2f2e41"/>
    <path id="Path_412" data-name="Path 412" d="M329.145,525.45l-18.7,7.948-64.985,52.83c-2.39,2.936-24.311,48.154-17.3,52.362s32.259,16.831,33.661,8.415,8.883-44.414,8.883-44.414l62.648-56.1Z" transform="translate(-164.917 -251.493)" fill="#2f2e41"/>
    <path id="Path_413" data-name="Path 413" d="M244.184,710.707l-7.948,23.376s8.415,8.883,4.208,16.363V776.16H233.9l-1.87-13.558s-7.455,13.387-11.22,13.558c-7.893.359-23.525,3.167-23.992-1.041s11.837-8.31,11.837-8.31l13.091-36,5.61-21.973Z" transform="translate(-153.356 -322.208)" fill="#2f2e41"/>
    <path id="Path_414" data-name="Path 414" d="M400.444,501.474s4.208,41.142-7.948,48.622-65.92,31.324-65.92,31.324,22.908,21.506,18.233,26.649S319.1,627.236,316.29,624.431s-34.129-36.466-30.389-47.219,55.635-45.817,55.635-45.817l6.078-21.973,1.87-17.766,19.636-12.623Z" transform="translate(-187.594 -233.595)" fill="#2f2e41"/>
    <circle id="Ellipse_64" data-name="Ellipse 64" cx="19.49" cy="19.49" r="19.49" transform="translate(171.941 133.111)" fill="#a0616a"/>
    <path id="Path_415" data-name="Path 415" d="M448.17,340.922s-.935,17.766,13.558,23.376-36,42.077-36,42.077V365.7s6.545-7.013,0-17.766Z" transform="translate(-241.631 -180.339)" fill="#a0616a"/>
    <path id="Path_416" data-name="Path 416" d="M496.387,476.75l-3.74,18.233-11.22,62.647s9.35,26.649-3.273,26.181-6.545-28.986-6.545-28.986l6.545-51.895v-20.1Z" transform="translate(-258.759 -232.714)" fill="#a0616a"/>
    <path id="Path_417" data-name="Path 417" d="M363.175,462.292l-4.208,16.363L339.8,524.94s-13.091,21.973-2.338,21.506,10.753-21.506,10.753-21.506l21.973-37.4V466.5Z" transform="translate(-205.96 -227.139)" fill="#a0616a"/>
    <path id="Path_418" data-name="Path 418" d="M367.259,684.487l15.428,14.493s10.753-2.338,14.961,10.285,7.013,20.571,7.013,20.571l-5.61,3.273-7.013-9.818s-4.208,17.766-8.415,19.168-25.246,10.753-23.376,0L370.531,727.5s1.4-16.831-2.805-18.233S352.3,693.837,352.3,693.837Z" transform="translate(-213.316 -312.819)" fill="#2f2e41"/>
    <path id="Path_419" data-name="Path 419" d="M412.692,381.208c-.246,6.577,5.973,11.746,12.286,9.886a7.377,7.377,0,0,0,4.932-4.395,22.952,22.952,0,0,1,12.134-11.932s28.073,6.321,27.605,17.542-17.766,28.519-17.766,28.519,2.338,62.18-10.285,61.245a27.076,27.076,0,0,1-5.61-11.22c-6.335,10.011-49.839,3.079-44.882-13.558,0,0-3.74,6.545-4.208,3.74s3.74-71.53,3.74-71.53l22.295-14.737Z" transform="translate(-226.644 -193.39)" fill="#21deba"/>
    <path id="Path_420" data-name="Path 420" d="M496.986,395.45l.313.176a6.45,6.45,0,0,1,3.294,5.626l0,34.7c.007,1.909-2.647,14.217-1.187,15.447,1.8,1.532-4.338,37.037-7.784,38.186-5.61,1.87-24.031-1.627-24.5-4.9s6.353-37.962,7.756-37.962c1.1,0,7.64-33.525,12.9-47.859a6.451,6.451,0,0,1,9.215-3.409Z" transform="translate(-257.582 -201.047)" fill="#21deba"/>
    <path id="Path_421" data-name="Path 421" d="M387.253,396.09l-6.545,1.87-7.48,32.259s-13.945,38.455-11.14,41.728,20.3,2.8,20.3,2.8Z" transform="translate(-216.947 -201.612)" fill="#21deba"/>
    <path id="Path_422" data-name="Path 422" d="M442.9,284.353a15.974,15.974,0,0,0-12.6-6.432h-.6c-11.529,0-20.876,10.433-20.876,23.3h3.863l.624-4.749.915,4.749h22.912l1.92-4.018-.48,4.018h4.508q3.155,15.669-9.067,31.338h7.678l3.839-8.035-.96,8.035h14.637l2.879-18.481C462.088,300.24,454.047,288.5,442.9,284.353Z" transform="translate(-235.111 -156.045)" fill="#2f2e41"/>
    <rect id="Rectangle_91" data-name="Rectangle 91" width="545.583" height="1.229" transform="translate(0 453.358)" fill="#3f3d56"/>
    <path id="Path_423" data-name="Path 423" d="M678.845,426.736c-3.989,3.162-9.512,2.836-9.512,2.836s.944-5.452,4.932-8.614,9.512-2.836,9.512-2.836S682.834,423.575,678.845,426.736Z" transform="translate(-335.566 -210.104)" fill="#21deba"/>
    <path id="Path_424" data-name="Path 424" d="M657.658,419.738c3.571,3.627,3.838,9.154,3.838,9.154s-5.522-.354-9.092-3.981-3.838-9.154-3.838-9.154S654.087,416.111,657.658,419.738Z" transform="translate(-327.558 -209.195)" fill="#21deba"/>
    <path id="Path_425" data-name="Path 425" d="M322.052,101.222a26.024,26.024,0,0,0-3.109.193,36.629,36.629,0,0,0-67.039,0,25.746,25.746,0,0,0-28.815,23.538H347.757a25.792,25.792,0,0,0-25.705-23.731Z" transform="translate(-163.492 -79.554)" fill="#f2f2f2"/>
    <path id="Path_426" data-name="Path 426" d="M540.589,173.047a15.642,15.642,0,0,0-1.869.116,22.023,22.023,0,0,0-40.307,0,15.479,15.479,0,0,0-17.325,14.152h74.956A15.507,15.507,0,0,0,540.589,173.047Z" transform="translate(-262.978 -110.581)" fill="#f2f2f2"/>
  </g>
</svg>
