<svg xmlns="http://www.w3.org/2000/svg" width="547.329" height="383.823" viewBox="0 0 547.329 383.823">
  <g id="Group_45" data-name="Group 45" transform="translate(-191 -152.079)">
    <path id="Path_941" data-name="Path 941" d="M719.97,729.193s4.448-14.971-12.472-23.5Z" transform="translate(-163.516 -206.897)" fill="#e6e6e6"/>
    <path id="Path_942" data-name="Path 942" d="M730.561,735.339s1.764-14.776,21.471-15.7Z" transform="translate(-173.552 -212.963)" fill="#e6e6e6"/>
    <path id="Path_943" data-name="Path 943" d="M875.766,741.651c-3.13,12.876-167.441,11.795-167.192,0C711.7,728.775,876.014,729.856,875.766,741.651Z" transform="translate(-165.114 -215.004)" fill="#e6e6e6"/>
    <circle id="Ellipse_182" data-name="Ellipse 182" cx="2.653" cy="2.653" r="2.653" transform="translate(245.081 183.527)" fill="#fff"/>
    <circle id="Ellipse_183" data-name="Ellipse 183" cx="2.653" cy="2.653" r="2.653" transform="translate(255.15 183.527)" fill="#fff"/>
    <circle id="Ellipse_184" data-name="Ellipse 184" cx="2.653" cy="2.653" r="2.653" transform="translate(265.22 183.527)" fill="#fff"/>
    <rect id="Rectangle_266" data-name="Rectangle 266" width="336.902" height="1.872" transform="translate(241.288 192.413)" fill="#fff"/>
    <path id="Path_953" data-name="Path 953" d="M884.238,633.2s-1.95-6.608,1.227-4.452,12.425,5.393,9.093,10.578-23.274,33.844-26.5,28.165c-1.79-3.153,4.448-29.895,4.448-29.895s4.438-1.026,5.073,0S884.238,633.2,884.238,633.2Z" transform="translate(-208.649 -172.096)" fill="#2f2e41"/>
    <path id="Path_954" data-name="Path 954" d="M684.443,207.972l-.6,10.724L676.1,234.191,701.725,233l-1.788-16.09,1.192-6.555Z" transform="translate(-37.465 84.48)" fill="#ffb8b8"/>
    <path id="Path_955" data-name="Path 955" d="M832.3,370.618s4.172,4.767,14.9-.6l8.343,40.521,1.192,36.352L820.977,445.7l.6-36.948Z" transform="translate(-188.3 -59.695)" fill="#d1d1d1"/>
    <path id="Path_956" data-name="Path 956" d="M805.636,504.937s3.85,18.913,11.047,14.331-1.551-17.86-1.551-17.86Z" transform="translate(-181.625 -116.868)" fill="#ffb8b8"/>
    <path id="Path_957" data-name="Path 957" d="M712.568,556.734l-.6,10.131,9.535,2.98V556.138Z" transform="translate(-53.075 -67.029)" fill="#ffb8b8"/>
    <path id="Path_958" data-name="Path 958" d="M657.11,369.394v59.593l33.968,29.2,8.342-14.3L675.583,424.22l5.959-14.9,25.029-16.091V369.99Z" transform="translate(-29.201 14.235)" fill="#2f2e41"/>
    <path id="Path_959" data-name="Path 959" d="M856.848,543.174l3.576,30.393,1.192,40.521H877.11s5.362-35.756-.6-44.695l4.767-39.326-4.767-15.494Z" transform="translate(-203.91 -122.597)" fill="#2f2e41"/>
    <path id="Path_960" data-name="Path 960" d="M869.637,702.64s.6-2.384-3.576-2.384-5.959.6-5.959,1.192a25.777,25.777,0,0,1-.6,2.98s-10.724,26.817,0,25.625,12.515-6.554,12.515-6.554l1.192-17.282s-1.192-1.459-1.788-1.325S869.637,702.64,869.637,702.64Z" transform="translate(-202.992 -203.4)" fill="#2f2e41"/>
    <circle id="Ellipse_187" data-name="Ellipse 187" cx="13.111" cy="13.111" r="13.111" transform="translate(643.404 272.19)" fill="#ffb8b8"/>
    <path id="Path_961" data-name="Path 961" d="M858.614,365.962l-4.172-4.767,8.065-10.094,3.257,3.534,19.072,8.343-5.362,52.442s-.6,15.494,2.98,26.221c0,0-7.747,9.535-19.666,7.151l-15.494,2.98S845.5,374.9,858.614,365.962Z" transform="translate(-199.716 -51.461)" fill="#575a89"/>
    <path id="Path_962" data-name="Path 962" d="M674.529,234.081l.685-9.932-3.068,3.972-16.09,11.919,1.788,66.148,5.362,2.98,8.94-70.913Z" transform="translate(-28.742 77.44)" fill="#575a89"/>
    <path id="Path_963" data-name="Path 963" d="M811.973,381.631l-4.172.6s-2.98,5.362-2.98,5.959-1.192,31.584-1.192,31.584-2.086,31.286,1.49,37.246l10.55-11.351-3.7-10.4Z" transform="translate(-180.488 -64.746)" fill="#575a89"/>
    <path id="Path_964" data-name="Path 964" d="M705.921,483.892l.822,19.947-2.478-2.133Z" transform="translate(-49.721 -35.59)" opacity="0.3"/>
    <path id="Path_965" data-name="Path 965" d="M740.884,497.981l-.87.431-.932,26.722,2.154-2.772Z" transform="translate(-64.872 -41.721)" opacity="0.3"/>
    <path id="Path_967" data-name="Path 967" d="M928.193,512.457s-2.98,19.072,5.362,17.282,4.767-17.282,4.767-17.282Z" transform="translate(-234.731 -121.677)" fill="#ffb8b8"/>
    <path id="Path_968" data-name="Path 968" d="M902.488,372.136h5.362s3.576,1.788,4.172,7.151,8.939,29.2,8.939,29.2,9.535,39.332,8.939,44.695H915l1.192-10.724L900.1,399.551Z" transform="translate(-222.733 -60.615)" fill="#575a89"/>
    <path id="Path_978" data-name="Path 978" d="M840.708,296.575l-2.5-1s5.226-5.753,12.5-5.253l-2.045-2.252s5-2,9.543,3.252a44.383,44.383,0,0,1,6.876,9.664h2.677l-1.117,2.46,3.91,2.46-4.013-.442a13.745,13.745,0,0,1,.109,4.083A5.279,5.279,0,0,1,864.713,313h0s-3.1-6.416-3.1-7.416v2.5s-2.5-2.252-2.5-3.752l-1.363,1.751-.682-2.752-8.409,2.752,1.363-2.252-5.226.751,2.045-2.752s-5.908,3.252-6.135,6a13.209,13.209,0,0,1-1.957,5.359S834.119,300.328,840.708,296.575Z" transform="translate(-195.346 -23.869)" fill="#2f2e41"/>
    <rect id="Rectangle_246" data-name="Rectangle 246" width="387.314" height="248.053" transform="translate(191.165 152.298)" fill="#e6e6e6"/>
    <rect id="Rectangle_264" data-name="Rectangle 264" width="387.314" height="16.455" transform="translate(191 152.079)" fill="#21deba"/>
    <rect id="Rectangle_247" data-name="Rectangle 247" width="365.164" height="94.56" transform="translate(202.56 181.806)" fill="#fff"/>
    <rect id="Rectangle_259" data-name="Rectangle 259" width="365.164" height="94.56" transform="translate(202.791 291.904)" fill="#fff"/>
    <g id="Group_31" data-name="Group 31" transform="translate(325.871 202.724)">
      <rect id="Rectangle_250" data-name="Rectangle 250" width="197.627" height="8.808" fill="#e6e6e6"/>
      <rect id="Rectangle_251" data-name="Rectangle 251" width="70.463" height="8.808" transform="translate(0 22.02)" fill="#e6e6e6"/>
      <rect id="Rectangle_252" data-name="Rectangle 252" width="140.376" height="8.808" transform="translate(0 44.039)" fill="#e6e6e6"/>
    </g>
    <g id="Group_30" data-name="Group 30" transform="translate(246.599 196.12)">
      <path id="Path_944" data-name="Path 944" d="M313.662,235.225a32.826,32.826,0,0,1-5.366,18.041,32.1,32.1,0,0,1-2.414,3.242,33.14,33.14,0,0,1-7.074,6.285q-1.079.715-2.219,1.341a32.722,32.722,0,0,1-12.822,3.949c-1.023.1-2.063.147-3.113.147a32.877,32.877,0,0,1-8.517-1.114,31.624,31.624,0,0,1-4.608-1.6q-1.144-.494-2.237-1.075a32.512,32.512,0,0,1-4.972-3.22q-1.086-.845-2.094-1.782a33.006,33.006,0,1,1,55.435-24.213Z" transform="translate(-247.648 -202.215)" fill="#e6e6e6"/>
      <path id="Path_945" data-name="Path 945" d="M304.673,282.152s3,8.348.67,13.02,3.672,10.016,3.672,10.016,15.692-8.013,13.688-12.019-5.341-9.348-4.674-12.686Z" transform="translate(-279.666 -246.161)" fill="#ffb8b8"/>
      <circle id="Ellipse_185" data-name="Ellipse 185" cx="10.684" cy="10.684" r="10.684" transform="translate(20.167 17.796)" fill="#ffb8b8"/>
      <path id="Path_946" data-name="Path 946" d="M297.591,324.463a31.628,31.628,0,0,1-4.608-1.6l.286-8.11,3-6.68a13.965,13.965,0,0,0,2.159,1.391c.183.1.366.2.568.291,2.818,1.361,7.421,2.559,11.882-.78a16.987,16.987,0,0,0,4.105-4.621l8.331,4.721.438,5.115.507,5.951q-1.079.715-2.219,1.341a32.722,32.722,0,0,1-12.822,3.948c-1.023.1-2.063.147-3.112.147A32.874,32.874,0,0,1,297.591,324.463Z" transform="translate(-273.102 -259.565)" fill="#575a89"/>
      <path id="Path_947" data-name="Path 947" d="M288.892,301.44v.013l-.42,4.36-.221,2.306-.325,3.429-1.083,11.279a31.633,31.633,0,0,1-4.608-1.6q-1.144-.494-2.237-1.075a32.512,32.512,0,0,1-4.972-3.22l-1.188-5.484.091-.061Z" transform="translate(-262.353 -257.928)" fill="#575a89"/>
      <path id="Path_948" data-name="Path 948" d="M342.832,316.281a32.722,32.722,0,0,1-12.822,3.949c.244-4.057.6-7.976,1-11.465.208-1.79.427-3.463.659-4.989.724-4.9,1.5-8.232,2.063-8.682l3.693,2.437,15.024,5.34-.325,5.783a33.14,33.14,0,0,1-7.074,6.285Q343.972,315.657,342.832,316.281Z" transform="translate(-293.892 -254.365)" fill="#575a89"/>
      <path id="Path_949" data-name="Path 949" d="M273.865,329.318q-1.086-.845-2.094-1.782l.572-3.7.427-.061,1.911-.273,4.157,9.038a32.51,32.51,0,0,1-4.972-3.22Z" transform="translate(-261.192 -270.315)" fill="#575a89"/>
      <path id="Path_950" data-name="Path 950" d="M370.451,314.522a32.088,32.088,0,0,1-2.414,3.242,33.14,33.14,0,0,1-7.074,6.285q-1.079.715-2.219,1.341l-.394-1.721,2.106-5.57,2.566-6.784,5.34.67A31.271,31.271,0,0,1,370.451,314.522Z" transform="translate(-309.803 -263.473)" fill="#575a89"/>
      <path id="Path_951" data-name="Path 951" d="M312.629,237.639a12.481,12.481,0,0,0-7.1-5.427l-2.17,1.737.844-2.025a11.488,11.488,0,0,0-2.145-.122l-1.953,2.511.809-2.425a12.362,12.362,0,0,0-8.528,5.073c-2.486,3.584-2.905,8.568-.46,12.181.67-2.063,1.486-4,2.157-6.06a6.1,6.1,0,0,0,1.59.008l.817-1.905.228,1.824c2.531-.221,6.285-.7,8.684-1.148l-.233-1.4,1.4,1.163c.735-.169,1.172-.323,1.135-.44,1.784,2.877,3.552,4.714,5.337,7.591C313.712,244.715,314.908,241.341,312.629,237.639Z" transform="translate(-271.591 -218.822)" fill="#2f2e41"/>
      <ellipse id="Ellipse_186" data-name="Ellipse 186" cx="0.723" cy="1.447" rx="0.723" ry="1.447" transform="translate(39.723 26.697)" fill="#ffb8b8"/>
    </g>
    <path id="Path_952" data-name="Path 952" d="M313.711,408.167a32.85,32.85,0,0,1-5.37,18.053,32.1,32.1,0,0,1-2.416,3.245,33.163,33.163,0,0,1-7.079,6.29q-1.08.716-2.221,1.341a32.745,32.745,0,0,1-12.831,3.952c-1.024.1-2.064.147-3.114.147a32.9,32.9,0,0,1-8.523-1.115,31.647,31.647,0,0,1-4.611-1.6q-1.145-.495-2.238-1.076a32.532,32.532,0,0,1-4.975-3.223q-1.086-.846-2.095-1.783a33.026,33.026,0,1,1,55.474-24.23Z" transform="translate(-2.704 -69.466)" fill="#21deba"/>
    <g id="Group_32" data-name="Group 32" transform="translate(262.564 323.282)">
      <rect id="Rectangle_273" data-name="Rectangle 273" width="4.049" height="30.828" transform="translate(13.39)" fill="#fff"/>
      <rect id="Rectangle_274" data-name="Rectangle 274" width="4.049" height="30.828" transform="translate(30.828 13.39) rotate(90)" fill="#fff"/>
    </g>
    <g id="Group_33" data-name="Group 33" transform="translate(320.916 312.823)">
      <rect id="Rectangle_250-2" data-name="Rectangle 250" width="197.627" height="8.808" fill="#e6e6e6"/>
      <rect id="Rectangle_251-2" data-name="Rectangle 251" width="70.463" height="8.808" transform="translate(0 22.02)" fill="#e6e6e6"/>
      <rect id="Rectangle_252-2" data-name="Rectangle 252" width="140.376" height="8.808" transform="translate(0 44.039)" fill="#e6e6e6"/>
    </g>
    <g id="Group_29" data-name="Group 29" transform="translate(670.438 405.231)">
      <path id="Path_966" data-name="Path 966" d="M961.191,558.446a33.916,33.916,0,0,1-13.416,27.032q-.907.69-1.858,1.322-.244.162-.487.311c-.591.379-1.191.731-1.8,1.064q-.365.2-.731.392c-.049.027-.1.049-.144.072-.311.162-.622.32-.938.469a33.224,33.224,0,0,1-4.262,1.687,33.679,33.679,0,0,1-7.107,1.443q-1.584.149-3.2.149a33.8,33.8,0,0,1-8.758-1.146,32.61,32.61,0,0,1-4.3-1.457l-.438-.183q-1.028-.447-2.016-.96l-.284-.149q-1.076-.561-2.1-1.2a33.993,33.993,0,0,1-3.013-2.111q-.737-.569-1.434-1.191c-.244-.207-.483-.427-.717-.64a34.639,34.639,0,0,1-2.593-2.681c-.325-.374-.641-.753-.947-1.141a33.946,33.946,0,1,1,60.549-21.083Z" transform="translate(-893.3 -524.497)" fill="#e6e6e6"/>
      <circle id="Ellipse_188" data-name="Ellipse 188" cx="5.087" cy="5.087" r="5.087" transform="translate(39.452 38.982)" fill="#2f2e41"/>
      <path id="Path_969" data-name="Path 969" d="M990.367,610.322a5.088,5.088,0,0,1,4.479,7.5,5.086,5.086,0,1,0-8.45-5.589,5.075,5.075,0,0,1,3.972-1.913Z" transform="translate(-944.41 -571.199)" fill="#2f2e41"/>
      <circle id="Ellipse_189" data-name="Ellipse 189" cx="14.945" cy="14.945" r="14.945" transform="translate(20.088 14.17)" fill="#2f2e41"/>
      <path id="Path_970" data-name="Path 970" d="M939.453,561.568A14.942,14.942,0,0,1,960.165,560c-.122-.116-.244-.233-.37-.346a14.945,14.945,0,1,0-19.858,22.338c.127.113.257.219.387.327a14.942,14.942,0,0,1-.87-20.752Z" transform="translate(-916.15 -541.726)" fill="#2f2e41"/>
      <circle id="Ellipse_190" data-name="Ellipse 190" cx="9.625" cy="9.625" r="9.625" transform="translate(25.28 24.682)" fill="#a0616a"/>
      <path id="Path_971" data-name="Path 971" d="M954.359,607.308s1.266,11.652-.76,12.918,11.652,3.039,11.652,3.039-2.027-12.665,3.039-15.958Z" transform="translate(-926.292 -569.961)" fill="#a0616a"/>
      <path id="Path_972" data-name="Path 972" d="M955.518,638.213v3.68c-.591.379-1.191.731-1.8,1.065q-.366.2-.731.392v.072h-.144c-.311.162-.622.32-.938.469a33.21,33.21,0,0,1-4.262,1.687,33.674,33.674,0,0,1-7.107,1.443q-1.584.149-3.2.149a33.8,33.8,0,0,1-8.758-1.146,32.6,32.6,0,0,1-4.3-1.457l-.437-.183q-1.028-.447-2.016-.96l-.284-.149q-1.076-.561-2.1-1.2a34.038,34.038,0,0,1-3.013-2.111q-.737-.569-1.434-1.191c-.244-.208-.483-.427-.717-.64a34.618,34.618,0,0,1-2.593-2.681,12.485,12.485,0,0,1,.532-2.25l0,0a4.711,4.711,0,0,1,.244-.559c1.091-2.043,3.062-2.548,5.516-2.656,1.38-.061,2.909,0,4.528-.013.853,0,1.732-.036,2.62-.117,5.574-.505,4.56-3.8,4.814-5.57.248-1.718,1.8-.23,1.9-.131l0,0a19.669,19.669,0,0,0,10.115,1.777h0a17.389,17.389,0,0,1,1.79-.135c1.57-.018,1.227.433.69.8a7.093,7.093,0,0,1-.825.464s-.252,1.52-.505,3.8c-.244,2.183,3.937,3.206,4.284,3.283a.044.044,0,0,0,.023.009,8.419,8.419,0,0,1,4.641.117,5.5,5.5,0,0,1,3.463,3.937Z" transform="translate(-903.389 -578.828)" fill="#21deba"/>
      <path id="Path_973" data-name="Path 973" d="M931.761,650.077c-.013.411-.036.792-.061,1.146l-.437-.183q-1.028-.447-2.016-.96l-.284-.149q-1.076-.561-2.1-1.2a10.584,10.584,0,0,1,.117-1.073A19.636,19.636,0,0,0,925.4,636.64c-.122-.248-.194-.383-.194-.383a3.68,3.68,0,0,1,4.3,0,1.673,1.673,0,0,1,.419.37C931.607,638.613,931.936,645.775,931.761,650.077Z" transform="translate(-910.817 -585.483)" fill="#2f2e41"/>
      <path id="Path_974" data-name="Path 974" d="M995.211,655.524c0,.154-.013.311-.023.469a33.2,33.2,0,0,1-4.262,1.687l-.086-2.156-.325-8.559a1.358,1.358,0,0,1,.158-.712,1.382,1.382,0,0,1,1.233-.752H995c.154,0,.261.311.334.875A68.89,68.89,0,0,1,995.211,655.524Z" transform="translate(-946.672 -590.93)" fill="#2f2e41"/>
      <path id="Path_975" data-name="Path 975" d="M797.018,443.487v9.628h2.229l2.837-3.039-.38,3.039h9.853l-.609-3.039,1.219,3.039h1.571v-9.628Z" transform="translate(-770.345 -421.211)" fill="#2f2e41"/>
      <ellipse id="Ellipse_191" data-name="Ellipse 191" cx="0.76" cy="1.393" rx="0.76" ry="1.393" transform="translate(24.394 30.888)" fill="#a0616a"/>
      <ellipse id="Ellipse_192" data-name="Ellipse 192" cx="0.76" cy="1.393" rx="0.76" ry="1.393" transform="translate(43.898 30.888)" fill="#a0616a"/>
      <path id="Path_976" data-name="Path 976" d="M1008.153,655.752q-.907.69-1.858,1.322-.244.163-.487.311c-.591.379-1.191.731-1.8,1.064q-.366.2-.731.392v-7.166s.979.78,2.53,2.079C1006.489,654.327,1007.283,655,1008.153,655.752Z" transform="translate(-953.679 -594.32)" fill="#21deba"/>
    </g>
    <circle id="Ellipse_194" data-name="Ellipse 194" cx="2.722" cy="2.722" r="2.722" transform="translate(213.894 157.542)" fill="#fff"/>
    <circle id="Ellipse_195" data-name="Ellipse 195" cx="2.722" cy="2.722" r="2.722" transform="translate(224.226 157.542)" fill="#fff"/>
    <circle id="Ellipse_246" data-name="Ellipse 246" cx="2.722" cy="2.722" r="2.722" transform="translate(203.535 157.542)" fill="#fff"/>
  </g>
</svg>
