<svg id="Mesh" xmlns="http://www.w3.org/2000/svg" xmlns:xlink="http://www.w3.org/1999/xlink" width="741" height="315" viewBox="0 0 741 315">
  <defs>
    <clipPath id="clip-path">
      <rect width="741" height="315" fill="none"/>
    </clipPath>
  </defs>
  <g id="Mesh-2" data-name="Mesh" transform="translate(-132 -398.458)" opacity="0.663">
    <g id="Repeat_Grid_1" data-name="Repeat Grid 1" transform="translate(132 398.458)" opacity="0.44" clip-path="url(#clip-path)">
      <g transform="translate(-139 -180)">
        <circle id="Ellipse_9" data-name="Ellipse 9" cx="5" cy="5" r="5" transform="translate(139 180)" fill="#696969"/>
      </g>
      <g transform="translate(-109 -180)">
        <circle id="Ellipse_9-2" data-name="Ellipse 9" cx="5" cy="5" r="5" transform="translate(139 180)" fill="#696969"/>
      </g>
      <g transform="translate(-79 -180)">
        <circle id="Ellipse_9-3" data-name="Ellipse 9" cx="5" cy="5" r="5" transform="translate(139 180)" fill="#696969"/>
      </g>
      <g transform="translate(-49 -180)">
        <circle id="Ellipse_9-4" data-name="Ellipse 9" cx="5" cy="5" r="5" transform="translate(139 180)" fill="#696969"/>
      </g>
      <g transform="translate(-19 -180)">
        <circle id="Ellipse_9-5" data-name="Ellipse 9" cx="5" cy="5" r="5" transform="translate(139 180)" fill="#696969"/>
      </g>
      <g transform="translate(11 -180)">
        <circle id="Ellipse_9-6" data-name="Ellipse 9" cx="5" cy="5" r="5" transform="translate(139 180)" fill="#696969"/>
      </g>
      <g transform="translate(41 -180)">
        <circle id="Ellipse_9-7" data-name="Ellipse 9" cx="5" cy="5" r="5" transform="translate(139 180)" fill="#696969"/>
      </g>
      <g transform="translate(71 -180)">
        <circle id="Ellipse_9-8" data-name="Ellipse 9" cx="5" cy="5" r="5" transform="translate(139 180)" fill="#696969"/>
      </g>
      <g transform="translate(101 -180)">
        <circle id="Ellipse_9-9" data-name="Ellipse 9" cx="5" cy="5" r="5" transform="translate(139 180)" fill="#696969"/>
      </g>
      <g transform="translate(131 -180)">
        <circle id="Ellipse_9-10" data-name="Ellipse 9" cx="5" cy="5" r="5" transform="translate(139 180)" fill="#696969"/>
      </g>
      <g transform="translate(161 -180)">
        <circle id="Ellipse_9-11" data-name="Ellipse 9" cx="5" cy="5" r="5" transform="translate(139 180)" fill="#696969"/>
      </g>
      <g transform="translate(191 -180)">
        <circle id="Ellipse_9-12" data-name="Ellipse 9" cx="5" cy="5" r="5" transform="translate(139 180)" fill="#696969"/>
      </g>
      <g transform="translate(221 -180)">
        <circle id="Ellipse_9-13" data-name="Ellipse 9" cx="5" cy="5" r="5" transform="translate(139 180)" fill="#696969"/>
      </g>
      <g transform="translate(251 -180)">
        <circle id="Ellipse_9-14" data-name="Ellipse 9" cx="5" cy="5" r="5" transform="translate(139 180)" fill="#696969"/>
      </g>
      <g transform="translate(281 -180)">
        <circle id="Ellipse_9-15" data-name="Ellipse 9" cx="5" cy="5" r="5" transform="translate(139 180)" fill="#696969"/>
      </g>
      <g transform="translate(311 -180)">
        <circle id="Ellipse_9-16" data-name="Ellipse 9" cx="5" cy="5" r="5" transform="translate(139 180)" fill="#696969"/>
      </g>
      <g transform="translate(341 -180)">
        <circle id="Ellipse_9-17" data-name="Ellipse 9" cx="5" cy="5" r="5" transform="translate(139 180)" fill="#696969"/>
      </g>
      <g transform="translate(371 -180)">
        <circle id="Ellipse_9-18" data-name="Ellipse 9" cx="5" cy="5" r="5" transform="translate(139 180)" fill="#696969"/>
      </g>
      <g transform="translate(401 -180)">
        <circle id="Ellipse_9-19" data-name="Ellipse 9" cx="5" cy="5" r="5" transform="translate(139 180)" fill="#696969"/>
      </g>
      <g transform="translate(431 -180)">
        <circle id="Ellipse_9-20" data-name="Ellipse 9" cx="5" cy="5" r="5" transform="translate(139 180)" fill="#696969"/>
      </g>
      <g transform="translate(461 -180)">
        <circle id="Ellipse_9-21" data-name="Ellipse 9" cx="5" cy="5" r="5" transform="translate(139 180)" fill="#696969"/>
      </g>
      <g transform="translate(491 -180)">
        <circle id="Ellipse_9-22" data-name="Ellipse 9" cx="5" cy="5" r="5" transform="translate(139 180)" fill="#696969"/>
      </g>
      <g transform="translate(521 -180)">
        <circle id="Ellipse_9-23" data-name="Ellipse 9" cx="5" cy="5" r="5" transform="translate(139 180)" fill="#696969"/>
      </g>
      <g transform="translate(551 -180)">
        <circle id="Ellipse_9-24" data-name="Ellipse 9" cx="5" cy="5" r="5" transform="translate(139 180)" fill="#696969"/>
      </g>
      <g transform="translate(581 -180)">
        <circle id="Ellipse_9-25" data-name="Ellipse 9" cx="5" cy="5" r="5" transform="translate(139 180)" fill="#696969"/>
      </g>
      <g transform="translate(-139 -150)">
        <circle id="Ellipse_9-26" data-name="Ellipse 9" cx="5" cy="5" r="5" transform="translate(139 180)" fill="#696969"/>
      </g>
      <g transform="translate(-109 -150)">
        <circle id="Ellipse_9-27" data-name="Ellipse 9" cx="5" cy="5" r="5" transform="translate(139 180)" fill="#696969"/>
      </g>
      <g transform="translate(-79 -150)">
        <circle id="Ellipse_9-28" data-name="Ellipse 9" cx="5" cy="5" r="5" transform="translate(139 180)" fill="#696969"/>
      </g>
      <g transform="translate(-49 -150)">
        <circle id="Ellipse_9-29" data-name="Ellipse 9" cx="5" cy="5" r="5" transform="translate(139 180)" fill="#696969"/>
      </g>
      <g transform="translate(-19 -150)">
        <circle id="Ellipse_9-30" data-name="Ellipse 9" cx="5" cy="5" r="5" transform="translate(139 180)" fill="#696969"/>
      </g>
      <g transform="translate(11 -150)">
        <circle id="Ellipse_9-31" data-name="Ellipse 9" cx="5" cy="5" r="5" transform="translate(139 180)" fill="#696969"/>
      </g>
      <g transform="translate(41 -150)">
        <circle id="Ellipse_9-32" data-name="Ellipse 9" cx="5" cy="5" r="5" transform="translate(139 180)" fill="#696969"/>
      </g>
      <g transform="translate(71 -150)">
        <circle id="Ellipse_9-33" data-name="Ellipse 9" cx="5" cy="5" r="5" transform="translate(139 180)" fill="#696969"/>
      </g>
      <g transform="translate(101 -150)">
        <circle id="Ellipse_9-34" data-name="Ellipse 9" cx="5" cy="5" r="5" transform="translate(139 180)" fill="#696969"/>
      </g>
      <g transform="translate(131 -150)">
        <circle id="Ellipse_9-35" data-name="Ellipse 9" cx="5" cy="5" r="5" transform="translate(139 180)" fill="#696969"/>
      </g>
      <g transform="translate(161 -150)">
        <circle id="Ellipse_9-36" data-name="Ellipse 9" cx="5" cy="5" r="5" transform="translate(139 180)" fill="#696969"/>
      </g>
      <g transform="translate(191 -150)">
        <circle id="Ellipse_9-37" data-name="Ellipse 9" cx="5" cy="5" r="5" transform="translate(139 180)" fill="#696969"/>
      </g>
      <g transform="translate(221 -150)">
        <circle id="Ellipse_9-38" data-name="Ellipse 9" cx="5" cy="5" r="5" transform="translate(139 180)" fill="#696969"/>
      </g>
      <g transform="translate(251 -150)">
        <circle id="Ellipse_9-39" data-name="Ellipse 9" cx="5" cy="5" r="5" transform="translate(139 180)" fill="#696969"/>
      </g>
      <g transform="translate(281 -150)">
        <circle id="Ellipse_9-40" data-name="Ellipse 9" cx="5" cy="5" r="5" transform="translate(139 180)" fill="#696969"/>
      </g>
      <g transform="translate(311 -150)">
        <circle id="Ellipse_9-41" data-name="Ellipse 9" cx="5" cy="5" r="5" transform="translate(139 180)" fill="#696969"/>
      </g>
      <g transform="translate(341 -150)">
        <circle id="Ellipse_9-42" data-name="Ellipse 9" cx="5" cy="5" r="5" transform="translate(139 180)" fill="#696969"/>
      </g>
      <g transform="translate(371 -150)">
        <circle id="Ellipse_9-43" data-name="Ellipse 9" cx="5" cy="5" r="5" transform="translate(139 180)" fill="#696969"/>
      </g>
      <g transform="translate(401 -150)">
        <circle id="Ellipse_9-44" data-name="Ellipse 9" cx="5" cy="5" r="5" transform="translate(139 180)" fill="#696969"/>
      </g>
      <g transform="translate(431 -150)">
        <circle id="Ellipse_9-45" data-name="Ellipse 9" cx="5" cy="5" r="5" transform="translate(139 180)" fill="#696969"/>
      </g>
      <g transform="translate(461 -150)">
        <circle id="Ellipse_9-46" data-name="Ellipse 9" cx="5" cy="5" r="5" transform="translate(139 180)" fill="#696969"/>
      </g>
      <g transform="translate(491 -150)">
        <circle id="Ellipse_9-47" data-name="Ellipse 9" cx="5" cy="5" r="5" transform="translate(139 180)" fill="#696969"/>
      </g>
      <g transform="translate(521 -150)">
        <circle id="Ellipse_9-48" data-name="Ellipse 9" cx="5" cy="5" r="5" transform="translate(139 180)" fill="#696969"/>
      </g>
      <g transform="translate(551 -150)">
        <circle id="Ellipse_9-49" data-name="Ellipse 9" cx="5" cy="5" r="5" transform="translate(139 180)" fill="#696969"/>
      </g>
      <g transform="translate(581 -150)">
        <circle id="Ellipse_9-50" data-name="Ellipse 9" cx="5" cy="5" r="5" transform="translate(139 180)" fill="#696969"/>
      </g>
      <g transform="translate(-139 -120)">
        <circle id="Ellipse_9-51" data-name="Ellipse 9" cx="5" cy="5" r="5" transform="translate(139 180)" fill="#696969"/>
      </g>
      <g transform="translate(-109 -120)">
        <circle id="Ellipse_9-52" data-name="Ellipse 9" cx="5" cy="5" r="5" transform="translate(139 180)" fill="#696969"/>
      </g>
      <g transform="translate(-79 -120)">
        <circle id="Ellipse_9-53" data-name="Ellipse 9" cx="5" cy="5" r="5" transform="translate(139 180)" fill="#696969"/>
      </g>
      <g transform="translate(-49 -120)">
        <circle id="Ellipse_9-54" data-name="Ellipse 9" cx="5" cy="5" r="5" transform="translate(139 180)" fill="#696969"/>
      </g>
      <g transform="translate(-19 -120)">
        <circle id="Ellipse_9-55" data-name="Ellipse 9" cx="5" cy="5" r="5" transform="translate(139 180)" fill="#696969"/>
      </g>
      <g transform="translate(11 -120)">
        <circle id="Ellipse_9-56" data-name="Ellipse 9" cx="5" cy="5" r="5" transform="translate(139 180)" fill="#696969"/>
      </g>
      <g transform="translate(41 -120)">
        <circle id="Ellipse_9-57" data-name="Ellipse 9" cx="5" cy="5" r="5" transform="translate(139 180)" fill="#696969"/>
      </g>
      <g transform="translate(71 -120)">
        <circle id="Ellipse_9-58" data-name="Ellipse 9" cx="5" cy="5" r="5" transform="translate(139 180)" fill="#696969"/>
      </g>
      <g transform="translate(101 -120)">
        <circle id="Ellipse_9-59" data-name="Ellipse 9" cx="5" cy="5" r="5" transform="translate(139 180)" fill="#696969"/>
      </g>
      <g transform="translate(131 -120)">
        <circle id="Ellipse_9-60" data-name="Ellipse 9" cx="5" cy="5" r="5" transform="translate(139 180)" fill="#696969"/>
      </g>
      <g transform="translate(161 -120)">
        <circle id="Ellipse_9-61" data-name="Ellipse 9" cx="5" cy="5" r="5" transform="translate(139 180)" fill="#696969"/>
      </g>
      <g transform="translate(191 -120)">
        <circle id="Ellipse_9-62" data-name="Ellipse 9" cx="5" cy="5" r="5" transform="translate(139 180)" fill="#696969"/>
      </g>
      <g transform="translate(221 -120)">
        <circle id="Ellipse_9-63" data-name="Ellipse 9" cx="5" cy="5" r="5" transform="translate(139 180)" fill="#696969"/>
      </g>
      <g transform="translate(251 -120)">
        <circle id="Ellipse_9-64" data-name="Ellipse 9" cx="5" cy="5" r="5" transform="translate(139 180)" fill="#696969"/>
      </g>
      <g transform="translate(281 -120)">
        <circle id="Ellipse_9-65" data-name="Ellipse 9" cx="5" cy="5" r="5" transform="translate(139 180)" fill="#696969"/>
      </g>
      <g transform="translate(311 -120)">
        <circle id="Ellipse_9-66" data-name="Ellipse 9" cx="5" cy="5" r="5" transform="translate(139 180)" fill="#696969"/>
      </g>
      <g transform="translate(341 -120)">
        <circle id="Ellipse_9-67" data-name="Ellipse 9" cx="5" cy="5" r="5" transform="translate(139 180)" fill="#696969"/>
      </g>
      <g transform="translate(371 -120)">
        <circle id="Ellipse_9-68" data-name="Ellipse 9" cx="5" cy="5" r="5" transform="translate(139 180)" fill="#696969"/>
      </g>
      <g transform="translate(401 -120)">
        <circle id="Ellipse_9-69" data-name="Ellipse 9" cx="5" cy="5" r="5" transform="translate(139 180)" fill="#696969"/>
      </g>
      <g transform="translate(431 -120)">
        <circle id="Ellipse_9-70" data-name="Ellipse 9" cx="5" cy="5" r="5" transform="translate(139 180)" fill="#696969"/>
      </g>
      <g transform="translate(461 -120)">
        <circle id="Ellipse_9-71" data-name="Ellipse 9" cx="5" cy="5" r="5" transform="translate(139 180)" fill="#696969"/>
      </g>
      <g transform="translate(491 -120)">
        <circle id="Ellipse_9-72" data-name="Ellipse 9" cx="5" cy="5" r="5" transform="translate(139 180)" fill="#696969"/>
      </g>
      <g transform="translate(521 -120)">
        <circle id="Ellipse_9-73" data-name="Ellipse 9" cx="5" cy="5" r="5" transform="translate(139 180)" fill="#696969"/>
      </g>
      <g transform="translate(551 -120)">
        <circle id="Ellipse_9-74" data-name="Ellipse 9" cx="5" cy="5" r="5" transform="translate(139 180)" fill="#696969"/>
      </g>
      <g transform="translate(581 -120)">
        <circle id="Ellipse_9-75" data-name="Ellipse 9" cx="5" cy="5" r="5" transform="translate(139 180)" fill="#696969"/>
      </g>
      <g transform="translate(-139 -90)">
        <circle id="Ellipse_9-76" data-name="Ellipse 9" cx="5" cy="5" r="5" transform="translate(139 180)" fill="#696969"/>
      </g>
      <g transform="translate(-109 -90)">
        <circle id="Ellipse_9-77" data-name="Ellipse 9" cx="5" cy="5" r="5" transform="translate(139 180)" fill="#696969"/>
      </g>
      <g transform="translate(-79 -90)">
        <circle id="Ellipse_9-78" data-name="Ellipse 9" cx="5" cy="5" r="5" transform="translate(139 180)" fill="#696969"/>
      </g>
      <g transform="translate(-49 -90)">
        <circle id="Ellipse_9-79" data-name="Ellipse 9" cx="5" cy="5" r="5" transform="translate(139 180)" fill="#696969"/>
      </g>
      <g transform="translate(-19 -90)">
        <circle id="Ellipse_9-80" data-name="Ellipse 9" cx="5" cy="5" r="5" transform="translate(139 180)" fill="#696969"/>
      </g>
      <g transform="translate(11 -90)">
        <circle id="Ellipse_9-81" data-name="Ellipse 9" cx="5" cy="5" r="5" transform="translate(139 180)" fill="#696969"/>
      </g>
      <g transform="translate(41 -90)">
        <circle id="Ellipse_9-82" data-name="Ellipse 9" cx="5" cy="5" r="5" transform="translate(139 180)" fill="#696969"/>
      </g>
      <g transform="translate(71 -90)">
        <circle id="Ellipse_9-83" data-name="Ellipse 9" cx="5" cy="5" r="5" transform="translate(139 180)" fill="#696969"/>
      </g>
      <g transform="translate(101 -90)">
        <circle id="Ellipse_9-84" data-name="Ellipse 9" cx="5" cy="5" r="5" transform="translate(139 180)" fill="#696969"/>
      </g>
      <g transform="translate(131 -90)">
        <circle id="Ellipse_9-85" data-name="Ellipse 9" cx="5" cy="5" r="5" transform="translate(139 180)" fill="#696969"/>
      </g>
      <g transform="translate(161 -90)">
        <circle id="Ellipse_9-86" data-name="Ellipse 9" cx="5" cy="5" r="5" transform="translate(139 180)" fill="#696969"/>
      </g>
      <g transform="translate(191 -90)">
        <circle id="Ellipse_9-87" data-name="Ellipse 9" cx="5" cy="5" r="5" transform="translate(139 180)" fill="#696969"/>
      </g>
      <g transform="translate(221 -90)">
        <circle id="Ellipse_9-88" data-name="Ellipse 9" cx="5" cy="5" r="5" transform="translate(139 180)" fill="#696969"/>
      </g>
      <g transform="translate(251 -90)">
        <circle id="Ellipse_9-89" data-name="Ellipse 9" cx="5" cy="5" r="5" transform="translate(139 180)" fill="#696969"/>
      </g>
      <g transform="translate(281 -90)">
        <circle id="Ellipse_9-90" data-name="Ellipse 9" cx="5" cy="5" r="5" transform="translate(139 180)" fill="#696969"/>
      </g>
      <g transform="translate(311 -90)">
        <circle id="Ellipse_9-91" data-name="Ellipse 9" cx="5" cy="5" r="5" transform="translate(139 180)" fill="#696969"/>
      </g>
      <g transform="translate(341 -90)">
        <circle id="Ellipse_9-92" data-name="Ellipse 9" cx="5" cy="5" r="5" transform="translate(139 180)" fill="#696969"/>
      </g>
      <g transform="translate(371 -90)">
        <circle id="Ellipse_9-93" data-name="Ellipse 9" cx="5" cy="5" r="5" transform="translate(139 180)" fill="#696969"/>
      </g>
      <g transform="translate(401 -90)">
        <circle id="Ellipse_9-94" data-name="Ellipse 9" cx="5" cy="5" r="5" transform="translate(139 180)" fill="#696969"/>
      </g>
      <g transform="translate(431 -90)">
        <circle id="Ellipse_9-95" data-name="Ellipse 9" cx="5" cy="5" r="5" transform="translate(139 180)" fill="#696969"/>
      </g>
      <g transform="translate(461 -90)">
        <circle id="Ellipse_9-96" data-name="Ellipse 9" cx="5" cy="5" r="5" transform="translate(139 180)" fill="#696969"/>
      </g>
      <g transform="translate(491 -90)">
        <circle id="Ellipse_9-97" data-name="Ellipse 9" cx="5" cy="5" r="5" transform="translate(139 180)" fill="#696969"/>
      </g>
      <g transform="translate(521 -90)">
        <circle id="Ellipse_9-98" data-name="Ellipse 9" cx="5" cy="5" r="5" transform="translate(139 180)" fill="#696969"/>
      </g>
      <g transform="translate(551 -90)">
        <circle id="Ellipse_9-99" data-name="Ellipse 9" cx="5" cy="5" r="5" transform="translate(139 180)" fill="#696969"/>
      </g>
      <g transform="translate(581 -90)">
        <circle id="Ellipse_9-100" data-name="Ellipse 9" cx="5" cy="5" r="5" transform="translate(139 180)" fill="#696969"/>
      </g>
      <g transform="translate(-139 -60)">
        <circle id="Ellipse_9-101" data-name="Ellipse 9" cx="5" cy="5" r="5" transform="translate(139 180)" fill="#696969"/>
      </g>
      <g transform="translate(-109 -60)">
        <circle id="Ellipse_9-102" data-name="Ellipse 9" cx="5" cy="5" r="5" transform="translate(139 180)" fill="#696969"/>
      </g>
      <g transform="translate(-79 -60)">
        <circle id="Ellipse_9-103" data-name="Ellipse 9" cx="5" cy="5" r="5" transform="translate(139 180)" fill="#696969"/>
      </g>
      <g transform="translate(-49 -60)">
        <circle id="Ellipse_9-104" data-name="Ellipse 9" cx="5" cy="5" r="5" transform="translate(139 180)" fill="#696969"/>
      </g>
      <g transform="translate(-19 -60)">
        <circle id="Ellipse_9-105" data-name="Ellipse 9" cx="5" cy="5" r="5" transform="translate(139 180)" fill="#696969"/>
      </g>
      <g transform="translate(11 -60)">
        <circle id="Ellipse_9-106" data-name="Ellipse 9" cx="5" cy="5" r="5" transform="translate(139 180)" fill="#696969"/>
      </g>
      <g transform="translate(41 -60)">
        <circle id="Ellipse_9-107" data-name="Ellipse 9" cx="5" cy="5" r="5" transform="translate(139 180)" fill="#696969"/>
      </g>
      <g transform="translate(71 -60)">
        <circle id="Ellipse_9-108" data-name="Ellipse 9" cx="5" cy="5" r="5" transform="translate(139 180)" fill="#696969"/>
      </g>
      <g transform="translate(101 -60)">
        <circle id="Ellipse_9-109" data-name="Ellipse 9" cx="5" cy="5" r="5" transform="translate(139 180)" fill="#696969"/>
      </g>
      <g transform="translate(131 -60)">
        <circle id="Ellipse_9-110" data-name="Ellipse 9" cx="5" cy="5" r="5" transform="translate(139 180)" fill="#696969"/>
      </g>
      <g transform="translate(161 -60)">
        <circle id="Ellipse_9-111" data-name="Ellipse 9" cx="5" cy="5" r="5" transform="translate(139 180)" fill="#696969"/>
      </g>
      <g transform="translate(191 -60)">
        <circle id="Ellipse_9-112" data-name="Ellipse 9" cx="5" cy="5" r="5" transform="translate(139 180)" fill="#696969"/>
      </g>
      <g transform="translate(221 -60)">
        <circle id="Ellipse_9-113" data-name="Ellipse 9" cx="5" cy="5" r="5" transform="translate(139 180)" fill="#696969"/>
      </g>
      <g transform="translate(251 -60)">
        <circle id="Ellipse_9-114" data-name="Ellipse 9" cx="5" cy="5" r="5" transform="translate(139 180)" fill="#696969"/>
      </g>
      <g transform="translate(281 -60)">
        <circle id="Ellipse_9-115" data-name="Ellipse 9" cx="5" cy="5" r="5" transform="translate(139 180)" fill="#696969"/>
      </g>
      <g transform="translate(311 -60)">
        <circle id="Ellipse_9-116" data-name="Ellipse 9" cx="5" cy="5" r="5" transform="translate(139 180)" fill="#696969"/>
      </g>
      <g transform="translate(341 -60)">
        <circle id="Ellipse_9-117" data-name="Ellipse 9" cx="5" cy="5" r="5" transform="translate(139 180)" fill="#696969"/>
      </g>
      <g transform="translate(371 -60)">
        <circle id="Ellipse_9-118" data-name="Ellipse 9" cx="5" cy="5" r="5" transform="translate(139 180)" fill="#696969"/>
      </g>
      <g transform="translate(401 -60)">
        <circle id="Ellipse_9-119" data-name="Ellipse 9" cx="5" cy="5" r="5" transform="translate(139 180)" fill="#696969"/>
      </g>
      <g transform="translate(431 -60)">
        <circle id="Ellipse_9-120" data-name="Ellipse 9" cx="5" cy="5" r="5" transform="translate(139 180)" fill="#696969"/>
      </g>
      <g transform="translate(461 -60)">
        <circle id="Ellipse_9-121" data-name="Ellipse 9" cx="5" cy="5" r="5" transform="translate(139 180)" fill="#696969"/>
      </g>
      <g transform="translate(491 -60)">
        <circle id="Ellipse_9-122" data-name="Ellipse 9" cx="5" cy="5" r="5" transform="translate(139 180)" fill="#696969"/>
      </g>
      <g transform="translate(521 -60)">
        <circle id="Ellipse_9-123" data-name="Ellipse 9" cx="5" cy="5" r="5" transform="translate(139 180)" fill="#696969"/>
      </g>
      <g transform="translate(551 -60)">
        <circle id="Ellipse_9-124" data-name="Ellipse 9" cx="5" cy="5" r="5" transform="translate(139 180)" fill="#696969"/>
      </g>
      <g transform="translate(581 -60)">
        <circle id="Ellipse_9-125" data-name="Ellipse 9" cx="5" cy="5" r="5" transform="translate(139 180)" fill="#696969"/>
      </g>
      <g transform="translate(-139 -30)">
        <circle id="Ellipse_9-126" data-name="Ellipse 9" cx="5" cy="5" r="5" transform="translate(139 180)" fill="#696969"/>
      </g>
      <g transform="translate(-109 -30)">
        <circle id="Ellipse_9-127" data-name="Ellipse 9" cx="5" cy="5" r="5" transform="translate(139 180)" fill="#696969"/>
      </g>
      <g transform="translate(-79 -30)">
        <circle id="Ellipse_9-128" data-name="Ellipse 9" cx="5" cy="5" r="5" transform="translate(139 180)" fill="#696969"/>
      </g>
      <g transform="translate(-49 -30)">
        <circle id="Ellipse_9-129" data-name="Ellipse 9" cx="5" cy="5" r="5" transform="translate(139 180)" fill="#696969"/>
      </g>
      <g transform="translate(-19 -30)">
        <circle id="Ellipse_9-130" data-name="Ellipse 9" cx="5" cy="5" r="5" transform="translate(139 180)" fill="#696969"/>
      </g>
      <g transform="translate(11 -30)">
        <circle id="Ellipse_9-131" data-name="Ellipse 9" cx="5" cy="5" r="5" transform="translate(139 180)" fill="#696969"/>
      </g>
      <g transform="translate(41 -30)">
        <circle id="Ellipse_9-132" data-name="Ellipse 9" cx="5" cy="5" r="5" transform="translate(139 180)" fill="#696969"/>
      </g>
      <g transform="translate(71 -30)">
        <circle id="Ellipse_9-133" data-name="Ellipse 9" cx="5" cy="5" r="5" transform="translate(139 180)" fill="#696969"/>
      </g>
      <g transform="translate(101 -30)">
        <circle id="Ellipse_9-134" data-name="Ellipse 9" cx="5" cy="5" r="5" transform="translate(139 180)" fill="#696969"/>
      </g>
      <g transform="translate(131 -30)">
        <circle id="Ellipse_9-135" data-name="Ellipse 9" cx="5" cy="5" r="5" transform="translate(139 180)" fill="#696969"/>
      </g>
      <g transform="translate(161 -30)">
        <circle id="Ellipse_9-136" data-name="Ellipse 9" cx="5" cy="5" r="5" transform="translate(139 180)" fill="#696969"/>
      </g>
      <g transform="translate(191 -30)">
        <circle id="Ellipse_9-137" data-name="Ellipse 9" cx="5" cy="5" r="5" transform="translate(139 180)" fill="#696969"/>
      </g>
      <g transform="translate(221 -30)">
        <circle id="Ellipse_9-138" data-name="Ellipse 9" cx="5" cy="5" r="5" transform="translate(139 180)" fill="#696969"/>
      </g>
      <g transform="translate(251 -30)">
        <circle id="Ellipse_9-139" data-name="Ellipse 9" cx="5" cy="5" r="5" transform="translate(139 180)" fill="#696969"/>
      </g>
      <g transform="translate(281 -30)">
        <circle id="Ellipse_9-140" data-name="Ellipse 9" cx="5" cy="5" r="5" transform="translate(139 180)" fill="#696969"/>
      </g>
      <g transform="translate(311 -30)">
        <circle id="Ellipse_9-141" data-name="Ellipse 9" cx="5" cy="5" r="5" transform="translate(139 180)" fill="#696969"/>
      </g>
      <g transform="translate(341 -30)">
        <circle id="Ellipse_9-142" data-name="Ellipse 9" cx="5" cy="5" r="5" transform="translate(139 180)" fill="#696969"/>
      </g>
      <g transform="translate(371 -30)">
        <circle id="Ellipse_9-143" data-name="Ellipse 9" cx="5" cy="5" r="5" transform="translate(139 180)" fill="#696969"/>
      </g>
      <g transform="translate(401 -30)">
        <circle id="Ellipse_9-144" data-name="Ellipse 9" cx="5" cy="5" r="5" transform="translate(139 180)" fill="#696969"/>
      </g>
      <g transform="translate(431 -30)">
        <circle id="Ellipse_9-145" data-name="Ellipse 9" cx="5" cy="5" r="5" transform="translate(139 180)" fill="#696969"/>
      </g>
      <g transform="translate(461 -30)">
        <circle id="Ellipse_9-146" data-name="Ellipse 9" cx="5" cy="5" r="5" transform="translate(139 180)" fill="#696969"/>
      </g>
      <g transform="translate(491 -30)">
        <circle id="Ellipse_9-147" data-name="Ellipse 9" cx="5" cy="5" r="5" transform="translate(139 180)" fill="#696969"/>
      </g>
      <g transform="translate(521 -30)">
        <circle id="Ellipse_9-148" data-name="Ellipse 9" cx="5" cy="5" r="5" transform="translate(139 180)" fill="#696969"/>
      </g>
      <g transform="translate(551 -30)">
        <circle id="Ellipse_9-149" data-name="Ellipse 9" cx="5" cy="5" r="5" transform="translate(139 180)" fill="#696969"/>
      </g>
      <g transform="translate(581 -30)">
        <circle id="Ellipse_9-150" data-name="Ellipse 9" cx="5" cy="5" r="5" transform="translate(139 180)" fill="#696969"/>
      </g>
      <g transform="translate(-139)">
        <circle id="Ellipse_9-151" data-name="Ellipse 9" cx="5" cy="5" r="5" transform="translate(139 180)" fill="#696969"/>
      </g>
      <g transform="translate(-109)">
        <circle id="Ellipse_9-152" data-name="Ellipse 9" cx="5" cy="5" r="5" transform="translate(139 180)" fill="#696969"/>
      </g>
      <g transform="translate(-79)">
        <circle id="Ellipse_9-153" data-name="Ellipse 9" cx="5" cy="5" r="5" transform="translate(139 180)" fill="#696969"/>
      </g>
      <g transform="translate(-49)">
        <circle id="Ellipse_9-154" data-name="Ellipse 9" cx="5" cy="5" r="5" transform="translate(139 180)" fill="#696969"/>
      </g>
      <g transform="translate(-19)">
        <circle id="Ellipse_9-155" data-name="Ellipse 9" cx="5" cy="5" r="5" transform="translate(139 180)" fill="#696969"/>
      </g>
      <g transform="translate(11)">
        <circle id="Ellipse_9-156" data-name="Ellipse 9" cx="5" cy="5" r="5" transform="translate(139 180)" fill="#696969"/>
      </g>
      <g transform="translate(41)">
        <circle id="Ellipse_9-157" data-name="Ellipse 9" cx="5" cy="5" r="5" transform="translate(139 180)" fill="#696969"/>
      </g>
      <g transform="translate(71)">
        <circle id="Ellipse_9-158" data-name="Ellipse 9" cx="5" cy="5" r="5" transform="translate(139 180)" fill="#696969"/>
      </g>
      <g transform="translate(101)">
        <circle id="Ellipse_9-159" data-name="Ellipse 9" cx="5" cy="5" r="5" transform="translate(139 180)" fill="#696969"/>
      </g>
      <g transform="translate(131)">
        <circle id="Ellipse_9-160" data-name="Ellipse 9" cx="5" cy="5" r="5" transform="translate(139 180)" fill="#696969"/>
      </g>
      <g transform="translate(161)">
        <circle id="Ellipse_9-161" data-name="Ellipse 9" cx="5" cy="5" r="5" transform="translate(139 180)" fill="#696969"/>
      </g>
      <g transform="translate(191)">
        <circle id="Ellipse_9-162" data-name="Ellipse 9" cx="5" cy="5" r="5" transform="translate(139 180)" fill="#696969"/>
      </g>
      <g transform="translate(221)">
        <circle id="Ellipse_9-163" data-name="Ellipse 9" cx="5" cy="5" r="5" transform="translate(139 180)" fill="#696969"/>
      </g>
      <g transform="translate(251)">
        <circle id="Ellipse_9-164" data-name="Ellipse 9" cx="5" cy="5" r="5" transform="translate(139 180)" fill="#696969"/>
      </g>
      <g transform="translate(281)">
        <circle id="Ellipse_9-165" data-name="Ellipse 9" cx="5" cy="5" r="5" transform="translate(139 180)" fill="#696969"/>
      </g>
      <g transform="translate(311)">
        <circle id="Ellipse_9-166" data-name="Ellipse 9" cx="5" cy="5" r="5" transform="translate(139 180)" fill="#696969"/>
      </g>
      <g transform="translate(341)">
        <circle id="Ellipse_9-167" data-name="Ellipse 9" cx="5" cy="5" r="5" transform="translate(139 180)" fill="#696969"/>
      </g>
      <g transform="translate(371)">
        <circle id="Ellipse_9-168" data-name="Ellipse 9" cx="5" cy="5" r="5" transform="translate(139 180)" fill="#696969"/>
      </g>
      <g transform="translate(401)">
        <circle id="Ellipse_9-169" data-name="Ellipse 9" cx="5" cy="5" r="5" transform="translate(139 180)" fill="#696969"/>
      </g>
      <g transform="translate(431)">
        <circle id="Ellipse_9-170" data-name="Ellipse 9" cx="5" cy="5" r="5" transform="translate(139 180)" fill="#696969"/>
      </g>
      <g transform="translate(461)">
        <circle id="Ellipse_9-171" data-name="Ellipse 9" cx="5" cy="5" r="5" transform="translate(139 180)" fill="#696969"/>
      </g>
      <g transform="translate(491)">
        <circle id="Ellipse_9-172" data-name="Ellipse 9" cx="5" cy="5" r="5" transform="translate(139 180)" fill="#696969"/>
      </g>
      <g transform="translate(521)">
        <circle id="Ellipse_9-173" data-name="Ellipse 9" cx="5" cy="5" r="5" transform="translate(139 180)" fill="#696969"/>
      </g>
      <g transform="translate(551)">
        <circle id="Ellipse_9-174" data-name="Ellipse 9" cx="5" cy="5" r="5" transform="translate(139 180)" fill="#696969"/>
      </g>
      <g transform="translate(581)">
        <circle id="Ellipse_9-175" data-name="Ellipse 9" cx="5" cy="5" r="5" transform="translate(139 180)" fill="#696969"/>
      </g>
      <g transform="translate(-139 30)">
        <circle id="Ellipse_9-176" data-name="Ellipse 9" cx="5" cy="5" r="5" transform="translate(139 180)" fill="#696969"/>
      </g>
      <g transform="translate(-109 30)">
        <circle id="Ellipse_9-177" data-name="Ellipse 9" cx="5" cy="5" r="5" transform="translate(139 180)" fill="#696969"/>
      </g>
      <g transform="translate(-79 30)">
        <circle id="Ellipse_9-178" data-name="Ellipse 9" cx="5" cy="5" r="5" transform="translate(139 180)" fill="#696969"/>
      </g>
      <g transform="translate(-49 30)">
        <circle id="Ellipse_9-179" data-name="Ellipse 9" cx="5" cy="5" r="5" transform="translate(139 180)" fill="#696969"/>
      </g>
      <g transform="translate(-19 30)">
        <circle id="Ellipse_9-180" data-name="Ellipse 9" cx="5" cy="5" r="5" transform="translate(139 180)" fill="#696969"/>
      </g>
      <g transform="translate(11 30)">
        <circle id="Ellipse_9-181" data-name="Ellipse 9" cx="5" cy="5" r="5" transform="translate(139 180)" fill="#696969"/>
      </g>
      <g transform="translate(41 30)">
        <circle id="Ellipse_9-182" data-name="Ellipse 9" cx="5" cy="5" r="5" transform="translate(139 180)" fill="#696969"/>
      </g>
      <g transform="translate(71 30)">
        <circle id="Ellipse_9-183" data-name="Ellipse 9" cx="5" cy="5" r="5" transform="translate(139 180)" fill="#696969"/>
      </g>
      <g transform="translate(101 30)">
        <circle id="Ellipse_9-184" data-name="Ellipse 9" cx="5" cy="5" r="5" transform="translate(139 180)" fill="#696969"/>
      </g>
      <g transform="translate(131 30)">
        <circle id="Ellipse_9-185" data-name="Ellipse 9" cx="5" cy="5" r="5" transform="translate(139 180)" fill="#696969"/>
      </g>
      <g transform="translate(161 30)">
        <circle id="Ellipse_9-186" data-name="Ellipse 9" cx="5" cy="5" r="5" transform="translate(139 180)" fill="#696969"/>
      </g>
      <g transform="translate(191 30)">
        <circle id="Ellipse_9-187" data-name="Ellipse 9" cx="5" cy="5" r="5" transform="translate(139 180)" fill="#696969"/>
      </g>
      <g transform="translate(221 30)">
        <circle id="Ellipse_9-188" data-name="Ellipse 9" cx="5" cy="5" r="5" transform="translate(139 180)" fill="#696969"/>
      </g>
      <g transform="translate(251 30)">
        <circle id="Ellipse_9-189" data-name="Ellipse 9" cx="5" cy="5" r="5" transform="translate(139 180)" fill="#696969"/>
      </g>
      <g transform="translate(281 30)">
        <circle id="Ellipse_9-190" data-name="Ellipse 9" cx="5" cy="5" r="5" transform="translate(139 180)" fill="#696969"/>
      </g>
      <g transform="translate(311 30)">
        <circle id="Ellipse_9-191" data-name="Ellipse 9" cx="5" cy="5" r="5" transform="translate(139 180)" fill="#696969"/>
      </g>
      <g transform="translate(341 30)">
        <circle id="Ellipse_9-192" data-name="Ellipse 9" cx="5" cy="5" r="5" transform="translate(139 180)" fill="#696969"/>
      </g>
      <g transform="translate(371 30)">
        <circle id="Ellipse_9-193" data-name="Ellipse 9" cx="5" cy="5" r="5" transform="translate(139 180)" fill="#696969"/>
      </g>
      <g transform="translate(401 30)">
        <circle id="Ellipse_9-194" data-name="Ellipse 9" cx="5" cy="5" r="5" transform="translate(139 180)" fill="#696969"/>
      </g>
      <g transform="translate(431 30)">
        <circle id="Ellipse_9-195" data-name="Ellipse 9" cx="5" cy="5" r="5" transform="translate(139 180)" fill="#696969"/>
      </g>
      <g transform="translate(461 30)">
        <circle id="Ellipse_9-196" data-name="Ellipse 9" cx="5" cy="5" r="5" transform="translate(139 180)" fill="#696969"/>
      </g>
      <g transform="translate(491 30)">
        <circle id="Ellipse_9-197" data-name="Ellipse 9" cx="5" cy="5" r="5" transform="translate(139 180)" fill="#696969"/>
      </g>
      <g transform="translate(521 30)">
        <circle id="Ellipse_9-198" data-name="Ellipse 9" cx="5" cy="5" r="5" transform="translate(139 180)" fill="#696969"/>
      </g>
      <g transform="translate(551 30)">
        <circle id="Ellipse_9-199" data-name="Ellipse 9" cx="5" cy="5" r="5" transform="translate(139 180)" fill="#696969"/>
      </g>
      <g transform="translate(581 30)">
        <circle id="Ellipse_9-200" data-name="Ellipse 9" cx="5" cy="5" r="5" transform="translate(139 180)" fill="#696969"/>
      </g>
      <g transform="translate(-139 60)">
        <circle id="Ellipse_9-201" data-name="Ellipse 9" cx="5" cy="5" r="5" transform="translate(139 180)" fill="#696969"/>
      </g>
      <g transform="translate(-109 60)">
        <circle id="Ellipse_9-202" data-name="Ellipse 9" cx="5" cy="5" r="5" transform="translate(139 180)" fill="#696969"/>
      </g>
      <g transform="translate(-79 60)">
        <circle id="Ellipse_9-203" data-name="Ellipse 9" cx="5" cy="5" r="5" transform="translate(139 180)" fill="#696969"/>
      </g>
      <g transform="translate(-49 60)">
        <circle id="Ellipse_9-204" data-name="Ellipse 9" cx="5" cy="5" r="5" transform="translate(139 180)" fill="#696969"/>
      </g>
      <g transform="translate(-19 60)">
        <circle id="Ellipse_9-205" data-name="Ellipse 9" cx="5" cy="5" r="5" transform="translate(139 180)" fill="#696969"/>
      </g>
      <g transform="translate(11 60)">
        <circle id="Ellipse_9-206" data-name="Ellipse 9" cx="5" cy="5" r="5" transform="translate(139 180)" fill="#696969"/>
      </g>
      <g transform="translate(41 60)">
        <circle id="Ellipse_9-207" data-name="Ellipse 9" cx="5" cy="5" r="5" transform="translate(139 180)" fill="#696969"/>
      </g>
      <g transform="translate(71 60)">
        <circle id="Ellipse_9-208" data-name="Ellipse 9" cx="5" cy="5" r="5" transform="translate(139 180)" fill="#696969"/>
      </g>
      <g transform="translate(101 60)">
        <circle id="Ellipse_9-209" data-name="Ellipse 9" cx="5" cy="5" r="5" transform="translate(139 180)" fill="#696969"/>
      </g>
      <g transform="translate(131 60)">
        <circle id="Ellipse_9-210" data-name="Ellipse 9" cx="5" cy="5" r="5" transform="translate(139 180)" fill="#696969"/>
      </g>
      <g transform="translate(161 60)">
        <circle id="Ellipse_9-211" data-name="Ellipse 9" cx="5" cy="5" r="5" transform="translate(139 180)" fill="#696969"/>
      </g>
      <g transform="translate(191 60)">
        <circle id="Ellipse_9-212" data-name="Ellipse 9" cx="5" cy="5" r="5" transform="translate(139 180)" fill="#696969"/>
      </g>
      <g transform="translate(221 60)">
        <circle id="Ellipse_9-213" data-name="Ellipse 9" cx="5" cy="5" r="5" transform="translate(139 180)" fill="#696969"/>
      </g>
      <g transform="translate(251 60)">
        <circle id="Ellipse_9-214" data-name="Ellipse 9" cx="5" cy="5" r="5" transform="translate(139 180)" fill="#696969"/>
      </g>
      <g transform="translate(281 60)">
        <circle id="Ellipse_9-215" data-name="Ellipse 9" cx="5" cy="5" r="5" transform="translate(139 180)" fill="#696969"/>
      </g>
      <g transform="translate(311 60)">
        <circle id="Ellipse_9-216" data-name="Ellipse 9" cx="5" cy="5" r="5" transform="translate(139 180)" fill="#696969"/>
      </g>
      <g transform="translate(341 60)">
        <circle id="Ellipse_9-217" data-name="Ellipse 9" cx="5" cy="5" r="5" transform="translate(139 180)" fill="#696969"/>
      </g>
      <g transform="translate(371 60)">
        <circle id="Ellipse_9-218" data-name="Ellipse 9" cx="5" cy="5" r="5" transform="translate(139 180)" fill="#696969"/>
      </g>
      <g transform="translate(401 60)">
        <circle id="Ellipse_9-219" data-name="Ellipse 9" cx="5" cy="5" r="5" transform="translate(139 180)" fill="#696969"/>
      </g>
      <g transform="translate(431 60)">
        <circle id="Ellipse_9-220" data-name="Ellipse 9" cx="5" cy="5" r="5" transform="translate(139 180)" fill="#696969"/>
      </g>
      <g transform="translate(461 60)">
        <circle id="Ellipse_9-221" data-name="Ellipse 9" cx="5" cy="5" r="5" transform="translate(139 180)" fill="#696969"/>
      </g>
      <g transform="translate(491 60)">
        <circle id="Ellipse_9-222" data-name="Ellipse 9" cx="5" cy="5" r="5" transform="translate(139 180)" fill="#696969"/>
      </g>
      <g transform="translate(521 60)">
        <circle id="Ellipse_9-223" data-name="Ellipse 9" cx="5" cy="5" r="5" transform="translate(139 180)" fill="#696969"/>
      </g>
      <g transform="translate(551 60)">
        <circle id="Ellipse_9-224" data-name="Ellipse 9" cx="5" cy="5" r="5" transform="translate(139 180)" fill="#696969"/>
      </g>
      <g transform="translate(581 60)">
        <circle id="Ellipse_9-225" data-name="Ellipse 9" cx="5" cy="5" r="5" transform="translate(139 180)" fill="#696969"/>
      </g>
      <g transform="translate(-139 90)">
        <circle id="Ellipse_9-226" data-name="Ellipse 9" cx="5" cy="5" r="5" transform="translate(139 180)" fill="#696969"/>
      </g>
      <g transform="translate(-109 90)">
        <circle id="Ellipse_9-227" data-name="Ellipse 9" cx="5" cy="5" r="5" transform="translate(139 180)" fill="#696969"/>
      </g>
      <g transform="translate(-79 90)">
        <circle id="Ellipse_9-228" data-name="Ellipse 9" cx="5" cy="5" r="5" transform="translate(139 180)" fill="#696969"/>
      </g>
      <g transform="translate(-49 90)">
        <circle id="Ellipse_9-229" data-name="Ellipse 9" cx="5" cy="5" r="5" transform="translate(139 180)" fill="#696969"/>
      </g>
      <g transform="translate(-19 90)">
        <circle id="Ellipse_9-230" data-name="Ellipse 9" cx="5" cy="5" r="5" transform="translate(139 180)" fill="#696969"/>
      </g>
      <g transform="translate(11 90)">
        <circle id="Ellipse_9-231" data-name="Ellipse 9" cx="5" cy="5" r="5" transform="translate(139 180)" fill="#696969"/>
      </g>
      <g transform="translate(41 90)">
        <circle id="Ellipse_9-232" data-name="Ellipse 9" cx="5" cy="5" r="5" transform="translate(139 180)" fill="#696969"/>
      </g>
      <g transform="translate(71 90)">
        <circle id="Ellipse_9-233" data-name="Ellipse 9" cx="5" cy="5" r="5" transform="translate(139 180)" fill="#696969"/>
      </g>
      <g transform="translate(101 90)">
        <circle id="Ellipse_9-234" data-name="Ellipse 9" cx="5" cy="5" r="5" transform="translate(139 180)" fill="#696969"/>
      </g>
      <g transform="translate(131 90)">
        <circle id="Ellipse_9-235" data-name="Ellipse 9" cx="5" cy="5" r="5" transform="translate(139 180)" fill="#696969"/>
      </g>
      <g transform="translate(161 90)">
        <circle id="Ellipse_9-236" data-name="Ellipse 9" cx="5" cy="5" r="5" transform="translate(139 180)" fill="#696969"/>
      </g>
      <g transform="translate(191 90)">
        <circle id="Ellipse_9-237" data-name="Ellipse 9" cx="5" cy="5" r="5" transform="translate(139 180)" fill="#696969"/>
      </g>
      <g transform="translate(221 90)">
        <circle id="Ellipse_9-238" data-name="Ellipse 9" cx="5" cy="5" r="5" transform="translate(139 180)" fill="#696969"/>
      </g>
      <g transform="translate(251 90)">
        <circle id="Ellipse_9-239" data-name="Ellipse 9" cx="5" cy="5" r="5" transform="translate(139 180)" fill="#696969"/>
      </g>
      <g transform="translate(281 90)">
        <circle id="Ellipse_9-240" data-name="Ellipse 9" cx="5" cy="5" r="5" transform="translate(139 180)" fill="#696969"/>
      </g>
      <g transform="translate(311 90)">
        <circle id="Ellipse_9-241" data-name="Ellipse 9" cx="5" cy="5" r="5" transform="translate(139 180)" fill="#696969"/>
      </g>
      <g transform="translate(341 90)">
        <circle id="Ellipse_9-242" data-name="Ellipse 9" cx="5" cy="5" r="5" transform="translate(139 180)" fill="#696969"/>
      </g>
      <g transform="translate(371 90)">
        <circle id="Ellipse_9-243" data-name="Ellipse 9" cx="5" cy="5" r="5" transform="translate(139 180)" fill="#696969"/>
      </g>
      <g transform="translate(401 90)">
        <circle id="Ellipse_9-244" data-name="Ellipse 9" cx="5" cy="5" r="5" transform="translate(139 180)" fill="#696969"/>
      </g>
      <g transform="translate(431 90)">
        <circle id="Ellipse_9-245" data-name="Ellipse 9" cx="5" cy="5" r="5" transform="translate(139 180)" fill="#696969"/>
      </g>
      <g transform="translate(461 90)">
        <circle id="Ellipse_9-246" data-name="Ellipse 9" cx="5" cy="5" r="5" transform="translate(139 180)" fill="#696969"/>
      </g>
      <g transform="translate(491 90)">
        <circle id="Ellipse_9-247" data-name="Ellipse 9" cx="5" cy="5" r="5" transform="translate(139 180)" fill="#696969"/>
      </g>
      <g transform="translate(521 90)">
        <circle id="Ellipse_9-248" data-name="Ellipse 9" cx="5" cy="5" r="5" transform="translate(139 180)" fill="#696969"/>
      </g>
      <g transform="translate(551 90)">
        <circle id="Ellipse_9-249" data-name="Ellipse 9" cx="5" cy="5" r="5" transform="translate(139 180)" fill="#696969"/>
      </g>
      <g transform="translate(581 90)">
        <circle id="Ellipse_9-250" data-name="Ellipse 9" cx="5" cy="5" r="5" transform="translate(139 180)" fill="#696969"/>
      </g>
      <g transform="translate(-139 120)">
        <circle id="Ellipse_9-251" data-name="Ellipse 9" cx="5" cy="5" r="5" transform="translate(139 180)" fill="#696969"/>
      </g>
      <g transform="translate(-109 120)">
        <circle id="Ellipse_9-252" data-name="Ellipse 9" cx="5" cy="5" r="5" transform="translate(139 180)" fill="#696969"/>
      </g>
      <g transform="translate(-79 120)">
        <circle id="Ellipse_9-253" data-name="Ellipse 9" cx="5" cy="5" r="5" transform="translate(139 180)" fill="#696969"/>
      </g>
      <g transform="translate(-49 120)">
        <circle id="Ellipse_9-254" data-name="Ellipse 9" cx="5" cy="5" r="5" transform="translate(139 180)" fill="#696969"/>
      </g>
      <g transform="translate(-19 120)">
        <circle id="Ellipse_9-255" data-name="Ellipse 9" cx="5" cy="5" r="5" transform="translate(139 180)" fill="#696969"/>
      </g>
      <g transform="translate(11 120)">
        <circle id="Ellipse_9-256" data-name="Ellipse 9" cx="5" cy="5" r="5" transform="translate(139 180)" fill="#696969"/>
      </g>
      <g transform="translate(41 120)">
        <circle id="Ellipse_9-257" data-name="Ellipse 9" cx="5" cy="5" r="5" transform="translate(139 180)" fill="#696969"/>
      </g>
      <g transform="translate(71 120)">
        <circle id="Ellipse_9-258" data-name="Ellipse 9" cx="5" cy="5" r="5" transform="translate(139 180)" fill="#696969"/>
      </g>
      <g transform="translate(101 120)">
        <circle id="Ellipse_9-259" data-name="Ellipse 9" cx="5" cy="5" r="5" transform="translate(139 180)" fill="#696969"/>
      </g>
      <g transform="translate(131 120)">
        <circle id="Ellipse_9-260" data-name="Ellipse 9" cx="5" cy="5" r="5" transform="translate(139 180)" fill="#696969"/>
      </g>
      <g transform="translate(161 120)">
        <circle id="Ellipse_9-261" data-name="Ellipse 9" cx="5" cy="5" r="5" transform="translate(139 180)" fill="#696969"/>
      </g>
      <g transform="translate(191 120)">
        <circle id="Ellipse_9-262" data-name="Ellipse 9" cx="5" cy="5" r="5" transform="translate(139 180)" fill="#696969"/>
      </g>
      <g transform="translate(221 120)">
        <circle id="Ellipse_9-263" data-name="Ellipse 9" cx="5" cy="5" r="5" transform="translate(139 180)" fill="#696969"/>
      </g>
      <g transform="translate(251 120)">
        <circle id="Ellipse_9-264" data-name="Ellipse 9" cx="5" cy="5" r="5" transform="translate(139 180)" fill="#696969"/>
      </g>
      <g transform="translate(281 120)">
        <circle id="Ellipse_9-265" data-name="Ellipse 9" cx="5" cy="5" r="5" transform="translate(139 180)" fill="#696969"/>
      </g>
      <g transform="translate(311 120)">
        <circle id="Ellipse_9-266" data-name="Ellipse 9" cx="5" cy="5" r="5" transform="translate(139 180)" fill="#696969"/>
      </g>
      <g transform="translate(341 120)">
        <circle id="Ellipse_9-267" data-name="Ellipse 9" cx="5" cy="5" r="5" transform="translate(139 180)" fill="#696969"/>
      </g>
      <g transform="translate(371 120)">
        <circle id="Ellipse_9-268" data-name="Ellipse 9" cx="5" cy="5" r="5" transform="translate(139 180)" fill="#696969"/>
      </g>
      <g transform="translate(401 120)">
        <circle id="Ellipse_9-269" data-name="Ellipse 9" cx="5" cy="5" r="5" transform="translate(139 180)" fill="#696969"/>
      </g>
      <g transform="translate(431 120)">
        <circle id="Ellipse_9-270" data-name="Ellipse 9" cx="5" cy="5" r="5" transform="translate(139 180)" fill="#696969"/>
      </g>
      <g transform="translate(461 120)">
        <circle id="Ellipse_9-271" data-name="Ellipse 9" cx="5" cy="5" r="5" transform="translate(139 180)" fill="#696969"/>
      </g>
      <g transform="translate(491 120)">
        <circle id="Ellipse_9-272" data-name="Ellipse 9" cx="5" cy="5" r="5" transform="translate(139 180)" fill="#696969"/>
      </g>
      <g transform="translate(521 120)">
        <circle id="Ellipse_9-273" data-name="Ellipse 9" cx="5" cy="5" r="5" transform="translate(139 180)" fill="#696969"/>
      </g>
      <g transform="translate(551 120)">
        <circle id="Ellipse_9-274" data-name="Ellipse 9" cx="5" cy="5" r="5" transform="translate(139 180)" fill="#696969"/>
      </g>
      <g transform="translate(581 120)">
        <circle id="Ellipse_9-275" data-name="Ellipse 9" cx="5" cy="5" r="5" transform="translate(139 180)" fill="#696969"/>
      </g>
    </g>
  </g>
</svg>
