<svg id="peep-90" xmlns="http://www.w3.org/2000/svg" width="360" height="486" viewBox="0 0 360 486">
  <g id="BODY" transform="translate(46.585 202.579)">
    <path id="_Skin" data-name="âœ‹ Skin" d="M127.2.058C136.437.514,150.811,4.473,151.53,7c1.122,3.951-1.289,18.765,2.744,26.744,1.719,3.4,8.248,3.1,10.778,4.2,8.464,3.706,33.522,10.736,38.689,19.587,2.07,3.546,14.79,47.546,21.549,69.993a65.105,65.105,0,0,0,2.558,7.039l.344-1.684q4.134-20.351,4.134-24.64c0-4.468-3.562-23.318,0-28.112,3.527-4.746,12.026-8.626,15.851-8.7h.114a9.768,9.768,0,0,0,6.536-2.355l2.707-1.362q20.658-10.37,24.139-11.377c3.7-1.071,10,1.211,6.854,4.636q-3.151,3.425-15.836,12.118L269.5,75.626l.385.2q6.181,3.255,7.269,5.48,1.121,2.293-1.076,5.425l.222.217q2.779,2.728,2.779,3.66v3.034q2.764,4.05,1.382,6.755a12.476,12.476,0,0,1-4.383,4.688q-2.211,5.819-5.266,8.283t-10.561,4.1l-4.528,10.83-3.669,15.215-1.849,16.978.537.389c2.488,1.813,4.082,3.157,4.082,4.545,0,2.163-10.038,53.039-25.656,55.316-3.378.492-20.9-1.923-26.647-6.6l.085.506q2.03,12.265-.859,12.739-35.5,5.823-201.66,3.6Q-.9,142.76,9.03,113.473C25.959,63.537,44.623,46.482,51.153,45.021c5.72-1.28,25.554-9.177,31.1-11.273,3.619-1.368,4.395-5.47,8.519-5.47l.333,0c3.989.04,7.526.754,9.513-1.3,5.215-5.385,3.757-12.84,5.921-19.977C107.73,3.071,115.876-.5,127.2.058Z" transform="translate(17.589 -12.364)" fill="#d08b5b"/>
    <path id="_Jacket" data-name="ðŸ§¥ Jacket" d="M90.771,0,91.1,0c.986.01,1.944.061,2.858.1L92.037,6.668l-.042.689q-1.876,33.95,33.237,32.5t34.931-22.221l-.007-.422V8.6l.368.071a25.425,25.425,0,0,1,4.527,1c8.464,3.706,33.522,10.736,38.689,19.587,2.07,3.546,14.79,47.546,21.549,69.993q.37,1.23.771,2.4v4.436l-.074.269q-3.553,13.3,9.462,21.741a51.936,51.936,0,0,0,18.95,7.771,2.346,2.346,0,0,1,.427,1.276c0,2.163-10.038,53.039-25.656,55.316-3.378.492-20.9-1.923-26.647-6.6l.085.506.079.486q1.893,11.789-.938,12.253-35.5,5.823-201.66,3.6Q-.9,114.483,9.03,85.2C25.959,35.26,44.623,18.2,51.153,16.743c5.72-1.28,25.554-9.177,31.1-11.273C85.871,4.1,86.647,0,90.771,0Z" transform="translate(17.589 15.914)" fill="#ba98de"/>
    <path id="_Ink" data-name="ðŸ– Ink" d="M118.946,220.846a18.9,18.9,0,0,1-3.777-.324,8.9,8.9,0,0,1-3.277-1.315,2.632,2.632,0,0,1-1.216-.83,7,7,0,0,1-1.03-1.635,24.317,24.317,0,0,1-1.589-5.055c-.879-3.953-1.445-8.883-1.9-12.844a65.258,65.258,0,0,0-1.067-7.366l-.513-3.456c-1.862-12.572-4.019-27.458-5.909-42.54-1.966-15.69-3.4-29.694-4.4-42.81-.556-7.349-.981-14.567-1.262-21.455-.3-7.316-.447-14.536-.44-21.46.007-7.288.185-14.5.529-21.445.36-7.259.914-14.462,1.646-21.409a9.933,9.933,0,0,0-2.835.507A8.425,8.425,0,0,0,89.63,18.6a10.7,10.7,0,0,0-3.143,3.918,21.329,21.329,0,0,0-1.692,5.09,44.779,44.779,0,0,0-.759,5.216,51.859,51.859,0,0,1-2.16,9.913c-1.005,3.229-2.244,6.454-3.442,9.572v0c-1.359,3.538-2.765,7.2-3.831,10.869a53.635,53.635,0,0,0-1.323,5.575,39.3,39.3,0,0,0-.613,5.747,24.918,24.918,0,0,0,2.056,10.278c.6,1.267,1.25,2.539,1.941,3.886A52.763,52.763,0,0,1,81.3,99.645a17.623,17.623,0,0,1,.543,5.671,14.016,14.016,0,0,1-.519,2.842,14.367,14.367,0,0,1-1.178,2.833,32.084,32.084,0,0,0-3.21,4.422,10.031,10.031,0,0,0-1.317,3.617c-.342,2.386.289,4.95,1.334,9.2l.041.165c1.28,6.115,2.764,12.307,4.537,18.932,1.579,5.9,3.352,12.011,5.421,18.681,3.843,12.389,8.148,24.863,12.31,36.926.981,2.842,1.995,5.78,2.991,8.685-.231,1.206-.608,1.818-1.119,1.818-.37,0-.819-.32-1.334-.952a16.627,16.627,0,0,1-1.628-2.584,85.148,85.148,0,0,1-3.733-8.428c-2.567-6.523-5.065-13.989-6.558-18.45l0-.01c-.556-1.663-.959-2.865-1.125-3.293a4.43,4.43,0,0,1-1.988.513A3.365,3.365,0,0,1,83.3,179.9a3.632,3.632,0,0,1-1.142-.867,4.341,4.341,0,0,1-1.074-2.623,3.426,3.426,0,0,1,.748-2.389,3.343,3.343,0,0,1,1.1-.853,4.851,4.851,0,0,1,1.646-.448c-4.468-14.962-7.993-28.256-10.775-40.64l-.081-.385c-.184-.855-.387-1.71-.6-2.616a41.43,41.43,0,0,1-1.426-8.665,14.081,14.081,0,0,1,.505-4.188,10.979,10.979,0,0,1,2-3.859c6.694-6.772,3.137-13.994-.628-21.64-2.778-5.64-5.65-11.471-4.617-17.515a3.076,3.076,0,0,1-1.846.607,3.457,3.457,0,0,1-1.344-.279,3.56,3.56,0,0,1-1.136-.772,3.124,3.124,0,0,1-.913-2.257,2.991,2.991,0,0,1,.862-2.222,3.6,3.6,0,0,1,2.543-1.071A3.047,3.047,0,0,1,69.49,68.3a53.524,53.524,0,0,1,2.261-8.53c.961-2.781,2.095-5.56,3.192-8.248,1.073-2.63,2.183-5.35,3.13-8.069a54.632,54.632,0,0,0,2.257-8.331l.093-.541c.154-.9.286-1.82.413-2.712v0c.454-3.177.923-6.463,2.483-9.357a55.062,55.062,0,0,1-8.6,4.46A4.428,4.428,0,0,1,76.1,28.757a2.24,2.24,0,0,1,.024,1.579A2.862,2.862,0,0,1,74.9,31.751a3.6,3.6,0,0,1-1.86.54,2.4,2.4,0,0,1-1.842-.77,2.627,2.627,0,0,1-.571-1.156,5.03,5.03,0,0,1-.055-1.758c-3.7,1.07-6.953,2.167-9.956,3.353a68.517,68.517,0,0,0-8.148,3.807,49.044,49.044,0,0,0-6.654,4.4A43.591,43.591,0,0,0,40.346,45.3,59.647,59.647,0,0,0,31.689,58.33c-2.742,5.354-5.319,11.645-7.7,17.645a2.364,2.364,0,0,1,1.672-.694,2.946,2.946,0,0,1,2.424,1.384,2.377,2.377,0,0,1,.143,2.369,2.354,2.354,0,0,1-.969,1.22,2.649,2.649,0,0,1-1.413.389,2.969,2.969,0,0,1-1.887-.669A2.379,2.379,0,0,1,23.1,78.1l-.489,1.167c-3.848,9.2-6.718,16.73-9.031,23.684A174.528,174.528,0,0,0,7.2,127.45,5.076,5.076,0,0,1,7.9,127.4a3,3,0,0,1,2.231.854,2.828,2.828,0,0,1,.641,1.078,3.569,3.569,0,0,1,.174,1.269,3.74,3.74,0,0,1-.8,2.2,2.644,2.644,0,0,1-2.1,1,4.044,4.044,0,0,1-1.789-.469,203.122,203.122,0,0,0-1.843,22.351c-.255,7.9-.171,15.776-.055,22.441a3.693,3.693,0,0,1,1.686-.481,1.9,1.9,0,0,1,1.542.723,2.6,2.6,0,0,1,.529,1.591,2.467,2.467,0,0,1-.649,1.762,1.909,1.909,0,0,1-1.392.553,3.8,3.8,0,0,1-1.668-.454c.1,6.881.236,13.877.364,20.643.1,5.264.2,10.706.292,16.087a1.863,1.863,0,0,1-.509,1.373,2.058,2.058,0,0,1-1.468.576,2.163,2.163,0,0,1-1.4-.488,1.909,1.909,0,0,1-.665-1.462c-.11-4.4-.243-8.88-.372-13.207C.23,191.155-.206,176.486.106,162.07c-.047-4.019.055-8.12.3-12.191.243-3.978.633-8.038,1.16-12.068.513-3.933,1.171-7.948,1.954-11.933.763-3.884,1.668-7.849,2.688-11.785a231.688,231.688,0,0,1,7.336-23.08c2.739-7.305,5.951-14.823,9.546-22.344a83.288,83.288,0,0,1,9.785-19.488,51.254,51.254,0,0,1,5.74-6.836,48.252,48.252,0,0,1,6.436-5.383A70.535,70.535,0,0,1,60.408,29.1c5.733-2.218,12.024-4.163,19.309-6.416h0q2.076-.642,4.288-1.329a16.732,16.732,0,0,1,4.612-4.531A11.207,11.207,0,0,1,94.655,14.8a7.374,7.374,0,0,1,3.516.871,54.632,54.632,0,0,0,4.4-9.834c.619-1.668,1.259-3.393,1.96-5.024A1.554,1.554,0,0,1,106.015,0a3.3,3.3,0,0,1,1.45.368,2.953,2.953,0,0,1,1.158,3.054,14.476,14.476,0,0,1-1.264,3.611,18.724,18.724,0,0,0-.814,1.993,29.242,29.242,0,0,1-1.8,3.638,25.652,25.652,0,0,1-2.342,3.37,18.441,18.441,0,0,1-6.262,5.039c.066.8.137,1.647.194,2.325.34,4.051.691,8.239.833,12.375A29.492,29.492,0,0,0,109,44.192a86.589,86.589,0,0,0,14.143,4.262,28.507,28.507,0,0,0,7.6,1.022,30.355,30.355,0,0,0,9.053-1.395,31.2,31.2,0,0,0,8.228-3.966,29.685,29.685,0,0,0,6.687-6.208,27.484,27.484,0,0,0,4.429-8.123,10.872,10.872,0,0,1-3.5-3.237,15.066,15.066,0,0,1-2.105-4.451,18.4,18.4,0,0,1-.74-4.945,16.52,16.52,0,0,1,.6-4.719.637.637,0,0,1,.58-.4.456.456,0,0,1,.425.268,20.142,20.142,0,0,1,1.4,4.794,18.268,18.268,0,0,0,1.676,5.34,106.032,106.032,0,0,1,13.236,2.127,94.725,94.725,0,0,1,13.607,4.133,67.726,67.726,0,0,1,12.524,6.373,43.647,43.647,0,0,1,9.986,8.849c4.015,5.6,6.018,12.547,7.956,19.269v0c.4,1.385.812,2.816,1.23,4.189,2.677,8.487,5.11,17.206,7.462,25.638v0c2.138,7.663,4.348,15.588,6.735,23.31l.591-3.069c.777-4.054,1.572-8.377,2.016-12.756a56.331,56.331,0,0,0-.019-12.863l-.02-.411c-.057-1.1-.162-2.359-.272-3.694-.58-7.007-1.373-16.6,3.078-20.478a29.28,29.28,0,0,1,6.6-3.808,19.887,19.887,0,0,1,7.485-1.6,13.613,13.613,0,0,1,3.679.489,117.109,117.109,0,0,0,12.4-6.773c2.983-1.79,6.067-3.64,9.2-5.239,1.684-.861,3.247-1.582,4.778-2.205a44,44,0,0,1,5-1.709,11.225,11.225,0,0,1,2.227-.226,8.73,8.73,0,0,1,2.7.4A4.489,4.489,0,0,1,291.72,43.7a4,4,0,0,1,.729,3.407,13.323,13.323,0,0,1-2.066,4.285,18.393,18.393,0,0,1-3.249,3.417,53.744,53.744,0,0,1-8.278,5.28c-1.75.973-3.4,1.892-4.924,2.885a10.95,10.95,0,0,1,4.056,2.195,10.5,10.5,0,0,1,1.656,1.739,7.524,7.524,0,0,1,1.094,2.01A5,5,0,0,1,280,73.727a1.426,1.426,0,0,1-.079.187,4.3,4.3,0,0,1,1.594,1.191,4.532,4.532,0,0,1,.851,1.656,6.43,6.43,0,0,1,.226,1.913,8.723,8.723,0,0,1-.279,1.961c-.028.282-.074.344-.091.367s-.009.012.008.03a1.7,1.7,0,0,1,.236.31,4.615,4.615,0,0,1,1.038,1.512,6.917,6.917,0,0,1,.515,1.917,9,9,0,0,1-.457,4.132,6.2,6.2,0,0,1-1.516,2.412,3.829,3.829,0,0,1-2.442,1.078,9.3,9.3,0,0,1-1.329,5.373,12.271,12.271,0,0,1-1.705,2.276,12.646,12.646,0,0,1-2.141,1.815,19.623,19.623,0,0,1-4.661,2.036,29.087,29.087,0,0,0-3.322,1.276,8.911,8.911,0,0,0-2.807,2.017,59.77,59.77,0,0,0-4.06,8.82,75.48,75.48,0,0,0-2.738,9.357,115.941,115.941,0,0,0-2.517,19.407,10.619,10.619,0,0,1,3.592,2.266,7.021,7.021,0,0,1,2.051,3.392,4.6,4.6,0,0,1-.058,2.33,5.7,5.7,0,0,1-1.409,2.334h0c-.074.009-.149.017-.225.024a85.1,85.1,0,0,0-3.606,14.893c-.21,1.175-.428,2.388-.653,3.576a60.49,60.49,0,0,1-1.877,7.774,68.845,68.845,0,0,1-2.817,7.445c-1.045,2.349-2.258,4.743-3.607,7.114-1.271,2.234-2.7,4.515-4.247,6.78a15.7,15.7,0,0,1-3.163,3.793,16.876,16.876,0,0,1-4.036,2.592,20.721,20.721,0,0,1-4.654,1.486,25.945,25.945,0,0,1-5.016.474,31.661,31.661,0,0,1-9.879-1.632,27.442,27.442,0,0,1-8.38-4.424c.009.459.033.923.057,1.372a12.019,12.019,0,0,1-.326,4.476,2.179,2.179,0,0,1-.69.893,1.447,1.447,0,0,1-.848.279,1.732,1.732,0,0,1-1.229-.557,2.5,2.5,0,0,1-.669-1.474,3.674,3.674,0,0,1-1.78.533,2.258,2.258,0,0,1-1.815-.887,3.39,3.39,0,0,1-.689-1.952,2.906,2.906,0,0,1,.726-2.13,2.443,2.443,0,0,1,1.814-.709,4.428,4.428,0,0,1,1.126.159c-.454-7.123-.7-14.162-.874-20.109a5.04,5.04,0,0,1-1.543.264,3.081,3.081,0,0,1-2.421-1.069,3.77,3.77,0,0,1-.861-2.353,3.528,3.528,0,0,1,.917-2.559,2.961,2.961,0,0,1,2.183-.863,5.218,5.218,0,0,1,1.6.277L201,175.7c-.023-10.538.016-21.846.445-33.143.464-12.215,1.336-23.013,2.665-33.013.134-.816.318-1.632.5-2.421s.363-1.614.5-2.432a.123.123,0,0,1,.129-.105.157.157,0,0,1,.163.146c.169,11.5-.01,23.195-.183,34.508-.144,9.44-.293,19.2-.24,28.8.06,10.767.374,20.185.961,28.792a5.206,5.206,0,0,1,2.479,2.208,9.687,9.687,0,0,0,1.245,1.485,15.572,15.572,0,0,0,4.928,3.012,22.784,22.784,0,0,0,5.64,1.366,32.509,32.509,0,0,0,4.526.349,14.153,14.153,0,0,0,9.082-2.752c2.278-1.752,4.258-4.415,6.42-8.638a2.4,2.4,0,0,1-1.355.418,2.667,2.667,0,0,1-1.373-.394,2.858,2.858,0,0,1-1-1.011,2.417,2.417,0,0,1-.331-1.138,2.33,2.33,0,0,1,.326-1.239l.041-.069a2.321,2.321,0,0,1,2.078-1.222,2.81,2.81,0,0,1,1.165.259,2.732,2.732,0,0,1,.952.721,2.343,2.343,0,0,1,.466.881,2.432,2.432,0,0,1,.042,1.089,58.838,58.838,0,0,0,5.661-12.106,106.459,106.459,0,0,0,3.463-12.933l.25-1.046c.421-1.742.944-3.794,1.637-5.8a25.739,25.739,0,0,1,2.581-5.537,42.813,42.813,0,0,1-18.189-9.79A30.292,30.292,0,0,1,226.8,127.16c-2.908,9.139-6.765,18.219-10.5,27l0,.005c-.549,1.292-1.117,2.628-1.671,3.941-.482,1.285-.868,2.624-1.241,3.92a29.525,29.525,0,0,1-2.552,6.733.941.941,0,0,1-.83.478,1.027,1.027,0,0,1-.99-.717c-1.294-5.786,1.335-11.34,3.876-16.711.845-1.785,1.642-3.47,2.307-5.17.585-1.036,1.474-3.086,2.5-5.459,1.431-3.3,3.212-7.4,4.978-10.643a25.52,25.52,0,0,1,2.608-4.047c.893-1.072,1.688-1.619,2.364-1.627-1.694-7.43-3.769-15.535-6.342-24.78-2.292-8.236-4.755-16.577-7.136-24.643-.792-2.682-1.61-5.454-2.409-8.177a62.991,62.991,0,0,0-5.219-15.8,35.144,35.144,0,0,0-3.6-5.678,31.834,31.834,0,0,0-4.36-4.57,46.414,46.414,0,0,0-11.324-6.936c-4.213-1.922-8.986-3.671-15.322-5.871a68.172,68.172,0,0,0,3.191,10.8c1.348,3.587,2.935,7.228,4.471,10.749v0c1.516,3.477,3.084,7.072,4.425,10.624a70.365,70.365,0,0,1,3.215,10.713,38.927,38.927,0,0,1,.785,10.867,32.515,32.515,0,0,1-.9,5.512,33.4,33.4,0,0,1-1.966,5.576l-.249.585a20.06,20.06,0,0,0-1.26,3.768,8.487,8.487,0,0,0,.074,3.95,23.266,23.266,0,0,0,2.606,5.545c.339.582.689,1.183,1.014,1.781a29.775,29.775,0,0,1,1.937,4.442,32.062,32.062,0,0,1,1.188,4.571,41.509,41.509,0,0,1,.568,9.406c-.279,6.349-1.677,12.8-3.029,19.031-.409,1.885-.831,3.833-1.206,5.71-.739,3.438-1.488,6.935-2.213,10.317l-.026.123c-2.729,12.73-5.55,25.894-8.427,38.823-.21.957-.4,1.938-.588,2.888a52.361,52.361,0,0,1-1.684,6.924,1.594,1.594,0,0,1-.676.844,1.927,1.927,0,0,1-1.005.281,1.577,1.577,0,0,1-1.176-.472,1.366,1.366,0,0,1-.321-1.08,59.712,59.712,0,0,1,1.452-7.852c.235-1.014.478-2.062.694-3.1,1.9-9.831,4.111-19.777,6.252-29.4v0c2.985-13.413,6.072-27.284,8.349-41.054a36.485,36.485,0,0,0,.381-6.719,25.9,25.9,0,0,0-.76-5.292,35.742,35.742,0,0,0-3.309-7.99c-1.792-3.454-3.484-6.716-3.328-11.5a46.331,46.331,0,0,1,2.111-6.274,54.635,54.635,0,0,0,1.854-5.272,18.464,18.464,0,0,0,.737-5.563A39.666,39.666,0,0,0,184.7,73.1a53.25,53.25,0,0,0-1.642-7.287A138.539,138.539,0,0,0,177.742,51.7c-1.6-3.809-3.245-7.747-4.558-11.693-.707-2.124-1.263-4.081-1.7-5.982a46.248,46.248,0,0,1-1-6.144l-2.995-1.069c-1.807-.647-3.189-1.15-4.482-1.629,3.6,25.212,5.3,52.349,5.183,82.961-.049,12.973-.417,26.6-1.125,41.656-.579,12.306-1.378,25.5-2.517,41.508a58.541,58.541,0,0,0-.47,7.806c-.122,3.936-.274,8.834-.648,12.641a29.744,29.744,0,0,1-.754,4.733,5.25,5.25,0,0,1-.55,1.38.874.874,0,0,1-.691.5h0a.671.671,0,0,1-.285-.069,2.964,2.964,0,0,1-.553,1.354,1.573,1.573,0,0,1-1.282.611H159.3c-6.594.06-13.285.15-19.756.236h-.075c-3.744.05-7.615.1-11.422.147-.556-.051-1.163-.076-1.853-.076-1.128,0-2.29.065-3.519.135h0l-.049,0h0C121.418,220.776,120.176,220.846,118.946,220.846Zm130.3-160.654h0a13.434,13.434,0,0,0-5.117,1.184l-.737.276a26.945,26.945,0,0,0-3.768,1.694,9.054,9.054,0,0,0-3.047,2.608c-.758,1.09-.769,2.91-.779,4.516,0,.569-.007,1.105-.045,1.561a56.994,56.994,0,0,0-.308,8.42c.081,2.513.3,5.261.683,8.4a77.042,77.042,0,0,1-1.3,19.755,82.886,82.886,0,0,1-6.07,18.859,74.531,74.531,0,0,0,4.479,6.491,55.515,55.515,0,0,0,5.253,5.893,42.364,42.364,0,0,0,6.1,4.921,34.747,34.747,0,0,0,7.03,3.576,126.144,126.144,0,0,1,1.623-15.034c.766-4.7,1.707-9.338,2.884-14.851l.083-.43c.12-.634.233-1.281.343-1.906a46.415,46.415,0,0,1,1.232-5.646,17.946,17.946,0,0,1,1.045-2.668,13.825,13.825,0,0,1,1.562-2.488c2.451-2.662,5.289-3.606,8.035-4.519a19.883,19.883,0,0,0,5.6-2.527,10.836,10.836,0,0,0,2.4-2.379,15.15,15.15,0,0,0,1.976-3.734.8.8,0,0,1-.4-.935.816.816,0,0,1,.776-.662.92.92,0,0,1,.244.035,2.582,2.582,0,0,0,.449.041,2.082,2.082,0,0,0,1.508-.63,3.631,3.631,0,0,0,.869-1.554,6.168,6.168,0,0,0,.111-2.925,3.4,3.4,0,0,0-1.3-2.212,2.4,2.4,0,0,1-.781-.724,2.045,2.045,0,0,1-.314-.847,6.1,6.1,0,0,1,.154-1.911,4.224,4.224,0,0,0-.083-2.745,2.8,2.8,0,0,0-1.129-.847,2.8,2.8,0,0,1-1.27-1.023c-.541-1.306.09-2.449.7-3.554a8.832,8.832,0,0,0,.716-1.511,2.463,2.463,0,0,0,.035-1.559,3.661,3.661,0,0,0-1.225-1.617,13.966,13.966,0,0,0-3.054-1.807,7.417,7.417,0,0,0-2.528-.368c-.527,0-1.053.029-1.562.058l-.029,0c-.5.028-1.01.057-1.5.057h-.048a12.046,12.046,0,0,0-4.207,1.479,15.022,15.022,0,0,1-3.076,1.262A8.992,8.992,0,0,1,262,69.742a8.257,8.257,0,0,1,.02,1.985,7.527,7.527,0,0,1-1.247,3.411,6.356,6.356,0,0,1-2.073,1.934,5.4,5.4,0,0,1-2.7.721,5.963,5.963,0,0,1-2.32-.487,8.475,8.475,0,0,1-2.386-1.565,16.352,16.352,0,0,0-2.862,3.689c-.822,1.47-1.12,2.668-.84,3.374a1.367,1.367,0,0,0,1.434.755,9.4,9.4,0,0,0,3.3-.866c1.212-.809,2.389-1.7,3.529-2.57,1.284-.976,2.613-1.986,3.988-2.87a21.3,21.3,0,0,1,4.408-2.223l.1-.03c.292-.1.743-.277,1.313-.507,1.776-.716,4.459-1.8,6.092-1.8a1.5,1.5,0,0,1,1.158.374,1.093,1.093,0,0,1,.21.887,8.96,8.96,0,0,1-2.667,1.715,29.637,29.637,0,0,1-3.095,1.091,18.263,18.263,0,0,0-4.851,2.038,22.092,22.092,0,0,0-4.565,3.144,26.106,26.106,0,0,1-3.667,2.669,9.807,9.807,0,0,1-2.045.875,8.1,8.1,0,0,1-2.308.332h-.11c-.26,1.577-.1,2.72.474,3.4a2.413,2.413,0,0,0,1.94.75,10.925,10.925,0,0,0,4.253-1.185,29.93,29.93,0,0,0,3.778-2.093l.879-.477c4.536-2.451,9.036-4.654,14.221-4.684h.009a1.042,1.042,0,0,1,1.068,1.093,1.184,1.184,0,0,1-.267.774,1.042,1.042,0,0,1-.81.362,17.256,17.256,0,0,0-3.97.5,23.14,23.14,0,0,0-3.731,1.262,61.164,61.164,0,0,0-7.028,3.78c-1.076.641-2.189,1.3-3.287,1.912a2.415,2.415,0,0,0,.447,1.973,3.243,3.243,0,0,0,2.517.82,20.662,20.662,0,0,0,4.982-.886l.338-.091a15.3,15.3,0,0,0,3.009-.94,13.212,13.212,0,0,1,4.282-1.142,2.819,2.819,0,0,1,1.589.422,1.266,1.266,0,0,1,.006,1.1c-.382.708-1.617.97-2.707,1.2a7.29,7.29,0,0,0-1.606.455c2.274,1.092,2.958,2.035,2.84,2.552-.061.27-.339.43-.743.43a2.625,2.625,0,0,1-1.55-.624,4.66,4.66,0,0,1-1.428-2.086l-.479.164a28.113,28.113,0,0,1-8.443,1.752c-1.805,0-3.082-.428-3.794-1.272a3.812,3.812,0,0,1-.59-3.2,9.249,9.249,0,0,1-3.643.832,6.154,6.154,0,0,1-1.333-.141,9.988,9.988,0,0,1-2.848,2.849,4.86,4.86,0,0,1-2.4.858c-.461,0-.758-.158-.815-.432-.077-.369.271-.893.979-1.475A17.493,17.493,0,0,1,249.9,92.1a3.273,3.273,0,0,1-1.4-1.327,4.682,4.682,0,0,1-.62-1.953,3.951,3.951,0,0,1,.211-1.711,2.742,2.742,0,0,1,1.005-1.324c-2.01-.123-3.228-.785-3.62-1.969-.49-1.477.405-3.425,1.242-4.8a18.982,18.982,0,0,1,1.75-2.4,16.246,16.246,0,0,1,1.805-1.828c-.319-.323-.6-.62-.845-.908a16.73,16.73,0,0,1-2.769,1.032,16.958,16.958,0,0,1-2.936.528c-.049,0-.1.007-.146.007a1.388,1.388,0,0,1-1.094-.519,2.021,2.021,0,0,1-.441-1.149,1.5,1.5,0,0,1,1.226-1.724,15.579,15.579,0,0,0,5.726-1.861,2.014,2.014,0,0,1,.8-.178c1.051,0,1.82.971,2.634,2,.841,1.062,1.711,2.161,2.958,2.243a2.167,2.167,0,0,0,.418.042,2.088,2.088,0,0,0,1.559-.737,3.637,3.637,0,0,0,.817-1.622,26.654,26.654,0,0,0-.845-4.242,15.114,15.114,0,0,0-1.632-3.773,7.294,7.294,0,0,0-6.453-3.739Zm38.227-15.449a5.954,5.954,0,0,0-1.162.125c-4.228.572-8.226,2.773-12.093,4.9-1.077.593-2.094,1.152-3.118,1.68-3.209,1.7-6.539,3.235-9.759,4.723h0c-1.985.917-4.035,1.865-6.046,2.844a11.958,11.958,0,0,1,2.874,2.519,18.019,18.019,0,0,1,2.168,3.31,13.66,13.66,0,0,1,4.131-2.108,17.246,17.246,0,0,1,4.591-.787,22.035,22.035,0,0,1,4.056-2.993c1.467-.87,3.05-1.658,4.581-2.421a54.844,54.844,0,0,0,5.989-3.3,20.691,20.691,0,0,0,2.653-2.075,15.364,15.364,0,0,0,2.235-2.58,4.8,4.8,0,0,0,.938-1.639,1.758,1.758,0,0,0-.038-1.268,2.037,2.037,0,0,0-2-.934ZM44.292,214.94a1.766,1.766,0,0,1-1.586-.888,2.1,2.1,0,0,1,.58-2.428.56.56,0,0,0-.028-.061c-.007-.014-.013-.027-.019-.04-.045-.13-.1-.259-.156-.384a4.344,4.344,0,0,1-.18-.46,7.578,7.578,0,0,1-.21-2.313c0-.172,0-.349,0-.522,0-1.377.039-2.777.077-4.131v0q.012-.443.024-.886c.107-3.855.222-7.343.351-10.665.518-13.1,1.541-25.979,2.374-35.732l.345-4.012c.467-5.423.941-10.727,1.607-15.985.03-.245.063-.506.1-.761a3.518,3.518,0,0,1-.964-.71,12.855,12.855,0,0,1-2.177-3.894l-.146-.348-.139-.329a23.253,23.253,0,0,1-1.581-4.755l-.03-.152-.014-.069c-.145-.709-.388-1.9.336-2.226a.765.765,0,0,1,.311-.079c.21,0,.363.141.453.418a.185.185,0,0,1-.025.152,6.721,6.721,0,0,0,.591.737,7.147,7.147,0,0,1,.5.614l1.041,1.489.515.748c.577.849,1.235,1.735,2.069,2.787a91,91,0,0,1,2.342-11.825.346.346,0,0,1,.341-.265.38.38,0,0,1,.388.363,136.287,136.287,0,0,1-.333,15.912c-.123,1.814-.263,3.655-.4,5.436v.013c-.106,1.393-.216,2.834-.316,4.246-.6,8.445-1.095,17.023-1.464,25.5a3.325,3.325,0,0,1,.4-.14,3.587,3.587,0,0,1,1.921,0,3.58,3.58,0,0,1,1.5.841l.091.088a4.068,4.068,0,0,1,1.06,2.438l0,.114a3.552,3.552,0,0,1-.494,1.823,3.664,3.664,0,0,1-1.293,1.3,3.622,3.622,0,0,1-1.822.491c-.067.006-.138.013-.209.016l-.115,0a2.653,2.653,0,0,1-1.242-.3l-.063-.019c-.162,4.413-.291,8.77-.384,12.951-.037,1.616-.079,3.249-.12,4.829-.055,2.117-.112,4.306-.155,6.46l-.035,1.883-.069,4.16q0,.132,0,.264a13.939,13.939,0,0,1-.59,4.7l-.07.186c-.075.193-.145.394-.219.608a4.281,4.281,0,0,1-1.644,2.569,2.179,2.179,0,0,1-1.025.257ZM94.823,210.3a2.383,2.383,0,0,1-1.467-.507l-.065-.048-.062-.051a1.649,1.649,0,0,1-.546-1.253,1.719,1.719,0,0,1,.492-1.34l.054-.045c.037-.032.077-.063.127-.1a2.382,2.382,0,0,1,1.463-.5,2.032,2.032,0,0,1,1.36.49,2.016,2.016,0,0,1,0,2.867A2.027,2.027,0,0,1,94.823,210.3Zm-57.982-.479h0l-.112,0a3.228,3.228,0,0,1-1.651-.447c-.141-.106-.283-.216-.421-.323l-.008-.006-.03-.023-.2-.158a3.279,3.279,0,0,1-.839-1.443l-.026-.2v-.007c-.029-.219-.059-.444-.091-.666a2.511,2.511,0,0,1,.282-1.259,2.477,2.477,0,0,1,.675-1.052,2.412,2.412,0,0,1,1.052-.676,2.441,2.441,0,0,1,1.149-.285l.112,0a3.223,3.223,0,0,1,1.648.447c.165.125.333.255.481.37l.181.14a3.256,3.256,0,0,1,.84,1.442l.118.868a3.652,3.652,0,0,1-.957,2.312,2.44,2.44,0,0,1-1.052.675A2.429,2.429,0,0,1,36.841,209.822Zm147.672-5.732a1.576,1.576,0,0,1-.4-.052,2.234,2.234,0,0,1-1.109-.355c-.169-.13-.338-.261-.525-.407l-.08-.063a8.021,8.021,0,0,1-.5-.64c-.109-.255-.212-.5-.307-.726a3.251,3.251,0,0,1,0-1.661l0-.012a1.473,1.473,0,0,1,.076-.282l.068-.184a3.308,3.308,0,0,1,.6-1.065l.123-.165a2.154,2.154,0,0,1,.2-.235,3.51,3.51,0,0,1,.471-.381c.087-.063.17-.122.248-.184a3.148,3.148,0,0,1,1.575-.425l.831.111a3.11,3.11,0,0,1,1.863,1.436,2.332,2.332,0,0,1,.371,1.16,2.38,2.38,0,0,1-.057,1.243,2.349,2.349,0,0,1-.558,1.062,2.168,2.168,0,0,1-.332.406,3.569,3.569,0,0,1-1.059,1.011,2.237,2.237,0,0,1-1.112.355A1.546,1.546,0,0,1,184.512,204.09ZM77.571,200.349l-.1,0A2.542,2.542,0,0,1,76.183,200l-.52-.4A2.6,2.6,0,0,1,75,198.467c-.025-.2-.053-.4-.08-.595v-.007l-.011-.08a2.862,2.862,0,0,1,.751-1.81,2.932,2.932,0,0,1,1.707-.753h.106a2.574,2.574,0,0,1,1.29.349l.52.4a2.56,2.56,0,0,1,.659,1.129c.026.207.055.416.083.619v0l.008.06a1.948,1.948,0,0,1-.222.989,1.9,1.9,0,0,1-.529.824,1.958,1.958,0,0,1-.824.529A1.919,1.919,0,0,1,77.571,200.349Zm-20.726-.233a2.667,2.667,0,0,1-.9-.15,4.565,4.565,0,0,1-.849-.377A3.8,3.8,0,0,1,54,198.47l0,0a2.857,2.857,0,0,1,0-2.881,2.881,2.881,0,0,1,2.462-1.411h.032a3.211,3.211,0,0,1,1.844.564,3.15,3.15,0,0,1,1.182,1.382l.016.038c.066.155.128.3.184.453a2.517,2.517,0,0,1-.054,2.165,2.867,2.867,0,0,1-1.854,1.195A3.35,3.35,0,0,1,56.846,200.116Zm-34.271-.009a5.089,5.089,0,0,1-.864-.081,3.122,3.122,0,0,1-1.4-.767,1.913,1.913,0,0,1-.554-1.7,1.939,1.939,0,0,1,.754-1.31l0-.009-.152.117c.051-.045.1-.094.152-.141l.019-.018a1.027,1.027,0,0,0,.048-.1l0-.006a2.65,2.65,0,0,1,.947-.948,2.658,2.658,0,0,1,3.885,2.987,2.651,2.651,0,0,1-1.847,1.848A4.048,4.048,0,0,1,22.575,200.108Zm196.1-9.8a3.713,3.713,0,0,1-1.393-.357,3.077,3.077,0,0,1-.928-.926,1.911,1.911,0,0,1-.308-.964,1.332,1.332,0,0,1,0-.684,1.934,1.934,0,0,1,.308-.964l.405-.524.041-.035a2.587,2.587,0,0,1,1.147-.669,2.615,2.615,0,0,1,1.382,0,1.936,1.936,0,0,1,.884.466,1.956,1.956,0,0,1,.618.64l.05.09a2.7,2.7,0,0,1,.263,2,2.429,2.429,0,0,1-.664,1.151,2.482,2.482,0,0,1-1.152.666l-.028.005-.029.008A1.987,1.987,0,0,1,218.673,190.306ZM186.04,174.855a2.97,2.97,0,0,1-2.335-1.007,3.546,3.546,0,0,1,0-4.433,3.21,3.21,0,0,1,4.67,0,3.545,3.545,0,0,1,0,4.433A2.969,2.969,0,0,1,186.04,174.855ZM34.26,174.1a2.53,2.53,0,0,1-.76-.119l-.291-.123-.492-.207-.665-.514-.513-.666-.164-.391-.166-.393-.117-.872a2.47,2.47,0,0,1,.282-1.265,3.245,3.245,0,0,1,1.011-1.313,1.646,1.646,0,0,1,.723-.421,1.624,1.624,0,0,1,.827-.222,2.5,2.5,0,0,1,.55-.062,2.532,2.532,0,0,1,.759.119l.217.092c.186.079.378.16.566.238l.665.514a1.2,1.2,0,0,1,.209.245c.028.039.056.079.089.123l.143.187a2.175,2.175,0,0,1,.352.7l.085.223a3.217,3.217,0,0,1,0,1.693,3.013,3.013,0,0,1-.326.767,3.157,3.157,0,0,1-.462.613l-.09.091a2.488,2.488,0,0,1-1.055.679,1.624,1.624,0,0,1-.827.222A2.512,2.512,0,0,1,34.26,174.1Zm205.14-5.971a2.4,2.4,0,0,1-1.23-.336,2.734,2.734,0,0,1-.912-.895,1.306,1.306,0,0,1-.107-.233c-.014-.038-.029-.076-.045-.112s-.03-.07-.046-.105a2.08,2.08,0,0,1-.1-.243,2.589,2.589,0,0,1,0-1.351,1.917,1.917,0,0,1,.453-.863,1.939,1.939,0,0,1,.713-.653,2.532,2.532,0,0,1,1.175-.346l.114,0h.076a1.878,1.878,0,0,1,.891.22,2.162,2.162,0,0,1,.3.13,2.544,2.544,0,0,1,.913.91,1.921,1.921,0,0,1,.3.944,1.894,1.894,0,0,1-.02.92l-.027.092a2.481,2.481,0,0,1-.313.694.379.379,0,0,1-.048.073,2.482,2.482,0,0,1-.843.818,2.525,2.525,0,0,1-1.252.339Zm-174.959-2.9a1.272,1.272,0,0,1-.334-.045,2.447,2.447,0,0,1-1.2-.5,1.872,1.872,0,0,1-.649-.707L62,163.366l-.088-.672.088-.669.14-.33a2.672,2.672,0,0,1,1.863-1.864,2.705,2.705,0,0,1,.712-.1,2.646,2.646,0,0,1,.6.07l.109.028a2.039,2.039,0,0,1,.909.476,2.066,2.066,0,0,1,.688.751,2.667,2.667,0,0,1-.96,3.652l-.349.168a1.88,1.88,0,0,1-.938.3A1.3,1.3,0,0,1,64.441,165.221Zm157.531-3.941a2.68,2.68,0,0,1-.806-.127l-.587-.248-.017-.007-.22-.093c-.171-.13-.345-.264-.512-.394l-.006,0-.182-.141-.117-.152c-.139-.18-.282-.365-.425-.548a2.556,2.556,0,0,1-.409-1.287,1.726,1.726,0,0,1,0-.92,1.706,1.706,0,0,1,.234-.872,2.6,2.6,0,0,1,.716-1.116l.143-.111c.182-.141.37-.286.557-.428.23-.1.531-.226.824-.348a2.624,2.624,0,0,1,1.382-.063,3.443,3.443,0,0,1,1.635.682,2.635,2.635,0,0,1,.89.969l.348.828a3.515,3.515,0,0,1,.007,1.864,2.572,2.572,0,0,1-.609,1.16,1.723,1.723,0,0,1-.612.612,2.578,2.578,0,0,1-1.016.57l-.106.029-.038.009a.04.04,0,0,1-.019,0,.019.019,0,0,1-.013,0,2.293,2.293,0,0,1-.469.066A2.681,2.681,0,0,1,221.972,161.28ZM19.643,148.938a3.106,3.106,0,0,1-.7-.079,2.278,2.278,0,0,1-.7-.3,2.483,2.483,0,0,1-.832-.845,2.236,2.236,0,0,1-.314-1.143,1.9,1.9,0,0,1,.019-.266,2.054,2.054,0,0,1-.054-.565l.095-.716.006-.019a2.681,2.681,0,0,1,1.763-1.836l.1-.031h.016a2.689,2.689,0,0,1,1.435,0l.643.269a2.019,2.019,0,0,1,.758.7,2,2,0,0,1,.485.92,3.043,3.043,0,0,1,.016,1.737,3.337,3.337,0,0,1-.83,1.42,2.617,2.617,0,0,1-1.91.761ZM194.8,142.154a2.547,2.547,0,0,1-1.724-.713,2.461,2.461,0,0,1-.713-1.725,1.853,1.853,0,0,1,.209-.938,1.815,1.815,0,0,1,.435-.716l.069-.067a2.44,2.44,0,0,1,3.448,0,2.444,2.444,0,0,1,.713,1.721,2.7,2.7,0,0,1-.713,1.725A2.537,2.537,0,0,1,194.8,142.154Zm20.079-13.617a3.026,3.026,0,0,1-1.53-.415,3.069,3.069,0,0,1-1.087-1.087,2.111,2.111,0,0,1-.355-.882,3.089,3.089,0,0,1,.712-2.918l.08-.084a3.506,3.506,0,0,1,2.075-.906l.106,0a3.1,3.1,0,0,1,1.556.422l.215.166h0c.134.1.272.209.408.316a3.089,3.089,0,0,1,.792,3,2.143,2.143,0,0,1-.352.882,3.1,3.1,0,0,1-1.09,1.087A3.028,3.028,0,0,1,214.881,128.537Zm-152.056-.872h0c-.087-.012-.179-.025-.269-.035a1.948,1.948,0,0,1-.313-.035l-.1-.023-.094-.025a1.98,1.98,0,0,1-.362-.146,1.311,1.311,0,0,1-.58-.339,1.986,1.986,0,0,1-.678-.739l-.044-.1a1.839,1.839,0,0,1-.149-.339,1.249,1.249,0,0,1-.165-.612,1.853,1.853,0,0,1,.017-.868l.028-.1.244-.58a2.958,2.958,0,0,1,.431-.558c.107-.095.357-.289.5-.386l.087-.057a1.974,1.974,0,0,1,.976-.311,1.311,1.311,0,0,1,.7,0,1.974,1.974,0,0,1,.976.311c.178.139.36.28.532.412l.155.186a2.6,2.6,0,0,1,.52.909l0,.006.07.17a1.99,1.99,0,0,1,.045,1.027,1.286,1.286,0,0,1-.175.647,1.259,1.259,0,0,1-.333.568,1.3,1.3,0,0,1-.46.463,1.943,1.943,0,0,1-.874.46l-.682.092Zm-36.466-6.639a2.355,2.355,0,0,1-2.269-2.941l.051-.2a2.274,2.274,0,0,1,.9-1.313,2.582,2.582,0,0,1,1.479-.464,2.4,2.4,0,0,1,1.714.7,2.371,2.371,0,0,1,.631,1.142,2.582,2.582,0,0,1-.028,1.265,2.348,2.348,0,0,1-1.683,1.692l-.206.051A2.416,2.416,0,0,1,26.359,121.026ZM250.611,110.4a7.914,7.914,0,0,1-2.929-.643,12.142,12.142,0,0,1-2.848-1.67,10.422,10.422,0,0,1-2.2-2.309,5.32,5.32,0,0,1-.982-2.561.162.162,0,0,1,.042-.126.207.207,0,0,1,.15-.061.2.2,0,0,1,.137.051,20.464,20.464,0,0,1,1.513,1.558,11.548,11.548,0,0,0,2.842,2.515,10.75,10.75,0,0,0,3.418,1.092,16.079,16.079,0,0,1,2.308.575.706.706,0,0,1,0,1.347A4.4,4.4,0,0,1,250.611,110.4ZM69.746,109a1.545,1.545,0,0,1-.411-.057,1.528,1.528,0,0,1-.776-.209,1.567,1.567,0,0,1-.682-.4,2.359,2.359,0,0,1-.792-.865c-.106-.248-.21-.495-.31-.736l-.111-.821.111-.821.006-.025a3.072,3.072,0,0,1,.78-1.338l.615-.476a2.894,2.894,0,0,1,.751-.314,2.428,2.428,0,0,1,.718-.111,2.337,2.337,0,0,1,.512.057,1.518,1.518,0,0,1,.776.209,1.561,1.561,0,0,1,.681.4,1.583,1.583,0,0,1,.555.555,2.327,2.327,0,0,1,.551,1.046l.108.821-.108.821c-.1.231-.2.479-.311.736l-.283.384a2.1,2.1,0,0,1-.607.564l-.215.159a2.285,2.285,0,0,1-1.147.364A1.524,1.524,0,0,1,69.746,109Zm147.789-.425-.1,0a2.482,2.482,0,0,1-1.236-.336l-.494-.384a1.822,1.822,0,0,1-.507-.789,1.841,1.841,0,0,1-.212-.945l0-.06a.907.907,0,0,1,.044-.358,1.378,1.378,0,0,1,.051-.362,2.582,2.582,0,0,1,1.781-1.781,2.524,2.524,0,0,1,.669-.09,2.579,2.579,0,0,1,1.815.746,2.543,2.543,0,0,1,0,3.607,2.524,2.524,0,0,1-1.125.657,2.58,2.58,0,0,1-.68.1ZM27.388,99.167a2.5,2.5,0,0,1-.328-.023,1.8,1.8,0,0,1-.894-.336,1.71,1.71,0,0,1-.618-.618l-.174-.412a2.831,2.831,0,0,1-.063-.495.431.431,0,0,0,0-.063,3.3,3.3,0,0,1,.069-.548,2.093,2.093,0,0,1,.374-.716,1.5,1.5,0,0,1,.564-.517l.021-.016.024-.016.092-.064,0,0,.13-.09a2.036,2.036,0,0,1,1.033-.278h.061a1.531,1.531,0,0,1,.728.179,1.474,1.474,0,0,1,.659.425,1.508,1.508,0,0,1,.425.66,1.549,1.549,0,0,1,.177.789,2.033,2.033,0,0,1-.279,1.033c-.115.15-.219.284-.323.415a2.025,2.025,0,0,1-.9.53l-.2.07A1.652,1.652,0,0,1,27.388,99.167Zm163.875-.832a2.808,2.808,0,0,1-1.414-5.231,2.8,2.8,0,0,1,2.83,0,.391.391,0,0,1,.044.019,2.8,2.8,0,0,1,1,1,2.784,2.784,0,0,1,0,2.809,2.805,2.805,0,0,1-1,1,.183.183,0,0,1-.035.018l-.009,0A2.824,2.824,0,0,1,191.263,98.335ZM60.5,94.608H60.42a2.681,2.681,0,0,1-1.834-.738c-.038-.042-.076-.087-.112-.13l-.056-.067-.4-.457A2.429,2.429,0,0,1,57.4,92.14c-.03-.2-.057-.409-.083-.606l-.006-.044a2.44,2.44,0,0,1,2.351-2.436l.086,0,.079,0a1.789,1.789,0,0,1,.859.214,1.853,1.853,0,0,1,.786.5l.463.386.134.109.065.056a2.533,2.533,0,0,1,.644,1.106c.038.246.069.484.095.729a2.426,2.426,0,0,1-.716,1.734,1.878,1.878,0,0,1-.789.507A1.85,1.85,0,0,1,60.5,94.608ZM43.663,87.493a2.353,2.353,0,0,1-1.851-.8,2.813,2.813,0,0,1,0-3.516,2.544,2.544,0,0,1,3.7,0,2.811,2.811,0,0,1,0,3.516A2.354,2.354,0,0,1,43.663,87.493Zm165.9-6.215-.093,0a3.037,3.037,0,0,1-1.531-.415l-.177-.136-.007-.006,0,0c-.14-.108-.284-.22-.428-.328a3.052,3.052,0,0,1-.741-1.221l-.035-.117-.111-.809a3.145,3.145,0,0,1,2.929-3.032l.1,0a3.027,3.027,0,0,1,1.528.415l.614.472a3.1,3.1,0,0,1,.78,1.338c.031.245.068.529.108.805a3.407,3.407,0,0,1-.888,2.146,3.477,3.477,0,0,1-2.049.889Zm-15.11-11.372a2.227,2.227,0,0,1-1.437-.626l-.086-.08,0,0c-.048-.044-.1-.09-.146-.134a1.852,1.852,0,0,1-.535-1.293,2.057,2.057,0,0,1,.535-1.294c.055-.048.11-.1.163-.149l.072-.067a2.3,2.3,0,0,1,1.505-.624h.062a2.4,2.4,0,0,1,1.446.625,2.057,2.057,0,0,1,0,3.018,2.151,2.151,0,0,1-.941.549l-.567.076ZM42.43,63.782a3.3,3.3,0,0,1-1.658-.45l-.665-.513a2.492,2.492,0,0,1-.682-1.059,2.465,2.465,0,0,1-.284-1.155l0-.113a.706.706,0,0,1,0-.082c.03-.238.063-.481.1-.716v-.006l.023-.172a2.538,2.538,0,0,1,.6-1.145,1.078,1.078,0,0,1,.307-.377,3.373,3.373,0,0,1,1.483-.866c.229-.029.461-.061.686-.091l.012,0,.2-.027a3.368,3.368,0,0,1,1.589.4l.106.059.678.526a2.529,2.529,0,0,1,.7,1.081,3.052,3.052,0,0,1,0,2.59,2.484,2.484,0,0,1-.7,1.081,1.974,1.974,0,0,1-.716.574c-.214.088-.434.181-.628.264l-.177.075a3.755,3.755,0,0,1-.933.121ZM189.768,53.335l-.077,0a2.327,2.327,0,0,1-1.192-.324c-.19-.144-.342-.261-.479-.368a2.366,2.366,0,0,1-.576-.944l-.03-.1-.085-.628a1.755,1.755,0,0,1,.2-.91,2.119,2.119,0,0,1,1.249-1.249,1.759,1.759,0,0,1,.813-.2h.1a2.354,2.354,0,0,1,1.192.32c.144.111.3.229.478.371a2.34,2.34,0,0,1,.608,1.043l.086.627a2.656,2.656,0,0,1-.694,1.671,2.683,2.683,0,0,1-1.593.693ZM61.3,52.159l-.114,0a3.461,3.461,0,0,1-1.762-.476l-.243-.188h0c-.151-.117-.307-.238-.461-.356a3.562,3.562,0,0,1-.9-1.541l-.124-.929A3.893,3.893,0,0,1,58.719,46.2a2.6,2.6,0,0,1,1.125-.723,2.641,2.641,0,0,1,1.233-.3l.111,0a3.5,3.5,0,0,1,1.762.479l.079.061c.2.157.415.32.624.484a3.5,3.5,0,0,1,.9,1.54l.123.926a3.892,3.892,0,0,1-1.024,2.47A3.971,3.971,0,0,1,61.3,52.159ZM178.741,42.9a2.492,2.492,0,0,1-.753-.119c-.253-.109-.513-.217-.765-.322l0,0-.007,0-.083-.048a3.2,3.2,0,0,1,0-5.52.519.519,0,0,0,.057-.03l.026-.015a2.424,2.424,0,0,1,1.208-.387,1.659,1.659,0,0,1,.865,0,2.422,2.422,0,0,1,1.208.387l.656.508a.244.244,0,0,1,.029.032A3.217,3.217,0,0,1,182,38.8l.114.853a3.645,3.645,0,0,1-.862,2.192l-.1.1a2.436,2.436,0,0,1-1.043.672,1.6,1.6,0,0,1-.821.222A2.456,2.456,0,0,1,178.741,42.9Z" transform="translate(14.895 0.98)"/>
  </g>
  <g id="HEAD" transform="translate(117.887 57.065)">
    <path id="_Skin-2" data-name="âœ‹ Skin" d="M54.14.024c47.6,1.511,50.468,24.175,50.468,62.185S79.917,124.17,70.825,128.353,37.794,150.5,16.19,142.221.842,98.967.842,83.939,6.543-1.487,54.14.024Z" transform="translate(28.169 33.319)" fill="#d08b5b"/>
    <path id="_hijab" data-name="ðŸ§• hijab" d="M0,58.918Q14.762-1.426,53.9.035C93.032,1.5,92.62,41.484,90.165,37.838q-2.406-3.573-33.692-24.965l-1.289-.881Z" transform="translate(36.305 34.745)" fill="#9fd8e5"/>
    <path id="_Ink-2" data-name="ðŸ– Ink" d="M82.2,198.653c-6.638,0-12.958-2.551-18.265-5.047-9.466-4.448-18.9-9.414-28.027-14.216l-.007,0c-2.8-1.476-5.7-3-8.558-4.488-7.09-3.69-12.885-6.734-18.237-9.578-.5-.268-1.168-.629-1.82-1.04l-.139,0H7.12c-.109,0-.232,0-.352,0-.406,0-.824.025-1.267.051s-.912.054-1.366.054a5.994,5.994,0,0,1-1.824-.233,3.225,3.225,0,0,1-2.164-2.179,3.816,3.816,0,0,1-.14-1.3,5.744,5.744,0,0,1,.816-2.535,19.335,19.335,0,0,1,4.292-4.487l.3-.257c1.839-1.555,3.734-2.948,5.346-4.1.75-.538,1.519-1.08,2.263-1.6,1.347-.948,2.739-1.929,4.078-2.933l.05-.077c.1-.146.194-.3.288-.448A25.293,25.293,0,0,0,21.1,133.245a36.346,36.346,0,0,1-2.144-2.967A77.385,77.385,0,0,1,10.5,112,98.7,98.7,0,0,1,6.408,92.241a90.915,90.915,0,0,1,.12-20.022A84.17,84.17,0,0,1,18.691,37.294a86.2,86.2,0,0,1,10.5-13.676A81.922,81.922,0,0,1,42.212,12.391,75.129,75.129,0,0,1,57.35,4.282,62.479,62.479,0,0,1,68.193,1.1,58.389,58.389,0,0,1,79.4,0,54.467,54.467,0,0,1,89.618.96a51.291,51.291,0,0,1,8.36,2.362,55.287,55.287,0,0,1,7.919,3.72,56.8,56.8,0,0,1,7.25,4.911,55.2,55.2,0,0,1,6.355,5.934,61.944,61.944,0,0,1,4.659,5.774,67.589,67.589,0,0,1,3.947,6.245,79.98,79.98,0,0,1,5.944,13.571,113.973,113.973,0,0,1,5.386,29.161,112.137,112.137,0,0,1-3.9,37.656,109.832,109.832,0,0,1-6.457,17.017,121.084,121.084,0,0,1-9.073,15.82c.326.491.687,1.013,1.17,1.693,1.608,2.255,3.324,4.691,4.981,7.222a50.174,50.174,0,0,1,3.934,6.986,25.139,25.139,0,0,1,2.169,7.628,20.056,20.056,0,0,1,.114,2.625,3.8,3.8,0,0,1-1.151,2.548,3.628,3.628,0,0,1-2.511,1.121,2.884,2.884,0,0,1-1.72-.571,7.884,7.884,0,0,0-4.782-1.527,14.211,14.211,0,0,0-4.483.842c-1.661,2.109-3.382,4.225-5.116,6.29-2.34,2.782-4.46,5.28-6.72,7.685a64.791,64.791,0,0,1-7.479,6.923,30.761,30.761,0,0,1-7.6,4.394,23.615,23.615,0,0,1-8.587,1.664ZM35.441,152.792a1.214,1.214,0,0,0-.807.316,1.457,1.457,0,0,0-.45.734,1.109,1.109,0,0,0,.591,1.3,51.044,51.044,0,0,0,9.457,3.87A80.52,80.52,0,0,0,54.2,161.3a1.453,1.453,0,0,0,.242.021,1.4,1.4,0,0,0,1.341-1.305,1.026,1.026,0,0,0-.91-1.161,81.148,81.148,0,0,1-9.659-2.182,48.291,48.291,0,0,1-9.164-3.717A1.283,1.283,0,0,0,35.441,152.792ZM44.756,142.4a1.416,1.416,0,0,0-1.267.889,1.1,1.1,0,0,0,.32,1.25,44.943,44.943,0,0,0,6.293,4.81,51.476,51.476,0,0,0,6.971,3.69,65.408,65.408,0,0,0,15.163,4.425,1.454,1.454,0,0,0,.243.021,1.268,1.268,0,0,0,.94-.411,1.51,1.51,0,0,0,.4-.892,1.028,1.028,0,0,0-.91-1.164,64.543,64.543,0,0,1-14.56-4.181,48.823,48.823,0,0,1-6.705-3.5,41.917,41.917,0,0,1-6.045-4.6A1.235,1.235,0,0,0,44.756,142.4Zm46.6-105.923-.623.508-.041.033-.6.486c-1.027.839-2.058,1.688-3.055,2.508l0,0c-1.5,1.233-3.049,2.508-4.583,3.751-5.472,4.435-10.88,8.96-14.98,12.406C59.465,62.9,48.89,71.767,38.145,80.628a49.915,49.915,0,0,0-.943,10.04,60.768,60.768,0,0,0,.912,10.05A65.145,65.145,0,0,0,40.979,111.4c1.349,3.81,2.956,7.468,4.205,10.23,2.118,1.987,3.917,3.6,5.661,5.069,2.073,1.749,4.045,3.278,6.027,4.674a58.9,58.9,0,0,0,15.647,8.094,39.63,39.63,0,0,0,12.325,2.044,33.365,33.365,0,0,0,8.092-.979,31.494,31.494,0,0,0,7.734-3.069,40.617,40.617,0,0,0,10.086-8.1,52.69,52.69,0,0,0,7.449-10.621c4.252-7.912,6.6-17.108,7.173-28.115a128.841,128.841,0,0,0-.159-14.782c-.325-5.213-.873-10.336-1.365-14.659a1.467,1.467,0,0,1-.207.015,1.668,1.668,0,0,1-.429-.059,6.988,6.988,0,0,1-3.107-2.407c-.277-.31-.539-.6-.808-.875-1.28-1.292-2.589-2.548-3.89-3.732-2.482-2.258-5.149-4.463-7.928-6.553-2.747-2.064-5.657-3.989-8.472-5.85C96.476,40.043,93.853,38.307,91.358,36.476ZM92.565,30.5a31.4,31.4,0,0,0-4.857.417,32.6,32.6,0,0,0-4.67,1.135,38.3,38.3,0,0,0-8.77,4.182c-2.637,1.678-5.348,3.6-8.058,5.706C63.744,43.864,61.2,46,58.646,48.3a91.861,91.861,0,0,0-6.629,6.578,70.491,70.491,0,0,0-5.808,7.3,55.641,55.641,0,0,0-4.628,8.048,46.8,46.8,0,0,0-3.091,8.827l-.021.088c-.042.179-.086.365-.128.548C46.95,71.24,56.106,62.679,65.553,54.239c2.884-2.577,5.826-5.185,8.671-7.708l.006,0,0,0c1.909-1.693,3.883-3.443,5.823-5.169,2.191-1.948,4.448-3.895,6.63-5.778l.8-.692.886-.765.008-.007c.929-.8,1.891-1.631,2.838-2.444.162-.139.326-.285.484-.425l0,0C91.984,30.995,92.272,30.739,92.565,30.5Zm4.3.26a1.582,1.582,0,0,1-.067.276,4.852,4.852,0,0,1-1.058,1.747,13.69,13.69,0,0,1-1.524,1.36l0,0-.284.231c-.426.345-.852.695-1.218,1a43.2,43.2,0,0,1,8.838,3.783,78.5,78.5,0,0,1,8.093,5.252,98.231,98.231,0,0,1,8.51,6.968c1.314,1.2,2.62,2.459,3.884,3.741.2.2.413.405.64.621l0,0c.2.192.411.391.616.595l-.035-.3,0-.036c-.019-.159-.037-.318-.056-.477a2.079,2.079,0,0,1,.408-1.464,32.435,32.435,0,0,0-3.873-8.6,32.864,32.864,0,0,0-6.06-7.044,32.357,32.357,0,0,0-7.779-5.048A31.285,31.285,0,0,0,96.863,30.763Z" transform="translate(0.949 11.73)"/>
  </g>
  <g id="FACE" transform="translate(168.275 116.031)">
    <path id="_Ink-3" data-name="ðŸ– Ink" d="M33.366,59.217a12.072,12.072,0,0,1-6.691-1.979,12.751,12.751,0,0,1-2.768-2.391,10.018,10.018,0,0,1-1.687-2.7,7.647,7.647,0,0,1-.6-3.062.945.945,0,0,1,.224-.6,1.052,1.052,0,0,1,.56-.336,1.08,1.08,0,0,1,.246-.029.992.992,0,0,1,.408.086.871.871,0,0,1,.431.424c.2.264.466.61.731.944a18.4,18.4,0,0,0,3.037,3.109,9.4,9.4,0,0,0,3.778,1.778,8.088,8.088,0,0,0,1.736.189A8.5,8.5,0,0,0,35.7,54.12a9.973,9.973,0,0,0,4.1-2.885,2.2,2.2,0,0,1,1.677-.829H41.5a2.578,2.578,0,0,1,1.783.79,2.784,2.784,0,0,1,.833,1.816,2.43,2.43,0,0,1-.69,1.784,13.825,13.825,0,0,1-2.909,2.371,14.076,14.076,0,0,1-3.426,1.513A13.381,13.381,0,0,1,33.366,59.217Zm3.774-17.633h0a11.061,11.061,0,0,1-3.945-.8,19.922,19.922,0,0,1-4.639-2.633,1.783,1.783,0,0,1-.647-1.03A2.135,2.135,0,0,1,28,35.969a2.631,2.631,0,0,1,.781-1.129A1.9,1.9,0,0,1,30,34.364a1.726,1.726,0,0,1,.941.289l.307.237.011.008a25.114,25.114,0,0,0,2.9,2.02,7.152,7.152,0,0,0,3.481,1.11,3.758,3.758,0,0,0,1.471-.289,4.11,4.11,0,0,0,1.37-.971,4.2,4.2,0,0,0,.8-3.383,6.391,6.391,0,0,0-1.7-3,12.361,12.361,0,0,0-2.566-2.072A.8.8,0,0,1,36.8,27.4a1.194,1.194,0,0,1,.4-.569,1.213,1.213,0,0,1,.757-.25,1.613,1.613,0,0,1,.272.024A8.6,8.6,0,0,1,41.255,27.7a6.866,6.866,0,0,1,2.035,1.877,7.461,7.461,0,0,1,1.3,4.983,8.212,8.212,0,0,1-.666,2.615,7.631,7.631,0,0,1-1.5,2.247A7.169,7.169,0,0,1,37.141,41.584ZM6.806,29.4a1.516,1.516,0,0,1-.439-.065.893.893,0,0,1-.6-.519,7.375,7.375,0,0,1,.369-5.556,13.014,13.014,0,0,1,1.957-3.209,8.034,8.034,0,0,1,2.1-1.886,7.04,7.04,0,0,1,3.34-.862,6.689,6.689,0,0,1,3.22.831,8.379,8.379,0,0,1,2.225,1.829,23.065,23.065,0,0,1,1.726,2.3c.227.331.462.674.7,1.006a2.026,2.026,0,0,1,.341,1.883,2.434,2.434,0,0,1-1.381,1.427,2.644,2.644,0,0,1-1.018.209,2.322,2.322,0,0,1-.908-.18,2.441,2.441,0,0,1-1.309-1.384,9.44,9.44,0,0,0-1.017-1.848,5.55,5.55,0,0,0-1.48-1.466,2.665,2.665,0,0,0-2.676-.2,8.748,8.748,0,0,0-3.115,3.107A6.092,6.092,0,0,0,7.82,28.441a.824.824,0,0,1-.266.692,1.036,1.036,0,0,1-.578.257A1.359,1.359,0,0,1,6.806,29.4Zm45.938-4.475a1.979,1.979,0,0,1-.571-.092,2.161,2.161,0,0,1-.892-.533,1.778,1.778,0,0,1-.5-.9,3.678,3.678,0,0,0-1.29-2.149,2.575,2.575,0,0,0-2.059-.542,3.955,3.955,0,0,0-2.216,1.329,4.869,4.869,0,0,0-.465.679l-.014.023a4.953,4.953,0,0,1-.92,1.208.9.9,0,0,1-.57.215.851.851,0,0,1-.254-.04,3.615,3.615,0,0,1-.818-1.145,2.251,2.251,0,0,1-.163-.987,3.911,3.911,0,0,1,.719-1.981A7.7,7.7,0,0,1,44.72,18.07a6.616,6.616,0,0,1,2.2-1.035,5.932,5.932,0,0,1,1.245-.132,6.35,6.35,0,0,1,3.653,1.189,6.939,6.939,0,0,1,2.837,4.343,2.311,2.311,0,0,1-.116,1.283,1.8,1.8,0,0,1-.839.933A1.994,1.994,0,0,1,52.744,24.925ZM1.088,16.466a.528.528,0,0,1-.068,0A.643.643,0,0,1,.685,16.3,2.435,2.435,0,0,1,0,14.3a8.675,8.675,0,0,1,.881-3.37,21.537,21.537,0,0,1,1.7-2.845A14.965,14.965,0,0,1,4.756,5.6a18.83,18.83,0,0,1,6.09-3.711A13.092,13.092,0,0,1,15.187.932c.09,0,.18,0,.269.005a5.215,5.215,0,0,1,1.615.307,4.249,4.249,0,0,1,1.438.894,2.671,2.671,0,0,1,.8,1.95,2.785,2.785,0,0,1-.8,1.995,4.12,4.12,0,0,1-1.7,1,9.9,9.9,0,0,1-1.859.332,16.9,16.9,0,0,0-1.811.268,17.017,17.017,0,0,0-4.375,1.6,16.191,16.191,0,0,0-4.1,2.907c-.268.286-.522.59-.768.884l-.007.008c-.229.273-.445.531-.675.782-.256.28-.492.562-.773.9a3.834,3.834,0,0,0-.218.386c-.056.117-.11.224-.165.328-.1.192-.2.361-.292.5-.182.306-.276.379-.351.413A.786.786,0,0,1,1.088,16.466Zm54.245-.7a.62.62,0,0,1-.1-.009.612.612,0,0,1-.312-.152.587.587,0,0,1-.175-.3A11.379,11.379,0,0,0,53.09,11.29a8.669,8.669,0,0,0-3.3-2.818,21.2,21.2,0,0,0-4.619-1.554c-.444-.105-.923-.175-1.386-.243l-.022,0a11.7,11.7,0,0,1-2.2-.47,3.886,3.886,0,0,1-1.8-1.218,3.37,3.37,0,0,1-.624-1.217,3.105,3.105,0,0,1-.075-1.31A2.69,2.69,0,0,1,40.52.466,4.394,4.394,0,0,1,42.56,0a13.347,13.347,0,0,1,4.9,1.368l.108.046,0,0,.358.152a16.084,16.084,0,0,1,5.608,3.744,12.125,12.125,0,0,1,2.882,5.328,6.4,6.4,0,0,1-.582,4.849.576.576,0,0,1-.263.231A.606.606,0,0,1,55.333,15.771Z" transform="translate(17.113 17.455)"/>
  </g>
  <g id="ACCESORIES" transform="translate(132.782 133.468)">
    <path id="_Ink-4" data-name="ðŸ– Ink" d="M62.365,34.191h0a17.5,17.5,0,0,1-5.864-.978,15.287,15.287,0,0,1-5.155-3.056,16.583,16.583,0,0,1-3.884-5.317,24.1,24.1,0,0,1-2.049-7.762A4.6,4.6,0,0,0,44.4,14.2a5.382,5.382,0,0,0-2.391-1.054c-.4-.113-.843-.241-1.336-.4l-.427-.087h0c-.474-.1-.965-.194-1.448-.333a2.029,2.029,0,0,1-.645.115c-.68,0-1.156-.421-1.816-1a14.048,14.048,0,0,0-1.112-.912C34.088,9.7,32.083,8.61,27.855,8.61a44.988,44.988,0,0,0-9.571,1.264A130.941,130.941,0,0,0,2.971,14.514c-.02,1.028-.545,1.747-1.277,1.747A1.389,1.389,0,0,1,.9,15.986a4.416,4.416,0,0,1-.873-1.958,2.9,2.9,0,0,1,.3-1.742c.689-1.359,2.476-2.6,5.31-3.677a52.3,52.3,0,0,1,9.357-2.387A118.9,118.9,0,0,1,33.12,4.546c.429,0,.815.006,1.148.018a9.061,9.061,0,0,1,2.489-.434,3.576,3.576,0,0,1,1.327.229c1.439-1.158,4.291-2.224,8.029-3A63.072,63.072,0,0,1,58.559.137,57.39,57.39,0,0,1,64.8.465a40.606,40.606,0,0,1,5.851,1.052A24.2,24.2,0,0,1,75.67,3.4a13.2,13.2,0,0,1,3.755,2.814,13.035,13.035,0,0,0,3.971.617,16.651,16.651,0,0,0,5.452-1.011,53.132,53.132,0,0,0,5.212-2.231,44.972,44.972,0,0,1,6.34-2.6c.617-.138,2.259-.382,4.408-.593C106.634.214,109.44,0,112.427,0a33.134,33.134,0,0,1,8.867.957c2.732.792,4.194,2.067,4.346,3.79a7.2,7.2,0,0,1,.227,2.49,6.078,6.078,0,0,1-.62,2.781.8.8,0,0,1-.663.434,1.177,1.177,0,0,1-.723-.329,9.28,9.28,0,0,0-1.9,1.926,11.484,11.484,0,0,0-1.285,2.264,31.2,31.2,0,0,0-1.544,5.115c-.655,2.718-1.332,5.528-3.057,7.8a9.611,9.611,0,0,1-3.771,3.122,12.04,12.04,0,0,1-5.148,1.133,13.743,13.743,0,0,1-9.914-4.389,19.274,19.274,0,0,1-3.816-5.954,31.2,31.2,0,0,1-2.139-8.874,7.775,7.775,0,0,0-2.938-.553,18.087,18.087,0,0,0-3.18.377,22.414,22.414,0,0,1-2.731.373,18.557,18.557,0,0,1-.655,8.107A18.115,18.115,0,0,1,78.1,27.058a20.254,20.254,0,0,1-3.31,3.017,21.581,21.581,0,0,1-3.866,2.24A21.08,21.08,0,0,1,62.365,34.191ZM64.74,6.279a26.369,26.369,0,0,0-8.861,1.37,13.978,13.978,0,0,0-6.885,4.974,6.3,6.3,0,0,0-.7,5.358,29.944,29.944,0,0,0,1.929,4.963,19.018,19.018,0,0,0,2.848,4.243,11.783,11.783,0,0,0,9.025,4.071,16.947,16.947,0,0,0,4.532-.667,17.7,17.7,0,0,0,8.614-5.45,16.656,16.656,0,0,0,2.742-4.322,14.5,14.5,0,0,0,1.19-4.963A11.364,11.364,0,0,0,78.61,11.6a8.813,8.813,0,0,0-2.243-3.566,37.577,37.577,0,0,0-5.3-1.233A40.02,40.02,0,0,0,64.74,6.279Zm44.189-2.034a11.548,11.548,0,0,0-3.008.4,14.785,14.785,0,0,0-6.64,3.829A14.1,14.1,0,0,0,96.829,11.8a15.2,15.2,0,0,0-1.488,4.276,10.438,10.438,0,0,0,.2,4.052A7.849,7.849,0,0,0,96.955,23.4a17.608,17.608,0,0,0,4.941,3.714,13.829,13.829,0,0,0,6.18,1.662,7.923,7.923,0,0,0,3.469-.748,9.326,9.326,0,0,0,3.141-2.82,15.791,15.791,0,0,0,1.984-3.914,44.843,44.843,0,0,0,1.85-8.5,5.935,5.935,0,0,0-.242-2.735,7.052,7.052,0,0,0-1.389-2.4,9.624,9.624,0,0,0-3.43-2.469A11.408,11.408,0,0,0,108.929,4.245Z" transform="translate(0.317 5.706)"/>
  </g>
</svg>
