<svg xmlns="http://www.w3.org/2000/svg" xmlns:xlink="http://www.w3.org/1999/xlink" width="1945.151" height="739.654" viewBox="0 0 1945.151 739.654">
  <defs>
    <clipPath id="clip-path">
      <rect width="1945.151" height="739.654" fill="none"/>
    </clipPath>
  </defs>
  <g id="Repeat_Grid_6" data-name="Repeat Grid 6" clip-path="url(#clip-path)">
    <g transform="translate(-12.435 -73.929)">
      <g id="Bamboo" transform="translate(-24.5 1139.809)" opacity="0.234">
        <g id="Group_20" data-name="Group 20" transform="translate(36.935 -664.894)">
          <ellipse id="Ellipse_12" data-name="Ellipse 12" cx="43.17" cy="11.013" rx="43.17" ry="11.013" transform="translate(0 128.235) rotate(-45)" fill="#cbcbcb"/>
          <ellipse id="Ellipse_67" data-name="Ellipse 67" cx="43.17" cy="11.013" rx="43.17" ry="11.013" transform="translate(15.574) rotate(45)" fill="#cbcbcb"/>
        </g>
        <g id="Group_21" data-name="Group 21" transform="translate(266.086 -780.792) rotate(180)">
          <ellipse id="Ellipse_12-2" data-name="Ellipse 12" cx="43.17" cy="11.013" rx="43.17" ry="11.013" transform="translate(0 128.235) rotate(-45)" fill="#cbcbcb"/>
          <ellipse id="Ellipse_67-2" data-name="Ellipse 67" cx="43.17" cy="11.013" rx="43.17" ry="11.013" transform="translate(15.574) rotate(45)" fill="#cbcbcb"/>
        </g>
        <path id="Path_4" data-name="Path 4" d="M14.117,0H61.448A14.117,14.117,0,0,1,75.565,14.117s-14.117,56-14.117,110.595,14.117,107.8,14.117,107.8a14.117,14.117,0,0,1-14.117,14.117H14.117A14.117,14.117,0,0,1,0,232.507s14.117-53.2,14.117-107.8S0,14.117,0,14.117A14.117,14.117,0,0,1,14.117,0Z" transform="translate(113.56 -572.85)" fill="#cbcbcb"/>
        <path id="Path_435" data-name="Path 435" d="M14.117,0H61.448A14.117,14.117,0,0,1,75.565,14.117s-14.117,56-14.117,110.595,14.117,107.8,14.117,107.8a14.117,14.117,0,0,1-14.117,14.117H14.117A14.117,14.117,0,0,1,0,232.507s14.117-53.2,14.117-107.8S0,14.117,0,14.117A14.117,14.117,0,0,1,14.117,0Z" transform="translate(113.56 -819.365)" fill="#cbcbcb"/>
        <path id="Path_436" data-name="Path 436" d="M14.117,0H61.448A14.117,14.117,0,0,1,75.565,14.117s-14.117,56-14.117,110.595,14.117,107.8,14.117,107.8a14.117,14.117,0,0,1-14.117,14.117H14.117A14.117,14.117,0,0,1,0,232.507s14.117-53.2,14.117-107.8S0,14.117,0,14.117A14.117,14.117,0,0,1,14.117,0Z" transform="translate(113.56 -1065.88)" fill="#cbcbcb"/>
      </g>
    </g>
    <g transform="translate(237.565 -73.929)">
      <g id="Bamboo-2" data-name="Bamboo" transform="translate(-24.5 1139.809)" opacity="0.234">
        <g id="Group_20-2" data-name="Group 20" transform="translate(36.935 -664.894)">
          <ellipse id="Ellipse_12-3" data-name="Ellipse 12" cx="43.17" cy="11.013" rx="43.17" ry="11.013" transform="translate(0 128.235) rotate(-45)" fill="#cbcbcb"/>
          <ellipse id="Ellipse_67-3" data-name="Ellipse 67" cx="43.17" cy="11.013" rx="43.17" ry="11.013" transform="translate(15.574) rotate(45)" fill="#cbcbcb"/>
        </g>
        <g id="Group_21-2" data-name="Group 21" transform="translate(266.086 -780.792) rotate(180)">
          <ellipse id="Ellipse_12-4" data-name="Ellipse 12" cx="43.17" cy="11.013" rx="43.17" ry="11.013" transform="translate(0 128.235) rotate(-45)" fill="#cbcbcb"/>
          <ellipse id="Ellipse_67-4" data-name="Ellipse 67" cx="43.17" cy="11.013" rx="43.17" ry="11.013" transform="translate(15.574) rotate(45)" fill="#cbcbcb"/>
        </g>
        <path id="Path_4-2" data-name="Path 4" d="M14.117,0H61.448A14.117,14.117,0,0,1,75.565,14.117s-14.117,56-14.117,110.595,14.117,107.8,14.117,107.8a14.117,14.117,0,0,1-14.117,14.117H14.117A14.117,14.117,0,0,1,0,232.507s14.117-53.2,14.117-107.8S0,14.117,0,14.117A14.117,14.117,0,0,1,14.117,0Z" transform="translate(113.56 -572.85)" fill="#cbcbcb"/>
        <path id="Path_435-2" data-name="Path 435" d="M14.117,0H61.448A14.117,14.117,0,0,1,75.565,14.117s-14.117,56-14.117,110.595,14.117,107.8,14.117,107.8a14.117,14.117,0,0,1-14.117,14.117H14.117A14.117,14.117,0,0,1,0,232.507s14.117-53.2,14.117-107.8S0,14.117,0,14.117A14.117,14.117,0,0,1,14.117,0Z" transform="translate(113.56 -819.365)" fill="#cbcbcb"/>
        <path id="Path_436-2" data-name="Path 436" d="M14.117,0H61.448A14.117,14.117,0,0,1,75.565,14.117s-14.117,56-14.117,110.595,14.117,107.8,14.117,107.8a14.117,14.117,0,0,1-14.117,14.117H14.117A14.117,14.117,0,0,1,0,232.507s14.117-53.2,14.117-107.8S0,14.117,0,14.117A14.117,14.117,0,0,1,14.117,0Z" transform="translate(113.56 -1065.88)" fill="#cbcbcb"/>
      </g>
    </g>
    <g transform="translate(487.565 -73.929)">
      <g id="Bamboo-3" data-name="Bamboo" transform="translate(-24.5 1139.809)" opacity="0.234">
        <g id="Group_20-3" data-name="Group 20" transform="translate(36.935 -664.894)">
          <ellipse id="Ellipse_12-5" data-name="Ellipse 12" cx="43.17" cy="11.013" rx="43.17" ry="11.013" transform="translate(0 128.235) rotate(-45)" fill="#cbcbcb"/>
          <ellipse id="Ellipse_67-5" data-name="Ellipse 67" cx="43.17" cy="11.013" rx="43.17" ry="11.013" transform="translate(15.574) rotate(45)" fill="#cbcbcb"/>
        </g>
        <g id="Group_21-3" data-name="Group 21" transform="translate(266.086 -780.792) rotate(180)">
          <ellipse id="Ellipse_12-6" data-name="Ellipse 12" cx="43.17" cy="11.013" rx="43.17" ry="11.013" transform="translate(0 128.235) rotate(-45)" fill="#cbcbcb"/>
          <ellipse id="Ellipse_67-6" data-name="Ellipse 67" cx="43.17" cy="11.013" rx="43.17" ry="11.013" transform="translate(15.574) rotate(45)" fill="#cbcbcb"/>
        </g>
        <path id="Path_4-3" data-name="Path 4" d="M14.117,0H61.448A14.117,14.117,0,0,1,75.565,14.117s-14.117,56-14.117,110.595,14.117,107.8,14.117,107.8a14.117,14.117,0,0,1-14.117,14.117H14.117A14.117,14.117,0,0,1,0,232.507s14.117-53.2,14.117-107.8S0,14.117,0,14.117A14.117,14.117,0,0,1,14.117,0Z" transform="translate(113.56 -572.85)" fill="#cbcbcb"/>
        <path id="Path_435-3" data-name="Path 435" d="M14.117,0H61.448A14.117,14.117,0,0,1,75.565,14.117s-14.117,56-14.117,110.595,14.117,107.8,14.117,107.8a14.117,14.117,0,0,1-14.117,14.117H14.117A14.117,14.117,0,0,1,0,232.507s14.117-53.2,14.117-107.8S0,14.117,0,14.117A14.117,14.117,0,0,1,14.117,0Z" transform="translate(113.56 -819.365)" fill="#cbcbcb"/>
        <path id="Path_436-3" data-name="Path 436" d="M14.117,0H61.448A14.117,14.117,0,0,1,75.565,14.117s-14.117,56-14.117,110.595,14.117,107.8,14.117,107.8a14.117,14.117,0,0,1-14.117,14.117H14.117A14.117,14.117,0,0,1,0,232.507s14.117-53.2,14.117-107.8S0,14.117,0,14.117A14.117,14.117,0,0,1,14.117,0Z" transform="translate(113.56 -1065.88)" fill="#cbcbcb"/>
      </g>
    </g>
    <g transform="translate(737.565 -73.929)">
      <g id="Bamboo-4" data-name="Bamboo" transform="translate(-24.5 1139.809)" opacity="0.234">
        <g id="Group_20-4" data-name="Group 20" transform="translate(36.935 -664.894)">
          <ellipse id="Ellipse_12-7" data-name="Ellipse 12" cx="43.17" cy="11.013" rx="43.17" ry="11.013" transform="translate(0 128.235) rotate(-45)" fill="#cbcbcb"/>
          <ellipse id="Ellipse_67-7" data-name="Ellipse 67" cx="43.17" cy="11.013" rx="43.17" ry="11.013" transform="translate(15.574) rotate(45)" fill="#cbcbcb"/>
        </g>
        <g id="Group_21-4" data-name="Group 21" transform="translate(266.086 -780.792) rotate(180)">
          <ellipse id="Ellipse_12-8" data-name="Ellipse 12" cx="43.17" cy="11.013" rx="43.17" ry="11.013" transform="translate(0 128.235) rotate(-45)" fill="#cbcbcb"/>
          <ellipse id="Ellipse_67-8" data-name="Ellipse 67" cx="43.17" cy="11.013" rx="43.17" ry="11.013" transform="translate(15.574) rotate(45)" fill="#cbcbcb"/>
        </g>
        <path id="Path_4-4" data-name="Path 4" d="M14.117,0H61.448A14.117,14.117,0,0,1,75.565,14.117s-14.117,56-14.117,110.595,14.117,107.8,14.117,107.8a14.117,14.117,0,0,1-14.117,14.117H14.117A14.117,14.117,0,0,1,0,232.507s14.117-53.2,14.117-107.8S0,14.117,0,14.117A14.117,14.117,0,0,1,14.117,0Z" transform="translate(113.56 -572.85)" fill="#cbcbcb"/>
        <path id="Path_435-4" data-name="Path 435" d="M14.117,0H61.448A14.117,14.117,0,0,1,75.565,14.117s-14.117,56-14.117,110.595,14.117,107.8,14.117,107.8a14.117,14.117,0,0,1-14.117,14.117H14.117A14.117,14.117,0,0,1,0,232.507s14.117-53.2,14.117-107.8S0,14.117,0,14.117A14.117,14.117,0,0,1,14.117,0Z" transform="translate(113.56 -819.365)" fill="#cbcbcb"/>
        <path id="Path_436-4" data-name="Path 436" d="M14.117,0H61.448A14.117,14.117,0,0,1,75.565,14.117s-14.117,56-14.117,110.595,14.117,107.8,14.117,107.8a14.117,14.117,0,0,1-14.117,14.117H14.117A14.117,14.117,0,0,1,0,232.507s14.117-53.2,14.117-107.8S0,14.117,0,14.117A14.117,14.117,0,0,1,14.117,0Z" transform="translate(113.56 -1065.88)" fill="#cbcbcb"/>
      </g>
    </g>
    <g transform="translate(987.565 -73.929)">
      <g id="Bamboo-5" data-name="Bamboo" transform="translate(-24.5 1139.809)" opacity="0.234">
        <g id="Group_20-5" data-name="Group 20" transform="translate(36.935 -664.894)">
          <ellipse id="Ellipse_12-9" data-name="Ellipse 12" cx="43.17" cy="11.013" rx="43.17" ry="11.013" transform="translate(0 128.235) rotate(-45)" fill="#cbcbcb"/>
          <ellipse id="Ellipse_67-9" data-name="Ellipse 67" cx="43.17" cy="11.013" rx="43.17" ry="11.013" transform="translate(15.574) rotate(45)" fill="#cbcbcb"/>
        </g>
        <g id="Group_21-5" data-name="Group 21" transform="translate(266.086 -780.792) rotate(180)">
          <ellipse id="Ellipse_12-10" data-name="Ellipse 12" cx="43.17" cy="11.013" rx="43.17" ry="11.013" transform="translate(0 128.235) rotate(-45)" fill="#cbcbcb"/>
          <ellipse id="Ellipse_67-10" data-name="Ellipse 67" cx="43.17" cy="11.013" rx="43.17" ry="11.013" transform="translate(15.574) rotate(45)" fill="#cbcbcb"/>
        </g>
        <path id="Path_4-5" data-name="Path 4" d="M14.117,0H61.448A14.117,14.117,0,0,1,75.565,14.117s-14.117,56-14.117,110.595,14.117,107.8,14.117,107.8a14.117,14.117,0,0,1-14.117,14.117H14.117A14.117,14.117,0,0,1,0,232.507s14.117-53.2,14.117-107.8S0,14.117,0,14.117A14.117,14.117,0,0,1,14.117,0Z" transform="translate(113.56 -572.85)" fill="#cbcbcb"/>
        <path id="Path_435-5" data-name="Path 435" d="M14.117,0H61.448A14.117,14.117,0,0,1,75.565,14.117s-14.117,56-14.117,110.595,14.117,107.8,14.117,107.8a14.117,14.117,0,0,1-14.117,14.117H14.117A14.117,14.117,0,0,1,0,232.507s14.117-53.2,14.117-107.8S0,14.117,0,14.117A14.117,14.117,0,0,1,14.117,0Z" transform="translate(113.56 -819.365)" fill="#cbcbcb"/>
        <path id="Path_436-5" data-name="Path 436" d="M14.117,0H61.448A14.117,14.117,0,0,1,75.565,14.117s-14.117,56-14.117,110.595,14.117,107.8,14.117,107.8a14.117,14.117,0,0,1-14.117,14.117H14.117A14.117,14.117,0,0,1,0,232.507s14.117-53.2,14.117-107.8S0,14.117,0,14.117A14.117,14.117,0,0,1,14.117,0Z" transform="translate(113.56 -1065.88)" fill="#cbcbcb"/>
      </g>
    </g>
    <g transform="translate(1237.565 -73.929)">
      <g id="Bamboo-6" data-name="Bamboo" transform="translate(-24.5 1139.809)" opacity="0.234">
        <g id="Group_20-6" data-name="Group 20" transform="translate(36.935 -664.894)">
          <ellipse id="Ellipse_12-11" data-name="Ellipse 12" cx="43.17" cy="11.013" rx="43.17" ry="11.013" transform="translate(0 128.235) rotate(-45)" fill="#cbcbcb"/>
          <ellipse id="Ellipse_67-11" data-name="Ellipse 67" cx="43.17" cy="11.013" rx="43.17" ry="11.013" transform="translate(15.574) rotate(45)" fill="#cbcbcb"/>
        </g>
        <g id="Group_21-6" data-name="Group 21" transform="translate(266.086 -780.792) rotate(180)">
          <ellipse id="Ellipse_12-12" data-name="Ellipse 12" cx="43.17" cy="11.013" rx="43.17" ry="11.013" transform="translate(0 128.235) rotate(-45)" fill="#cbcbcb"/>
          <ellipse id="Ellipse_67-12" data-name="Ellipse 67" cx="43.17" cy="11.013" rx="43.17" ry="11.013" transform="translate(15.574) rotate(45)" fill="#cbcbcb"/>
        </g>
        <path id="Path_4-6" data-name="Path 4" d="M14.117,0H61.448A14.117,14.117,0,0,1,75.565,14.117s-14.117,56-14.117,110.595,14.117,107.8,14.117,107.8a14.117,14.117,0,0,1-14.117,14.117H14.117A14.117,14.117,0,0,1,0,232.507s14.117-53.2,14.117-107.8S0,14.117,0,14.117A14.117,14.117,0,0,1,14.117,0Z" transform="translate(113.56 -572.85)" fill="#cbcbcb"/>
        <path id="Path_435-6" data-name="Path 435" d="M14.117,0H61.448A14.117,14.117,0,0,1,75.565,14.117s-14.117,56-14.117,110.595,14.117,107.8,14.117,107.8a14.117,14.117,0,0,1-14.117,14.117H14.117A14.117,14.117,0,0,1,0,232.507s14.117-53.2,14.117-107.8S0,14.117,0,14.117A14.117,14.117,0,0,1,14.117,0Z" transform="translate(113.56 -819.365)" fill="#cbcbcb"/>
        <path id="Path_436-6" data-name="Path 436" d="M14.117,0H61.448A14.117,14.117,0,0,1,75.565,14.117s-14.117,56-14.117,110.595,14.117,107.8,14.117,107.8a14.117,14.117,0,0,1-14.117,14.117H14.117A14.117,14.117,0,0,1,0,232.507s14.117-53.2,14.117-107.8S0,14.117,0,14.117A14.117,14.117,0,0,1,14.117,0Z" transform="translate(113.56 -1065.88)" fill="#cbcbcb"/>
      </g>
    </g>
    <g transform="translate(1487.565 -73.929)">
      <g id="Bamboo-7" data-name="Bamboo" transform="translate(-24.5 1139.809)" opacity="0.234">
        <g id="Group_20-7" data-name="Group 20" transform="translate(36.935 -664.894)">
          <ellipse id="Ellipse_12-13" data-name="Ellipse 12" cx="43.17" cy="11.013" rx="43.17" ry="11.013" transform="translate(0 128.235) rotate(-45)" fill="#cbcbcb"/>
          <ellipse id="Ellipse_67-13" data-name="Ellipse 67" cx="43.17" cy="11.013" rx="43.17" ry="11.013" transform="translate(15.574) rotate(45)" fill="#cbcbcb"/>
        </g>
        <g id="Group_21-7" data-name="Group 21" transform="translate(266.086 -780.792) rotate(180)">
          <ellipse id="Ellipse_12-14" data-name="Ellipse 12" cx="43.17" cy="11.013" rx="43.17" ry="11.013" transform="translate(0 128.235) rotate(-45)" fill="#cbcbcb"/>
          <ellipse id="Ellipse_67-14" data-name="Ellipse 67" cx="43.17" cy="11.013" rx="43.17" ry="11.013" transform="translate(15.574) rotate(45)" fill="#cbcbcb"/>
        </g>
        <path id="Path_4-7" data-name="Path 4" d="M14.117,0H61.448A14.117,14.117,0,0,1,75.565,14.117s-14.117,56-14.117,110.595,14.117,107.8,14.117,107.8a14.117,14.117,0,0,1-14.117,14.117H14.117A14.117,14.117,0,0,1,0,232.507s14.117-53.2,14.117-107.8S0,14.117,0,14.117A14.117,14.117,0,0,1,14.117,0Z" transform="translate(113.56 -572.85)" fill="#cbcbcb"/>
        <path id="Path_435-7" data-name="Path 435" d="M14.117,0H61.448A14.117,14.117,0,0,1,75.565,14.117s-14.117,56-14.117,110.595,14.117,107.8,14.117,107.8a14.117,14.117,0,0,1-14.117,14.117H14.117A14.117,14.117,0,0,1,0,232.507s14.117-53.2,14.117-107.8S0,14.117,0,14.117A14.117,14.117,0,0,1,14.117,0Z" transform="translate(113.56 -819.365)" fill="#cbcbcb"/>
        <path id="Path_436-7" data-name="Path 436" d="M14.117,0H61.448A14.117,14.117,0,0,1,75.565,14.117s-14.117,56-14.117,110.595,14.117,107.8,14.117,107.8a14.117,14.117,0,0,1-14.117,14.117H14.117A14.117,14.117,0,0,1,0,232.507s14.117-53.2,14.117-107.8S0,14.117,0,14.117A14.117,14.117,0,0,1,14.117,0Z" transform="translate(113.56 -1065.88)" fill="#cbcbcb"/>
      </g>
    </g>
    <g transform="translate(1737.565 -73.929)">
      <g id="Bamboo-8" data-name="Bamboo" transform="translate(-24.5 1139.809)" opacity="0.234">
        <g id="Group_20-8" data-name="Group 20" transform="translate(36.935 -664.894)">
          <ellipse id="Ellipse_12-15" data-name="Ellipse 12" cx="43.17" cy="11.013" rx="43.17" ry="11.013" transform="translate(0 128.235) rotate(-45)" fill="#cbcbcb"/>
          <ellipse id="Ellipse_67-15" data-name="Ellipse 67" cx="43.17" cy="11.013" rx="43.17" ry="11.013" transform="translate(15.574) rotate(45)" fill="#cbcbcb"/>
        </g>
        <g id="Group_21-8" data-name="Group 21" transform="translate(266.086 -780.792) rotate(180)">
          <ellipse id="Ellipse_12-16" data-name="Ellipse 12" cx="43.17" cy="11.013" rx="43.17" ry="11.013" transform="translate(0 128.235) rotate(-45)" fill="#cbcbcb"/>
          <ellipse id="Ellipse_67-16" data-name="Ellipse 67" cx="43.17" cy="11.013" rx="43.17" ry="11.013" transform="translate(15.574) rotate(45)" fill="#cbcbcb"/>
        </g>
        <path id="Path_4-8" data-name="Path 4" d="M14.117,0H61.448A14.117,14.117,0,0,1,75.565,14.117s-14.117,56-14.117,110.595,14.117,107.8,14.117,107.8a14.117,14.117,0,0,1-14.117,14.117H14.117A14.117,14.117,0,0,1,0,232.507s14.117-53.2,14.117-107.8S0,14.117,0,14.117A14.117,14.117,0,0,1,14.117,0Z" transform="translate(113.56 -572.85)" fill="#cbcbcb"/>
        <path id="Path_435-8" data-name="Path 435" d="M14.117,0H61.448A14.117,14.117,0,0,1,75.565,14.117s-14.117,56-14.117,110.595,14.117,107.8,14.117,107.8a14.117,14.117,0,0,1-14.117,14.117H14.117A14.117,14.117,0,0,1,0,232.507s14.117-53.2,14.117-107.8S0,14.117,0,14.117A14.117,14.117,0,0,1,14.117,0Z" transform="translate(113.56 -819.365)" fill="#cbcbcb"/>
        <path id="Path_436-8" data-name="Path 436" d="M14.117,0H61.448A14.117,14.117,0,0,1,75.565,14.117s-14.117,56-14.117,110.595,14.117,107.8,14.117,107.8a14.117,14.117,0,0,1-14.117,14.117H14.117A14.117,14.117,0,0,1,0,232.507s14.117-53.2,14.117-107.8S0,14.117,0,14.117A14.117,14.117,0,0,1,14.117,0Z" transform="translate(113.56 -1065.88)" fill="#cbcbcb"/>
      </g>
    </g>
  </g>
</svg>
