<svg xmlns="http://www.w3.org/2000/svg" xmlns:xlink="http://www.w3.org/1999/xlink" width="2247.348" height="2034.633" viewBox="0 0 2247.348 2034.633">
  <defs>
    <clipPath id="clip-path">
      <rect width="2247.348" height="2034.633" fill="none"/>
    </clipPath>
  </defs>
  <g id="Repeat_Grid_6" data-name="Repeat Grid 6" clip-path="url(#clip-path)">
    <g transform="translate(96.269 492.63)">
      <g id="Bamboo" transform="translate(-133.204 573.25)" opacity="0.234">
        <g id="Group_20" data-name="Group 20" transform="translate(36.935 37.148)">
          <ellipse id="Ellipse_12" data-name="Ellipse 12" cx="118.751" cy="30.294" rx="118.751" ry="30.294" transform="translate(0 352.746) rotate(-45)" fill="#cbcbcb"/>
          <ellipse id="Ellipse_67" data-name="Ellipse 67" cx="118.751" cy="30.294" rx="118.751" ry="30.294" transform="translate(42.842) rotate(45)" fill="#cbcbcb"/>
        </g>
        <g id="Group_21" data-name="Group 21" transform="translate(667.283 -281.662) rotate(180)">
          <ellipse id="Ellipse_12-2" data-name="Ellipse 12" cx="118.751" cy="30.294" rx="118.751" ry="30.294" transform="translate(0 352.746) rotate(-45)" fill="#cbcbcb"/>
          <ellipse id="Ellipse_67-2" data-name="Ellipse 67" cx="118.751" cy="30.294" rx="118.751" ry="30.294" transform="translate(42.842) rotate(45)" fill="#cbcbcb"/>
        </g>
        <path id="Path_4" data-name="Path 4" d="M38.832,0h130.2a38.832,38.832,0,0,1,38.832,38.832s-38.832,154.037-38.832,304.224,38.832,296.524,38.832,296.524a38.832,38.832,0,0,1-38.832,38.832H38.832A38.832,38.832,0,0,1,0,639.579S38.832,493.242,38.832,343.055,0,38.832,0,38.832A38.832,38.832,0,0,1,38.832,0Z" transform="translate(247.716 290.343)" fill="#cbcbcb"/>
        <path id="Path_435" data-name="Path 435" d="M38.832,0h130.2a38.832,38.832,0,0,1,38.832,38.832s-38.832,154.037-38.832,304.224,38.832,296.524,38.832,296.524a38.832,38.832,0,0,1-38.832,38.832H38.832A38.832,38.832,0,0,1,0,639.579S38.832,493.242,38.832,343.055,0,38.832,0,38.832A38.832,38.832,0,0,1,38.832,0Z" transform="translate(247.716 -387.769)" fill="#cbcbcb"/>
        <path id="Path_436" data-name="Path 436" d="M38.832,0h130.2a38.832,38.832,0,0,1,38.832,38.832s-38.832,154.037-38.832,304.224,38.832,296.524,38.832,296.524a38.832,38.832,0,0,1-38.832,38.832H38.832A38.832,38.832,0,0,1,0,639.579S38.832,493.242,38.832,343.055,0,38.832,0,38.832A38.832,38.832,0,0,1,38.832,0Z" transform="translate(247.716 -1065.88)" fill="#cbcbcb"/>
      </g>
    </g>
    <g transform="translate(655.269 492.63)">
      <g id="Bamboo-2" data-name="Bamboo" transform="translate(-133.204 573.25)" opacity="0.234">
        <g id="Group_20-2" data-name="Group 20" transform="translate(36.935 37.148)">
          <ellipse id="Ellipse_12-3" data-name="Ellipse 12" cx="118.751" cy="30.294" rx="118.751" ry="30.294" transform="translate(0 352.746) rotate(-45)" fill="#cbcbcb"/>
          <ellipse id="Ellipse_67-3" data-name="Ellipse 67" cx="118.751" cy="30.294" rx="118.751" ry="30.294" transform="translate(42.842) rotate(45)" fill="#cbcbcb"/>
        </g>
        <g id="Group_21-2" data-name="Group 21" transform="translate(667.283 -281.662) rotate(180)">
          <ellipse id="Ellipse_12-4" data-name="Ellipse 12" cx="118.751" cy="30.294" rx="118.751" ry="30.294" transform="translate(0 352.746) rotate(-45)" fill="#cbcbcb"/>
          <ellipse id="Ellipse_67-4" data-name="Ellipse 67" cx="118.751" cy="30.294" rx="118.751" ry="30.294" transform="translate(42.842) rotate(45)" fill="#cbcbcb"/>
        </g>
        <path id="Path_4-2" data-name="Path 4" d="M38.832,0h130.2a38.832,38.832,0,0,1,38.832,38.832s-38.832,154.037-38.832,304.224,38.832,296.524,38.832,296.524a38.832,38.832,0,0,1-38.832,38.832H38.832A38.832,38.832,0,0,1,0,639.579S38.832,493.242,38.832,343.055,0,38.832,0,38.832A38.832,38.832,0,0,1,38.832,0Z" transform="translate(247.716 290.343)" fill="#cbcbcb"/>
        <path id="Path_435-2" data-name="Path 435" d="M38.832,0h130.2a38.832,38.832,0,0,1,38.832,38.832s-38.832,154.037-38.832,304.224,38.832,296.524,38.832,296.524a38.832,38.832,0,0,1-38.832,38.832H38.832A38.832,38.832,0,0,1,0,639.579S38.832,493.242,38.832,343.055,0,38.832,0,38.832A38.832,38.832,0,0,1,38.832,0Z" transform="translate(247.716 -387.769)" fill="#cbcbcb"/>
        <path id="Path_436-2" data-name="Path 436" d="M38.832,0h130.2a38.832,38.832,0,0,1,38.832,38.832s-38.832,154.037-38.832,304.224,38.832,296.524,38.832,296.524a38.832,38.832,0,0,1-38.832,38.832H38.832A38.832,38.832,0,0,1,0,639.579S38.832,493.242,38.832,343.055,0,38.832,0,38.832A38.832,38.832,0,0,1,38.832,0Z" transform="translate(247.716 -1065.88)" fill="#cbcbcb"/>
      </g>
    </g>
    <g transform="translate(1214.269 492.63)">
      <g id="Bamboo-3" data-name="Bamboo" transform="translate(-133.204 573.25)" opacity="0.234">
        <g id="Group_20-3" data-name="Group 20" transform="translate(36.935 37.148)">
          <ellipse id="Ellipse_12-5" data-name="Ellipse 12" cx="118.751" cy="30.294" rx="118.751" ry="30.294" transform="translate(0 352.746) rotate(-45)" fill="#cbcbcb"/>
          <ellipse id="Ellipse_67-5" data-name="Ellipse 67" cx="118.751" cy="30.294" rx="118.751" ry="30.294" transform="translate(42.842) rotate(45)" fill="#cbcbcb"/>
        </g>
        <g id="Group_21-3" data-name="Group 21" transform="translate(667.283 -281.662) rotate(180)">
          <ellipse id="Ellipse_12-6" data-name="Ellipse 12" cx="118.751" cy="30.294" rx="118.751" ry="30.294" transform="translate(0 352.746) rotate(-45)" fill="#cbcbcb"/>
          <ellipse id="Ellipse_67-6" data-name="Ellipse 67" cx="118.751" cy="30.294" rx="118.751" ry="30.294" transform="translate(42.842) rotate(45)" fill="#cbcbcb"/>
        </g>
        <path id="Path_4-3" data-name="Path 4" d="M38.832,0h130.2a38.832,38.832,0,0,1,38.832,38.832s-38.832,154.037-38.832,304.224,38.832,296.524,38.832,296.524a38.832,38.832,0,0,1-38.832,38.832H38.832A38.832,38.832,0,0,1,0,639.579S38.832,493.242,38.832,343.055,0,38.832,0,38.832A38.832,38.832,0,0,1,38.832,0Z" transform="translate(247.716 290.343)" fill="#cbcbcb"/>
        <path id="Path_435-3" data-name="Path 435" d="M38.832,0h130.2a38.832,38.832,0,0,1,38.832,38.832s-38.832,154.037-38.832,304.224,38.832,296.524,38.832,296.524a38.832,38.832,0,0,1-38.832,38.832H38.832A38.832,38.832,0,0,1,0,639.579S38.832,493.242,38.832,343.055,0,38.832,0,38.832A38.832,38.832,0,0,1,38.832,0Z" transform="translate(247.716 -387.769)" fill="#cbcbcb"/>
        <path id="Path_436-3" data-name="Path 436" d="M38.832,0h130.2a38.832,38.832,0,0,1,38.832,38.832s-38.832,154.037-38.832,304.224,38.832,296.524,38.832,296.524a38.832,38.832,0,0,1-38.832,38.832H38.832A38.832,38.832,0,0,1,0,639.579S38.832,493.242,38.832,343.055,0,38.832,0,38.832A38.832,38.832,0,0,1,38.832,0Z" transform="translate(247.716 -1065.88)" fill="#cbcbcb"/>
      </g>
    </g>
    <g transform="translate(1773.269 492.63)">
      <g id="Bamboo-4" data-name="Bamboo" transform="translate(-133.204 573.25)" opacity="0.234">
        <g id="Group_20-4" data-name="Group 20" transform="translate(36.935 37.148)">
          <ellipse id="Ellipse_12-7" data-name="Ellipse 12" cx="118.751" cy="30.294" rx="118.751" ry="30.294" transform="translate(0 352.746) rotate(-45)" fill="#cbcbcb"/>
          <ellipse id="Ellipse_67-7" data-name="Ellipse 67" cx="118.751" cy="30.294" rx="118.751" ry="30.294" transform="translate(42.842) rotate(45)" fill="#cbcbcb"/>
        </g>
        <g id="Group_21-4" data-name="Group 21" transform="translate(667.283 -281.662) rotate(180)">
          <ellipse id="Ellipse_12-8" data-name="Ellipse 12" cx="118.751" cy="30.294" rx="118.751" ry="30.294" transform="translate(0 352.746) rotate(-45)" fill="#cbcbcb"/>
          <ellipse id="Ellipse_67-8" data-name="Ellipse 67" cx="118.751" cy="30.294" rx="118.751" ry="30.294" transform="translate(42.842) rotate(45)" fill="#cbcbcb"/>
        </g>
        <path id="Path_4-4" data-name="Path 4" d="M38.832,0h130.2a38.832,38.832,0,0,1,38.832,38.832s-38.832,154.037-38.832,304.224,38.832,296.524,38.832,296.524a38.832,38.832,0,0,1-38.832,38.832H38.832A38.832,38.832,0,0,1,0,639.579S38.832,493.242,38.832,343.055,0,38.832,0,38.832A38.832,38.832,0,0,1,38.832,0Z" transform="translate(247.716 290.343)" fill="#cbcbcb"/>
        <path id="Path_435-4" data-name="Path 435" d="M38.832,0h130.2a38.832,38.832,0,0,1,38.832,38.832s-38.832,154.037-38.832,304.224,38.832,296.524,38.832,296.524a38.832,38.832,0,0,1-38.832,38.832H38.832A38.832,38.832,0,0,1,0,639.579S38.832,493.242,38.832,343.055,0,38.832,0,38.832A38.832,38.832,0,0,1,38.832,0Z" transform="translate(247.716 -387.769)" fill="#cbcbcb"/>
        <path id="Path_436-4" data-name="Path 436" d="M38.832,0h130.2a38.832,38.832,0,0,1,38.832,38.832s-38.832,154.037-38.832,304.224,38.832,296.524,38.832,296.524a38.832,38.832,0,0,1-38.832,38.832H38.832A38.832,38.832,0,0,1,0,639.579S38.832,493.242,38.832,343.055,0,38.832,0,38.832A38.832,38.832,0,0,1,38.832,0Z" transform="translate(247.716 -1065.88)" fill="#cbcbcb"/>
      </g>
    </g>
    <g transform="translate(2332.269 492.63)">
      <g id="Bamboo-5" data-name="Bamboo" transform="translate(-133.204 573.25)" opacity="0.234">
        <g id="Group_20-5" data-name="Group 20" transform="translate(36.935 37.148)">
          <ellipse id="Ellipse_12-9" data-name="Ellipse 12" cx="118.751" cy="30.294" rx="118.751" ry="30.294" transform="translate(0 352.746) rotate(-45)" fill="#cbcbcb"/>
          <ellipse id="Ellipse_67-9" data-name="Ellipse 67" cx="118.751" cy="30.294" rx="118.751" ry="30.294" transform="translate(42.842) rotate(45)" fill="#cbcbcb"/>
        </g>
        <g id="Group_21-5" data-name="Group 21" transform="translate(667.283 -281.662) rotate(180)">
          <ellipse id="Ellipse_12-10" data-name="Ellipse 12" cx="118.751" cy="30.294" rx="118.751" ry="30.294" transform="translate(0 352.746) rotate(-45)" fill="#cbcbcb"/>
          <ellipse id="Ellipse_67-10" data-name="Ellipse 67" cx="118.751" cy="30.294" rx="118.751" ry="30.294" transform="translate(42.842) rotate(45)" fill="#cbcbcb"/>
        </g>
        <path id="Path_4-5" data-name="Path 4" d="M38.832,0h130.2a38.832,38.832,0,0,1,38.832,38.832s-38.832,154.037-38.832,304.224,38.832,296.524,38.832,296.524a38.832,38.832,0,0,1-38.832,38.832H38.832A38.832,38.832,0,0,1,0,639.579S38.832,493.242,38.832,343.055,0,38.832,0,38.832A38.832,38.832,0,0,1,38.832,0Z" transform="translate(247.716 290.343)" fill="#cbcbcb"/>
        <path id="Path_435-5" data-name="Path 435" d="M38.832,0h130.2a38.832,38.832,0,0,1,38.832,38.832s-38.832,154.037-38.832,304.224,38.832,296.524,38.832,296.524a38.832,38.832,0,0,1-38.832,38.832H38.832A38.832,38.832,0,0,1,0,639.579S38.832,493.242,38.832,343.055,0,38.832,0,38.832A38.832,38.832,0,0,1,38.832,0Z" transform="translate(247.716 -387.769)" fill="#cbcbcb"/>
        <path id="Path_436-5" data-name="Path 436" d="M38.832,0h130.2a38.832,38.832,0,0,1,38.832,38.832s-38.832,154.037-38.832,304.224,38.832,296.524,38.832,296.524a38.832,38.832,0,0,1-38.832,38.832H38.832A38.832,38.832,0,0,1,0,639.579S38.832,493.242,38.832,343.055,0,38.832,0,38.832A38.832,38.832,0,0,1,38.832,0Z" transform="translate(247.716 -1065.88)" fill="#cbcbcb"/>
      </g>
    </g>
  </g>
</svg>
