<svg id="Group_12" data-name="Group 12" xmlns="http://www.w3.org/2000/svg" width="646.157" height="544.941" viewBox="0 0 646.157 544.941">
  <rect id="Rectangle_22" data-name="Rectangle 22" width="594.958" height="381.037" transform="translate(9.885 0.337)" fill="#e6e6e6"/>
  <rect id="Rectangle_23" data-name="Rectangle 23" width="560.932" height="310.704" transform="translate(26.897 48.129)" fill="#fff"/>
  <rect id="Rectangle_24" data-name="Rectangle 24" width="594.958" height="25.276" transform="translate(9.631)" fill="#21deba"/>
  <circle id="Ellipse_14" data-name="Ellipse 14" cx="4.685" cy="4.685" r="4.685" transform="translate(23.729 8.238)" fill="#fff"/>
  <circle id="Ellipse_15" data-name="Ellipse 15" cx="4.685" cy="4.685" r="4.685" transform="translate(41.511 8.238)" fill="#fff"/>
  <circle id="Ellipse_16" data-name="Ellipse 16" cx="4.685" cy="4.685" r="4.685" transform="translate(59.293 8.238)" fill="#fff"/>
  <path id="Path_27" data-name="Path 27" d="M745.026,576.821l4.372,17.49-19.237,5.247-1.749-18.363Z" transform="translate(-108.722 -86.096)" fill="#a0616a"/>
  <path id="Path_28" data-name="Path 28" d="M661.724,601.9v16.614l-19.239,3.5-3.5-8.745,7-14.865Z" transform="translate(-95.375 -89.318)" fill="#a0616a"/>
  <path id="Path_29" data-name="Path 29" d="M917.523,519.477l-2.623,23.61,1.749,45.471s0,4.372,2.623,6.121c1.407.956,32.354,87.444,32.354,87.444s-7,8.744-20.112,6.121l-2.623-8.745s-3.5-11.368-5.247-13.991-27.982-55.964-27.982-55.964L883.42,587.683l-3.5,29.731s7,37.6,5.247,55.09-5.247,35.852-5.247,35.852l-20.987-3.5a14.6,14.6,0,0,0-2.623-7.87c-2.623-3.5-1.749-15.74-1.749-15.74v-2.623l-5.247-67.332L839.7,522.975Z" transform="translate(-312.699 -187.899)" fill="#2f2e41"/>
  <circle id="Ellipse_17" data-name="Ellipse 17" cx="23.61" cy="23.61" r="23.61" transform="translate(521.752 125.209)" fill="#a0616a"/>
  <path id="Path_30" data-name="Path 30" d="M660.443,175.443l9.619,23.61-22.735,16.615-13.991-24.485Z" transform="translate(-94.531 -26.186)" fill="#a0616a"/>
  <path id="Path_31" data-name="Path 31" d="M879.57,325.473l8.744-4.372,5.247,12.242s34.1,10.493,31.48,58.588-8.745,66.458-8.745,66.458,14.866,31.48,6.121,34.978-83.072,16.614-84.821,4.372,6.121-83.946,6.121-83.946S841.1,362.2,862.956,351.706l-4.372-9.619Z" transform="translate(-312.347 -158.29)" fill="#3f3d56"/>
  <path id="Path_32" data-name="Path 32" d="M828.3,525.644s-20.112,20.987-8.744,26.233,18.363-23.61,18.363-23.61Z" transform="translate(-309.173 -188.82)" fill="#a0616a"/>
  <path id="Path_33" data-name="Path 33" d="M870.8,743.872l9.619-3.5s10.493,23.61,1.749,23.61H859.427s-13.117-4.372-20.112-4.372S819.2,746.5,828.822,740.374,850.683,736,850.683,736l3.5-7.87,4.372,12.242S863.8,749.119,870.8,743.872Z" transform="translate(-310.567 -219.043)" fill="#2f2e41"/>
  <path id="Path_34" data-name="Path 34" d="M957.938,723.1s5.476-3.455,8.422-2.165,4.695,15.281,4.695,15.281,8.744,10.493-10.493,12.242-23.61-1.749-25.359-7,1.749-10.493,1.749-10.493l5.247-1.749s6.121-4.372,4.372-6.121,0-5.247,0-5.247S952.691,730.1,957.938,723.1Z" transform="translate(-326.88 -217.509)" fill="#2f2e41"/>
  <path id="Path_35" data-name="Path 35" d="M864.986,298.04a11.59,11.59,0,0,0-.513-2.247c-1.269-2.662-6.22-1.885-7.1-4.7-.173-.551-.137-1.15-.306-1.7-.431-1.407-2.086-2.105-3.557-2.038a19.211,19.211,0,0,0-4.263,1.1c-3.459.982-7.139.607-10.715.224a10.78,10.78,0,0,1-4.575-1.191,3.686,3.686,0,0,1-1.837-4.021c.473-1.449,2.058-2.245,2.771-3.592,1.132-2.139-.252-4.9.667-7.141,1.473-3.592,7.049-2.871,9.882-5.526.688-.644,1.183-1.468,1.842-2.142,1.955-2,5.043-2.385,7.826-2.11s5.516,1.093,8.312,1.043c2.651-.047,5.43-.854,7.873.177a11.228,11.228,0,0,1,3.7,3.038l6.266,6.872A7.724,7.724,0,0,1,883.191,277c.377,1.317.03,2.73.191,4.09.367,3.1,3.271,5.445,3.663,8.544a11.109,11.109,0,0,1-.138,2.877l-.878,6.471a4.813,4.813,0,0,1-.495,1.813c-.255.436-.641.78-.928,1.2-.811,1.174-.737,2.725-1.14,4.093s-1.849,2.723-3.114,2.063c-.825-.43-1.371-3.989-2.373-4.912-1.4-1.287-2.125-1.128-3.849-1.106C870.679,302.175,866.09,302.471,864.986,298.04Z" transform="translate(-311.548 -149.599)" fill="#2f2e41"/>
  <path id="Path_36" data-name="Path 36" d="M868.155,364.265s26.233,10.493,18.363,34.1-28.857,96.188-28.857,96.188l-12.242,6.121-3.5,9.619-16.614-6.121,2.623-13.117,6.121-13.117L849.792,380S849.792,363.39,868.155,364.265Z" transform="translate(-310.551 -164.728)" fill="#3f3d56"/>
  <path id="Path_37" data-name="Path 37" d="M671.811,280.284,644.7,372.975l-11.368,11.368,6.558-11.806Z" transform="translate(-94.531 -41.835)" opacity="0.1" style="isolation: isolate"/>
  <path id="Path_38" data-name="Path 38" d="M268.05,427.631l5.111,36.346L294.742,502.6c6.247,5.679.568,19.309.568,19.309l-5.679-3.975-1.136-6.815s-24.988-28.4-31.235-35.211-8.519-44.3-8.519-44.3Z" transform="translate(-224.493 -174.191)" fill="#fbbebe"/>
  <path id="Path_39" data-name="Path 39" d="M246.339,716.163s1.136,13.062.568,16.469-17.605-.568-17.605-.568c2.84-5.679,4.543-22.717,4.543-22.717Z" transform="translate(-221.591 -216.24)" fill="#fbbebe"/>
  <path id="Path_40" data-name="Path 40" d="M345.9,721.065s1.7,18.173,1.136,21.581-17.605-.568-17.605-.568c2.84-5.679,4.543-22.717,4.543-22.717Z" transform="translate(-236.537 -217.734)" fill="#fbbebe"/>
  <circle id="Ellipse_18" data-name="Ellipse 18" cx="20.657" cy="20.657" r="20.657" transform="translate(53.908 170.678)" fill="#fbbebe"/>
  <path id="Path_41" data-name="Path 41" d="M303.695,374.885c-3.407,4.543-1.7,12.494-1.7,12.494S267.348,427.7,261.1,427.7s-5.111-28.4-5.111-28.4,9.087-10.79,14.2-13.062,14.2-26.692,14.2-26.692S307.1,370.342,303.695,374.885Z" transform="translate(-225.563 -164.029)" fill="#fbbebe"/>
  <path id="Path_42" data-name="Path 42" d="M323.158,468.362l22.23,37.342c4.057,6.675-3.489,40.462-3.489,40.462l-3.408,72.125-5.679,72.675v7.951l-18.741-.568-6.247-77.786-9.087-58.5-14.766,44.865-24.42,55.088a150.961,150.961,0,0,1-7.668,19.868l-4.543,7.951-17.033-1.991,25.837-87.162,5.111-56.791c.568-31.8,10.79-49.409,10.79-49.409v-6.815Z" transform="translate(-221.742 -180.27)" fill="#2f2e41"/>
  <path id="Path_43" data-name="Path 43" d="M243.851,732.815s2.84-4.543,2.84-2.84,7.383,6.247,7.383,6.247,7.383-1.136,8.519,7.383-10.222,10.222-13.062,9.655-10.222.568-10.222.568a50.684,50.684,0,0,1-14.766,0c-9.087-1.136-1.136-16.469,0-19.309s6.815-.568,6.815-.568C241.579,736.79,243.851,732.815,243.851,732.815Z" transform="translate(-220.239 -219.261)" fill="#2f2e41"/>
  <path id="Path_44" data-name="Path 44" d="M343.984,742.828s2.84-4.543,2.84-2.84,7.383,6.247,7.383,6.247,7.383-1.136,8.519,7.383-10.222,10.222-13.062,9.655-10.222.568-10.222.568a50.684,50.684,0,0,1-14.766,0c-9.087-1.136-1.136-16.469,0-19.309s6.815-.568,6.815-.568C341.712,746.8,343.984,742.828,343.984,742.828Z" transform="translate(-235.184 -220.756)" fill="#2f2e41"/>
  <path id="Path_45" data-name="Path 45" d="M293.8,390.982c14.2-14.766,29.531,22.149,29.531,22.149s5.111,13.63,1.136,21.013S328.438,458,328.438,458c-19.449,16.556-38.829,31.863-56.791,21.013,2.272-13.63-5.111-20.445-10.222-33.507s-14.766-10.222-14.766-10.222.568-14.766,2.272-26.692,17.037-16.4,17.037-16.4C268.747,397.177,279.6,405.748,293.8,390.982Z" transform="translate(-224.182 -168.2)" fill="#3f3d56"/>
  <path id="Path_46" data-name="Path 46" d="M328.05,419.631l5.111,36.346L354.742,494.6c6.247,5.679.568,19.309.568,19.309l-5.679-3.975-1.136-6.815s-24.988-28.4-31.235-35.211-8.519-44.3-8.519-44.3Z" transform="translate(-233.448 -172.997)" fill="#fbbebe"/>
  <path id="Path_47" data-name="Path 47" d="M331.187,420.191l-23.852,2.84s-1.7-27.828,1.9-34.777,16.843.7,16.843.7C329.483,389.524,331.187,420.191,331.187,420.191Z" transform="translate(-233.179 -167.878)" fill="#3f3d56"/>
  <path id="Path_48" data-name="Path 48" d="M324.845,337.921c-15.275,7.635-6.462,28.481-8.265,37.227-2.953,14.327-46.5,7.046-46.5,7.046-5.3-.953-8.527-59.9,20.488-59.377C305.193,323.08,337.929,331.381,324.845,337.921Z" transform="translate(-227.154 -158.546)" fill="#2f2e41"/>
  <ellipse id="Ellipse_19" data-name="Ellipse 19" cx="2.127" cy="3.403" rx="2.127" ry="3.403" transform="translate(86.251 190.693)" fill="#fbbebe"/>
  <path id="Path_49" data-name="Path 49" d="M413.569,269.731c22.451,4.143,45.353,0,67.71-2.807l67.949-8.507c2.748-.349,6.746-1.991,8.363,1.37.91,1.88.3,5.955.366,8.116.179,5.955.162,11.91,0,17.866-.306,11.383-1.14,22.74-2.2,34.072-2.067,22.179-4.994,44.239-6.457,66.5-.749,11.332-1.123,22.7-.791,34.03.077,2.705.187,5.411.349,8.108.179,3.02,1.531,7.5-1.761,9.52-1.88,1.157-5.581,1.1-7.733,1.438-3.4.536-6.806.961-10.277,1.31-22.876,2.288-46.051,1.336-69.012,1.2l-69.335-.357-16.913-.094c-1.531,0-7.053.919-8-.9-.4-.774.664-4.4.851-5.368q.391-2.4.851-4.79c1.974-11.187,4.3-22.306,6.653-33.417,5.045-23.821,10.209-47.761,12.285-72.092,1.029-12.208.349-24.527,1.608-36.709.587-5.657,1.285-18.282,8.814-18.784,6.381-.425,12.948,0,19.346,0a1.276,1.276,0,0,0,0-2.552c-6.04,0-12.089-.162-18.129-.043-4.016.077-6.806,1.029-8.72,4.722-4.892,9.477-4.39,22.119-4.543,32.464-.366,24.765-4.169,49-9.12,73.223-2.493,12.191-5.181,24.34-7.657,36.539-1.166,5.828-2.28,11.672-3.3,17.534-.476,2.79-2.884,8.941-.766,11.5s8.635,1.183,11.553,1.2l20.3.119,38.9.221c25.131.145,50.347.851,75.469.111,12-.357,24.672-.851,36.352-3.718,3.48-.851,5.155-2.45,5.292-6.159.2-5.751-.732-11.681-.851-17.457-.851-49.428,10.762-98.167,9.571-147.612-.077-3.36,1.191-11.834-2.484-13.867-1.65-.919-3.794-.417-5.53-.213-3.318.383-6.627.851-9.945,1.242l-43.09,5.377c-13.773,1.7-27.538,3.539-41.337,5.1-14.607,1.7-29.359,2.714-43.915,0-1.608-.3-2.3,2.161-.681,2.459Z" transform="translate(-241.568 -148.443)" fill="#e6e6e6"/>
  <path id="Path_50" data-name="Path 50" d="M390.361,305.732l170-8.337c1.642-.085,1.65-2.637,0-2.552l-170,8.337C388.728,303.256,388.719,305.809,390.361,305.732Z" transform="translate(-245.448 -154.37)" fill="#e6e6e6"/>
  <path id="Path_51" data-name="Path 51" d="M451.933,281.47a4.254,4.254,0,0,0,1.506,6.865c2.288,1.046,4.977.17,7.248-.4,3.4-.851,6.806-1.608,10.3-2.229a140.5,140.5,0,0,1,23.047-2.144c3.522-.043,7.019.119,10.541.272,2.552.1,5.3.306,7.461-1.276,2.467-1.8,3.267-5.326.851-7.521-3.4-3.105-10.736-1.3-14.667-.978a328.92,328.92,0,0,0-42.418,6.33c-1.6.34-.927,2.807.681,2.459q13.842-2.986,27.9-4.8,6.908-.851,13.842-1.438c2.178-.179,4.356-.34,6.534-.468.851-.051,1.753-.145,2.62-.119,2.7.06,3.012-.425,1.4,2.833-1.438,2.884-.978,2.552-3.471,2.459-1.055,0-2.11-.119-3.165-.17q-3.241-.136-6.483-.145-6.9,0-13.765.664c-3.879.374-7.75.9-11.587,1.582-2.4.425-4.781.919-7.155,1.463-1.046.247-2.1.5-3.148.766-.5.136-1.012.255-1.514.383q-2.79.97-4.756-2.552c1.14-1.183-.655-2.995-1.8-1.8Z" transform="translate(-254.648 -151.147)" fill="#e6e6e6"/>
  <path id="Path_52" data-name="Path 52" d="M481.241,325.248c-12.31-.476-25.607,2.85-33.715,12.761-6.347,7.75-9.962,21.047-3.241,29.776,7.223,9.358,23.064,7.708,32.617,3.718,10.107-4.254,21.166-13.025,24.2-24,3.786-13.705-8.507-24.067-21.311-24.221a1.277,1.277,0,0,0,0,2.552c7.3.085,14.463,3.216,17.866,10.013,3.565,7.163.493,14.684-4.254,20.418-7.606,9.128-19.5,16.011-31.614,15.815-7.274-.111-15.313-2.6-17.568-10.277-1.855-6.219-.442-13.016,2.79-18.529,6.993-11.91,21.226-15.943,34.276-15.432,1.642.06,1.642-2.493,0-2.552Z" transform="translate(-253.142 -158.616)" fill="#e6e6e6"/>
  <path id="Path_53" data-name="Path 53" d="M473.2,346.318a3.318,3.318,0,0,0-4.458,3.4c.255,3.318,3.913,4.254,6.661,4.058,2.374-.2,5.147-1.08,4.313-4.05a3.811,3.811,0,0,0-2.076-2.4,4.807,4.807,0,0,0-2.4-.3c-.315,0-3.2,1.055-1.974-.213l-2.008-.264a2.093,2.093,0,0,1,.613,1.7,1.285,1.285,0,0,0,1.914,1.1,1.7,1.7,0,0,1,2.306,1.991,1.285,1.285,0,0,0,2.331.987c.851-1.531,1.88-4.577.6-6.176-.851-1.08-2.493-.757-3.514-.128a12.312,12.312,0,0,0-1.752,1.506c-1.029.91-1.7,1.336-1.319-.408.638-3.173,3.667-5.7,6.432-6.968l-1.872-1.438a26.9,26.9,0,0,1-5.147,10.081l2.178.9a5.683,5.683,0,0,1,3.471-5.538h-1.251l.664,1.089c-.247,1.608,2.212,2.3,2.459.672.323-2.1-1-4.832-3.463-3.8-2.935,1.225-4.458,4.586-4.4,7.58,0,1.021,1.446,1.812,2.186.91a30,30,0,0,0,5.794-11.221,1.293,1.293,0,0,0-1.88-1.438,14.267,14.267,0,0,0-6.193,5.394c-1.038,1.7-2.34,4.356-1.285,6.313a2.705,2.705,0,0,0,3.676,1.06l.025-.014a9.951,9.951,0,0,0,2.135-1.7c.315-.281.664-.766,1.08-.851.374-.255.357-.111-.06.451a4.637,4.637,0,0,1-.74,2.484l2.331.978a4.254,4.254,0,0,0-6.049-4.875l1.923,1.106a4.636,4.636,0,0,0-.961-3,1.293,1.293,0,0,0-2-.264,3.338,3.338,0,0,0,.085,4.943c1.217.927,1.812,0,3.148-.213,4.534-.587,1.889,1.455.289,1.523a6.031,6.031,0,0,1-2.135-.153q-2.663-.9-.332-2.323c1.523.621,2.178-1.846.681-2.459Z" transform="translate(-257.329 -160.782)" fill="#e6e6e6"/>
  <path id="Path_54" data-name="Path 54" d="M469.351,353.017c1.046,3.4-3.275,4.526-5.326,5.7a11.859,11.859,0,0,0-3.684,3.224c-2.144,2.876-2.944,6.534-3.65,9.979-.323,1.608,2.135,2.288,2.467.681a28.927,28.927,0,0,1,2.152-7.342c1.531-3.046,3.726-4.067,6.585-5.632s4.926-3.99,3.913-7.291c-.476-1.565-2.944-.893-2.459.681Z" transform="translate(-255.527 -162.819)" fill="#e6e6e6"/>
  <path id="Path_55" data-name="Path 55" d="M474.19,351.283a2.467,2.467,0,0,0-2.127,2.552c0,1.012.672,1.659,1.131,2.467a19.482,19.482,0,0,1,2.467,5.368c.408,1.829.808,5.1-.145,6.806-1.761,3.156-4.943,2.552-7.657,2.552-2.552,0-4.526.851-4.441-2.705.051-2,1.446-4.024,2.552-5.6l-2.331-.306a44.468,44.468,0,0,1,.774,7.878c0,1.183,1.812,1.838,2.374.638a49.283,49.283,0,0,0,3.241-8.967l-2.51-.34.442,6.466a1.285,1.285,0,0,0,2.374.647,2.893,2.893,0,0,0,.638-1.148c.085-.4-.7-3.1-1.012-2.135l2.5.34.179-6.142-2.552.34a12.71,12.71,0,0,1,.476,5.36c-.162,1.421,2.229,1.744,2.552.34l1.6-8.252-2.331.3a5.64,5.64,0,0,1,.434,3.675c-.187,1.633,2.365,1.616,2.552,0a8.967,8.967,0,0,0-.783-4.96,1.285,1.285,0,0,0-2.331.306l-1.608,8.252,2.51.34a13.919,13.919,0,0,0-.57-6.032,1.276,1.276,0,0,0-2.5.332l-.179,6.142a1.282,1.282,0,0,0,2.51.34l.136-.417a1.293,1.293,0,0,0-.323-1.242c-2.646-2.875-3.182,1.7-4.1,2.969l2.382.647-.442-6.466a1.284,1.284,0,0,0-2.51-.34,45.734,45.734,0,0,1-2.978,8.363l2.382.647a48.1,48.1,0,0,0-.851-8.558c-.221-1.174-1.761-1.123-2.331-.306-1.7,2.45-4.645,7.8-2.374,10.736,1.982,2.552,8.218,1.565,10.881,1.4,4.2-.238,5.726-2.9,6.185-6.865a16.811,16.811,0,0,0-.315-5.683c-.23-1-2.552-7.367-3.25-7.24,1.616-.3.927-2.765-.681-2.467Z" transform="translate(-256.112 -162.795)" fill="#e6e6e6"/>
  <path id="Path_56" data-name="Path 56" d="M469.451,357.406l-6.968,9.2,2.2,1.285,5.1-7.384-2.331-.987-2.544,9.707a1.285,1.285,0,0,0,2.331.987,44.841,44.841,0,0,1,3.888-5.47l-2.127-1.242a13.893,13.893,0,0,1-3.207,5.9l2.135,1.242a11.4,11.4,0,0,1,.927-3.4c.655-1.472-1.421-2.773-2.2-1.293A29.959,29.959,0,0,1,464.2,369.8l2.331.306.519-2.425-2.331-.306.374,2.127a1.285,1.285,0,0,0,2.135.561,25.4,25.4,0,0,0,5.1-7.7H470.14a11.459,11.459,0,0,1,1.2,3.4c.306,1.531,2.34.961,2.5-.34a69.169,69.169,0,0,0,.562-8.592H471.85v5.351c0,1.387,2.271,1.8,2.51.34a9.749,9.749,0,0,1,1.251-3.658h-2.237a5.674,5.674,0,0,1,.851,2.893,1.276,1.276,0,1,0,2.552,0l.323-1.7h-2.459c.247,1.506,1.183,9.988-2.144,8.992-.561-.136-.723-.1-.485.094l.757-1.616,1.778-3.769-2.382-.647c.153,1.753.315,4.254-.74,5.751-.851,1.217-3.471,1.7-4.807.987a8.508,8.508,0,0,1-2.22-2.331l-1.744,1.7c1.412,1.029,3.7,3.556,5.521,3.7,1.387.111,2.552-1.038,3.463-1.957a14.828,14.828,0,0,0,4.16-10.915,1.276,1.276,0,1,0-2.552,0v2.91a1.276,1.276,0,1,0,2.552,0v-7.138a1.276,1.276,0,0,0-2.552,0,30.628,30.628,0,0,1-.442,5.1l2.51.34a58.762,58.762,0,0,1-.281-6.117,1.276,1.276,0,0,0-2.5-.34c-.383,1.625-.851,3.224-1.3,4.815l2.331-.306-.179-.681c-.119-1.625-2.671-1.633-2.552,0a4.67,4.67,0,0,0,.527,1.974,1.289,1.289,0,0,0,2.331-.306c.485-1.6.919-3.2,1.3-4.815l-2.51-.34a58.761,58.761,0,0,0,.281,6.117c.128,1.31,2.237,1.872,2.5.34a35.161,35.161,0,0,0,.536-5.819h-2.552v7.138H475.8v-2.91h-2.552a12.268,12.268,0,0,1-3.105,8.745,10.453,10.453,0,0,1-1.072,1.055c-.6.579-1.157.493-1.642-.264A21.257,21.257,0,0,1,463.913,367c-1.055-.757-2.5.74-1.753,1.744,1.957,2.6,4.875,5.5,8.507,4.254,3.82-1.353,4.339-6.525,4.05-9.928-.094-1.131-1.787-1.9-2.374-.638-.851,1.8-1.7,3.582-2.552,5.385a4.757,4.757,0,0,0-.766,2.246c.281,1.914,2.6,1.6,4.033,1.489,5.538-.417,4.662-8.269,4.024-12.217-.213-1.31-2.118-1.106-2.459,0a7.512,7.512,0,0,0-.417,2.416h2.552a10.116,10.116,0,0,0-1.2-4.177,1.285,1.285,0,0,0-2.2,0,12.4,12.4,0,0,0-1.514,4.254l2.552.34v-5.351a1.276,1.276,0,1,0-2.552,0,69.181,69.181,0,0,1-.562,8.592l2.51-.34a14.609,14.609,0,0,0-1.455-3.981,1.285,1.285,0,0,0-2.2,0,23.277,23.277,0,0,1-4.7,7.18l2.135.561-.374-2.127c-.2-1.131-1.8-1.165-2.331-.306a5.6,5.6,0,0,0-.774,4.39c.213,1.208,1.744,1.08,2.331.306a29.865,29.865,0,0,0,2.459-3.854l-2.2-1.293a14.512,14.512,0,0,0-1.191,4.007c-.153,1.123,1.183,2.3,2.135,1.242a17.015,17.015,0,0,0,3.862-7.027c.315-1.157-1.285-2.254-2.135-1.242a48.736,48.736,0,0,0-4.254,5.955l2.331.987,2.595-9.673a1.285,1.285,0,0,0-2.331-.987l-5.1,7.393c-.953,1.37,1.234,2.552,2.2,1.285l6.942-9.188c.987-1.31-1.225-2.552-2.2-1.293Z" transform="translate(-256.317 -163.185)" fill="#e6e6e6"/>
  <path id="Path_57" data-name="Path 57" d="M598.009,378.361c10.209-6.244,18.325-15.56,27.343-23.353,9.784-8.448,20.052-16.317,30.627-23.77,20.537-14.463,42.1-27.4,63.652-40.308a1.276,1.276,0,0,0-1.285-2.2c-21.549,12.906-43.124,25.82-63.661,40.308-9.69,6.806-19.15,14.02-28.219,21.677-9.869,8.337-18.657,18.716-29.776,25.446-1.4.851-.119,3.063,1.285,2.2Z" transform="translate(-276.337 -153.435)" fill="#e6e6e6"/>
  <path id="Path_58" data-name="Path 58" d="M774.042,244.762c-11.06,1.123-22.97,3.939-29.776,13.612-5.879,8.32-5.751,22.834-.23,31.375,6.27,9.707,19.082,10.056,29.036,6.917s20.256-8.643,20.163-20.537c-.051-6.381-2.357-13.025-4.9-18.81-2.195-4.994-6.083-9.358-11.97-8.805-1.625.153-1.642,2.705,0,2.552,7.886-.732,10.422,8.635,12.293,14.548,1.7,5.521,3.275,12.055.6,17.542s-9.111,8.286-14.616,10.294c-5.955,2.161-12.5,3.479-18.716,1.7-12.319-3.445-15.722-19.057-12.174-30.133,4.083-12.761,18.546-16.513,30.329-17.7,1.616-.162,1.633-2.714,0-2.552Z" transform="translate(-297.799 -146.895)" fill="#e6e6e6"/>
  <path id="Path_59" data-name="Path 59" d="M794.042,360.762c-11.06,1.123-22.97,3.939-29.776,13.612-5.879,8.32-5.751,22.834-.23,31.375,6.27,9.707,19.082,10.056,29.036,6.917s20.256-8.644,20.163-20.537c-.051-6.381-2.357-13.025-4.9-18.81-2.195-4.994-6.083-9.358-11.97-8.805-1.625.153-1.642,2.705,0,2.552,7.886-.732,10.422,8.635,12.293,14.548,1.7,5.521,3.275,12.055.6,17.542s-9.111,8.286-14.616,10.294c-5.955,2.161-12.5,3.48-18.716,1.7-12.319-3.445-15.722-19.057-12.174-30.133,4.084-12.761,18.546-16.513,30.329-17.7,1.616-.162,1.633-2.714,0-2.552Z" transform="translate(-300.785 -164.209)" fill="#e6e6e6"/>
  <path id="Path_60" data-name="Path 60" d="M760.373,266.339l8.057,9.188a1.285,1.285,0,0,0,2.127-.57c1.7-4.475,1.378-9.111,1.778-13.816a45.492,45.492,0,0,1,3.616-14.1,47.582,47.582,0,0,1,19.04-21.822c1.4-.851.119-3.063-1.285-2.2a49.955,49.955,0,0,0-19.252,21.149,48.891,48.891,0,0,0-4.254,13.5c-.851,5.521-.077,11.306-2.118,16.606l2.135-.57-8.014-9.171c-1.089-1.234-2.884.578-1.8,1.8Z" transform="translate(-300.813 -143.621)" fill="#e6e6e6"/>
  <path id="Path_61" data-name="Path 61" d="M602.96,405.13q65.822-2.008,131.678-.851a1.277,1.277,0,0,0,0-2.552q-65.839-1.174-131.678.851C601.318,402.629,601.31,405.181,602.96,405.13Z" transform="translate(-277.179 -170.26)" fill="#e6e6e6"/>
  <path id="Path_62" data-name="Path 62" d="M768.594,375.775a263.654,263.654,0,0,1,43.107,21.66c1.4.851,2.68-1.336,1.285-2.2a266.473,266.473,0,0,0-43.677-21.915c-1.523-.6-2.186,1.863-.672,2.459Z" transform="translate(-301.964 -166.07)" fill="#e6e6e6"/>
  <path id="Path_63" data-name="Path 63" d="M796.367,362.559a104.216,104.216,0,0,0-25.02,63.406c-.068,1.642,2.484,1.642,2.552,0a101.357,101.357,0,0,1,24.272-61.6c1.063-1.242-.732-3.054-1.8-1.8Z" transform="translate(-302.496 -164.415)" fill="#e6e6e6"/>
  <path id="Path_64" data-name="Path 64" d="M400.585,394.194l95.087-1.242,10.932-.145c1.965,0,3.93-.068,5.9-.077,2.765,0,4.628,2.3,4.577,5.1-.128,5.955-3.871,5.742-8.771,5.955l-11.817.536-48.118,2.118c-8.618.383-17.245.851-25.863,1.148-7.776.238-22.562-2.3-19.108-13.612.476-1.574-1.982-2.246-2.467-.681-1.7,5.564,1.31,11.213,6.159,14.131,6.882,4.135,15.951,2.731,23.548,2.391l59.075-2.68,14.344-.638c3.675-.17,8.788.578,12.166-1.131,3.964-2,4.662-9.937,2.161-13.28-1.285-1.7-3.088-1.855-5.1-1.931-5.292-.2-10.677.145-15.977.213l-29.453.391-67.3.851a1.277,1.277,0,0,0,0,2.552Z" transform="translate(-246.968 -168.589)" fill="#e6e6e6"/>
  <path id="Path_65" data-name="Path 65" d="M504.091,340.164l-27.619-16.64,8.066,31.22L489.4,343.37l8.109,10.874,2.405-1.793L491.8,341.577Z" transform="translate(-71.118 -48.289)" fill="#21deba"/>
  <rect id="Rectangle_25" data-name="Rectangle 25" width="46.791" height="16.164" transform="translate(427.399 309.797)" fill="#21deba"/>
  <path id="Path_66" data-name="Path 66" d="M316.831,185.164l27.619-16.64-8.066,31.22-4.862-11.374-8.109,10.874-2.405-1.793,8.109-10.874Z" transform="translate(-47.29 -25.154)" fill="#3f3d56"/>
  <rect id="Rectangle_26" data-name="Rectangle 26" width="46.791" height="16.164" transform="translate(228.325 178.783)" fill="#3f3d56"/>
</svg>
