<svg id="Group_17" data-name="Group 17" xmlns="http://www.w3.org/2000/svg" width="500.129" height="435.156" viewBox="0 0 500.129 435.156">
  <ellipse id="Ellipse_54" data-name="Ellipse 54" cx="66.852" cy="5.099" rx="66.852" ry="5.099" transform="translate(366.425 424.958)" fill="#e6e6e6"/>
  <path id="Path_339" data-name="Path 339" d="M920.511,522.7l-6.465,18.034a6.3,6.3,0,0,0,2.663,7.508h0a6.3,6.3,0,0,0,9.519-4.681l2.052-18.271,15.539-51.363-13.38-6.474Z" transform="translate(-461.33 -238.62)" fill="#a0616a"/>
  <path id="Path_340" data-name="Path 340" d="M697.026,600.586h9.5V508.218l-21.581-.431Z" transform="translate(-243.24 -180.328)" fill="#a0616a"/>
  <path id="Path_341" data-name="Path 341" d="M631.433,600.586h9.5V508.218l-21.581-.431Z" transform="translate(-219.947 -180.328)" fill="#a0616a"/>
  <path id="Path_342" data-name="Path 342" d="M895.183,601.94l-24.6-2.59L865.4,572.158l-9.5,27.624-29.35-3.021,12.085-45.752c22.091-15.012,43.073-14.683,63.017,0Z" transform="translate(-430.391 -264.338)" fill="#2f2e41"/>
  <path id="Path_343" data-name="Path 343" d="M851.09,762.515a7.711,7.711,0,0,1-8.688,8.6l-17.493-2.372a5.978,5.978,0,0,1-4.987-6.816h0a5.978,5.978,0,0,1,5.909-5.069h2.884l9.489-8.646c.094,5.889,4.431,4.581,11.6,4.007Z" transform="translate(-428.011 -338.324)" fill="#2f2e41"/>
  <path id="Path_344" data-name="Path 344" d="M916.683,762.515a7.711,7.711,0,0,1-8.688,8.6L890.5,768.74a5.979,5.979,0,0,1-4.987-6.816h0a5.979,5.979,0,0,1,5.909-5.069h2.884l9.489-8.646c.094,5.889,4.431,4.581,11.6,4.007Z" transform="translate(-451.304 -338.324)" fill="#2f2e41"/>
  <circle id="Ellipse_55" data-name="Ellipse 55" cx="15.215" cy="15.215" r="15.215" transform="translate(416.45 150.062)" fill="#a0616a"/>
  <path id="Path_345" data-name="Path 345" d="M688.872,284.3l-18.992,1.727V269.2l9.927-6.042Z" transform="translate(-237.892 -93.452)" fill="#a0616a"/>
  <path id="Path_346" data-name="Path 346" d="M909.283,506.332c-19.106-13.99-42.047-12.569-67.333-1.726,11.456-32.432,16.336-62.658,7.338-88.227a20.343,20.343,0,0,1,15.3-19.708l3.258-.834,15.97.863,15,8.791A20.415,20.415,0,0,1,908.9,423.01Z" transform="translate(-435.858 -213.187)" fill="#e6e6e6"/>
  <path id="Path_347" data-name="Path 347" d="M828.146,517.346l-6.465,18.034a6.3,6.3,0,0,0,2.663,7.508h0a6.3,6.3,0,0,0,9.519-4.681l2.052-18.271,15.538-51.363-13.38-6.474Z" transform="translate(-428.529 -236.718)" fill="#a0616a"/>
  <path id="Path_348" data-name="Path 348" d="M954.126,464.364H932.976V412.569h0a29.178,29.178,0,0,1,14.388,19.522Z" transform="translate(-468.184 -219.129)" fill="#e6e6e6"/>
  <path id="Path_349" data-name="Path 349" d="M859.221,348.88a6.2,6.2,0,0,1-5.881-.318,4.688,4.688,0,0,1-1.87-5.374c.641-1.649,2.265-2.682,3.84-3.489a38.76,38.76,0,0,1,11.044-3.689,10.334,10.334,0,0,1,5.509.186c.858.335,1.627.867,2.478,1.218a27.878,27.878,0,0,0,4.968,1,12.121,12.121,0,0,1,8.052,6.033,14.608,14.608,0,0,1,1.246,3.272,18.828,18.828,0,0,1-.03,9.476c-1.3,4.918-4.619,9.436-4.32,14.515-2.452-1.428-3.6-4.334-5.647-6.3a9.293,9.293,0,0,0-5.585-2.53,2.954,2.954,0,0,1-1.631-.415,2.546,2.546,0,0,1-.709-1.283l-2.306-7.224c-.469-1.47-1.036-3.067-2.363-3.856a5.946,5.946,0,0,0-2.638-.641,40.173,40.173,0,0,0-6.587.062" transform="translate(-439.156 -191.841)" fill="#2f2e41"/>
  <path id="Path_350" data-name="Path 350" d="M857.851,449.4l-24.6-9.5,11.173-30.1A19.434,19.434,0,0,1,861.3,397.175h0Z" transform="translate(-432.768 -213.662)" fill="#e6e6e6"/>
  <path id="Path_351" data-name="Path 351" d="M514.692,444.765H244.49a4.842,4.842,0,0,1-4.837-4.837V145.221a4.842,4.842,0,0,1,4.837-4.837h270.2a4.842,4.842,0,0,1,4.837,4.837V439.928A4.842,4.842,0,0,1,514.692,444.765ZM244.49,142.319a2.905,2.905,0,0,0-2.9,2.9V439.928a2.905,2.905,0,0,0,2.9,2.9h270.2a2.905,2.905,0,0,0,2.9-2.9V145.221a2.905,2.905,0,0,0-2.9-2.9Z" transform="translate(-221.967 -122.469)" fill="#e6e6e6"/>
  <circle id="Ellipse_56" data-name="Ellipse 56" cx="6.348" cy="6.348" r="6.348" transform="translate(71.932 115.072)" fill="#e6e6e6"/>
  <circle id="Ellipse_57" data-name="Ellipse 57" cx="6.348" cy="6.348" r="6.348" transform="translate(98.38 115.072)" fill="#e6e6e6"/>
  <circle id="Ellipse_58" data-name="Ellipse 58" cx="6.348" cy="6.348" r="6.348" transform="translate(124.828 115.072)" fill="#21deba"/>
  <circle id="Ellipse_59" data-name="Ellipse 59" cx="6.348" cy="6.348" r="6.348" transform="translate(151.276 115.072)" fill="#21deba"/>
  <circle id="Ellipse_60" data-name="Ellipse 60" cx="6.348" cy="6.348" r="6.348" transform="translate(177.724 115.072)" fill="#21deba"/>
  <circle id="Ellipse_61" data-name="Ellipse 61" cx="6.348" cy="6.348" r="6.348" transform="translate(204.172 115.072)" fill="#e6e6e6"/>
  <circle id="Ellipse_62" data-name="Ellipse 62" cx="6.348" cy="6.348" r="6.348" transform="translate(230.62 115.072)" fill="#e6e6e6"/>
  <circle id="Ellipse_63" data-name="Ellipse 63" cx="6.348" cy="6.348" r="6.348" transform="translate(71.932 135.172)" fill="#e6e6e6"/>
  <circle id="Ellipse_64" data-name="Ellipse 64" cx="6.348" cy="6.348" r="6.348" transform="translate(98.38 135.172)" fill="#e6e6e6"/>
  <circle id="Ellipse_65" data-name="Ellipse 65" cx="6.348" cy="6.348" r="6.348" transform="translate(124.828 135.172)" fill="#e6e6e6"/>
  <circle id="Ellipse_66" data-name="Ellipse 66" cx="6.348" cy="6.348" r="6.348" transform="translate(151.276 135.172)" fill="#e6e6e6"/>
  <circle id="Ellipse_67" data-name="Ellipse 67" cx="6.348" cy="6.348" r="6.348" transform="translate(177.724 135.172)" fill="#e6e6e6"/>
  <circle id="Ellipse_68" data-name="Ellipse 68" cx="6.348" cy="6.348" r="6.348" transform="translate(204.172 135.172)" fill="#e6e6e6"/>
  <circle id="Ellipse_69" data-name="Ellipse 69" cx="6.348" cy="6.348" r="6.348" transform="translate(230.62 135.172)" fill="#e6e6e6"/>
  <circle id="Ellipse_70" data-name="Ellipse 70" cx="6.348" cy="6.348" r="6.348" transform="translate(71.932 155.272)" fill="#21deba"/>
  <circle id="Ellipse_71" data-name="Ellipse 71" cx="6.348" cy="6.348" r="6.348" transform="translate(98.38 155.272)" fill="#21deba"/>
  <circle id="Ellipse_72" data-name="Ellipse 72" cx="6.348" cy="6.348" r="6.348" transform="translate(124.828 155.272)" fill="#21deba"/>
  <circle id="Ellipse_73" data-name="Ellipse 73" cx="6.348" cy="6.348" r="6.348" transform="translate(151.276 155.272)" fill="#e6e6e6"/>
  <circle id="Ellipse_74" data-name="Ellipse 74" cx="6.348" cy="6.348" r="6.348" transform="translate(177.724 155.272)" fill="#e6e6e6"/>
  <circle id="Ellipse_75" data-name="Ellipse 75" cx="6.348" cy="6.348" r="6.348" transform="translate(204.172 155.272)" fill="#e6e6e6"/>
  <circle id="Ellipse_76" data-name="Ellipse 76" cx="6.348" cy="6.348" r="6.348" transform="translate(230.62 155.272)" fill="#e6e6e6"/>
  <circle id="Ellipse_77" data-name="Ellipse 77" cx="6.348" cy="6.348" r="6.348" transform="translate(71.932 175.373)" fill="#e6e6e6"/>
  <circle id="Ellipse_78" data-name="Ellipse 78" cx="6.348" cy="6.348" r="6.348" transform="translate(98.38 175.373)" fill="#e6e6e6"/>
  <circle id="Ellipse_79" data-name="Ellipse 79" cx="6.348" cy="6.348" r="6.348" transform="translate(71.932 195.473)" fill="#e6e6e6"/>
  <circle id="Ellipse_80" data-name="Ellipse 80" cx="6.348" cy="6.348" r="6.348" transform="translate(98.38 195.473)" fill="#e6e6e6"/>
  <circle id="Ellipse_81" data-name="Ellipse 81" cx="6.348" cy="6.348" r="6.348" transform="translate(124.828 195.473)" fill="#e6e6e6"/>
  <circle id="Ellipse_82" data-name="Ellipse 82" cx="6.348" cy="6.348" r="6.348" transform="translate(124.828 175.373)" fill="#e6e6e6"/>
  <circle id="Ellipse_83" data-name="Ellipse 83" cx="6.348" cy="6.348" r="6.348" transform="translate(151.276 175.373)" fill="#21deba"/>
  <circle id="Ellipse_84" data-name="Ellipse 84" cx="6.348" cy="6.348" r="6.348" transform="translate(177.724 175.373)" fill="#21deba"/>
  <circle id="Ellipse_85" data-name="Ellipse 85" cx="6.348" cy="6.348" r="6.348" transform="translate(204.172 175.373)" fill="#21deba"/>
  <circle id="Ellipse_86" data-name="Ellipse 86" cx="6.348" cy="6.348" r="6.348" transform="translate(230.62 175.373)" fill="#e6e6e6"/>
  <path id="Path_40" data-name="Path 40" d="M380.03,213.882a3.835,3.835,0,1,0,0,7.669h96.142a3.835,3.835,0,1,0,.126-7.669H380.03Z" transform="translate(-270.457 -148.57)" fill="#3f3d56"/>
  <path id="Path_352" data-name="Path 352" d="M562.006,212.105a.755.755,0,0,0,0,1.067l3.239,3.239h-7.987a.755.755,0,0,0,0,1.509h7.987l-3.239,3.239a.755.755,0,0,0,1.067,1.067L567.6,217.7a.755.755,0,0,0,0-1.067l-4.527-4.527A.755.755,0,0,0,562.006,212.105Z" transform="translate(-334.489 -147.861)" fill="#e6e6e6"/>
  <path id="Path_353" data-name="Path 353" d="M345.068,212.105a.755.755,0,0,1,0,1.067l-3.239,3.239h7.987a.755.755,0,1,1,0,1.509h-7.987l3.239,3.239A.755.755,0,0,1,344,222.227l-4.527-4.527a.755.755,0,0,1,0-1.067L344,212.105A.755.755,0,0,1,345.068,212.105Z" transform="translate(-257.337 -147.861)" fill="#e6e6e6"/>
  <path id="Path_354" data-name="Path 354" d="M366.234,498.231a13.753,13.753,0,0,0,0,27.506h106.85a13.753,13.753,0,0,0,0-27.506Z" transform="translate(-262.035 -249.55)" fill="#e6e6e6"/>
  <path id="Path_355" data-name="Path 355" d="M234.329,156.807a22.1,22.1,0,1,1,22.1-22.1,22.1,22.1,0,0,1-22.1,22.1Z" transform="translate(-212.228 -112.604)" fill="#21deba"/>
  <path id="Plus" d="M249.218,138.693h-6.54v-6.541a2.18,2.18,0,1,0-4.36,0v6.541h-6.541a2.18,2.18,0,0,0,0,4.36h6.541v6.541a2.18,2.18,0,1,0,4.36,0v-6.541h6.54a2.18,2.18,0,1,0,0-4.36Z" transform="translate(-218.396 -118.772)" fill="#fff"/>
</svg>
