<svg id="Ideation" xmlns="http://www.w3.org/2000/svg" width="600" height="456.771" viewBox="0 0 600 456.771">
  <path id="Path_162" data-name="Path 162" d="M454.378,220.4l-9.168,39.88-7.442,32.353-5.932,25.8L424.4,350.79l-24.3,105.7L98.937,321.9,76.8,312,48.779,299.48l-22.144-9.895L0,277.681l15.1-21.247,12.557-17.667,15.885-22.352,12.552-17.656L197.35,0,346.989,128.318l26.647,22.849,21.248,18.22,26.651,22.849Z" fill="#f2f2f2"/>
  <path id="Path_163" data-name="Path 163" d="M568.835,484.662l15.557,26.945,15.556,26.945H537.723l15.556-26.945Z" transform="translate(-238.595 -215.21)" fill="#21deba"/>
  <rect id="Rectangle_28" data-name="Rectangle 28" width="65.241" height="65.241" transform="translate(181.034 218.257)" fill="#21deba"/>
  <circle id="Ellipse_35" data-name="Ellipse 35" cx="42" cy="42" r="42" transform="translate(248.075 97.231)" fill="#21deba"/>
  <path id="Path_164" data-name="Path 164" d="M647.5,405.484a6.928,6.928,0,1,1,6.928,6.928A6.928,6.928,0,0,1,647.5,405.484Zm1.155,0a5.774,5.774,0,1,0,5.773-5.774,5.774,5.774,0,0,0-5.773,5.774Z" transform="translate(-321.229 -199.102)" fill="#3f3d56"/>
  <path id="Path_165" data-name="Path 165" d="M536.72,603.824l-10.2-10.934,10.934-10.2,10.2,10.934Zm-8.573-10.877,8.629,9.252,9.252-8.629-8.629-9.252Z" transform="translate(-267.862 -280.692)" fill="#3f3d56"/>
  <path id="Path_166" data-name="Path 166" d="M392.228,337.3l-8.3-8.9,8.9-8.3,8.3,8.9Zm-6.977-8.853,7.023,7.53,7.53-7.023-7.023-7.53Z" transform="translate(-204.756 -164.45)" fill="#3f3d56"/>
  <rect id="Rectangle_29" data-name="Rectangle 29" width="360.269" height="1.155" transform="translate(239.731 455.616)" fill="#3f3d56"/>
  <path id="Path_167" data-name="Path 167" d="M557.985,286.471a57.735,57.735,0,1,1,57.735-57.735A57.735,57.735,0,0,1,557.985,286.471Zm0-114.316a56.581,56.581,0,1,0,56.581,56.581A56.581,56.581,0,0,0,557.985,172.155Z" transform="translate(-257.847 -99.206)" fill="#3f3d56"/>
  <rect id="Rectangle_30" data-name="Rectangle 30" width="34.437" height="1.155" transform="translate(251.115 202.501) rotate(-64.336)" fill="#3f3d56"/>
  <rect id="Rectangle_31" data-name="Rectangle 31" width="1.155" height="74.7" transform="translate(260.84 242.179) rotate(-61.578)" fill="#3f3d56"/>
  <path id="Path_168" data-name="Path 168" d="M471.544,486.294H387.25V402h84.294ZM388.4,485.139h81.984V403.155H388.4Z" transform="translate(-207.017 -201.905)" fill="#3f3d56"/>
  <path id="Path_169" data-name="Path 169" d="M685.932,564.724H598.741l43.6-75.51Zm-85.191-1.155h83.191l-41.6-72.046Z" transform="translate(-301.106 -240.549)" fill="#3f3d56"/>
  <circle id="Ellipse_36" data-name="Ellipse 36" cx="14.434" cy="14.434" r="14.434" transform="translate(475.247 173.836)" fill="#a0616a"/>
  <path id="Path_170" data-name="Path 170" d="M941.839,390.953s1.732,17.321,4.619,20.207-20.207-1.732-20.207-1.732,3.464-14.434,1.155-16.743S941.839,390.953,941.839,390.953Z" transform="translate(-448.072 -195.823)" fill="#a0616a"/>
  <path id="Path_171" data-name="Path 171" d="M967.369,441.5s6.928,19.63,8.66,31.754,1.732,17.321,1.732,17.321,7.506,23.094,5.2,34.064c0,0,8.66,25.981,1.155,25.981s-9.815-21.362-9.815-21.362L962.75,474.409Z" transform="translate(-463.498 -220.142)" fill="#a0616a"/>
  <path id="Path_172" data-name="Path 172" d="M926.878,438.015s-1.732-21.362-9.238-23.094c-3.583-.827-9.4-2.049-14.508-3.1a20.111,20.111,0,0,0-22.107,10.517,14.737,14.737,0,0,0-1.49,4.707c-1.155,9.238-6.928,9.238-1.732,21.362s4.042,24.826,4.042,24.826l3.464,30.6s-14.434,40.415-13.279,67.55l-13.279,66.4s2.887,6.928,10.97,3.464c0,0,20.207-34.064,18.475-58.89l20.785-46.188s14.434,43.879,18.475,47.92l10.392,62.354s9.815,2.887,14.434,0c0,0,1.732-60.045-8.083-69.86,0,0-9.815-41.57-7.506-52.539s2.887-27.713-14.434-42.724c0,0,2.309-6.351-5.2-9.815l5.774-18.475Z" transform="translate(-419.543 -213.052)" fill="#2f2e41"/>
  <path id="Path_173" data-name="Path 173" d="M891.967,414.817q-.234-.034-.477-.056a9.09,9.09,0,0,0-9.742,8.748l-.913,20.531-3.464,22.517-7.506,48.5s-14.434,17.321-4.619,18.475,11.547-19.053,11.547-19.053l12.7-38.105,5.2-35.219s6.061-6.061,3.538-20.072a7.594,7.594,0,0,0-6.263-6.265Z" transform="translate(-416.584 -208.42)" fill="#a0616a"/>
  <path id="Path_174" data-name="Path 174" d="M849.69,799.5l-4.042,20.785s-9.815,4.619-3.464,10.392,15.011-1.155,15.011-1.155l2.309-6.928-.577,10.392h1.732l1.732-10.392s3.464-6.351,1.155-11.547v-6.928Z" transform="translate(-406.605 -377.082)" fill="#2f2e41"/>
  <path id="Path_175" data-name="Path 175" d="M987.458,803l-2.309,19.053s-9.815,4.619-3.464,10.392S996.7,831.29,996.7,831.29L999,824.362l-.577,10.392h1.732l1.732-10.392s3.464-6.351,1.155-11.547v-6.928Z" transform="translate(-470.597 -378.561)" fill="#2f2e41"/>
  <path id="Path_176" data-name="Path 176" d="M937.175,338.758h0a12.489,12.489,0,0,0-2.411.24,10.567,10.567,0,0,0-4.6-1.061h-.418c-8.055,0-14.584,7.289-14.584,16.279h2.7l.436-3.318.639,3.318h2.248a31.816,31.816,0,0,0-1.044,8.156v16.57h4.08l2.362-6.139-.591,6.139h26.228l2.148-5.581-.537,5.581h2.953v-13.01C956.781,350.924,948,338.758,937.175,338.758Z" transform="translate(-443.384 -172.663)" fill="#2f2e41"/>
  <rect id="Rectangle_32" data-name="Rectangle 32" width="1.082" height="193.555" transform="translate(573.942 262.514)" fill="#3f3d56"/>
  <ellipse id="Ellipse_37" data-name="Ellipse 37" cx="21.106" cy="48.165" rx="21.106" ry="48.165" transform="translate(553.586 343.151)" fill="#3f3d56"/>
  <ellipse id="Ellipse_38" data-name="Ellipse 38" cx="21.106" cy="48.165" rx="21.106" ry="48.165" transform="translate(553.586 238.534)" fill="#3f3d56"/>
  <path id="Path_177" data-name="Path 177" d="M1068.58,451.025l-1.037-.311c.066-.219,6.429-22.024-4.02-36.062-5.9-7.928-16.027-11.948-30.1-11.948v-1.082c14.433,0,24.853,4.168,30.969,12.388C1075.166,428.488,1068.647,450.8,1068.58,451.025Z" transform="translate(-493.369 -201.049)" fill="#3f3d56"/>
  <circle id="Ellipse_39" data-name="Ellipse 39" cx="13.53" cy="13.53" r="13.53" transform="translate(526.527 188.419)" fill="#f2f2f2"/>
</svg>
