<svg xmlns="http://www.w3.org/2000/svg" xmlns:xlink="http://www.w3.org/1999/xlink" width="3405.935" height="3405.935" viewBox="0 0 3405.935 3405.935">
  <defs>
    <clipPath id="clip-path">
      <rect width="1100.719" height="3716" fill="none"/>
    </clipPath>
  </defs>
  <g id="Repeat_Grid_5" data-name="Repeat Grid 5" transform="translate(2627.609) rotate(45)" clip-path="url(#clip-path)">
    <g transform="translate(-873.227)">
      <g id="Bamboo" transform="translate(873.227)" opacity="0.059">
        <g id="Component_49_1" data-name="Component 49 – 1" transform="translate(114.773)">
          <path id="Path_6" data-name="Path 6" d="M22.781,0H99.165a22.781,22.781,0,0,1,22.781,22.781S99.165,113.149,99.165,201.259s22.781,173.96,22.781,173.96A22.781,22.781,0,0,1,99.165,398H22.781A22.781,22.781,0,0,1,0,375.219s22.781-85.851,22.781-173.96S0,22.781,0,22.781A22.781,22.781,0,0,1,22.781,0Z" fill="#20393c"/>
        </g>
        <g id="Component_49_2" data-name="Component 49 – 2" transform="translate(114.773 398)">
          <path id="Path_6-2" data-name="Path 6" d="M22.781,0H99.165a22.781,22.781,0,0,1,22.781,22.781S99.165,113.149,99.165,201.259s22.781,173.96,22.781,173.96A22.781,22.781,0,0,1,99.165,398H22.781A22.781,22.781,0,0,1,0,375.219s22.781-85.851,22.781-173.96S0,22.781,0,22.781A22.781,22.781,0,0,1,22.781,0Z" fill="#20393c"/>
        </g>
        <g id="Component_49_3" data-name="Component 49 – 3" transform="translate(114.773 796)">
          <path id="Path_6-3" data-name="Path 6" d="M22.781,0H99.165a22.781,22.781,0,0,1,22.781,22.781S99.165,113.149,99.165,201.259s22.781,173.96,22.781,173.96A22.781,22.781,0,0,1,99.165,398H22.781A22.781,22.781,0,0,1,0,375.219s22.781-85.851,22.781-173.96S0,22.781,0,22.781A22.781,22.781,0,0,1,22.781,0Z" fill="#20393c"/>
        </g>
        <g id="Component_46_2" data-name="Component 46 – 2" transform="translate(122.255 421.821) rotate(180)">
          <ellipse id="Ellipse_12" data-name="Ellipse 12" cx="62" cy="15.5" rx="62" ry="15.5" transform="translate(15.966 72) rotate(31)" fill="#20393c"/>
          <ellipse id="Ellipse_66" data-name="Ellipse 66" cx="62" cy="15.5" rx="62" ry="15.5" transform="translate(0 63.865) rotate(-31)" fill="#20393c"/>
        </g>
      </g>
    </g>
    <g transform="translate(-590.227)">
      <g id="Bamboo-2" data-name="Bamboo" transform="translate(988)" opacity="0.059">
        <g id="Component_49_1-2" data-name="Component 49 – 1">
          <path id="Path_6-4" data-name="Path 6" d="M22.781,0H99.165a22.781,22.781,0,0,1,22.781,22.781S99.165,113.149,99.165,201.259s22.781,173.96,22.781,173.96A22.781,22.781,0,0,1,99.165,398H22.781A22.781,22.781,0,0,1,0,375.219s22.781-85.851,22.781-173.96S0,22.781,0,22.781A22.781,22.781,0,0,1,22.781,0Z" fill="#20393c"/>
        </g>
        <g id="Component_49_2-2" data-name="Component 49 – 2" transform="translate(0 398)">
          <path id="Path_6-5" data-name="Path 6" d="M22.781,0H99.165a22.781,22.781,0,0,1,22.781,22.781S99.165,113.149,99.165,201.259s22.781,173.96,22.781,173.96A22.781,22.781,0,0,1,99.165,398H22.781A22.781,22.781,0,0,1,0,375.219s22.781-85.851,22.781-173.96S0,22.781,0,22.781A22.781,22.781,0,0,1,22.781,0Z" fill="#20393c"/>
        </g>
        <g id="Component_49_3-2" data-name="Component 49 – 3" transform="translate(0 796)">
          <path id="Path_6-6" data-name="Path 6" d="M22.781,0H99.165a22.781,22.781,0,0,1,22.781,22.781S99.165,113.149,99.165,201.259s22.781,173.96,22.781,173.96A22.781,22.781,0,0,1,99.165,398H22.781A22.781,22.781,0,0,1,0,375.219s22.781-85.851,22.781-173.96S0,22.781,0,22.781A22.781,22.781,0,0,1,22.781,0Z" fill="#20393c"/>
        </g>
      </g>
    </g>
    <g transform="translate(-307.227)">
      <g id="Bamboo-3" data-name="Bamboo" transform="translate(873.227)" opacity="0.059">
        <g id="Component_49_1-3" data-name="Component 49 – 1" transform="translate(114.773)">
          <path id="Path_6-7" data-name="Path 6" d="M22.781,0H99.165a22.781,22.781,0,0,1,22.781,22.781S99.165,113.149,99.165,201.259s22.781,173.96,22.781,173.96A22.781,22.781,0,0,1,99.165,398H22.781A22.781,22.781,0,0,1,0,375.219s22.781-85.851,22.781-173.96S0,22.781,0,22.781A22.781,22.781,0,0,1,22.781,0Z" fill="#20393c"/>
        </g>
        <g id="Component_49_2-3" data-name="Component 49 – 2" transform="translate(114.773 398)">
          <path id="Path_6-8" data-name="Path 6" d="M22.781,0H99.165a22.781,22.781,0,0,1,22.781,22.781S99.165,113.149,99.165,201.259s22.781,173.96,22.781,173.96A22.781,22.781,0,0,1,99.165,398H22.781A22.781,22.781,0,0,1,0,375.219s22.781-85.851,22.781-173.96S0,22.781,0,22.781A22.781,22.781,0,0,1,22.781,0Z" fill="#20393c"/>
        </g>
        <g id="Component_49_3-3" data-name="Component 49 – 3" transform="translate(114.773 796)">
          <path id="Path_6-9" data-name="Path 6" d="M22.781,0H99.165a22.781,22.781,0,0,1,22.781,22.781S99.165,113.149,99.165,201.259s22.781,173.96,22.781,173.96A22.781,22.781,0,0,1,99.165,398H22.781A22.781,22.781,0,0,1,0,375.219s22.781-85.851,22.781-173.96S0,22.781,0,22.781A22.781,22.781,0,0,1,22.781,0Z" fill="#20393c"/>
        </g>
        <g id="Component_46_2-2" data-name="Component 46 – 2" transform="translate(122.255 421.821) rotate(180)">
          <ellipse id="Ellipse_12-2" data-name="Ellipse 12" cx="62" cy="15.5" rx="62" ry="15.5" transform="translate(15.966 72) rotate(31)" fill="#20393c"/>
          <ellipse id="Ellipse_66-2" data-name="Ellipse 66" cx="62" cy="15.5" rx="62" ry="15.5" transform="translate(0 63.865) rotate(-31)" fill="#20393c"/>
        </g>
      </g>
    </g>
    <g transform="translate(-24.227)">
      <g id="Bamboo-4" data-name="Bamboo" transform="translate(988)" opacity="0.059">
        <g id="Component_49_1-4" data-name="Component 49 – 1">
          <path id="Path_6-10" data-name="Path 6" d="M22.781,0H99.165a22.781,22.781,0,0,1,22.781,22.781S99.165,113.149,99.165,201.259s22.781,173.96,22.781,173.96A22.781,22.781,0,0,1,99.165,398H22.781A22.781,22.781,0,0,1,0,375.219s22.781-85.851,22.781-173.96S0,22.781,0,22.781A22.781,22.781,0,0,1,22.781,0Z" fill="#20393c"/>
        </g>
        <g id="Component_49_2-4" data-name="Component 49 – 2" transform="translate(0 398)">
          <path id="Path_6-11" data-name="Path 6" d="M22.781,0H99.165a22.781,22.781,0,0,1,22.781,22.781S99.165,113.149,99.165,201.259s22.781,173.96,22.781,173.96A22.781,22.781,0,0,1,99.165,398H22.781A22.781,22.781,0,0,1,0,375.219s22.781-85.851,22.781-173.96S0,22.781,0,22.781A22.781,22.781,0,0,1,22.781,0Z" fill="#20393c"/>
        </g>
        <g id="Component_49_3-4" data-name="Component 49 – 3" transform="translate(0 796)">
          <path id="Path_6-12" data-name="Path 6" d="M22.781,0H99.165a22.781,22.781,0,0,1,22.781,22.781S99.165,113.149,99.165,201.259s22.781,173.96,22.781,173.96A22.781,22.781,0,0,1,99.165,398H22.781A22.781,22.781,0,0,1,0,375.219s22.781-85.851,22.781-173.96S0,22.781,0,22.781A22.781,22.781,0,0,1,22.781,0Z" fill="#20393c"/>
        </g>
      </g>
    </g>
    <g transform="translate(-873.227 1194)">
      <g id="Bamboo-5" data-name="Bamboo" transform="translate(873.227)" opacity="0.059">
        <g id="Component_49_1-5" data-name="Component 49 – 1" transform="translate(114.773)">
          <path id="Path_6-13" data-name="Path 6" d="M22.781,0H99.165a22.781,22.781,0,0,1,22.781,22.781S99.165,113.149,99.165,201.259s22.781,173.96,22.781,173.96A22.781,22.781,0,0,1,99.165,398H22.781A22.781,22.781,0,0,1,0,375.219s22.781-85.851,22.781-173.96S0,22.781,0,22.781A22.781,22.781,0,0,1,22.781,0Z" fill="#20393c"/>
        </g>
        <g id="Component_49_2-5" data-name="Component 49 – 2" transform="translate(114.773 398)">
          <path id="Path_6-14" data-name="Path 6" d="M22.781,0H99.165a22.781,22.781,0,0,1,22.781,22.781S99.165,113.149,99.165,201.259s22.781,173.96,22.781,173.96A22.781,22.781,0,0,1,99.165,398H22.781A22.781,22.781,0,0,1,0,375.219s22.781-85.851,22.781-173.96S0,22.781,0,22.781A22.781,22.781,0,0,1,22.781,0Z" fill="#20393c"/>
        </g>
        <g id="Component_49_3-5" data-name="Component 49 – 3" transform="translate(114.773 796)">
          <path id="Path_6-15" data-name="Path 6" d="M22.781,0H99.165a22.781,22.781,0,0,1,22.781,22.781S99.165,113.149,99.165,201.259s22.781,173.96,22.781,173.96A22.781,22.781,0,0,1,99.165,398H22.781A22.781,22.781,0,0,1,0,375.219s22.781-85.851,22.781-173.96S0,22.781,0,22.781A22.781,22.781,0,0,1,22.781,0Z" fill="#20393c"/>
        </g>
        <g id="Component_46_2-3" data-name="Component 46 – 2" transform="translate(122.255 421.821) rotate(180)">
          <ellipse id="Ellipse_12-3" data-name="Ellipse 12" cx="62" cy="15.5" rx="62" ry="15.5" transform="translate(15.966 72) rotate(31)" fill="#20393c"/>
          <ellipse id="Ellipse_66-3" data-name="Ellipse 66" cx="62" cy="15.5" rx="62" ry="15.5" transform="translate(0 63.865) rotate(-31)" fill="#20393c"/>
        </g>
      </g>
    </g>
    <g transform="translate(-590.227 1194)">
      <g id="Bamboo-6" data-name="Bamboo" transform="translate(988)" opacity="0.059">
        <g id="Component_49_1-6" data-name="Component 49 – 1">
          <path id="Path_6-16" data-name="Path 6" d="M22.781,0H99.165a22.781,22.781,0,0,1,22.781,22.781S99.165,113.149,99.165,201.259s22.781,173.96,22.781,173.96A22.781,22.781,0,0,1,99.165,398H22.781A22.781,22.781,0,0,1,0,375.219s22.781-85.851,22.781-173.96S0,22.781,0,22.781A22.781,22.781,0,0,1,22.781,0Z" fill="#20393c"/>
        </g>
        <g id="Component_49_2-6" data-name="Component 49 – 2" transform="translate(0 398)">
          <path id="Path_6-17" data-name="Path 6" d="M22.781,0H99.165a22.781,22.781,0,0,1,22.781,22.781S99.165,113.149,99.165,201.259s22.781,173.96,22.781,173.96A22.781,22.781,0,0,1,99.165,398H22.781A22.781,22.781,0,0,1,0,375.219s22.781-85.851,22.781-173.96S0,22.781,0,22.781A22.781,22.781,0,0,1,22.781,0Z" fill="#20393c"/>
        </g>
        <g id="Component_49_3-6" data-name="Component 49 – 3" transform="translate(0 796)">
          <path id="Path_6-18" data-name="Path 6" d="M22.781,0H99.165a22.781,22.781,0,0,1,22.781,22.781S99.165,113.149,99.165,201.259s22.781,173.96,22.781,173.96A22.781,22.781,0,0,1,99.165,398H22.781A22.781,22.781,0,0,1,0,375.219s22.781-85.851,22.781-173.96S0,22.781,0,22.781A22.781,22.781,0,0,1,22.781,0Z" fill="#20393c"/>
        </g>
      </g>
    </g>
    <g transform="translate(-307.227 1194)">
      <g id="Bamboo-7" data-name="Bamboo" transform="translate(873.227)" opacity="0.059">
        <g id="Component_49_1-7" data-name="Component 49 – 1" transform="translate(114.773)">
          <path id="Path_6-19" data-name="Path 6" d="M22.781,0H99.165a22.781,22.781,0,0,1,22.781,22.781S99.165,113.149,99.165,201.259s22.781,173.96,22.781,173.96A22.781,22.781,0,0,1,99.165,398H22.781A22.781,22.781,0,0,1,0,375.219s22.781-85.851,22.781-173.96S0,22.781,0,22.781A22.781,22.781,0,0,1,22.781,0Z" fill="#20393c"/>
        </g>
        <g id="Component_49_2-7" data-name="Component 49 – 2" transform="translate(114.773 398)">
          <path id="Path_6-20" data-name="Path 6" d="M22.781,0H99.165a22.781,22.781,0,0,1,22.781,22.781S99.165,113.149,99.165,201.259s22.781,173.96,22.781,173.96A22.781,22.781,0,0,1,99.165,398H22.781A22.781,22.781,0,0,1,0,375.219s22.781-85.851,22.781-173.96S0,22.781,0,22.781A22.781,22.781,0,0,1,22.781,0Z" fill="#20393c"/>
        </g>
        <g id="Component_49_3-7" data-name="Component 49 – 3" transform="translate(114.773 796)">
          <path id="Path_6-21" data-name="Path 6" d="M22.781,0H99.165a22.781,22.781,0,0,1,22.781,22.781S99.165,113.149,99.165,201.259s22.781,173.96,22.781,173.96A22.781,22.781,0,0,1,99.165,398H22.781A22.781,22.781,0,0,1,0,375.219s22.781-85.851,22.781-173.96S0,22.781,0,22.781A22.781,22.781,0,0,1,22.781,0Z" fill="#20393c"/>
        </g>
        <g id="Component_46_2-4" data-name="Component 46 – 2" transform="translate(122.255 421.821) rotate(180)">
          <ellipse id="Ellipse_12-4" data-name="Ellipse 12" cx="62" cy="15.5" rx="62" ry="15.5" transform="translate(15.966 72) rotate(31)" fill="#20393c"/>
          <ellipse id="Ellipse_66-4" data-name="Ellipse 66" cx="62" cy="15.5" rx="62" ry="15.5" transform="translate(0 63.865) rotate(-31)" fill="#20393c"/>
        </g>
      </g>
    </g>
    <g transform="translate(-24.227 1194)">
      <g id="Bamboo-8" data-name="Bamboo" transform="translate(988)" opacity="0.059">
        <g id="Component_49_1-8" data-name="Component 49 – 1">
          <path id="Path_6-22" data-name="Path 6" d="M22.781,0H99.165a22.781,22.781,0,0,1,22.781,22.781S99.165,113.149,99.165,201.259s22.781,173.96,22.781,173.96A22.781,22.781,0,0,1,99.165,398H22.781A22.781,22.781,0,0,1,0,375.219s22.781-85.851,22.781-173.96S0,22.781,0,22.781A22.781,22.781,0,0,1,22.781,0Z" fill="#20393c"/>
        </g>
        <g id="Component_49_2-8" data-name="Component 49 – 2" transform="translate(0 398)">
          <path id="Path_6-23" data-name="Path 6" d="M22.781,0H99.165a22.781,22.781,0,0,1,22.781,22.781S99.165,113.149,99.165,201.259s22.781,173.96,22.781,173.96A22.781,22.781,0,0,1,99.165,398H22.781A22.781,22.781,0,0,1,0,375.219s22.781-85.851,22.781-173.96S0,22.781,0,22.781A22.781,22.781,0,0,1,22.781,0Z" fill="#20393c"/>
        </g>
        <g id="Component_49_3-8" data-name="Component 49 – 3" transform="translate(0 796)">
          <path id="Path_6-24" data-name="Path 6" d="M22.781,0H99.165a22.781,22.781,0,0,1,22.781,22.781S99.165,113.149,99.165,201.259s22.781,173.96,22.781,173.96A22.781,22.781,0,0,1,99.165,398H22.781A22.781,22.781,0,0,1,0,375.219s22.781-85.851,22.781-173.96S0,22.781,0,22.781A22.781,22.781,0,0,1,22.781,0Z" fill="#20393c"/>
        </g>
      </g>
    </g>
    <g transform="translate(-873.227 2388)">
      <g id="Bamboo-9" data-name="Bamboo" transform="translate(873.227)" opacity="0.059">
        <g id="Component_49_1-9" data-name="Component 49 – 1" transform="translate(114.773)">
          <path id="Path_6-25" data-name="Path 6" d="M22.781,0H99.165a22.781,22.781,0,0,1,22.781,22.781S99.165,113.149,99.165,201.259s22.781,173.96,22.781,173.96A22.781,22.781,0,0,1,99.165,398H22.781A22.781,22.781,0,0,1,0,375.219s22.781-85.851,22.781-173.96S0,22.781,0,22.781A22.781,22.781,0,0,1,22.781,0Z" fill="#20393c"/>
        </g>
        <g id="Component_49_2-9" data-name="Component 49 – 2" transform="translate(114.773 398)">
          <path id="Path_6-26" data-name="Path 6" d="M22.781,0H99.165a22.781,22.781,0,0,1,22.781,22.781S99.165,113.149,99.165,201.259s22.781,173.96,22.781,173.96A22.781,22.781,0,0,1,99.165,398H22.781A22.781,22.781,0,0,1,0,375.219s22.781-85.851,22.781-173.96S0,22.781,0,22.781A22.781,22.781,0,0,1,22.781,0Z" fill="#20393c"/>
        </g>
        <g id="Component_49_3-9" data-name="Component 49 – 3" transform="translate(114.773 796)">
          <path id="Path_6-27" data-name="Path 6" d="M22.781,0H99.165a22.781,22.781,0,0,1,22.781,22.781S99.165,113.149,99.165,201.259s22.781,173.96,22.781,173.96A22.781,22.781,0,0,1,99.165,398H22.781A22.781,22.781,0,0,1,0,375.219s22.781-85.851,22.781-173.96S0,22.781,0,22.781A22.781,22.781,0,0,1,22.781,0Z" fill="#20393c"/>
        </g>
        <g id="Component_46_2-5" data-name="Component 46 – 2" transform="translate(122.255 421.821) rotate(180)">
          <ellipse id="Ellipse_12-5" data-name="Ellipse 12" cx="62" cy="15.5" rx="62" ry="15.5" transform="translate(15.966 72) rotate(31)" fill="#20393c"/>
          <ellipse id="Ellipse_66-5" data-name="Ellipse 66" cx="62" cy="15.5" rx="62" ry="15.5" transform="translate(0 63.865) rotate(-31)" fill="#20393c"/>
        </g>
      </g>
    </g>
    <g transform="translate(-590.227 2388)">
      <g id="Bamboo-10" data-name="Bamboo" transform="translate(988)" opacity="0.059">
        <g id="Component_49_1-10" data-name="Component 49 – 1">
          <path id="Path_6-28" data-name="Path 6" d="M22.781,0H99.165a22.781,22.781,0,0,1,22.781,22.781S99.165,113.149,99.165,201.259s22.781,173.96,22.781,173.96A22.781,22.781,0,0,1,99.165,398H22.781A22.781,22.781,0,0,1,0,375.219s22.781-85.851,22.781-173.96S0,22.781,0,22.781A22.781,22.781,0,0,1,22.781,0Z" fill="#20393c"/>
        </g>
        <g id="Component_49_2-10" data-name="Component 49 – 2" transform="translate(0 398)">
          <path id="Path_6-29" data-name="Path 6" d="M22.781,0H99.165a22.781,22.781,0,0,1,22.781,22.781S99.165,113.149,99.165,201.259s22.781,173.96,22.781,173.96A22.781,22.781,0,0,1,99.165,398H22.781A22.781,22.781,0,0,1,0,375.219s22.781-85.851,22.781-173.96S0,22.781,0,22.781A22.781,22.781,0,0,1,22.781,0Z" fill="#20393c"/>
        </g>
        <g id="Component_49_3-10" data-name="Component 49 – 3" transform="translate(0 796)">
          <path id="Path_6-30" data-name="Path 6" d="M22.781,0H99.165a22.781,22.781,0,0,1,22.781,22.781S99.165,113.149,99.165,201.259s22.781,173.96,22.781,173.96A22.781,22.781,0,0,1,99.165,398H22.781A22.781,22.781,0,0,1,0,375.219s22.781-85.851,22.781-173.96S0,22.781,0,22.781A22.781,22.781,0,0,1,22.781,0Z" fill="#20393c"/>
        </g>
      </g>
    </g>
    <g transform="translate(-307.227 2388)">
      <g id="Bamboo-11" data-name="Bamboo" transform="translate(873.227)" opacity="0.059">
        <g id="Component_49_1-11" data-name="Component 49 – 1" transform="translate(114.773)">
          <path id="Path_6-31" data-name="Path 6" d="M22.781,0H99.165a22.781,22.781,0,0,1,22.781,22.781S99.165,113.149,99.165,201.259s22.781,173.96,22.781,173.96A22.781,22.781,0,0,1,99.165,398H22.781A22.781,22.781,0,0,1,0,375.219s22.781-85.851,22.781-173.96S0,22.781,0,22.781A22.781,22.781,0,0,1,22.781,0Z" fill="#20393c"/>
        </g>
        <g id="Component_49_2-11" data-name="Component 49 – 2" transform="translate(114.773 398)">
          <path id="Path_6-32" data-name="Path 6" d="M22.781,0H99.165a22.781,22.781,0,0,1,22.781,22.781S99.165,113.149,99.165,201.259s22.781,173.96,22.781,173.96A22.781,22.781,0,0,1,99.165,398H22.781A22.781,22.781,0,0,1,0,375.219s22.781-85.851,22.781-173.96S0,22.781,0,22.781A22.781,22.781,0,0,1,22.781,0Z" fill="#20393c"/>
        </g>
        <g id="Component_49_3-11" data-name="Component 49 – 3" transform="translate(114.773 796)">
          <path id="Path_6-33" data-name="Path 6" d="M22.781,0H99.165a22.781,22.781,0,0,1,22.781,22.781S99.165,113.149,99.165,201.259s22.781,173.96,22.781,173.96A22.781,22.781,0,0,1,99.165,398H22.781A22.781,22.781,0,0,1,0,375.219s22.781-85.851,22.781-173.96S0,22.781,0,22.781A22.781,22.781,0,0,1,22.781,0Z" fill="#20393c"/>
        </g>
        <g id="Component_46_2-6" data-name="Component 46 – 2" transform="translate(122.255 421.821) rotate(180)">
          <ellipse id="Ellipse_12-6" data-name="Ellipse 12" cx="62" cy="15.5" rx="62" ry="15.5" transform="translate(15.966 72) rotate(31)" fill="#20393c"/>
          <ellipse id="Ellipse_66-6" data-name="Ellipse 66" cx="62" cy="15.5" rx="62" ry="15.5" transform="translate(0 63.865) rotate(-31)" fill="#20393c"/>
        </g>
      </g>
    </g>
    <g transform="translate(-24.227 2388)">
      <g id="Bamboo-12" data-name="Bamboo" transform="translate(988)" opacity="0.059">
        <g id="Component_49_1-12" data-name="Component 49 – 1">
          <path id="Path_6-34" data-name="Path 6" d="M22.781,0H99.165a22.781,22.781,0,0,1,22.781,22.781S99.165,113.149,99.165,201.259s22.781,173.96,22.781,173.96A22.781,22.781,0,0,1,99.165,398H22.781A22.781,22.781,0,0,1,0,375.219s22.781-85.851,22.781-173.96S0,22.781,0,22.781A22.781,22.781,0,0,1,22.781,0Z" fill="#20393c"/>
        </g>
        <g id="Component_49_2-12" data-name="Component 49 – 2" transform="translate(0 398)">
          <path id="Path_6-35" data-name="Path 6" d="M22.781,0H99.165a22.781,22.781,0,0,1,22.781,22.781S99.165,113.149,99.165,201.259s22.781,173.96,22.781,173.96A22.781,22.781,0,0,1,99.165,398H22.781A22.781,22.781,0,0,1,0,375.219s22.781-85.851,22.781-173.96S0,22.781,0,22.781A22.781,22.781,0,0,1,22.781,0Z" fill="#20393c"/>
        </g>
        <g id="Component_49_3-12" data-name="Component 49 – 3" transform="translate(0 796)">
          <path id="Path_6-36" data-name="Path 6" d="M22.781,0H99.165a22.781,22.781,0,0,1,22.781,22.781S99.165,113.149,99.165,201.259s22.781,173.96,22.781,173.96A22.781,22.781,0,0,1,99.165,398H22.781A22.781,22.781,0,0,1,0,375.219s22.781-85.851,22.781-173.96S0,22.781,0,22.781A22.781,22.781,0,0,1,22.781,0Z" fill="#20393c"/>
        </g>
      </g>
    </g>
    <g transform="translate(-873.227 3582)">
      <g id="Bamboo-13" data-name="Bamboo" transform="translate(873.227)" opacity="0.059">
        <g id="Component_49_1-13" data-name="Component 49 – 1" transform="translate(114.773)">
          <path id="Path_6-37" data-name="Path 6" d="M22.781,0H99.165a22.781,22.781,0,0,1,22.781,22.781S99.165,113.149,99.165,201.259s22.781,173.96,22.781,173.96A22.781,22.781,0,0,1,99.165,398H22.781A22.781,22.781,0,0,1,0,375.219s22.781-85.851,22.781-173.96S0,22.781,0,22.781A22.781,22.781,0,0,1,22.781,0Z" fill="#20393c"/>
        </g>
        <g id="Component_49_2-13" data-name="Component 49 – 2" transform="translate(114.773 398)">
          <path id="Path_6-38" data-name="Path 6" d="M22.781,0H99.165a22.781,22.781,0,0,1,22.781,22.781S99.165,113.149,99.165,201.259s22.781,173.96,22.781,173.96A22.781,22.781,0,0,1,99.165,398H22.781A22.781,22.781,0,0,1,0,375.219s22.781-85.851,22.781-173.96S0,22.781,0,22.781A22.781,22.781,0,0,1,22.781,0Z" fill="#20393c"/>
        </g>
        <g id="Component_49_3-13" data-name="Component 49 – 3" transform="translate(114.773 796)">
          <path id="Path_6-39" data-name="Path 6" d="M22.781,0H99.165a22.781,22.781,0,0,1,22.781,22.781S99.165,113.149,99.165,201.259s22.781,173.96,22.781,173.96A22.781,22.781,0,0,1,99.165,398H22.781A22.781,22.781,0,0,1,0,375.219s22.781-85.851,22.781-173.96S0,22.781,0,22.781A22.781,22.781,0,0,1,22.781,0Z" fill="#20393c"/>
        </g>
        <g id="Component_46_2-7" data-name="Component 46 – 2" transform="translate(122.255 421.821) rotate(180)">
          <ellipse id="Ellipse_12-7" data-name="Ellipse 12" cx="62" cy="15.5" rx="62" ry="15.5" transform="translate(15.966 72) rotate(31)" fill="#20393c"/>
          <ellipse id="Ellipse_66-7" data-name="Ellipse 66" cx="62" cy="15.5" rx="62" ry="15.5" transform="translate(0 63.865) rotate(-31)" fill="#20393c"/>
        </g>
      </g>
    </g>
    <g transform="translate(-590.227 3582)">
      <g id="Bamboo-14" data-name="Bamboo" transform="translate(988)" opacity="0.059">
        <g id="Component_49_1-14" data-name="Component 49 – 1">
          <path id="Path_6-40" data-name="Path 6" d="M22.781,0H99.165a22.781,22.781,0,0,1,22.781,22.781S99.165,113.149,99.165,201.259s22.781,173.96,22.781,173.96A22.781,22.781,0,0,1,99.165,398H22.781A22.781,22.781,0,0,1,0,375.219s22.781-85.851,22.781-173.96S0,22.781,0,22.781A22.781,22.781,0,0,1,22.781,0Z" fill="#20393c"/>
        </g>
        <g id="Component_49_2-14" data-name="Component 49 – 2" transform="translate(0 398)">
          <path id="Path_6-41" data-name="Path 6" d="M22.781,0H99.165a22.781,22.781,0,0,1,22.781,22.781S99.165,113.149,99.165,201.259s22.781,173.96,22.781,173.96A22.781,22.781,0,0,1,99.165,398H22.781A22.781,22.781,0,0,1,0,375.219s22.781-85.851,22.781-173.96S0,22.781,0,22.781A22.781,22.781,0,0,1,22.781,0Z" fill="#20393c"/>
        </g>
        <g id="Component_49_3-14" data-name="Component 49 – 3" transform="translate(0 796)">
          <path id="Path_6-42" data-name="Path 6" d="M22.781,0H99.165a22.781,22.781,0,0,1,22.781,22.781S99.165,113.149,99.165,201.259s22.781,173.96,22.781,173.96A22.781,22.781,0,0,1,99.165,398H22.781A22.781,22.781,0,0,1,0,375.219s22.781-85.851,22.781-173.96S0,22.781,0,22.781A22.781,22.781,0,0,1,22.781,0Z" fill="#20393c"/>
        </g>
      </g>
    </g>
    <g transform="translate(-307.227 3582)">
      <g id="Bamboo-15" data-name="Bamboo" transform="translate(873.227)" opacity="0.059">
        <g id="Component_49_1-15" data-name="Component 49 – 1" transform="translate(114.773)">
          <path id="Path_6-43" data-name="Path 6" d="M22.781,0H99.165a22.781,22.781,0,0,1,22.781,22.781S99.165,113.149,99.165,201.259s22.781,173.96,22.781,173.96A22.781,22.781,0,0,1,99.165,398H22.781A22.781,22.781,0,0,1,0,375.219s22.781-85.851,22.781-173.96S0,22.781,0,22.781A22.781,22.781,0,0,1,22.781,0Z" fill="#20393c"/>
        </g>
        <g id="Component_49_2-15" data-name="Component 49 – 2" transform="translate(114.773 398)">
          <path id="Path_6-44" data-name="Path 6" d="M22.781,0H99.165a22.781,22.781,0,0,1,22.781,22.781S99.165,113.149,99.165,201.259s22.781,173.96,22.781,173.96A22.781,22.781,0,0,1,99.165,398H22.781A22.781,22.781,0,0,1,0,375.219s22.781-85.851,22.781-173.96S0,22.781,0,22.781A22.781,22.781,0,0,1,22.781,0Z" fill="#20393c"/>
        </g>
        <g id="Component_49_3-15" data-name="Component 49 – 3" transform="translate(114.773 796)">
          <path id="Path_6-45" data-name="Path 6" d="M22.781,0H99.165a22.781,22.781,0,0,1,22.781,22.781S99.165,113.149,99.165,201.259s22.781,173.96,22.781,173.96A22.781,22.781,0,0,1,99.165,398H22.781A22.781,22.781,0,0,1,0,375.219s22.781-85.851,22.781-173.96S0,22.781,0,22.781A22.781,22.781,0,0,1,22.781,0Z" fill="#20393c"/>
        </g>
        <g id="Component_46_2-8" data-name="Component 46 – 2" transform="translate(122.255 421.821) rotate(180)">
          <ellipse id="Ellipse_12-8" data-name="Ellipse 12" cx="62" cy="15.5" rx="62" ry="15.5" transform="translate(15.966 72) rotate(31)" fill="#20393c"/>
          <ellipse id="Ellipse_66-8" data-name="Ellipse 66" cx="62" cy="15.5" rx="62" ry="15.5" transform="translate(0 63.865) rotate(-31)" fill="#20393c"/>
        </g>
      </g>
    </g>
    <g transform="translate(-24.227 3582)">
      <g id="Bamboo-16" data-name="Bamboo" transform="translate(988)" opacity="0.059">
        <g id="Component_49_1-16" data-name="Component 49 – 1">
          <path id="Path_6-46" data-name="Path 6" d="M22.781,0H99.165a22.781,22.781,0,0,1,22.781,22.781S99.165,113.149,99.165,201.259s22.781,173.96,22.781,173.96A22.781,22.781,0,0,1,99.165,398H22.781A22.781,22.781,0,0,1,0,375.219s22.781-85.851,22.781-173.96S0,22.781,0,22.781A22.781,22.781,0,0,1,22.781,0Z" fill="#20393c"/>
        </g>
        <g id="Component_49_2-16" data-name="Component 49 – 2" transform="translate(0 398)">
          <path id="Path_6-47" data-name="Path 6" d="M22.781,0H99.165a22.781,22.781,0,0,1,22.781,22.781S99.165,113.149,99.165,201.259s22.781,173.96,22.781,173.96A22.781,22.781,0,0,1,99.165,398H22.781A22.781,22.781,0,0,1,0,375.219s22.781-85.851,22.781-173.96S0,22.781,0,22.781A22.781,22.781,0,0,1,22.781,0Z" fill="#20393c"/>
        </g>
        <g id="Component_49_3-16" data-name="Component 49 – 3" transform="translate(0 796)">
          <path id="Path_6-48" data-name="Path 6" d="M22.781,0H99.165a22.781,22.781,0,0,1,22.781,22.781S99.165,113.149,99.165,201.259s22.781,173.96,22.781,173.96A22.781,22.781,0,0,1,99.165,398H22.781A22.781,22.781,0,0,1,0,375.219s22.781-85.851,22.781-173.96S0,22.781,0,22.781A22.781,22.781,0,0,1,22.781,0Z" fill="#20393c"/>
        </g>
      </g>
    </g>
  </g>
</svg>
