<svg xmlns="http://www.w3.org/2000/svg" width="567" height="553" viewBox="0 0 567 553"><path d="M322.466,41.976c26.562-19.238,64.078-3.7,69.257,28.687l5.392,33.72a44,44,0,0,0,36.5,36.5l33.72,5.392c32.386,5.179,47.926,42.695,28.687,69.257l-20.031,27.657a44,44,0,0,0,0,51.619l20.031,27.657c19.238,26.562,3.7,64.078-28.687,69.257l-33.72,5.392a44,44,0,0,0-36.5,36.5l-5.392,33.72c-5.179,32.386-42.695,47.926-69.257,28.687l-27.657-20.031a44,44,0,0,0-51.619,0l-27.657,20.031c-26.562,19.238-64.078,3.7-69.257-28.687l-5.392-33.72a44,44,0,0,0-36.5-36.5l-33.72-5.392c-32.386-5.179-47.926-42.695-28.687-69.257l20.031-27.657a44,44,0,0,0,0-51.619L41.976,215.534c-19.238-26.562-3.7-64.078,28.687-69.257l33.72-5.392a44,44,0,0,0,36.5-36.5l5.392-33.72c5.179-32.386,42.695-47.926,69.257-28.687l27.657,20.031a44,44,0,0,0,51.619,0Z" transform="translate(0 15)" fill="#21deba"/><g transform="translate(29)" fill="none"><path d="M322.466,41.976c26.562-19.238,64.078-3.7,69.257,28.687l5.392,33.72a44,44,0,0,0,36.5,36.5l33.72,5.392c32.386,5.179,47.926,42.695,28.687,69.257l-20.031,27.657a44,44,0,0,0,0,51.619l20.031,27.657c19.238,26.562,3.7,64.078-28.687,69.257l-33.72,5.392a44,44,0,0,0-36.5,36.5l-5.392,33.72c-5.179,32.386-42.695,47.926-69.257,28.687l-27.657-20.031a44,44,0,0,0-51.619,0l-27.657,20.031c-26.562,19.238-64.078,3.7-69.257-28.687l-5.392-33.72a44,44,0,0,0-36.5-36.5l-33.72-5.392c-32.386-5.179-47.926-42.695-28.687-69.257l20.031-27.657a44,44,0,0,0,0-51.619L41.976,215.534c-19.238-26.562-3.7-64.078,28.687-69.257l33.72-5.392a44,44,0,0,0,36.5-36.5l5.392-33.72c5.179-32.386,42.695-47.926,69.257-28.687l27.657,20.031a44,44,0,0,0,51.619,0Z" stroke="none"/><path d="M 189.8611450195312 37.5677490234375 C 180.5831909179688 37.56875610351562 171.4988098144531 40.81582641601562 164.2813415527344 46.7108154296875 C 160.6163940429688 49.7042236328125 157.5575256347656 53.27395629882812 155.1897277832031 57.321044921875 C 152.6978759765625 61.58001708984375 151.0279235839844 66.2816162109375 150.2261352539062 71.29522705078125 L 144.8338012695312 105.015625 C 144.0283203125 110.0524291992188 142.4390563964844 114.8980407714844 140.1101379394531 119.4177551269531 C 137.8344116210938 123.8342895507812 134.8962097167969 127.8580322265625 131.3771362304688 131.3771057128906 C 127.8580627441406 134.896240234375 123.8343200683594 137.8344421386719 119.4177856445312 140.1101684570312 C 114.8980102539062 142.4390258789062 110.0524597167969 144.0282897949219 105.0156555175781 144.8337707519531 L 71.29531860351562 150.2261657714844 C 67.69400024414062 150.8020935058594 64.22640991210938 151.8348388671875 60.98880004882812 153.2957763671875 C 57.88626098632812 154.6957092285156 54.97714233398438 156.4959106445312 52.34219360351562 158.6463623046875 C 47.2491455078125 162.8028259277344 43.208251953125 168.2562866210938 40.65640258789062 174.4170227050781 C 38.10452270507812 180.5777587890625 37.10574340820312 187.2912292480469 37.76800537109375 193.8316345214844 C 38.110595703125 197.2153625488281 38.89474487304688 200.5453491210938 40.09860229492188 203.7291564941406 C 41.35491943359375 207.0514221191406 43.07659912109375 210.233642578125 45.2159423828125 213.1873779296875 L 65.24679565429688 240.8442993164062 C 68.23880004882812 244.9754333496094 70.54141235351562 249.5255737304688 72.09054565429688 254.3682861328125 C 73.60433959960938 259.1004333496094 74.37185668945312 264.0232849121094 74.37185668945312 268.9999694824219 C 74.37185668945312 273.9766845703125 73.60433959960938 278.8995666503906 72.09054565429688 283.6317138671875 C 70.54141235351562 288.4744262695312 68.23880004882812 293.0245666503906 65.24679565429688 297.1557006835938 L 45.2159423828125 324.8125610351562 C 43.07659912109375 327.7662963867188 41.35491943359375 330.948486328125 40.09860229492188 334.2708129882812 C 38.89474487304688 337.4545593261719 38.110595703125 340.7845458984375 37.76800537109375 344.1683654785156 C 37.10574340820312 350.7086791992188 38.10452270507812 357.4221801757812 40.65640258789062 363.5829467773438 C 43.208251953125 369.7437133789062 47.2491455078125 375.1970825195312 52.34219360351562 379.3536376953125 C 54.97714233398438 381.5040893554688 57.88626098632812 383.3042907714844 60.98880004882812 384.7042236328125 C 64.22640991210938 386.1651611328125 67.69400024414062 387.1978759765625 71.29525756835938 387.7738342285156 L 105.0156555175781 393.1661682128906 C 110.0524597167969 393.9716186523438 114.8980102539062 395.5609130859375 119.4177856445312 397.8897705078125 C 123.8343200683594 400.1654968261719 127.8580627441406 403.1036987304688 131.3771362304688 406.6228332519531 C 134.8962097167969 410.1419067382812 137.8344116210938 414.1656494140625 140.1101379394531 418.5821533203125 C 142.4390563964844 423.1018981933594 144.0283203125 427.947509765625 144.8338012695312 432.984375 L 150.2261352539062 466.7047729492188 C 151.0280151367188 471.7190246582031 152.6979370117188 476.4210205078125 155.1896667480469 480.6802368164062 C 157.5574035644531 484.7275695800781 160.6160583496094 488.2974853515625 164.2807312011719 491.290771484375 C 171.4978637695312 497.1857604980469 180.5823364257812 500.4322204589844 189.8607482910156 500.4322204589844 C 198.2127990722656 500.4322204589844 206.279052734375 497.7875671386719 213.1873474121094 492.7840881347656 L 240.8442687988281 472.753173828125 C 244.9754028320312 469.7611694335938 249.5255432128906 467.4586181640625 254.3681945800781 465.909423828125 C 259.1004028320312 464.3956298828125 264.023193359375 463.6281127929688 268.9999389648438 463.6281127929688 C 273.9766540527344 463.6281127929688 278.8995361328125 464.3956298828125 283.6316528320312 465.909423828125 C 288.4743957519531 467.4586181640625 293.0245361328125 469.7611694335938 297.1556701660156 472.753173828125 L 324.8126220703125 492.7840881347656 C 331.7208862304688 497.7875671386719 339.7870483398438 500.4322204589844 348.1392211914062 500.4322204589844 C 357.4165954589844 500.4322204589844 366.5008544921875 497.1854858398438 373.7185363769531 491.2900390625 C 377.3834838867188 488.2965698242188 380.4423217773438 484.7265625 382.8101806640625 480.6792907714844 C 385.302001953125 476.420166015625 386.9719848632812 471.7184448242188 387.7738037109375 466.7047119140625 L 393.1661987304688 432.9844360351562 C 393.9716796875 427.9475708007812 395.5608520507812 423.1019592285156 397.8898010253906 418.5822143554688 C 400.16552734375 414.1656494140625 403.1037292480469 410.1419677734375 406.622802734375 406.6228942871094 C 410.1418762207031 403.1038208007812 414.1655883789062 400.1655578613281 418.5822143554688 397.8898315429688 C 423.1019287109375 395.5609741210938 427.9475402832031 393.9716796875 432.9844055175781 393.1662292480469 L 466.7046508789062 387.7738952636719 C 470.3059997558594 387.1979675292969 473.7735900878906 386.1652221679688 477.0111389160156 384.7042846679688 C 480.1137390136719 383.3042907714844 483.0228576660156 381.5040893554688 485.6578063964844 379.3536987304688 C 490.7507934570312 375.1971435546875 494.7916564941406 369.7437744140625 497.3435363769531 363.5829467773438 C 499.8953857421875 357.4222412109375 500.8941955566406 350.7087707519531 500.2319946289062 344.1683654785156 C 499.889404296875 340.7846374511719 499.1052551269531 337.4546508789062 497.9013366699219 334.2708129882812 C 496.6450805664062 330.9485473632812 494.9234008789062 327.7662963867188 492.7840576171875 324.8126220703125 L 472.7532043457031 297.1557006835938 C 469.7611999511719 293.0245666503906 467.4586181640625 288.4744262695312 465.9094848632812 283.6317749023438 C 464.3956604003906 278.8995666503906 463.6280517578125 273.9767761230469 463.6280517578125 269.0000305175781 C 463.6280517578125 264.0232849121094 464.3956604003906 259.1004943847656 465.9094848632812 254.3682861328125 C 467.4586181640625 249.5255737304688 469.7611999511719 244.9754333496094 472.7532043457031 240.8442993164062 L 492.7841186523438 213.1873779296875 C 494.9234008789062 210.2337036132812 496.6451416015625 207.0514221191406 497.9013977050781 203.7290954589844 C 499.1052551269531 200.5453491210938 499.889404296875 197.2153625488281 500.2319946289062 193.8315734863281 C 500.8942565917969 187.2912292480469 499.8953857421875 180.5777587890625 497.3435363769531 174.4169616699219 C 494.7916564941406 168.2562255859375 490.7507934570312 162.8028259277344 485.6578063964844 158.6463623046875 C 483.0228576660156 156.4959106445312 480.1137390136719 154.6957092285156 477.0111389160156 153.2956848144531 C 473.7735900878906 151.8348388671875 470.3059997558594 150.8020935058594 466.7046508789062 150.2261657714844 L 432.9843444824219 144.8337707519531 C 427.9475402832031 144.0282897949219 423.1019897460938 142.4390258789062 418.5822143554688 140.1101684570312 C 414.1656494140625 137.8344421386719 410.1419372558594 134.896240234375 406.6228637695312 131.3771057128906 C 403.1038208007812 127.8580322265625 400.1655883789062 123.8342895507812 397.8898620605469 119.4177551269531 C 395.5609130859375 114.8980407714844 393.9716796875 110.0524291992188 393.1661987304688 105.015625 L 387.7738037109375 71.29522705078125 C 386.971923828125 66.28097534179688 385.302001953125 61.57888793945312 382.8102722167969 57.3197021484375 C 380.4425354003906 53.27236938476562 377.3838500976562 49.70248413085938 373.7191772460938 46.70916748046875 C 366.5021362304688 40.81423950195312 357.4176025390625 37.5677490234375 348.1392211914062 37.5677490234375 C 339.7871398925781 37.5677490234375 331.7208862304688 40.21243286132812 324.8126220703125 45.21591186523438 L 297.1556701660156 65.24676513671875 C 293.0245361328125 68.23876953125 288.4743957519531 70.54135131835938 283.6317138671875 72.09048461914062 C 278.8995361328125 73.60430908203125 273.9767456054688 74.371826171875 269 74.371826171875 C 264.0232543945312 74.371826171875 259.1004638671875 73.60430908203125 254.3682556152344 72.09048461914062 C 249.5255432128906 70.54129028320312 244.9754028320312 68.23876953125 240.8442687988281 65.24676513671875 L 213.1873474121094 45.21591186523438 C 206.2778625488281 40.21157836914062 198.2117919921875 37.56689453125 189.8611450195312 37.5677490234375 M 189.8607482910156 33.56777954101562 C 198.6268005371094 33.56683349609375 207.5701293945312 36.20858764648438 215.5336608886719 41.97628784179688 L 243.1906127929688 62.00717163085938 C 250.8901062011719 67.5836181640625 259.9450378417969 70.37185668945312 269 70.37185668945312 C 278.0549621582031 70.37185668945312 287.1098937988281 67.5836181640625 294.8093872070312 62.00717163085938 L 322.4662475585938 41.97628784179688 C 330.4281921386719 36.20977783203125 339.3748779296875 33.56777954101562 348.1392211914062 33.56777954101562 C 368.6143188476562 33.56777954101562 388.0969848632812 47.98516845703125 391.7236022949219 70.66363525390625 L 397.1159973144531 104.3839721679688 C 400.1184692382812 123.1589660644531 414.8410034179688 137.8815612792969 433.6159973144531 140.8839721679688 L 467.3363342285156 146.2763671875 C 499.7222595214844 151.4553527832031 515.2618408203125 188.9712829589844 496.0237426757812 215.53369140625 L 475.9927978515625 243.1906433105469 C 464.8398742675781 258.5896301269531 464.8398742675781 279.4104309082031 475.9927978515625 294.8093566894531 L 496.023681640625 322.46630859375 C 515.2618408203125 349.0286865234375 499.7222595214844 386.5446166992188 467.3363342285156 391.7236938476562 L 433.6159973144531 397.1160278320312 C 414.8409423828125 400.1184997558594 400.118408203125 414.8409729003906 397.1159973144531 433.6160278320312 L 391.7236022949219 467.3363647460938 C 388.0972900390625 490.0128479003906 368.6123046875 504.4322509765625 348.1391906738281 504.4322509765625 C 339.3731689453125 504.4322509765625 330.4298095703125 501.7914123535156 322.4662475585938 496.023681640625 L 294.809326171875 475.9927673339844 C 287.10986328125 470.4163208007812 278.054931640625 467.6281127929688 268.9999694824219 467.6281127929688 C 259.9450073242188 467.6281127929688 250.8900756835938 470.4163208007812 243.1906127929688 475.9927673339844 L 215.5336608886719 496.023681640625 C 207.5717468261719 501.7902221679688 198.6250915527344 504.4322204589844 189.8607482910156 504.4322204589844 C 169.3856506347656 504.4322204589844 149.9029541015625 490.0148315429688 146.2763366699219 467.3363647460938 L 140.8840026855469 433.615966796875 C 137.8815307617188 414.8409729003906 123.1589965820312 400.1183471679688 104.3840026855469 397.115966796875 L 70.66366577148438 391.7236328125 C 38.27774047851562 386.5446166992188 22.738037109375 349.0286254882812 41.976318359375 322.4662475585938 L 62.0072021484375 294.8093566894531 C 73.16012573242188 279.4104309082031 73.16012573242188 258.5895690917969 62.0072021484375 243.1906433105469 L 41.976318359375 215.53369140625 C 22.738037109375 188.9712829589844 38.27774047851562 151.4553527832031 70.66366577148438 146.2763671875 L 104.3840026855469 140.8839721679688 C 123.1589965820312 137.8815612792969 137.8815307617188 123.1589660644531 140.8840026855469 104.3839721679688 L 146.2763366699219 70.66363525390625 C 149.9026489257812 47.98715209960938 169.3876037597656 33.56997680664062 189.8607482910156 33.56777954101562 Z" stroke="none"/></g></svg>