<svg xmlns="http://www.w3.org/2000/svg" xmlns:xlink="http://www.w3.org/1999/xlink" width="650.312" height="517" viewBox="0 0 650.312 517">
  <defs>
    <linearGradient id="linear-gradient" x1="0.5" y1="1" x2="0.5" gradientUnits="objectBoundingBox">
      <stop offset="0" stop-color="gray" stop-opacity="0.251"/>
      <stop offset="0.54" stop-color="gray" stop-opacity="0.122"/>
      <stop offset="1" stop-color="gray" stop-opacity="0.102"/>
    </linearGradient>
  </defs>
  <g id="undraw_book_lover_mkck" transform="translate(0 -0.006)">
    <path id="Path_178" data-name="Path 178" d="M451.736,124.54c-41.148-1.431-80.345-14.712-117.767-29.246S259.48,64.655,219.317,56.956C193.485,52,163.94,51.3,143.13,65.151,123.1,78.5,116.624,101.486,113.146,122.836c-2.619,16.06-4.158,32.959,3.02,48,4.978,10.44,13.822,19.214,19.932,29.246,21.28,34.79,6.243,77.693-16.817,111.664-10.808,15.939-23.365,31.154-31.707,48.1s-12.207,36.4-4.908,53.705c7.242,17.166,24.491,30.035,43.17,39.095,37.95,18.406,82.653,23.67,126.274,26.652,96.532,6.606,193.572,3.745,290.359.884,35.82-1.062,71.793-2.136,107.029-7.674,19.57-3.077,39.769-7.954,53.979-19.741,18.031-14.96,22.5-40.3,10.421-59.052-20.275-31.465-76.295-39.279-90.486-73.052-7.795-18.584.216-39.285,11.546-56.528,24.313-36.978,65.06-69.422,67.209-111.689,1.475-29.036-18.12-58.1-48.409-71.844-31.745-14.451-75.78-12.62-99.189,11.215C530.447,116.377,488.065,125.8,451.736,124.54Z" transform="translate(-70.351 -37.169)" fill="#00bfa6" opacity="0.1"/>
    <path id="Path_179" data-name="Path 179" d="M285,493.842,67.385,492.78,45.762,442.063l76.46-5.55L108.9,380.906l151.229-19.6L115.311,310.963l12.792-3.039,232.858,37.988-12.824,86.779-18.33,47.691Z" transform="translate(-8.148 -54.828)" fill="#00bfa6"/>
    <path id="Path_180" data-name="Path 180" d="M144.649,540.524s13.352-2.136,21.363,7.3c0,0-5.875,4.629-18.514-1.78Z" transform="translate(-82.074 -123.814)" fill="#00bfa6"/>
    <path id="Path_181" data-name="Path 181" d="M141.759,540.314s-8.52,10.484-4.323,22.157c0,0,6.943-2.778,7.7-16.931Z" transform="translate(-80.583 -123.813)" fill="#00bfa6"/>
    <path id="Path_182" data-name="Path 182" d="M133.634,518.609s5.341-9.8,26.7,3.916c0,0-2.848,6.587-12.283,6.053S136.126,523.771,133.634,518.609Z" transform="translate(-80.113 -119.345)" fill="#00bfa6"/>
    <path id="Path_183" data-name="Path 183" d="M129.322,518.482s-11.082-1.272-12.156,24.1c0,0,7.025,1.456,12.016-6.568S132.126,523.486,129.322,518.482Z" transform="translate(-77.181 -119.924)" fill="#00bfa6"/>
    <g id="Plant">
      <path id="Path_184" data-name="Path 184" d="M124.1,491.828s6.231-17.268,28.839-4.985c0,0-5.163,15.844-26.525,10.859Z" transform="translate(-78.416 -113.507)" fill="#00bfa6"/>
      <path id="Path_185" data-name="Path 185" d="M115.657,460.694s11.749-17.446,32.578-1.272c0,0-7.3,16.378-30.8,7.477Z" transform="translate(-76.912 -108.186)" fill="#00bfa6"/>
      <path id="Path_186" data-name="Path 186" d="M112.625,431.026s13.708-16.028,34.333,0c0,0-13,14.064-34.333,4.095Z" transform="translate(-76.372 -103.085)" fill="#00bfa6"/>
      <path id="Path_187" data-name="Path 187" d="M110.026,401.869s13.886-16.734,33.646-.89c0,0-15.666,14.776-33.646,4.807Z" transform="translate(-75.909 -97.789)" fill="#00bfa6"/>
      <path id="Path_188" data-name="Path 188" d="M111.542,375.162s14.623-21.541,33.112-6.943c0,0-15.666,18.514-33.112,11.037Z" transform="translate(-76.179 -92.267)" fill="#00bfa6"/>
      <path id="Path_189" data-name="Path 189" d="M115.657,345.242s15.488-21.363,33.468-4.985c0,0-18.336,18.514-33.468,8.9Z" transform="translate(-76.912 -87.091)" fill="#00bfa6"/>
      <path id="Path_190" data-name="Path 190" d="M121.765,317.724s18.336-20.078,34.333-12.08c0,0-19.105,21.324-35.134,17.408Z" transform="translate(-77.857 -81.693)" fill="#00bfa6"/>
      <path id="Path_191" data-name="Path 191" d="M129.41,291.327s21.159-24.592,33.468-16.378c0,0-15.59,19.074-34.968,20.981Z" transform="translate(-79.094 -76.263)" fill="#00bfa6"/>
      <path id="Path_192" data-name="Path 192" d="M140.452,262.209s18.521-20.078,32.05-15.094c0,0-15.844,20.828-34.536,21.363Z" transform="translate(-80.884 -71.465)" fill="#00bfa6"/>
      <path id="Path_193" data-name="Path 193" d="M150.985,234.456s20.472-19.226,29.373-15.844c0,0-14.776,21.363-30.264,20.116Z" transform="translate(-83.044 -66.46)" fill="#00bfa6"/>
      <path id="Path_194" data-name="Path 194" d="M161.14,207.805s17.624-22.971,27.244-21.191c0,0-10.688,20.479-27.244,23.524Z" transform="translate(-85.011 -60.816)" fill="#00bfa6"/>
      <path id="Path_195" data-name="Path 195" d="M171.815,174.151s15.577-17.605,23.995-17.567c0,0-12.3,23.524-24.637,23.308Z" transform="translate(-86.797 -55.486)" fill="#00bfa6"/>
      <path id="Path_196" data-name="Path 196" d="M177.944,147.07,192.994,110.4s.75,33.15-16.963,43.475Z" transform="translate(-87.662 -47.262)" fill="#00bfa6"/>
      <path id="Path_197" data-name="Path 197" d="M185.77,98.636s2.492-30.626.89-33.118c0,0,10.758,25.463-.992,46.648Z" transform="translate(-89.378 -39.271)" fill="#00bfa6"/>
      <path id="Path_198" data-name="Path 198" d="M117.824,492.945s-15.6-9.67-25.7,13.987c0,0,13.886,9.219,27.542-7.954Z" transform="translate(-72.721 -115.03)" fill="#00bfa6"/>
      <path id="Path_199" data-name="Path 199" d="M108.889,460.935s-19.137-8.729-28.42,15.971c0,0,14.782,10.173,30.162-9.728Z" transform="translate(-70.647 -109.413)" fill="#00bfa6"/>
      <path id="Path_200" data-name="Path 200" d="M104.1,432.813s-13.708-16.028-34.333,0c0,0,13,14.064,34.333,4.095Z" transform="translate(-68.742 -103.403)" fill="#00bfa6"/>
      <path id="Path_201" data-name="Path 201" d="M102.165,401.869s-13.886-16.734-33.646-.89c0,0,15.666,14.776,33.646,4.807Z" transform="translate(-68.519 -97.789)" fill="#00bfa6"/>
      <path id="Path_202" data-name="Path 202" d="M104.845,374.967s-9.74-24.128-30.912-13.752c0,0,11.444,21.394,30.047,17.758Z" transform="translate(-69.483 -91.462)" fill="#00bfa6"/>
      <path id="Path_203" data-name="Path 203" d="M110.4,344.008s-9.683-24.548-31.154-13.167c0,0,13.148,22.5,30.2,16.957Z" transform="translate(-70.429 -85.978)" fill="#00bfa6"/>
      <path id="Path_204" data-name="Path 204" d="M119.769,314.544s-3.815-26.913-21.617-29.323c0,0,3.777,28.382,19.22,34.174Z" transform="translate(-73.795 -78.392)" fill="#00bfa6"/>
      <path id="Path_205" data-name="Path 205" d="M126.774,288.031s-1.488-32.425-16.206-33.557c0,0,.5,24.611,14.547,38.147Z" transform="translate(-76.006 -72.917)" fill="#00bfa6"/>
      <path id="Path_206" data-name="Path 206" d="M138.852,257.99s-4.387-26.964-18.438-30.257c0,0,1.742,26.112,17.045,36.876Z" transform="translate(-77.759 -68.155)" fill="#00bfa6"/>
      <path id="Path_207" data-name="Path 207" d="M151.048,231.266s-.146-28.089-8.729-32.215c0,0-5.322,25.432,6.243,35.8Z" transform="translate(-81.442 -63.048)" fill="#00bfa6"/>
      <path id="Path_208" data-name="Path 208" d="M159.675,204.882s-1.2-28.922-10.09-33c0,0-3.039,22.888,8.761,34.892Z" transform="translate(-82.891 -58.211)" fill="#00bfa6"/>
      <path id="Path_209" data-name="Path 209" d="M171.628,174.473s-.051-23.524-6.4-29.043c0,0-6.307,25.769,3.084,33.773Z" transform="translate(-85.37 -53.5)" fill="#00bfa6"/>
      <path id="Path_210" data-name="Path 210" d="M175.606,145.125l-6.174-39.152s-8.386,32.082,6.466,46.222Z" transform="translate(-86.067 -46.474)" fill="#00bfa6"/>
      <path id="Path_211" data-name="Path 211" d="M175.553,99.923S159.709,73.6,160.033,70.677c0,0,1.685,27.587,21.617,41.326Z" transform="translate(-84.813 -40.19)" fill="#00bfa6"/>
      <path id="Path_212" data-name="Path 212" d="M176.47,88.044S161.516,50.66,154.751,47.634c0,0,21.363,10.859,22.965,39.343Z" transform="translate(-83.873 -36.087)" fill="#00bfa6"/>
      <path id="Path_213" data-name="Path 213" d="M170.858,168.952l-1.024-.312c12.62-41.155,15.768-67.394,8.869-73.974l.731-.776C186.753,100.833,183.784,126.786,170.858,168.952Z" transform="translate(-86.559 -44.323)" fill="#444053"/>
      <path id="Path_214" data-name="Path 214" d="M128.472,280.921l-1.513-.54c1.342-3.77,2.785-7.6,4.3-11.368,13.174-32.832,24.389-63.375,31.58-86.823l1.316-.636c-7.2,23.492-18.222,55.206-31.408,88.082C131.237,273.336,129.8,277.145,128.472,280.921Z" transform="translate(-78.924 -59.932)" fill="#444053"/>
      <path id="Path_215" data-name="Path 215" d="M156.967,528.193c-.2-.223-20.657-23.257-34.918-62.581a231.541,231.541,0,0,1-13.778-71.7c-.979-30.6,5.442-64.768,16.442-95.807l1.2,1.4c-24.694,69.663-14.884,129.358-1.869,165.305,14.108,38.968,34.333,61.748,34.53,61.977Z" transform="translate(-75.58 -80.685)" fill="#444053"/>
    </g>
    <path id="Path_216" data-name="Path 216" d="M527.336,518.539s-14.413,17.592-2.969,44.187L409.289,612.636l-11.044,2.314L393.159,592.7l3.4-28.083V549.267Z" transform="translate(-126.324 -119.936)" fill="#d5d6db"/>
    <path id="Path_217" data-name="Path 217" d="M45.762,464.832,205.04,435.8l211.05,33.621L285,516.61Z" transform="translate(-8.148 -77.597)" fill="#00bfa6"/>
    <path id="Path_218" data-name="Path 218" d="M45.762,464.832,205.04,435.8l211.05,33.621L285,516.61Z" transform="translate(-8.148 -77.597)" fill="#00bfa6"/>
    <path id="Path_219" data-name="Path 219" d="M112.981,504.7s-14.9,28.223,2.27,54.29l236.2,51.181s-14.661-22.482.757-53.686Z" transform="translate(-75.368 -117.472)" fill="#00bfa6"/>
    <path id="Path_220" data-name="Path 220" d="M112.981,504.7s-14.9,28.223,2.27,54.29l236.2,51.181s-14.661-22.482.757-53.686Z" transform="translate(-75.368 -117.472)" opacity="0.1"/>
    <path id="Path_221" data-name="Path 221" d="M122.024,516.605s-8.513,20.65,0,34.015" transform="translate(-77.372 -119.592)" opacity="0.1"/>
    <path id="Path_222" data-name="Path 222" d="M353.237,620.831,485.1,564.564s7.375,1.589,2.607,6.994-131.926,54.678-131.926,54.678L117.042,569.65Z" transform="translate(-77.159 -128.131)" fill="#00bfa6"/>
    <path id="Path_223" data-name="Path 223" d="M353.237,620.831,485.1,564.564s7.375,1.589,2.607,6.994-131.926,54.678-131.926,54.678L117.042,569.65Z" transform="translate(-77.159 -128.131)" opacity="0.1"/>
    <path id="Path_224" data-name="Path 224" d="M390.031,574.619s-12.716,15.259,0,38.147" transform="translate(-124.761 -129.922)" opacity="0.1"/>
    <rect id="Rectangle_33" data-name="Rectangle 33" width="60.127" height="0.636" transform="translate(269.797 463.467) rotate(-18.45)" opacity="0.1"/>
    <rect id="Rectangle_34" data-name="Rectangle 34" width="73.262" height="0.636" transform="translate(269.776 468.586) rotate(-20.82)" opacity="0.1"/>
    <rect id="Rectangle_35" data-name="Rectangle 35" width="84.916" height="0.636" transform="translate(270.159 474.62) rotate(-22.26)" opacity="0.1"/>
    <rect id="Rectangle_36" data-name="Rectangle 36" width="97.746" height="0.636" transform="matrix(0.911, -0.412, 0.412, 0.911, 271.075, 479.94)" opacity="0.1"/>
    <rect id="Rectangle_37" data-name="Rectangle 37" width="106.908" height="0.636" transform="matrix(0.916, -0.401, 0.401, 0.916, 271.782, 482.529)" opacity="0.1"/>
    <rect id="Rectangle_38" data-name="Rectangle 38" width="127.933" height="0.636" transform="translate(273.261 486.878) rotate(-23.36)" opacity="0.1"/>
    <path id="Path_225" data-name="Path 225" d="M117.753,469.8l111.9-23.524,68.169,13.034-91.694,29.564Z" transform="translate(-20.967 -79.463)" fill="#fff" opacity="0.3"/>
    <path id="Path_226" data-name="Path 226" d="M536.432,510.285s5.786,2.333,2.391,5.938-133.5,41.256-133.5,41.256Z" transform="translate(-128.491 -118.467)" fill="#00bfa6"/>
    <path id="Path_227" data-name="Path 227" d="M604.14,444.142s-14.407,17.586-2.963,44.187L486.1,538.238l-11.044,2.327-5.086-22.253,3.452-28.076V474.869Z" transform="translate(-140.001 -106.689)" fill="#d5d6db"/>
    <path id="Path_228" data-name="Path 228" d="M122.572,390.428,281.844,361.4,492.9,395.018,361.814,442.213Z" transform="translate(-21.825 -64.35)" fill="#3a3768"/>
    <path id="Path_229" data-name="Path 229" d="M189.76,430.3s-14.9,28.223,2.263,54.29l236.2,51.181s-14.655-22.5.782-53.692Z" transform="translate(-89.039 -104.225)" fill="#3a3768"/>
    <path id="Path_230" data-name="Path 230" d="M189.76,430.3s-14.9,28.223,2.263,54.29l236.2,51.181s-14.655-22.5.782-53.692l-74.693-16.168Z" transform="translate(-89.039 -104.225)" opacity="0.1"/>
    <path id="Path_231" data-name="Path 231" d="M198.827,442.208s-8.507,20.644,0,34.015" transform="translate(-91.048 -106.345)" opacity="0.1"/>
    <path id="Path_232" data-name="Path 232" d="M430.041,546.433,561.91,490.166s7.369,1.589,2.6,6.994-131.926,54.678-131.926,54.678L193.845,495.252Z" transform="translate(-90.834 -114.884)" fill="#3a3768"/>
    <path id="Path_233" data-name="Path 233" d="M430.041,546.433,561.91,490.166s7.369,1.589,2.6,6.994-131.926,54.678-131.926,54.678L193.845,495.252Z" transform="translate(-90.834 -114.884)" opacity="0.1"/>
    <path id="Path_234" data-name="Path 234" d="M466.835,500.222s-12.716,15.259,0,38.147" transform="translate(-138.437 -116.675)" opacity="0.1"/>
    <rect id="Rectangle_39" data-name="Rectangle 39" width="60.127" height="0.636" transform="translate(332.93 402.323) rotate(-18.45)" opacity="0.1"/>
    <rect id="Rectangle_40" data-name="Rectangle 40" width="73.262" height="0.636" transform="translate(332.916 407.44) rotate(-20.82)" opacity="0.1"/>
    <rect id="Rectangle_41" data-name="Rectangle 41" width="84.916" height="0.636" transform="translate(333.289 413.465) rotate(-22.26)" opacity="0.1"/>
    <rect id="Rectangle_42" data-name="Rectangle 42" width="97.746" height="0.636" transform="matrix(0.911, -0.412, 0.412, 0.911, 334.214, 418.786)" opacity="0.1"/>
    <rect id="Rectangle_43" data-name="Rectangle 43" width="106.908" height="0.636" transform="matrix(0.916, -0.401, 0.401, 0.916, 334.911, 421.367)" opacity="0.1"/>
    <rect id="Rectangle_44" data-name="Rectangle 44" width="127.933" height="0.636" transform="translate(336.395 425.715) rotate(-23.36)" opacity="0.1"/>
    <path id="Path_235" data-name="Path 235" d="M194.564,395.4l111.9-23.524,68.169,13.034-91.694,29.564Z" transform="translate(-34.644 -66.216)" fill="#fff" opacity="0.45"/>
    <path id="Path_236" data-name="Path 236" d="M613.247,435.888s5.779,2.333,2.391,5.932S482.16,483.076,482.16,483.076Z" transform="translate(-142.172 -105.219)" fill="#3a3768"/>
    <path id="Path_237" data-name="Path 237" d="M611.415,359.031S597,390.61,608.446,417.206L493.368,453.128l-11.018,2.333-5.086-22.253,3.4-28.083V389.758Z" transform="translate(-141.3 -91.534)" fill="#d5d6db"/>
    <path id="Path_238" data-name="Path 238" d="M129.867,305.323l159.278-29.036L500.2,309.908,369.108,357.1Z" transform="translate(-23.124 -49.195)" fill="#00bfa6"/>
    <path id="Path_239" data-name="Path 239" d="M197.083,345.192s-14.922,28.223,2.244,54.29l236.2,51.181s-14.661-22.5.776-53.686Z" transform="translate(-90.34 -89.07)" fill="#00bfa6"/>
    <path id="Path_240" data-name="Path 240" d="M197.083,345.192s-14.922,28.223,2.244,54.29l236.2,51.181s-14.661-22.5.776-53.686Z" transform="translate(-90.34 -89.07)" opacity="0.1"/>
    <path id="Path_241" data-name="Path 241" d="M206.129,357.1s-8.513,20.65,0,34.015" transform="translate(-92.348 -91.19)" opacity="0.1"/>
    <path id="Path_242" data-name="Path 242" d="M437.343,462.425l131.863-42.28s7.375,1.589,2.607,6.994-131.926,40.69-131.926,40.69L201.147,411.244Z" transform="translate(-92.135 -100.831)" fill="#00bfa6"/>
    <path id="Path_243" data-name="Path 243" d="M437.343,462.425l131.863-42.28s7.375,1.589,2.607,6.994-131.926,40.69-131.926,40.69L201.147,411.244Z" transform="translate(-92.135 -100.831)" opacity="0.1"/>
    <path id="Path_244" data-name="Path 244" d="M474.137,415.111s-12.716,15.259,0,38.147" transform="translate(-139.737 -101.52)" opacity="0.1"/>
    <rect id="Rectangle_45" data-name="Rectangle 45" width="60.127" height="0.636" transform="translate(338.933 332.366) rotate(-18.45)" opacity="0.1"/>
    <rect id="Rectangle_46" data-name="Rectangle 46" width="73.262" height="0.636" transform="translate(338.916 337.486) rotate(-20.82)" opacity="0.1"/>
    <rect id="Rectangle_47" data-name="Rectangle 47" width="84.916" height="0.636" transform="translate(339.283 343.514) rotate(-22.26)" opacity="0.1"/>
    <rect id="Rectangle_48" data-name="Rectangle 48" width="97.746" height="0.636" transform="matrix(0.911, -0.412, 0.412, 0.911, 340.216, 348.83)" opacity="0.1"/>
    <rect id="Rectangle_49" data-name="Rectangle 49" width="106.908" height="0.636" transform="matrix(0.916, -0.401, 0.401, 0.916, 340.917, 351.417)" opacity="0.1"/>
    <rect id="Rectangle_50" data-name="Rectangle 50" width="127.933" height="0.636" transform="translate(342.398 355.769) rotate(-23.36)" opacity="0.1"/>
    <path id="Path_245" data-name="Path 245" d="M201.859,310.292l111.9-23.524L381.927,299.8l-91.694,29.564Z" transform="translate(-35.943 -51.061)" fill="#fff" opacity="0.3"/>
    <path id="Path_246" data-name="Path 246" d="M620.542,350.777s5.786,2.333,2.391,5.938-133.478,41.256-133.478,41.256Z" transform="translate(-143.471 -90.064)" fill="#00bfa6"/>
    <path id="Path_247" data-name="Path 247" d="M303.964,115.96s-24.16-1.456-21.337,15.494a4.135,4.135,0,0,0,2.149,4.355s.044-1.272,2.48-.833a10.841,10.841,0,0,0,2.632.127,5.481,5.481,0,0,0,3.211-1.322h0s6.8-2.81,9.441-13.924c0,0,1.958-2.422,1.907-3.045l-4.094,1.742s1.392,2.944.3,5.391c0,0-.133-5.283-.922-5.163-.159,0-2.117,1.024-2.117,1.024s2.4,5.131.585,8.857c0,0,.687-6.32-1.335-8.488l-2.874,1.678s2.8,5.3.9,9.619c0,0,.49-6.631-1.507-9.213l-2.607,2.035s2.639,5.22,1.03,8.806c0,0-.21-7.718-1.589-8.3a15.713,15.713,0,0,0-2.626,2.836s1.806,3.815.68,5.792c0,0-.68-5.144-1.272-5.169,0,0-2.27,3.408-2.505,5.722a12.372,12.372,0,0,1,1.952-6.065,6.809,6.809,0,0,0-3.471,1.8s.35-2.41,4.037-2.619c0,0,1.876-2.588,2.378-2.74,0,0-3.669-.312-5.887.674,0,0,1.958-2.27,6.555-1.272l2.543-2.1s-4.819-.636-6.867.07c0,0,2.359-2.009,7.56-.547l2.8-1.672a25.477,25.477,0,0,0-6.561-.566s2.581-1.392,7.382.114l2-.9s-3.007-.591-3.891-.687-.928-.337-.928-.337a10.5,10.5,0,0,1,5.659.636S304.046,116.227,303.964,115.96Z" transform="translate(-106.602 -48.247)" fill="#00bfa6"/>
    <path id="Path_248" data-name="Path 248" d="M717.489,200.722s-24.16-1.456-21.337,15.494a4.135,4.135,0,0,0,2.149,4.355s.044-1.272,2.48-.833a11.2,11.2,0,0,0,2.632.127,5.461,5.461,0,0,0,3.179-1.322h0s6.8-2.81,9.441-13.924c0,0,1.958-2.422,1.907-3.045l-4.082,1.742s1.392,2.944.3,5.392c0,0-.134-5.283-.916-5.163-.159,0-2.124,1.024-2.124,1.024s2.4,5.131.591,8.857c0,0,.687-6.32-1.341-8.488l-2.874,1.678s2.8,5.3.9,9.619c0,0,.49-6.631-1.507-9.213l-2.6,2.035s2.632,5.22,1.024,8.806c0,0-.21-7.718-1.589-8.3A15.945,15.945,0,0,0,701.1,212.4s1.806,3.815.687,5.792c0,0-.687-5.144-1.272-5.169,0,0-2.27,3.408-2.505,5.722a12.334,12.334,0,0,1,1.958-6.065,6.841,6.841,0,0,0-3.478,1.8s.356-2.41,4.037-2.619c0,0,1.876-2.588,2.378-2.747,0,0-3.662-.305-5.887.68,0,0,1.958-2.27,6.555-1.272l2.543-2.1s-4.826-.636-6.867.07c0,0,2.352-2.009,7.56-.547l2.8-1.672a25.477,25.477,0,0,0-6.561-.566s2.581-1.392,7.381.114l2-.9s-3.014-.591-3.9-.687-.928-.337-.928-.337a10.421,10.421,0,0,1,5.659.636S717.565,200.99,717.489,200.722Z" transform="translate(-180.234 -63.34)" fill="#00bfa6" opacity="0.1"/>
    <path id="Path_249" data-name="Path 249" d="M352.359,240.322s-10.529-21.827-23.931-11.069a4.129,4.129,0,0,0-2.753,4s1.113-.579,1.907,1.761a11.268,11.268,0,0,0,1.17,2.352,5.487,5.487,0,0,0,2.728,2.162h0s5.767,4.565,16.759,1.45c0,0,3.071.528,3.573.159l-3.51-2.715s-1.907,2.651-4.565,2.886c0,0,4.552-2.689,4.063-3.312-.1-.127-1.907-1.354-1.907-1.354s-3.312,4.6-7.445,4.832c0,0,5.849-2.48,6.752-5.309l-2.861-1.691s-3.262,5.035-7.96,5.481c0,0,6.027-2.8,7.305-5.8l-3.039-1.272s-3.274,4.845-7.191,5.194c0,0,6.638-3.948,6.472-5.442a16.114,16.114,0,0,0-3.758-.909s-2.429,3.427-4.718,3.427c0,0,4.152-3.109,3.9-3.611,0,0-4.082-.318-6.231.636a12.379,12.379,0,0,1,6.25-1.272,6.847,6.847,0,0,0-3.268-2.155s2.276-.865,4.253,2.244c0,0,3.179.375,3.554.738,0,0-1.52-3.344-3.459-4.8,0,0,2.937.591,4.279,5.086l3.084,1.221s-1.774-4.527-3.408-5.957c0,0,2.9,1.074,4.164,6.358l2.823,1.628a25.158,25.158,0,0,0-2.7-6s2.473,1.577,3.5,6.5l1.761,1.31s-.954-2.918-1.272-3.732-.159-.979-.159-.979a10.433,10.433,0,0,1,2.213,5.245S352.131,240.513,352.359,240.322Z" transform="translate(-114.307 -67.895)" fill="#00bfa6" opacity="0.1"/>
    <path id="Path_250" data-name="Path 250" d="M649.222,160.17S638.7,138.343,625.291,149.1a4.137,4.137,0,0,0-2.753,4s1.119-.572,1.907,1.761a11.025,11.025,0,0,0,1.176,2.359,5.455,5.455,0,0,0,2.721,2.155h0s5.773,4.565,16.759,1.456c0,0,3.071.521,3.579.153l-3.49-2.721s-1.907,2.658-4.559,2.893c0,0,4.546-2.7,4.056-3.319-.1-.127-1.907-1.354-1.907-1.354s-3.306,4.6-7.445,4.832c0,0,5.856-2.48,6.758-5.3l-2.906-1.678s-3.255,5.029-7.96,5.48c0,0,6.027-2.81,7.312-5.811l-3.045-1.272s-3.274,4.851-7.184,5.194c0,0,6.631-3.948,6.466-5.436a15.727,15.727,0,0,0-3.751-.909S628.6,155,626.3,155c0,0,4.158-3.109,3.9-3.611,0,0-4.082-.318-6.237.636a12.372,12.372,0,0,1,6.25-1.272,6.809,6.809,0,0,0-3.262-2.155s2.276-.865,4.253,2.244c0,0,3.179.381,3.554.744,0,0-1.52-3.351-3.465-4.807,0,0,2.937.6,4.279,5.118l3.09,1.221s-1.774-4.533-3.408-5.964c0,0,2.9,1.074,4.158,6.358l2.829,1.628a25.389,25.389,0,0,0-2.708-6s2.48,1.577,3.5,6.5l1.761,1.31s-.947-2.918-1.272-3.732-.159-.973-.159-.973a10.459,10.459,0,0,1,2.206,5.245S649.025,160.373,649.222,160.17Z" transform="translate(-167.167 -53.623)" fill="#00bfa6" opacity="0.1"/>
    <path id="Path_251" data-name="Path 251" d="M690.13,291.521s-10.522-21.833-23.95-11.075a4.137,4.137,0,0,0-2.753,4s1.119-.572,1.907,1.761a11.018,11.018,0,0,0,1.17,2.359,5.455,5.455,0,0,0,2.721,2.155h0s5.773,4.571,16.766,1.456c0,0,3.065.528,3.573.153l-3.51-2.715s-1.907,2.658-4.565,2.893c0,0,4.546-2.7,4.056-3.319-.1-.127-1.907-1.354-1.907-1.354s-3.306,4.6-7.445,4.838c0,0,5.856-2.486,6.758-5.309l-2.867-1.691s-3.255,5.035-7.96,5.48c0,0,6.027-2.81,7.312-5.811l-3.045-1.272s-3.274,4.845-7.184,5.194c0,0,6.638-3.948,6.472-5.442a15.794,15.794,0,0,0-3.758-.909s-2.429,3.421-4.724,3.421c0,0,4.158-3.109,3.9-3.611,0,0-4.082-.318-6.237.636a12.411,12.411,0,0,1,6.256-1.272,6.8,6.8,0,0,0-3.268-2.155s2.276-.871,4.253,2.244c0,0,3.179.375,3.554.738,0,0-1.52-3.344-3.459-4.807,0,0,2.937.6,4.279,5.118l3.084,1.221s-1.774-4.533-3.408-5.957c0,0,2.9,1.068,4.158,6.358l2.829,1.621a25.392,25.392,0,0,0-2.708-6s2.48,1.577,3.5,6.5l1.761,1.272s-.954-2.918-1.272-3.732-.159-.973-.159-.973a10.4,10.4,0,0,1,2.206,5.245S689.933,291.711,690.13,291.521Z" transform="translate(-174.447 -77.011)" fill="#00bfa6" opacity="0.1"/>
    <ellipse id="Ellipse_40" data-name="Ellipse 40" cx="14.617" cy="1.634" rx="14.617" ry="1.634" transform="translate(113.781 495.294)" fill="#00bfa6" opacity="0.1"/>
    <ellipse id="Ellipse_41" data-name="Ellipse 41" cx="14.617" cy="1.634" rx="14.617" ry="1.634" transform="translate(17.961 467.522)" fill="#00bfa6" opacity="0.1"/>
    <ellipse id="Ellipse_42" data-name="Ellipse 42" cx="14.617" cy="1.634" rx="14.617" ry="1.634" transform="translate(186.82 513.738)" fill="#00bfa6" opacity="0.1"/>
    <ellipse id="Ellipse_43" data-name="Ellipse 43" cx="14.617" cy="1.634" rx="14.617" ry="1.634" transform="translate(561.109 473.562)" fill="#00bfa6" opacity="0.1"/>
    <ellipse id="Ellipse_44" data-name="Ellipse 44" cx="14.617" cy="1.634" rx="14.617" ry="1.634" transform="translate(439.477 465.634)" fill="#00bfa6" opacity="0.1"/>
    <ellipse id="Ellipse_45" data-name="Ellipse 45" cx="17.287" cy="2.969" rx="17.287" ry="2.969" transform="translate(358.121 501.632)" fill="#00bfa6" opacity="0.1"/>
    <path id="Path_252" data-name="Path 252" d="M531.343,611.192s-24.071,12.436-11.635,27.085a4.652,4.652,0,0,0,4.552,2.956s-.674-1.233,1.907-2.219a12.406,12.406,0,0,0,2.6-1.38,6.11,6.11,0,0,0,2.327-3.109h0s4.921-6.587,1.106-18.775c0,0,.5-3.446.064-4.005l-2.925,4.012s3.02,2.028,3.37,5.01c0,0-3.179-5-3.815-4.451-.14.114-1.45,2.193-1.45,2.193s5.239,3.554,5.627,8.17c0,0-2.95-6.466-6.135-7.388l-1.825,3.255s5.722,3.484,6.358,8.723c0,0-3.325-6.644-6.72-7.985l-1.342,3.44s5.519,3.51,6.027,7.871c0,0-4.616-7.292-6.275-7.064,0,0-1.043,3.23-.9,4.228,0,0,3.9,2.607,3.967,5.169,0,0-3.6-4.546-4.152-4.247,0,0-.229,4.571.877,6.949a13.718,13.718,0,0,1-1.6-6.949,7.629,7.629,0,0,0-2.308,3.713s-1.036-2.511,2.378-4.826c0,0,.324-3.554.718-3.993,0,0-3.694,1.806-5.264,4.018,0,0,.579-3.3,5.589-4.94l1.272-3.484s-5.01,2.124-6.555,3.993c0,0,1.113-3.274,6.949-4.845l1.729-3.179a29.194,29.194,0,0,0-6.625,3.179s1.685-2.817,7.159-4.114l1.405-2s-3.23,1.151-4.133,1.564-1.081.21-1.081.21a11.692,11.692,0,0,1,5.792-2.632S531.565,611.408,531.343,611.192Z" transform="translate(-148.222 -136.434)" fill="#00bfa6"/>
    <path id="Path_253" data-name="Path 253" d="M574.841,273.464c-4.158-11.3-27.046-12.36-36.977-9.48-7.057,2.054-21.935,4.368-29.882,5.531l-.515-.49c1.03-.305,1.055-1.055.928-2.168a33.922,33.922,0,0,1,.064-4.4c4.87,1.513,9.206-2.066,9.206-2.066h0c5.722-2.543,4.183-13.428,5.277-16.4.82-2.225,1.7-15.335,2.1-21.871h.083l.044-2.193c.057-.947.083-1.5.083-1.5s.56-15.984,1.653-19.22c1.017-2.975,1.844-17.967,1.971-20.345v-.312l-.083-1.386c.057-1.011.083-2.136.076-3.319,0-5.436-.566-12.283-.636-13.39v-.579c.045-2.321-.248-13.943-10.134-18.336-3.643-1.628-8.024-3.567-12.264-5.455-1.094-9.441-3.592-18.832-3.376-28.343,0-1.431.127-2.861.267-4.285,0,.413-.044.833-.051,1.272V107.5c.375-11.9,4.87-23.855,4.451-35.5-.038,1.138-.121,2.282-.229,3.427a36.957,36.957,0,0,0-1.221-11.692,6.919,6.919,0,0,0-2-3.624,8.221,8.221,0,0,0-3.484-1.38,70.069,70.069,0,0,0-9.149-1.7,14.126,14.126,0,0,0-2.06-4c-6.447-8.85-16-17.166-27.288-19.074-5.665-.954-12.182-.159-16.035,3.891a12.031,12.031,0,0,0-1.132,1.144c-2.073,2.473-2.963,5.722-5.086,8.189-.14.165-.3.318-.451.477-4.158,3.719-10.637,4.5-15.259,7.833a18.323,18.323,0,0,0-2.282,1.99,38.706,38.706,0,0,0-4.985,6.059c-2.079,2.925-4.215,5.97-4.877,9.461-1.329,6.994,3.433,13.625,4.317,20.663,1.971,15.748-15.456,29.723-12.156,45.262a20.727,20.727,0,0,0,5.608,10.065c-6.8,6.154-12.582,12.124-12.582,12.124v.356H395.7l.108,1.272H395.7l.591,6.9-.591,10.045v.947h.038c.2,3.681.979,16.918,1.907,19.709,1.094,3.236,1.647,19.22,1.647,19.22s1.208,22.59,2.314,25.578-.464,13.841,5.277,16.4h0a12.08,12.08,0,0,0,5.767,2.391c-.292,2.378-.108,4.1.839,4.641a2.772,2.772,0,0,0,1.335.381,14.17,14.17,0,0,0-1.036,1.812,26.933,26.933,0,0,1-6.663-1.57c-6.167-2.543-26.633-8.265-32.578-4.241s-20.25,7.674-13.644,23.874,9.683,16.607,9.683,16.607a23.523,23.523,0,0,1,5.283,5.309c1.984,2.982,20.466,9.8,25.088,9.8a45.255,45.255,0,0,1,5.881.292s-5.016,4.4-4.349,6.956-1.526,23.016-1.526,23.016,5.086,5.124,7.261-1.6l.076.1c.407.553,2.607,3.052,6.746-.1a37.821,37.821,0,0,1,5.379-3.408l20.04-2.836a56.73,56.73,0,0,1,6.275-.045c3.179.261,6.3-1.621,8.265-3.077,4.152,1.577,8.818,3.3,11.037,3.929,4.5,1.272,25.19,6.822,30.028,5.086a6.72,6.72,0,0,0,2.607-1.857l4.616.146-2.162.432s4.209.07,9.931.146l-.242.14,7.178-.064c10.5.1,22.3.127,23.855-.223,2.429-.54,15.049-.159,18.769,0h1.036s13.867-2.766,8.145-16.836c-4.4-10.808-17.923-13.949-23.925-14.814,1.691-.337,3.147-.6,4.114-.75,4.19-.636,12.328-4.451,12.989-5.754s7.483-5.086,9.244-7.242S579.018,284.762,574.841,273.464ZM459.986,305.082l-.68.223-.458.153-.877.865c-.7-.47-1.45-.966-2.232-1.475C457.119,304.93,458.536,305.012,459.986,305.082ZM520.583,323Z" transform="translate(-120.277 -33.586)" fill="url(#linear-gradient)"/>
    <path id="Path_254" data-name="Path 254" d="M531.14,265.349s9.728,25.432,15.259,22.888,4.031-13.352,5.086-16.314,2.225-25.432,2.225-25.432.534-15.895,1.589-19.112c.979-2.956,1.774-17.866,1.907-20.212v-.312l-1.049-18.438-5.938-1.481-13.771,5.086-1.907,10.891-.744,4.253-.318,1.812Z" transform="translate(-150.893 -60.891)" fill="#be6f72"/>
    <path id="Path_255" data-name="Path 255" d="M535.038,277.153s9.283,7.6,12.08,8.265,4.514,6.593,4.514,6.593" transform="translate(-151.587 -76.955)" opacity="0.1"/>
    <path id="Path_256" data-name="Path 256" d="M432.941,266.7s-9.728,25.432-15.259,22.888-4.031-13.352-5.086-16.314-2.225-25.432-2.225-25.432-.534-15.895-1.589-19.112c-.979-2.956-1.774-17.866-1.907-20.212v-.312l1.055-18.438,5.938-1.481,13.771,5.086,1.907,10.891.744,4.253.318,1.812Z" transform="translate(-128.766 -61.132)" fill="#be6f72"/>
    <rect id="Rectangle_51" data-name="Rectangle 51" width="21.712" height="33.843" transform="translate(345.806 69.474)" fill="#3e373a"/>
    <rect id="Rectangle_52" data-name="Rectangle 52" width="21.712" height="33.843" transform="translate(345.806 69.474)" opacity="0.1"/>
    <path id="Path_257" data-name="Path 257" d="M432.8,314.068s-7.42,8.157-4.667,9.639S448.7,352.953,448.7,352.953s58.493,7.2,69.524-3.6,10.808-30.117,10.808-30.117-8.863,1.907-9.829.871-6.275-6.034-6.275-6.034S437.889,309.516,432.8,314.068Z" transform="translate(-132.443 -83.168)" fill="#4b4b5b"/>
    <path id="Path_258" data-name="Path 258" d="M432.8,314.068s-7.42,8.157-4.667,9.639S448.7,352.953,448.7,352.953s58.493,7.2,69.524-3.6,10.808-30.117,10.808-30.117-8.863,1.907-9.829.871-6.275-6.034-6.275-6.034S437.889,309.516,432.8,314.068Z" transform="translate(-132.443 -83.168)" opacity="0.02"/>
    <path id="Path_259" data-name="Path 259" d="M534.654,176.388,515.58,191.647l-5.767.42-2.117.153-35.56,2.607-36.876-2.7-5.487-.4-6.994-.509-14.623-13.987a250.421,250.421,0,0,1,19.417-18.571c3.573-2.956,6.949-5.347,9.41-6.288l.42-.146a10.465,10.465,0,0,0,4.031-2.81c7.159-7.382,13.778-25.6,13.778-25.6s31.58-16.314,27.765,5.086,14.2,16.111,14.2,16.111l5.938,2.708,2.346,1.074,5.983,2.74,13.5,6.193C535.531,162.61,534.654,176.388,534.654,176.388Z" transform="translate(-128.995 -48.593)" fill="#be6f72"/>
    <circle id="Ellipse_46" data-name="Ellipse 46" cx="28.401" cy="28.401" r="28.401" transform="translate(313.26 35.853)" opacity="0.1"/>
    <path id="Path_260" data-name="Path 260" d="M534.47,204.053h-127.6v-.312l1.055-18.438a250.415,250.415,0,0,1,19.417-18.571l80.109-3.179,3.726-3.929,13.5,6.193c10.6,4.87,9.747,18.648,9.747,18.648S535.875,200.429,534.47,204.053Z" transform="translate(-128.766 -56.028)" opacity="0.1"/>
    <path id="Path_261" data-name="Path 261" d="M534.47,203.28h-127.6v-.312l1.055-18.438a250.421,250.421,0,0,1,19.417-18.571l80.109-3.179,3.726-3.929,13.5,6.193c10.6,4.87,9.747,18.648,9.747,18.648S535.875,199.656,534.47,203.28Z" transform="translate(-128.766 -55.89)" fill="#e7c7ca"/>
    <path id="Path_262" data-name="Path 262" d="M457.589,148.8s20.129,25.648,46.94-.528,2.969,58.385,2.969,58.385l-57.857,6.867Z" transform="translate(-136.381 -53.111)" opacity="0.1"/>
    <path id="Path_263" data-name="Path 263" d="M457.589,150.345s20.129,25.648,46.94-.528S507.5,208.2,507.5,208.2l-57.857,6.867Z" transform="translate(-136.381 -53.386)" fill="#e7c7ca"/>
    <path id="Path_264" data-name="Path 264" d="M508.715,156.8l2.13,32.482,2.283,10.808,1.742,8.265s4.451,63.579,3.179,66.758.636,5.722.9,7.413-.267,5.938-.057,7.846,0,2.753-4.87,2.073-11.66-1.863-11.66-1.863-17.166,1.272-23.1-.846-17.166-2.124-17.166-2.124-16.956.426-22.462-.21-8.481,6.784-12.08,4.66,4.234-22.672,6.777-28.611-3.389-20.981-3.389-20.981l7.629-42.325,1.7-9.594V160.39l.42-.146a10.465,10.465,0,0,0,4.031-2.81l1.907,30.353,59.764,2.124V155.749" transform="translate(-132.284 -55.338)" opacity="0.1"/>
    <path id="Path_265" data-name="Path 265" d="M508.715,155.251l2.13,32.482,2.283,10.808,1.742,8.265s4.451,63.579,3.179,66.758.636,5.722.9,7.413-.267,5.938-.057,7.846,0,2.753-4.87,2.073-11.66-1.863-11.66-1.863-17.166,1.272-23.1-.846-17.166-2.124-17.166-2.124-16.956.426-22.462-.21-8.481,6.784-12.08,4.66,4.234-22.672,6.777-28.611-3.389-20.981-3.389-20.981l7.629-42.324,1.7-9.594V158.843l.42-.146a10.465,10.465,0,0,0,4.031-2.81l1.907,30.353,59.764,2.124V154.2" transform="translate(-132.284 -55.062)" fill="#e7c7ca"/>
    <path id="Path_266" data-name="Path 266" d="M513.662,66.515a7.006,7.006,0,0,0-1.907-3.6,7.808,7.808,0,0,0-3.357-1.373,66.328,66.328,0,0,0-8.825-1.691,14.124,14.124,0,0,0-1.907-3.961c-6.231-8.8-15.45-17.1-26.3-18.972-5.678-.985-12.258-.1-15.895,4.374-2,2.461-2.855,5.722-4.87,8.138-3.885,4.692-10.9,5.271-15.793,8.9-2.613,1.907-4.508,4.673-6.358,7.356-2,2.906-4.063,5.932-4.7,9.4-1.272,6.936,3.313,13.549,4.158,20.549,1.907,15.659-14.877,29.551-11.7,45,1.85,9.009,10.173,15.354,18.781,18.571,3.033,1.138,6.5,2.27,7.916,5.182.636,1.272.744,2.74,1.341,4.025,2.009,4.285,8.615,4.451,12.163,1.329s4.667-8.17,5.086-12.881c1.7-20.574-6.536-40.9-5.576-61.525.286-6.237,2.041-13.313,7.629-16.136,7.521-3.815,16.569,2.543,24.847,1.329a49.293,49.293,0,0,1,2.378,30.079c-1.316,5.487-3.592,10.808-3.757,16.467-.248,8.615,4.4,16.486,8.418,24.1a12.823,12.823,0,0,1,1.7,4.648,11.2,11.2,0,0,1-.909,4.864c-2.27,6.11-6.186,11.781-6.631,18.285a2.956,2.956,0,0,0,.477,2.174,2.734,2.734,0,0,0,1.64.738c6.866,1.176,12.8-4.908,16.155-11.018a51.651,51.651,0,0,0,6.371-21.947c.693-12.945-3.948-25.68-3.662-38.637C510.9,95.558,517.559,80.725,513.662,66.515Z" transform="translate(-130.357 -34.114)" opacity="0.1"/>
    <path id="Path_267" data-name="Path 267" d="M514.435,65.741a7.006,7.006,0,0,0-1.907-3.6,7.807,7.807,0,0,0-3.357-1.373,66.326,66.326,0,0,0-8.825-1.691,14.126,14.126,0,0,0-1.907-3.961c-6.231-8.8-15.45-17.1-26.3-18.972-5.678-.985-12.258-.1-15.895,4.374-2,2.461-2.855,5.722-4.87,8.138-3.885,4.692-10.9,5.271-15.793,8.9-2.613,1.907-4.508,4.673-6.358,7.356-2,2.906-4.063,5.932-4.7,9.4-1.272,6.936,3.312,13.549,4.158,20.549,1.907,15.659-14.878,29.551-11.7,45,1.85,9.009,10.173,15.354,18.781,18.571,3.033,1.138,6.5,2.27,7.916,5.182.636,1.272.744,2.74,1.342,4.025,2.009,4.285,8.615,4.451,12.163,1.329s4.667-8.17,5.086-12.881c1.7-20.574-6.536-40.9-5.576-61.525.286-6.237,2.041-13.313,7.629-16.136,7.521-3.815,16.569,2.543,24.847,1.329a49.292,49.292,0,0,1,2.378,30.079c-1.316,5.487-3.592,10.808-3.758,16.467-.248,8.615,4.4,16.486,8.418,24.1a12.826,12.826,0,0,1,1.7,4.648,11.2,11.2,0,0,1-.909,4.864c-2.27,6.11-6.186,11.781-6.631,18.285a2.956,2.956,0,0,0,.477,2.174,2.734,2.734,0,0,0,1.64.738c6.867,1.176,12.8-4.908,16.155-11.018a51.651,51.651,0,0,0,6.371-21.947c.693-12.945-3.948-25.68-3.662-38.637C511.676,94.784,518.333,79.951,514.435,65.741Z" transform="translate(-130.495 -33.976)" fill="#3e373a"/>
    <path id="Path_268" data-name="Path 268" d="M450.028,377.261l25.222.807-3.618-18.7L452.311,361.2Z" transform="translate(-80.132 -63.987)" fill="#c3c7d9"/>
    <path id="Path_269" data-name="Path 269" d="M588.24,352.249c-1.7,2.117-8.265,5.932-8.9,7.2s-8.475,5.086-12.506,5.722-16.74,3.4-19.074,4.877c-1.672,1.068-15.094,4.451-23.912,6.326a67.863,67.863,0,0,1-7.242,1.3c-3.815.21-45.561-13.987-45.561-13.987l8.049-8.265.445-.153c2.276-.769,12.792-4.323,18.629-6.015,6.574-1.907,14.2-9.747,14.2-9.747s11.228-3.815,12.716-4.241-3.815-14.833-3.815-14.833,24.37-3.382,33.907-6.25,31.58-1.806,35.6,9.429S589.963,350.132,588.24,352.249Z" transform="translate(-140.193 -83.309)" fill="#4b4b5b"/>
    <path id="Path_270" data-name="Path 270" d="M466.856,399.493s-4.87,5.086-9.747,4.667-21.928,1.272-21.928,1.272a34.186,34.186,0,0,0-8.589,4.978c-3.986,3.141-6.1.636-6.5.1l-.07-.1C417.9,417.092,413.03,412,413.03,412s2.117-20.345,1.469-22.888,4.19-6.911,4.19-6.911l5.722-1.456,14.5-3.713,20.771,7.2Z" transform="translate(-129.863 -94.739)" fill="#e7c7ca"/>
    <path id="Path_271" data-name="Path 271" d="M424.386,381.548l-4.292,29.768-.07-.1c-2.124,6.682-6.994,1.589-6.994,1.589s2.117-20.345,1.469-22.888,4.19-6.911,4.19-6.911Z" transform="translate(-129.863 -95.544)" opacity="0.1"/>
    <path id="Path_272" data-name="Path 272" d="M463.34,278.53s11.228,3.815,20.981,0" transform="translate(-138.821 -77.2)" opacity="0.1"/>
    <path id="Path_273" data-name="Path 273" d="M509.976,287.3s4.66,2.327,8.265,0" transform="translate(-147.125 -78.762)" opacity="0.1"/>
    <path id="Path_274" data-name="Path 274" d="M509.976,293.785s7.839,1.049,9.327-1.068" transform="translate(-147.125 -79.726)" opacity="0.1"/>
    <path id="Path_275" data-name="Path 275" d="M506.882,307.478s14.725-1.907,18.381-4.451" transform="translate(-146.574 -81.562)" opacity="0.1"/>
    <path id="Path_276" data-name="Path 276" d="M452.217,303.028s8.265,4.66,14.413,4.451" transform="translate(-136.84 -81.562)" opacity="0.1"/>
    <path id="Path_277" data-name="Path 277" d="M523.839,385.57a67.883,67.883,0,0,1-7.242,1.3c-3.815.21-45.561-13.987-45.561-13.987l8.049-8.265.445-.153c1.272.9,2.314,1.666,3.058,2.251,3.5,2.759,6.886-.846,8.157-.846s12.29,9.111,12.29,9.111,10.173,2.333,11.87,4.451,7.63,1.7,8.685,3.179A5.672,5.672,0,0,1,523.839,385.57Z" transform="translate(-140.191 -92.502)" opacity="0.1"/>
    <path id="Path_278" data-name="Path 278" d="M426.47,321.509s-10.287.591-16.219-1.907-25.641-8.265-31.363-4.215-19.5,7.629-13.142,23.74,9.327,16.531,9.327,16.531a22.954,22.954,0,0,1,5.086,5.277c1.907,2.969,19.709,9.747,24.16,9.747s12.29,0,23.308,7.629,20.981,8.481,20.981,8.481,13.987,5.722,18.342,6.994,24.255,6.777,28.922,5.086,7.629-12.3,7.629-12.3,2.117-9.537,1.055-11.018-6.994-1.062-8.685-3.179S484,367.928,484,367.928s-10.993-9.117-12.264-9.117-4.654,3.6-8.157.846a186.093,186.093,0,0,0-21.941-13.987C433.59,341.429,426.47,321.509,426.47,321.509Z" transform="translate(-121.151 -83.513)" fill="#4b4b5b"/>
    <path id="Path_279" data-name="Path 279" d="M414.817,330.566a12.144,12.144,0,0,1,10.421,2.753c5.086,4.241,22.2,12.754,22.2,12.754" transform="translate(-130.181 -86.422)" opacity="0.1"/>
    <path id="Path_280" data-name="Path 280" d="M563.707,330.294s-22.679,3.433-26.913,8.094" transform="translate(-151.9 -86.417)" opacity="0.1"/>
    <path id="Path_281" data-name="Path 281" d="M588.626,408.82h-1c-3.586-.127-15.736-.509-18.076,0-2.753.636-39.209,0-39.209,0l7.127-1.481s-2.645-9.27-.966-10.039c0,0-9.537-6.282-2.346-10.522a22.308,22.308,0,0,1,14.941-2.454l18.05-6.116,3.465-1.176s20.345,1.062,25.851,15.049S588.626,408.82,588.626,408.82Z" transform="translate(-150.751 -94.739)" fill="#e7c7ca"/>
    <path id="Path_282" data-name="Path 282" d="M596.6,408.827h-1c5.919-4.883,19.309-19.748-20.479-30.581l3.465-1.176s20.345,1.062,25.851,15.049S596.6,408.827,596.6,408.827Z" transform="translate(-158.725 -94.746)" opacity="0.1"/>
    <circle id="Ellipse_47" data-name="Ellipse 47" cx="1.113" cy="1.113" r="1.113" transform="translate(399.358 295.376)" fill="#4b4b5b"/>
    <circle id="Ellipse_48" data-name="Ellipse 48" cx="1.113" cy="1.113" r="1.113" transform="translate(392.892 297.213)" fill="#4b4b5b"/>
    <g id="Group_16" data-name="Group 16" transform="translate(286.26 39.986)" opacity="0.1">
      <path id="Path_283" data-name="Path 283" d="M501.709,105.5a49.331,49.331,0,0,0-3.649-20.434c-8.265,1.233-17.319-5.144-24.847-1.329-5.57,2.823-7.318,9.9-7.629,16.136-.076,1.647-.089,3.293-.057,4.94,0-.585,0-1.176.057-1.761.293-6.237,2.041-13.313,7.629-16.136,7.528-3.815,16.569,2.543,24.847,1.329a49.2,49.2,0,0,1,3.649,17.255Z" transform="translate(-425.467 -82.282)"/>
      <path id="Path_284" data-name="Path 284" d="M430.662,104.614a21.189,21.189,0,0,0-.083-4.158c-.674-5.595-3.732-10.942-4.285-16.4-.712,6.58,3.478,12.9,4.285,19.576A3.974,3.974,0,0,1,430.662,104.614Z" transform="translate(-418.47 -82.558)"/>
      <path id="Path_285" data-name="Path 285" d="M462.484,174.432c-.394,4.718-1.507,9.759-5.086,12.887s-10.173,2.956-12.163-1.329c-.636-1.272-.731-2.753-1.348-4.025-1.411-2.912-4.883-4.044-7.916-5.182-8.615-3.223-16.925-9.537-18.775-18.571a19.506,19.506,0,0,1-.337-2.48,20.037,20.037,0,0,0,.337,5.659c1.85,9.009,10.173,15.348,18.775,18.571,3.033,1.138,6.5,2.27,7.916,5.182.636,1.272.744,2.74,1.348,4.025,2,4.285,8.609,4.451,12.163,1.329s4.66-8.17,5.086-12.887a72.648,72.648,0,0,0,.2-7.464C462.681,171.59,462.6,173.014,462.484,174.432Z" transform="translate(-416.792 -95.321)"/>
      <path id="Path_286" data-name="Path 286" d="M532.13,114.773v2.753c.356-11.826,4.692-23.715,4.266-35.293C536.065,92.94,532.371,103.888,532.13,114.773Z" transform="translate(-437.329 -82.233)"/>
      <path id="Path_287" data-name="Path 287" d="M513.37,173.77a8.2,8.2,0,0,0,.146-2.3,12.715,12.715,0,0,0-1.7-4.648c-3.675-6.994-7.865-14.153-8.361-21.916,0,.331-.044.636-.051.992-.254,8.609,4.393,16.486,8.411,24.1a15.261,15.261,0,0,1,1.551,3.764Z" transform="translate(-432.213 -93.394)"/>
      <path id="Path_288" data-name="Path 288" d="M531.219,168.554A51.736,51.736,0,0,1,524.8,190.5c-3.357,6.11-9.289,12.194-16.162,11.018a2.7,2.7,0,0,1-1.64-.744,1.589,1.589,0,0,1-.3-.5c-.076.5-.14,1-.178,1.507a2.931,2.931,0,0,0,.477,2.168,2.7,2.7,0,0,0,1.64.744c6.873,1.176,12.8-4.908,16.162-11.018a51.736,51.736,0,0,0,6.415-21.947c.076-1.488.083-2.969.038-4.451C531.244,167.708,531.244,168.128,531.219,168.554Z" transform="translate(-432.762 -97.377)"/>
    </g>
    <path id="Path_289" data-name="Path 289" d="M537.838,399.917s16.092,6.752,26.7-8.189" transform="translate(-152.086 -97.356)" fill="none" stroke="#000" stroke-miterlimit="10" stroke-width="0.774" opacity="0.1"/>
    <path id="Path_290" data-name="Path 290" d="M541.69,415.206s13.142-8.545,29.882-.28" transform="translate(-152.772 -100.845)" fill="none" stroke="#000" stroke-miterlimit="10" stroke-width="0.774" opacity="0.1"/>
    <path id="Path_291" data-name="Path 291" d="M434.666,412.274s5.519-12.449,20.256-2.956" transform="translate(-133.715 -99.853)" fill="none" stroke="#000" stroke-miterlimit="10" stroke-width="0.774" opacity="0.1"/>
    <path id="Path_292" data-name="Path 292" d="M412.9,187.012l11.253-10.173s43.634-2.861,45.44,11.972c0,0,15.469-17.586,48-13.669L531.359,186.1l-38.046,16.7-36.971,12.824-27.231-12.188Z" transform="translate(-129.839 -58.689)" opacity="0.1"/>
    <path id="Path_293" data-name="Path 293" d="M412.9,187.785l11.253-10.173s43.634-2.861,45.44,11.972c0,0,15.469-17.586,48-13.669l13.765,10.961-38.046,16.7L456.342,216.4l-27.231-12.188Z" transform="translate(-129.839 -58.827)" fill="#d5d6db"/>
    <path id="Path_294" data-name="Path 294" d="M338.324,158.441,343.3,218l52.771,2.651-2.289-59.3-.045-1Z" transform="translate(-60.242 -28.211)" opacity="0.1"/>
    <path id="Path_295" data-name="Path 295" d="M338.324,156.894l4.978,59.554,52.771,2.651-2.289-59.3-.045-1Z" transform="translate(-60.242 -27.936)" fill="#00bfa6"/>
    <path id="Path_296" data-name="Path 296" d="M479.65,156.894l-54.436,8.164v59.821l53.2-7.687Z" transform="translate(-75.714 -27.936)" opacity="0.1"/>
    <path id="Path_297" data-name="Path 297" d="M479.65,155.347l-54.436,8.164v59.821l53.2-7.687Z" transform="translate(-75.714 -27.66)" fill="#00bfa6"/>
    <path id="Path_298" data-name="Path 298" d="M469.455,173.107l-29.405,3.268.642,10.02,28.744-3.141Z" transform="translate(-78.355 -30.822)" fill="#fff" opacity="0.3"/>
    <path id="Path_299" data-name="Path 299" d="M416.1,290.246,419.1,298.3s4.451,3.815,9.321,1.907,9.117-2.855,11.234-4.711,5.086-11.184,5.086-11.184,2.969-10.173,5.932-12.716,10.808-37.581,0-34.155S431.6,272.66,431.6,272.66a7.539,7.539,0,0,1-4.66,2.543c-2.753.216-8.265-.426-9.327,1.907S412.924,285.586,416.1,290.246Z" transform="translate(-130.182 -69.842)" fill="#be6f72"/>
    <path id="Path_300" data-name="Path 300" d="M490.274,199.542a18.311,18.311,0,0,1-15.965-3.98l2.3,59.294a16.181,16.181,0,0,0,13.669,4.514Z" transform="translate(-140.774 -62.427)" opacity="0.1"/>
    <path id="Path_301" data-name="Path 301" d="M490.274,198a18.311,18.311,0,0,1-15.965-3.98l2.3,59.294a16.181,16.181,0,0,0,13.669,4.514Z" transform="translate(-140.774 -62.151)" fill="#00bfa6"/>
    <path id="Path_302" data-name="Path 302" d="M490.274,198a18.311,18.311,0,0,1-15.965-3.98l2.3,59.294a16.181,16.181,0,0,0,13.669,4.514Z" transform="translate(-140.774 -62.151)" opacity="0.1"/>
    <path id="Path_303" data-name="Path 303" d="M495.279,189.447s22.145-6.771,27.917-5.817" transform="translate(-144.508 -60.286)" opacity="0.1"/>
    <path id="Path_304" data-name="Path 304" d="M459.716,186.286s-21.464-5.086-25.05-3.643" transform="translate(-133.715 -60.08)" opacity="0.1"/>
    <path id="Path_305" data-name="Path 305" d="M512.266,190.989s14.808-5.43,20.161-2.848" transform="translate(-147.532 -60.981)" opacity="0.1"/>
    <path id="Path_306" data-name="Path 306" d="M503.192,355.055a48.678,48.678,0,0,1,7.3-4.533,119.085,119.085,0,0,0,10.808-6.606" transform="translate(-145.917 -88.843)" opacity="0.1"/>
    <path id="Path_307" data-name="Path 307" d="M431.071,278.53s-9.289,7.6-12.08,8.265-4.514,6.593-4.514,6.593" transform="translate(-130.12 -77.2)" opacity="0.1"/>
    <path id="Path_308" data-name="Path 308" d="M544.635,288.873l-2.963,8.074s-4.451,3.815-9.327,1.907-9.111-2.855-11.234-4.711-5.086-11.184-5.086-11.184-2.963-10.173-5.932-12.716-10.808-37.582,0-34.155,19.074,35.216,19.074,35.216a7.538,7.538,0,0,0,4.66,2.543c2.753.216,8.265-.426,9.327,1.907S547.814,284.232,544.635,288.873Z" transform="translate(-146.16 -69.601)" fill="#be6f72"/>
    <path id="Path_309" data-name="Path 309" d="M547,282.29s6.072,3.9,6.046,8.57" transform="translate(-153.717 -77.87)" opacity="0.1"/>
    <circle id="Ellipse_49" data-name="Ellipse 49" cx="28.401" cy="28.401" r="28.401" transform="translate(313.361 34.461)" fill="#be6f72"/>
    <path id="Path_310" data-name="Path 310" d="M459.574,94.3c3.446-.54,6.466-2.543,9.759-3.694,7.369-2.588,15.52-.814,22.977,1.52,2.861.9,5.767,1.907,8.768,1.907s6.186-1.227,7.718-3.815a8.624,8.624,0,0,0-.051-7.966,22.436,22.436,0,0,0-5.188-6.4c-6.612-6.243-14.814-12.08-23.887-11.444a32.874,32.874,0,0,0-10.5,3.007,115.711,115.711,0,0,0-12.322,6.205c-3.058,1.774-8.723,4.145-10.484,7.388C442.364,88.314,453.344,95.283,459.574,94.3Z" transform="translate(-135.646 -39.065)" fill="#3e373a"/>
    <path id="Path_311" data-name="Path 311" d="M508.8,91.484c-1.532,2.588-4.718,3.815-7.719,3.815s-5.906-.973-8.774-1.869c-7.458-2.333-15.6-4.114-22.977-1.52-3.287,1.151-6.313,3.179-9.759,3.688-5.023.788-13.11-3.586-13.987-9.149-.985,6.428,8.392,11.934,13.987,11.056,3.446-.54,6.472-2.543,9.759-3.688,7.375-2.594,15.52-.814,22.977,1.52,2.867.9,5.767,1.907,8.774,1.869s6.186-1.221,7.719-3.815a7.445,7.445,0,0,0,.89-4.648,6.854,6.854,0,0,1-.89,2.74Z" transform="translate(-135.646 -42.998)" opacity="0.1"/>
    <path id="Path_312" data-name="Path 312" d="M800.669,511.786s3.77,4.927-1.742,12.372-10.052,13.727-8.221,18.368c0,0,8.316-13.822,15.081-14.019S808.1,520.1,800.669,511.786Z" transform="translate(-197.038 -118.734)" fill="#00bfa6"/>
    <path id="Path_313" data-name="Path 313" d="M800.716,511.786a6.1,6.1,0,0,1,.769,1.545c6.6,7.757,10.122,15,3.77,15.176-5.913.172-13,10.745-14.7,13.409a6.243,6.243,0,0,0,.2.636s8.316-13.822,15.081-14.019S808.148,520.1,800.716,511.786Z" transform="translate(-197.085 -118.734)" opacity="0.1"/>
    <path id="Path_314" data-name="Path 314" d="M811.237,519.188c0,1.736-.2,3.141-.432,3.141s-.439-1.405-.439-3.141.242-.916.483-.916S811.237,517.453,811.237,519.188Z" transform="translate(-200.612 -119.854)" fill="#ffd037"/>
    <path id="Path_315" data-name="Path 315" d="M813.714,521.685c-1.52.826-2.848,1.329-2.963,1.119s1.024-1.055,2.543-1.907.922-.229,1.036,0S815.24,520.852,813.714,521.685Z" transform="translate(-200.679 -120.279)" fill="#ffd037"/>
    <path id="Path_316" data-name="Path 316" d="M776.843,511.786s-3.77,4.927,1.742,12.372,10.052,13.727,8.214,18.368c0,0-8.31-13.822-15.081-14.019S769.43,520.1,776.843,511.786Z" transform="translate(-193.137 -118.734)" fill="#00bfa6"/>
    <path id="Path_317" data-name="Path 317" d="M776.843,511.786a6.1,6.1,0,0,0-.769,1.545c-6.6,7.757-10.122,15-3.77,15.176,5.906.172,13,10.745,14.7,13.409a4.925,4.925,0,0,1-.2.636s-8.31-13.822-15.081-14.019S769.43,520.1,776.843,511.786Z" transform="translate(-193.137 -118.734)" opacity="0.1"/>
    <path id="Path_318" data-name="Path 318" d="M770.151,519.188c0,1.736.191,3.141.432,3.141s.439-1.405.439-3.141-.248-.916-.483-.916S770.151,517.453,770.151,519.188Z" transform="translate(-193.452 -119.854)" fill="#ffd037"/>
    <path id="Path_319" data-name="Path 319" d="M767.026,521.685c1.519.826,2.848,1.329,2.963,1.119s-1.024-1.055-2.543-1.907-.922-.229-1.036,0S765.5,520.852,767.026,521.685Z" transform="translate(-192.73 -120.279)" fill="#ffd037"/>
    <ellipse id="Ellipse_50" data-name="Ellipse 50" cx="39.419" cy="6.046" rx="39.419" ry="6.046" transform="translate(554.249 449.415)" fill="#00bfa6" opacity="0.1"/>
    <path id="Path_320" data-name="Path 320" d="M806.686,540.6l-.191,1.539-.267,2.174-.108.909-.267,2.174-.115.909-.261,2.168-3.02,24.732c-.267,2.206-3.872,3.929-8.227,3.929H778.558c-4.355,0-7.954-1.723-8.227-3.929l-3.02-24.732-.267-2.168-.108-.909-.267-2.174-.114-.909-.261-2.174L766.1,540.6c-.146-1.272,1.8-2.3,4.266-2.3h32.057C804.887,538.3,806.838,539.352,806.686,540.6Z" transform="translate(-192.729 -123.455)" fill="#65617d"/>
    <path id="Path_321" data-name="Path 321" d="M738.019,509.388l-.261,2.174H698.085l-.267-2.174Z" transform="translate(-124.254 -90.701)" fill="#9d9cb5"/>
    <path id="Path_322" data-name="Path 322" d="M737.726,513.14l-.261,2.174H698.542l-.267-2.174Z" transform="translate(-124.335 -91.369)" fill="#9d9cb5"/>
    <path id="Path_323" data-name="Path 323" d="M737.433,516.891l-.267,2.174H699l-.261-2.174Z" transform="translate(-124.418 -92.037)" fill="#9d9cb5"/>
  </g>
</svg>
