<svg id="Wallet" xmlns="http://www.w3.org/2000/svg" xmlns:xlink="http://www.w3.org/1999/xlink" width="600" height="387.921" viewBox="0 0 600 387.921">
  <defs>
    <linearGradient id="linear-gradient" x1="0.5" y1="1" x2="0.5" gradientUnits="objectBoundingBox">
      <stop offset="0" stop-color="gray" stop-opacity="0.251"/>
      <stop offset="0.54" stop-color="gray" stop-opacity="0.122"/>
      <stop offset="1" stop-color="gray" stop-opacity="0.102"/>
    </linearGradient>
  </defs>
  <rect id="Rectangle_27" data-name="Rectangle 27" width="600" height="4.619" transform="translate(0 383.302)" fill="#85848b"/>
  <path id="Path_67" data-name="Path 67" d="M857.152,652.012c0,3.553-20.708,13.91-45.307,13.91s-43.765-10.357-43.765-13.91,19.938-2.409,44.56-2.409S857.152,648.453,857.152,652.012Z" transform="translate(-380.705 -346.445)" fill="#504f60"/>
  <path id="Path_68" data-name="Path 68" d="M857.152,653.72c0,3.553-20.708,13.91-45.307,13.91s-43.765-10.357-43.765-13.91" transform="translate(-380.705 -348.179)" opacity="0.2"/>
  <path id="Path_69" data-name="Path 69" d="M503.476,539.224c3.992.512,8.135.837,11.959-.4.6-.187,1.265-.6,1.2-1.2a1.458,1.458,0,0,0-.271-.6,37.2,37.2,0,0,1-3.613-6.883.6.6,0,0,0-.223-.313.566.566,0,0,0-.385,0c-1.764.464-3.288,1.6-5.04,2.089a7.167,7.167,0,0,1-2.746.2c-.795-.09-1.879-.747-2.6-.662C502.169,534.081,503.169,536.538,503.476,539.224Z" transform="translate(-263.514 -294.828)" fill="#21deba"/>
  <path id="Path_70" data-name="Path 70" d="M627.1,525.367c2.631-1.807,5.359-3.7,6.913-6.491a1.127,1.127,0,0,0,.187-.56,1.157,1.157,0,0,0-.223-.542,22.377,22.377,0,0,0-5.618-6.064,16.386,16.386,0,0,0-3.131,2.89c-.662.7-2.493,1.807-2.511,2.872,0,.6.7,1.3,1.024,1.807.44.65.855,1.313,1.253,1.987C625.225,521.6,627.314,525.235,627.1,525.367Z" transform="translate(-315.324 -287.189)" fill="#21deba"/>
  <path id="Path_71" data-name="Path 71" d="M503.644,550.126a2.679,2.679,0,0,1-.482,1.746,2.366,2.366,0,0,1-1.012.6c-5.582,2-12.043-.494-17.613,1.475-1.144.4-2.228.988-3.378,1.373a18.379,18.379,0,0,1-4.215.747c-1.969.187-3.95.307-5.925.361a14.249,14.249,0,0,1-4.468-.391,5.365,5.365,0,0,1-3.426-2.716,2.607,2.607,0,0,1-.169-1.933,2.084,2.084,0,0,1,.367-.6,5.283,5.283,0,0,1,1.313-1.066l2.053-1.325a13.786,13.786,0,0,1,3.113-1.65c.813-.265,1.674-.379,2.5-.6,2.884-.843,5.088-3.131,7.136-5.329l2.794-2.981a2.812,2.812,0,0,1,.969-.777,2.687,2.687,0,0,1,1.2-.114,16.1,16.1,0,0,1,7.617,2.553,9.871,9.871,0,0,0,1.879,1.108,6.708,6.708,0,0,0,5.251-.65c.717-.385.56-.6.861-1.289s1.036-1.126,1.674-.5a1.77,1.77,0,0,1,.4.759c.6,1.987.373,4.125.373,6.208a2.734,2.734,0,0,0,.12.963,5.449,5.449,0,0,0,.548.891,2.03,2.03,0,0,1,.114.229,6.124,6.124,0,0,1,.4,2.909Z" transform="translate(-247.335 -298.215)" fill="#514e7f"/>
  <path id="Path_72" data-name="Path 72" d="M503.644,556.917a2.679,2.679,0,0,1-.482,1.746,2.366,2.366,0,0,1-1.012.6c-5.582,2-12.043-.494-17.613,1.475-1.144.4-2.228.988-3.378,1.373a18.379,18.379,0,0,1-4.215.747c-1.969.187-3.95.307-5.925.361a14.247,14.247,0,0,1-4.468-.391,5.365,5.365,0,0,1-3.426-2.716,2.607,2.607,0,0,1-.169-1.933,2.084,2.084,0,0,1,.367-.6c.325.68.56,1.584.765,1.909a3.908,3.908,0,0,0,2.613,1.885,6.491,6.491,0,0,0,2.409-.307c5.058-1.252,10.435-1.271,15.295-3.167a35.373,35.373,0,0,1,5.01-1.927,39.392,39.392,0,0,1,5.419-.44c2.854-.229,5.618-1.09,8.43-1.542a6.124,6.124,0,0,1,.379,2.927Z" transform="translate(-247.335 -305.193)" fill="#464353"/>
  <path id="Path_73" data-name="Path 73" d="M630.34,527.41a10.15,10.15,0,0,1-3.083,5.492,35.908,35.908,0,0,0-4.318,4.721c-1.445,2.21-2.1,4.95-3.974,6.816a10.9,10.9,0,0,1-2.409,1.716,16.806,16.806,0,0,1-3.1,1.427c-2.806.9-5.829.693-8.761.476a7.88,7.88,0,0,1-2.782-.536,8.378,8.378,0,0,1-1.156-.711,5.521,5.521,0,0,1-1.806-1.806,1.807,1.807,0,0,1-.175-1.313,3.083,3.083,0,0,1,.837-1.277,19.872,19.872,0,0,1,2.12-1.909,12.687,12.687,0,0,0,2.758-2.409,7.78,7.78,0,0,0,1.066-2.409,21.363,21.363,0,0,0,.777-4.607,14.6,14.6,0,0,1,.319-3.083c.446-1.59,1.626-3.011,1.493-4.655a1.162,1.162,0,0,1,.06-.7.981.981,0,0,1,.554-.343,9.816,9.816,0,0,1,2.878-.668,3.354,3.354,0,0,1,2.674,1.048c.409.494.68,1.2,1.283,1.4a2.034,2.034,0,0,0,.915.036,7.669,7.669,0,0,0,4.215-1.295,5.257,5.257,0,0,0,1.746-3.836c0-.548-.247-1.12.6-1.2.638-.084,1.144.6,1.469,1.024a14.267,14.267,0,0,1,2.818,5.13,1.513,1.513,0,0,1,.536-.1,2.331,2.331,0,0,1,1.921.982,3.824,3.824,0,0,1,.524,2.6Z" transform="translate(-305.568 -290.352)" fill="#514e7f"/>
  <path id="Path_74" data-name="Path 74" d="M630.491,531.353a10.15,10.15,0,0,1-3.083,5.492,35.9,35.9,0,0,0-4.318,4.721c-1.445,2.21-2.1,4.95-3.974,6.817a10.9,10.9,0,0,1-2.409,1.716,16.806,16.806,0,0,1-3.1,1.427c-2.806.9-5.829.693-8.761.476a7.882,7.882,0,0,1-2.782-.536,8.39,8.39,0,0,1-1.156-.711,5.522,5.522,0,0,1-1.806-1.806,4.4,4.4,0,0,1,1.806-.434c1.3.072,2.252,1.3,3.5,1.68,1.776.536,3.547-.717,5.347-1.144,1.174-.277,2.409-.2,3.571-.6a8.827,8.827,0,0,0,2.643-1.6,13.455,13.455,0,0,0,2.824-2.722,17.492,17.492,0,0,0,1.656-3.306,47.268,47.268,0,0,1,3.348-6.407,4.53,4.53,0,0,1,.68-.891,9.494,9.494,0,0,1,.921-.668,7,7,0,0,0,2.126-3.878A6.786,6.786,0,0,1,628,527.68a2.33,2.33,0,0,1,1.921.982A3.824,3.824,0,0,1,630.491,531.353Z" transform="translate(-305.724 -294.412)" fill="#464353"/>
  <path id="Path_75" data-name="Path 75" d="M439.988,212.169a12.772,12.772,0,0,1,3.613,4.215c.843,1.65,5.7,14.452,5.419,16.313,1.584-1.6,7.828-1.855,9.43-3.45.668-.668,4.275-4,4.817-4.781s4.564-2.409,5-3.228c1.644-2.945-11.658-14.1-9.954-17.011a.759.759,0,0,0,.139-.458.747.747,0,0,0-.223-.355,19.949,19.949,0,0,0-3.848-2.631,6.1,6.1,0,0,1-2.933-3.493,12.646,12.646,0,0,0-3.4,2.3q-3.661,3.137-7.2,6.4c-.921.855-2.7,1.993-3.131,3.216C437.218,210.52,439.109,211.453,439.988,212.169Z" transform="translate(-236.293 -149.683)" fill="#a1616a"/>
  <path id="Path_76" data-name="Path 76" d="M466.228,214.13a39.19,39.19,0,0,0-5.7,4.661c-1.65,1.632-3.216,3.523-3.613,5.8-.169.9-.145,1.806-.283,2.716-.6,3.944-4.01,6.835-5.516,10.526a18.249,18.249,0,0,0-.957,3.523,41.639,41.639,0,0,0-.693,6.913c-.036,2.246,2.168,3.794,2.975,5.889a35.959,35.959,0,0,1,1.433,6.4,75.843,75.843,0,0,0,3.613,11.863c2.969,8.2,12.591,30.873,15.56,39.08,9.1-2.282,33.318-7.527,41.375-12.338,2.686-1.6-18.637-19.673-15.765-20.919a1.072,1.072,0,0,0,.807-1.511c-2.872-12.561-11.857-22.882-15.933-35.112-1.415-4.245-3.956-7.87-5.883-11.9-1.746-3.655-2.68-7.7-4.769-11.17a7.046,7.046,0,0,0-1.523-1.9,8.985,8.985,0,0,0-1.68-1.018C468.486,215.057,467.378,214.714,466.228,214.13Z" transform="translate(-242.09 -156.383)" fill="#514e7f"/>
  <circle id="Ellipse_20" data-name="Ellipse 20" cx="14.241" cy="14.241" r="14.241" transform="translate(190.584 32.577)" fill="#a1616a"/>
  <path id="Path_77" data-name="Path 77" d="M466.4,206.254a4.775,4.775,0,0,1,5.353-.771,2.587,2.587,0,0,1,1.59,2.571l7.063.108a14.18,14.18,0,0,1,3.348.307,4.865,4.865,0,0,1,2.794,1.752c.084.114.181.253.325.271a.518.518,0,0,0,.325-.108,6.13,6.13,0,0,1,3.517-.6c3.818.247,7.346,2.156,10.339,4.54a3.342,3.342,0,0,1,1.2,1.5c.247.8-.048,1.806.6,2.379,0,6.624,2.276,12.814,3.794,19.269.271,1.15,1.373,2.168,2.138,3.071a12.388,12.388,0,0,1,2.282,3.408c1.289,3.348-.488,7.286.765,10.646a18.243,18.243,0,0,0,2.409,3.824,9.888,9.888,0,0,1,2.059,4.938c.054.807-.048,1.62,0,2.409a14.585,14.585,0,0,0,.6,3.2q.771,2.914,1.614,5.823c.915,3.131,2.108,6.509,4.914,8.177-6.774,1.15-13.916,2.276-20.371-.078a10.561,10.561,0,0,1-2.541-1.271c-2.33-1.662-3.456-4.5-4.462-7.19a33.949,33.949,0,0,1-2.487-9.279,10.653,10.653,0,0,0-.428-3.011c-.656-1.746-2.409-2.8-4-3.77a19.2,19.2,0,0,1-4.817-3.745A7.485,7.485,0,0,1,482.381,249c.12-.994.512-1.951.548-2.951a2.311,2.311,0,0,0-1.367-2.409c-4.932-1.493-7.286-7.334-8.382-12.368a39.709,39.709,0,0,1-.632-7.888l-.066-5.136a6.781,6.781,0,0,1-2.216-4.872,5.785,5.785,0,0,0-.03-1.614,4.45,4.45,0,0,0-1.132-1.716,15.32,15.32,0,0,1-2.7-3.788Z" transform="translate(-249.217 -152.746)" fill="#464353"/>
  <path id="Path_78" data-name="Path 78" d="M440.555,231.333c-.163,1.59.2,3.222-.157,4.781-.139.6-.379,1.2-.554,1.764a10.357,10.357,0,0,0,.656,6.7,37.328,37.328,0,0,0,3.426,5.931,9.634,9.634,0,0,1,1.1,2.053,10.624,10.624,0,0,1,.422,2.342,72.765,72.765,0,0,0,1.674,9.466c.674,2.7,8.334,25.761,10.116,27.9a2.27,2.27,0,0,0,1.373.933,2.5,2.5,0,0,0,1.168-.241l3.613-1.385a2.36,2.36,0,0,0,.837-.458,2.156,2.156,0,0,0,.518-1.421c.259-2.939-7.419-26.164-8.394-28.94-2.951-8.382-6.877-16.463-8.8-25.14-.536-2.409-.819-6.118-2.583-8.039-.729-.795-.482-.458-1.355-.042a9.889,9.889,0,0,0-1.277.668,4.179,4.179,0,0,0-1.782,3.125Z" transform="translate(-237.016 -165.505)" fill="#464353"/>
  <path id="Path_79" data-name="Path 79" d="M556.62,320.79" transform="translate(-286.706 -204.995)" fill="#464353"/>
  <path id="Path_80" data-name="Path 80" d="M458.856,244.257c.969,5.124,1.969,10.237,2.963,15.361l14.139-3.7c.114-1.481-.674-2.854-1.2-4.215-1.289-3.234-1.319-6.835-2.361-10.158-.789-2.529-2.162-4.853-2.9-7.4-.428-1.481-.644-3.011-1.066-4.51a32.758,32.758,0,0,0-1.662-4.305,26.953,26.953,0,0,0-3.083-5.715c-1.806.674-3.733,1.457-4.763,3.089a6.672,6.672,0,0,0-.879,3.011c-.247,3.173.9,6.365.524,9.52a28,28,0,0,0,.295,9.026Z" transform="translate(-244.797 -158.563)" fill="#21deba"/>
  <path id="Path_81" data-name="Path 81" d="M483.019,353.545c.795,3.011-.355,6.178-1.295,9.159a70.983,70.983,0,0,0-2.878,13.79,11.934,11.934,0,0,1-.711,3.487c-.446,1.006-1.2,1.855-1.722,2.812-1.421,2.517-1.385,5.588-1.078,8.466.2,1.9.512,3.788.891,5.654.464,2.282,1.036,4.667.367,6.895,1.12-.247,1.879,1.2,1.806,2.342s-.44,2.409.108,3.39c1.385.506,1.4,2.409,1.355,3.884a32.668,32.668,0,0,0,.963,7.587q3.143,15.114,6.672,30.144c5.088,1.578,11.032,3.222,15.885,1.036a3.186,3.186,0,0,0,2.011-2.023,3.529,3.529,0,0,0-.193-1.554l-2.3-8.37a15.369,15.369,0,0,1-.825-6.19c.223-1.548.9-3.216.138-4.582-.259-.47-.668-.837-.969-1.283-1.2-1.764-.572-4.125-.476-6.263a4.962,4.962,0,0,0-.1-1.433,7.156,7.156,0,0,0-.686-1.572,24.039,24.039,0,0,1-2.65-11.959,2.956,2.956,0,0,0-.211-1.56,5.041,5.041,0,0,1-.391-.638,1.746,1.746,0,0,1,.126-1.15,10.541,10.541,0,0,1-1.855-1.806,2.6,2.6,0,0,0,.446-4.059,1.355,1.355,0,0,0,.644-2.33c-.3-.2-.686-.3-.9-.6-.325-.446-.06-1.066.2-1.542l1.4-2.535c1.048-1.885,1.283-4.215,2.409-6.022a45.128,45.128,0,0,0,3.709-8.466l4.053-11.182,2.728,2.366a8.623,8.623,0,0,1,2.24,2.553,11.022,11.022,0,0,1,.729,3.059c1,6.07,4.817,11.333,6.232,17.312a11.4,11.4,0,0,0,1.289,3.866,8.424,8.424,0,0,1,.735,1.108,5.877,5.877,0,0,1,.307,1.837,8.569,8.569,0,0,0,3.613,6.142c1.343.921,3.011,1.554,3.74,3.011a5.609,5.609,0,0,0,.6,1.283c.65.783,2.053.873,2.33,1.855.157.548-.132,1.2.175,1.686a1.6,1.6,0,0,0,.668.5l3.92,1.957c4.384,2.192,6.624,7.226,9.857,10.893a23.488,23.488,0,0,1,2.951,3.9c1.4,2.5,2.041,5.636,4.4,7.226a6.662,6.662,0,0,1,1.71,1.271c.741.975.47,2.342.536,3.571s1.006,2.692,2.174,2.318a8.57,8.57,0,0,0,0,4.546,22.882,22.882,0,0,0,13.886-5.624c1.144-1,2.246-2.276,2.258-3.794a1.36,1.36,0,0,0-.169-.753,2.149,2.149,0,0,0-.885-.668c-3.667-1.987-4.769-6.594-6.624-10.333-1.62-3.3-4.016-6.142-6.022-9.207-4.36-6.594-7.334-14.572-13.928-18.926-1.451-.957-3.137-1.807-3.866-3.39-.4-.885-.452-1.9-.771-2.812a2.44,2.44,0,0,0-2.059-1.806,12.62,12.62,0,0,0,.47-4.372,5.52,5.52,0,0,0-.217-1.885,9.163,9.163,0,0,0-.969-1.867,17.909,17.909,0,0,1-2.481-9.635c.048-1.74.355-3.535-.169-5.2-.265-.837-.729-1.6-1.048-2.409a15.055,15.055,0,0,1-.753-4.528l-.361-5.787a28.47,28.47,0,0,0-.747-5.721c-1.2-4.492-2.409-23.31-6.533-25.429s-11.212,12.362-15.855,12.645A20.647,20.647,0,0,0,505.053,337c-3.089,1.156-5.678,3.312-8.2,5.419l-8.539,7.172A31.462,31.462,0,0,1,483.019,353.545Z" transform="translate(-254.026 -208.856)" fill="#464353"/>
  <path id="Path_82" data-name="Path 82" d="M417.757,167.045A10.735,10.735,0,0,1,426.043,163a19.3,19.3,0,0,1,9.159,2.3,11.314,11.314,0,0,0,2.674,1.1c1.505.307,3.179-.1,4.54.6,1.807.957,2.156,3.4,2,5.419s-.536,4.269.542,6.022A13.922,13.922,0,0,1,446,180.015a5.2,5.2,0,0,1-.084,3.348,21.687,21.687,0,0,1-1.728-2.21,2.036,2.036,0,0,0-2.493-.644c-.777.524-.765,1.475-.807,2.33s-.259,1.879-1.066,2.156a1.728,1.728,0,0,1-1.806-.7c-1.379-1.686-.825-4.378-2.192-6.076-.777-.963-2.071-1.433-2.788-2.445-.566-.795-.711-1.806-1.2-2.662s-1.644-1.481-2.409-.891a3.258,3.258,0,0,0-.644.861,3.7,3.7,0,0,1-4.4,1.325,7.353,7.353,0,0,0-1.9-.825,2.355,2.355,0,0,0-2.174,1.2,4.7,4.7,0,0,0-.6,2.517c0,1.2.217,2.487-.47,3.45a3.571,3.571,0,0,1-.963.915c-1.006.644-2.409,1.078-3.336.343a2.5,2.5,0,0,1-.747-2.336,18.884,18.884,0,0,1,.711-2.469c.53-1.867-.163-3.968.415-5.727A18.282,18.282,0,0,1,417.757,167.045Z" transform="translate(-226.212 -136.039)" fill="#464353"/>
  <path id="Path_83" data-name="Path 83" d="M432.79,223.316a2.192,2.192,0,0,0,.132,1.307,2.077,2.077,0,0,0,.711.68,14.608,14.608,0,0,0,6.708,2.174,2.041,2.041,0,0,1,.927.241,1.63,1.63,0,0,1,.391,1.867,4.86,4.86,0,0,0-.428,1.987c.175,1.259,1.668,1.807,2.927,1.993a6.807,6.807,0,0,0,5.094-.994,7.87,7.87,0,0,0,2.1-3.149c3.456-7.943,4.667-16.722,8.165-24.641a5.227,5.227,0,0,0,.524-1.65,1.626,1.626,0,0,0-.65-1.517c-.65-.4-1.662-.175-2.1-.807-.217-.319-.193-.753-.385-1.09-.4-.717-1.463-.6-2.186-1.018-.566-.3-.957-.921-1.59-1.042a2,2,0,0,0-1.644.711c-2.053,1.915-3.131,4.631-4.275,7.2a84.357,84.357,0,0,1-6.118,11.345c.271-.422-1.3-3.613-1.915-3.751-1.078-.217-2.457,1.674-3.041,2.379A15.15,15.15,0,0,0,432.79,223.316Z" transform="translate(-234.125 -149.828)" fill="#21deba"/>
  <path id="Path_84" data-name="Path 84" d="M464.714,200.32a2.884,2.884,0,0,0-2.234,1.12,6.372,6.372,0,0,0-.933,3.011A26.163,26.163,0,0,1,458,213.977" transform="translate(-244.586 -150.888)" opacity="0.1"/>
  <path id="Path_85" data-name="Path 85" d="M469.906,204.31a3.438,3.438,0,0,0-2.92,1.752,9.844,9.844,0,0,0-.735,2.975,16.324,16.324,0,0,1-2.92,6.256" transform="translate(-246.868 -152.476)" opacity="0.1"/>
  <path id="Path_86" data-name="Path 86" d="M489.34,381.155v-7.479a20.763,20.763,0,0,0-20.763-20.757H173.223a20.763,20.763,0,0,0-20.763,20.757v13.79Z" transform="translate(-111.513 -219.419)" fill="#33323d"/>
  <path id="Path_87" data-name="Path 87" d="M323.377,307.9s-.843,52.3,8.43,69.514,13.248,92.077,13.248,92.077,97.213,10.056,164.957-12.043S721.9,426.308,721.9,426.308L697.609,262.586s-120.005-7.7-188.272,24.863S323.377,307.9,323.377,307.9Z" transform="translate(-211.521 -184.354)" fill="#8dd070"/>
  <path id="Path_88" data-name="Path 88" d="M323.377,307.9s-.843,52.3,8.43,69.514,13.248,92.077,13.248,92.077,97.213,10.056,164.957-12.043S721.9,426.308,721.9,426.308L697.609,262.586s-120.005-7.7-188.272,24.863S323.377,307.9,323.377,307.9Z" transform="translate(-211.521 -184.354)" opacity="0.1"/>
  <path id="Path_89" data-name="Path 89" d="M358.725,334.643s-3.041,43.157,4.588,56.947,7.985,75.349,7.985,75.349S458.786,471,521.02,449.813s193.012-34.925,193.012-34.925L699.17,281S590.961,279.882,527.806,309.7,358.725,334.643,358.725,334.643Z" transform="translate(-212.444 -192.107)" fill="#8dd070"/>
  <ellipse id="Ellipse_21" data-name="Ellipse 21" cx="22.714" cy="48.715" rx="22.714" ry="48.715" transform="translate(282.279 138.789) rotate(-7.1)" opacity="0.1"/>
  <path id="Path_90" data-name="Path 90" d="M609.476,130.66S492.891,160.166,437.913,212.1,267.2,288.632,267.2,288.632s15.247,50.034,29.349,63.57,40.851,83.58,40.851,83.58,95.605-20.269,153.293-62.107S682.825,279,682.825,279Z" transform="translate(-173.443 -123.175)" opacity="0.2"/>
  <path id="Path_91" data-name="Path 91" d="M264.29,276.2s14.067,50.04,27.072,63.576,37.7,83.574,37.7,83.574,88.251-20.263,141.5-62.1,177.325-94.66,177.325-94.66l-67.7-148.355s-107.6,29.506-158.34,81.443S264.29,276.2,264.29,276.2Z" transform="translate(-156.003 -118.23)" fill="#8dd070"/>
  <path id="Path_92" data-name="Path 92" d="M264.29,276.2s14.067,50.04,27.072,63.576,37.7,83.574,37.7,83.574,88.251-20.263,141.5-62.1,177.325-94.66,177.325-94.66l-67.7-148.355s-107.6,29.506-158.34,81.443S264.29,276.2,264.29,276.2Z" transform="translate(-156.003 -118.23)" opacity="0.1"/>
  <path id="Path_93" data-name="Path 93" d="M308,297.039s9.438,42.013,19.918,52.792,28,69.249,28,69.249,77.049-22.991,125.127-62.252,157.728-92.414,157.728-92.414L588.422,141.5s-94.206,32.137-140.67,79.9S308,297.039,308,297.039Z" transform="translate(-173.392 -127.488)" fill="#8dd070"/>
  <ellipse id="Ellipse_22" data-name="Ellipse 22" cx="22.714" cy="48.715" rx="22.714" ry="48.715" transform="translate(245.547 118.198) rotate(-24.97)" opacity="0.1"/>
  <path id="Path_94" data-name="Path 94" d="M497.325,398.163V605.91a17.963,17.963,0,0,1-17.969,17.963H170.447A17.963,17.963,0,0,1,152.49,605.91V377.22c8.852,3.288,8.852,3.288,17.957,3.011h308.91A17.969,17.969,0,0,1,497.325,398.163Z" transform="translate(-111.525 -241.967)" opacity="0.1"/>
  <path id="Path_95" data-name="Path 95" d="M497.325,402.549V610.3a17.969,17.969,0,0,1-17.969,17.963H170.447A17.963,17.963,0,0,1,152.49,610.3V381.6c8.852,3.282,8.852,3.282,17.957,3.011h308.91a17.968,17.968,0,0,1,17.969,17.938Z" transform="translate(-111.525 -243.709)" fill="#504f60"/>
  <path id="Path_96" data-name="Path 96" d="M659.173,543.938v66.437H594.741a33.22,33.22,0,1,1,0-66.44Z" transform="translate(-291.465 -303.099)" opacity="0.1"/>
  <path id="Path_97" data-name="Path 97" d="M660.633,541v66.449H596.2a33.22,33.22,0,1,1,0-66.44Z" transform="translate(-292.098 -301.825)" fill="#33323d"/>
  <circle id="Ellipse_23" data-name="Ellipse 23" cx="12.953" cy="12.953" r="12.953" transform="translate(295.05 261.654)" opacity="0.1"/>
  <circle id="Ellipse_24" data-name="Ellipse 24" cx="12.953" cy="12.953" r="12.953" transform="translate(295.882 259.99)" fill="#21deba"/>
  <path id="Path_98" data-name="Path 98" d="M883.013,533.908c.512,5.546-3.685,10.929-2.463,16.361.265,1.162.765,2.258.945,3.432.506,3.228-1.415,6.281-3.252,8.978l-15.777,23.147a14.372,14.372,0,0,1-2.252,2.782c-3.011,2.686-7.539,2.409-11.5,3.209a19.655,19.655,0,0,0-7.708,3.408.494.494,0,0,0-.072.674,6.624,6.624,0,0,0,5.733,2.692c.415.548,0,1.349-.6,1.74-.849.6-2.011.747-2.18,2.18a2.366,2.366,0,0,0,.289,1.445,4.486,4.486,0,0,0,2.758,1.921c5.462,1.668,11.363-1.265,15.452-5.257s7.021-9.032,11.032-13.1c2.222-2.246,4.745-4.173,7.033-6.353,4.564-4.348,8.111-9.635,11.537-14.928a16.657,16.657,0,0,0,2.5-5.082c.434-1.849.229-3.715.717-5.5.638-2.348,2.354-4.215,3.782-6.184,2.8-3.854,4.667-8.569,4.3-13.314s-3.312-9.436-7.792-11.05a6.925,6.925,0,0,0-4.366-.265c-1.837.566-3.191,2.083-4.444,3.535l-3.011,3.462a8.117,8.117,0,0,0-1.746,2.65,2.776,2.776,0,0,0,.6,2.945" transform="translate(-410.979 -295.401)" fill="#fbbebe"/>
  <path id="Path_99" data-name="Path 99" d="M883.013,533.908c.512,5.546-3.685,10.929-2.463,16.361.265,1.162.765,2.258.945,3.432.506,3.228-1.415,6.281-3.252,8.978l-15.777,23.147a14.372,14.372,0,0,1-2.252,2.782c-3.011,2.686-7.539,2.409-11.5,3.209a19.655,19.655,0,0,0-7.708,3.408.494.494,0,0,0-.072.674,6.624,6.624,0,0,0,5.733,2.692c.415.548,0,1.349-.6,1.74-.849.6-2.011.747-2.18,2.18a2.366,2.366,0,0,0,.289,1.445,4.486,4.486,0,0,0,2.758,1.921c5.462,1.668,11.363-1.265,15.452-5.257s7.021-9.032,11.032-13.1c2.222-2.246,4.745-4.173,7.033-6.353,4.564-4.348,8.111-9.635,11.537-14.928a16.657,16.657,0,0,0,2.5-5.082c.434-1.849.229-3.715.717-5.5.638-2.348,2.354-4.215,3.782-6.184,2.8-3.854,4.667-8.569,4.3-13.314s-3.312-9.436-7.792-11.05a6.925,6.925,0,0,0-4.366-.265c-1.837.566-3.191,2.083-4.444,3.535l-3.011,3.462a8.117,8.117,0,0,0-1.746,2.65,2.776,2.776,0,0,0,.6,2.945" transform="translate(-410.979 -295.401)" opacity="0.05"/>
  <path id="Path_100" data-name="Path 100" d="M921.609,772.913c-3.444,2.1-7.738,2.228-11.742,1.74-.644-.078-1.409-.126-1.806.373-.6.723.108,1.807.843,2.367a17.372,17.372,0,0,0,8.063,3.318,53.1,53.1,0,0,0,7.888.524c7.226.126,14.452.247,21.563-.789a3.051,3.051,0,0,0,1.2-.349,2.2,2.2,0,0,0,.891-1.355,5.375,5.375,0,0,0-1.873-5.13,15.722,15.722,0,0,0-5.028-2.7l-6.263-2.439c-1.469-.572-3.824-2.089-5.419-1.969C926.932,766.722,924.1,771.455,921.609,772.913Z" transform="translate(-438.88 -396.836)" fill="#3f3d56"/>
  <path id="Path_101" data-name="Path 101" d="M921.609,772.913c-3.444,2.1-7.738,2.228-11.742,1.74-.644-.078-1.409-.126-1.806.373-.6.723.108,1.807.843,2.367a17.372,17.372,0,0,0,8.063,3.318,53.1,53.1,0,0,0,7.888.524c7.226.126,14.452.247,21.563-.789a3.051,3.051,0,0,0,1.2-.349,2.2,2.2,0,0,0,.891-1.355,5.375,5.375,0,0,0-1.873-5.13,15.722,15.722,0,0,0-5.028-2.7l-6.263-2.439c-1.469-.572-3.824-2.089-5.419-1.969C926.932,766.722,924.1,771.455,921.609,772.913Z" transform="translate(-438.88 -396.836)" opacity="0.05"/>
  <path id="Path_102" data-name="Path 102" d="M934.857,615.611c-2.607,3.468-5.305,7.473-4.661,11.766.349,2.312,1.644,4.354,2.6,6.491A45.8,45.8,0,0,1,935.417,643c.976,4.54,1.957,9.093,2.553,13.705.68,5.209-2.517,20.281-2.812,25.526a5.4,5.4,0,0,1-1.1,3.541c-.343.361-.8.65-.957,1.12a1.915,1.915,0,0,0,.211,1.325,14.572,14.572,0,0,0,7.828,7.19c3.354,1.409,11.441,3.842,15.1,3.968a3.011,3.011,0,0,0,1.421-.187,2.764,2.764,0,0,0,1.1-1.259c2.619-5.01.1-22.822.138-28.476.036-4.715,1.15-9.4.945-14.109-.169-3.782-1.2-7.479-1.548-11.248-.6-6.178.53-12.386,1.668-18.492.867-4.685,1.74-9.37,2.854-13.994a26.87,26.87,0,0,1,3.011-8.123c1.2-1.945,2.9-3.571,4.3-5.419a24.46,24.46,0,0,0,4.817-17.908c-.084-.6-9.032,2.27-9.821,2.613a30.6,30.6,0,0,0-8.755,5.63c-2.071,1.975-3.7,4.613-5.516,6.823q-3.848,4.691-7.6,9.448Q938.964,610.107,934.857,615.611Z" transform="translate(-452.905 -322.669)" fill="#464353"/>
  <path id="Path_103" data-name="Path 103" d="M934.857,615.281c-2.607,3.469-5.305,7.479-4.661,11.766.349,2.318,1.644,4.36,2.6,6.5a45.743,45.743,0,0,1,2.625,9.123c.976,4.546,1.957,9.1,2.553,13.705.68,5.215-2.517,20.281-2.812,25.526a5.411,5.411,0,0,1-1.1,3.547c-.343.355-.8.644-.957,1.114a1.909,1.909,0,0,0,.211,1.325,14.749,14.749,0,0,0,7.828,7.226c3.354,1.445,11.441,2.7,15.1,2.824a3.01,3.01,0,0,0,1.421-.187,2.721,2.721,0,0,0,1.1-1.253c2.619-5.01.1-21.678.138-27.338.036-4.721,1.15-9.4.945-14.115-.169-3.782-1.2-7.479-1.548-11.242-.6-6.184.53-12.393,1.668-18.5.867-4.679,1.74-9.364,2.854-13.994a26.87,26.87,0,0,1,3.011-8.123c1.2-1.945,2.9-3.571,4.3-5.419a24.447,24.447,0,0,0,4.817-17.908c-.084-.6-9.032,2.27-9.821,2.613a30.74,30.74,0,0,0-8.755,5.636c-2.071,1.969-3.7,4.607-5.516,6.817q-3.848,4.691-7.6,9.454Q938.964,609.771,934.857,615.281Z" transform="translate(-452.905 -322.55)" opacity="0.05"/>
  <circle id="Ellipse_25" data-name="Ellipse 25" cx="14.615" cy="14.615" r="14.615" transform="translate(445.36 196.673)" fill="#fbbebe"/>
  <path id="Path_104" data-name="Path 104" d="M902.475,485.1a18.926,18.926,0,0,0,12.134,8.466l-1.1,4c-1.9,6.877-4.041,14.151-9.352,18.92a8.794,8.794,0,0,0-1.481-6.841,25.785,25.785,0,0,0-4.962-5.185l-8.412-7.286a2.535,2.535,0,0,1-.6-.711,2.138,2.138,0,0,1,0-1.6c1.072-3.336,4.131-5.419,6.624-7.672a22.938,22.938,0,0,0,3.33-3.878C900.331,480.918,901.373,483.327,902.475,485.1Z" transform="translate(-429.938 -275.194)" fill="#fbbebe"/>
  <path id="Path_105" data-name="Path 105" d="M855.443,455.812l-.331-2.746c2.306.6,4.5-1.361,5.973-3.39s2.842-4.42,5.088-5.269c2.728-1.024,5.618.6,8.226,1.975a26.008,26.008,0,0,0,9.436,3.071,6.207,6.207,0,0,1,1.56.253c1.7.6,2.5,2.734,2.752,4.667s.181,3.986,1.018,5.709c.6,1.307,1.722,2.276,2.409,3.565,1.806,3.456.06,8.183,1.945,11.574l-4.685-4.293c-.428-.391-1.03-.8-1.505-.47-.373.265-.4.837-.554,1.295a2.46,2.46,0,0,1-3.336,1.2,9.559,9.559,0,0,1-3.011-2.728A18.277,18.277,0,0,0,873,464.592a9.539,9.539,0,0,0-7.828.518c-2.186,1.234-3.788,4.113-6.467,4.215-3.673.138-5.2-6.7-6.9-9.406a3.312,3.312,0,0,0,.963-4.143C853.01,455.674,855.389,455.391,855.443,455.812Z" transform="translate(-414.799 -258.628)" fill="#464353"/>
  <path id="Path_106" data-name="Path 106" d="M554.528,319.382a28.427,28.427,0,0,0-3.246,3.408,6.822,6.822,0,0,0-1.493,4.378,2.241,2.241,0,0,0,.422,1.283,1.084,1.084,0,0,0,1.2.367,1.62,1.62,0,0,0,.6-.53,29.072,29.072,0,0,1,2.023-2.192c.259-.259.6-.53.952-.434a1.018,1.018,0,0,1,.409.271,2.77,2.77,0,0,1,.849,1.325,3.121,3.121,0,0,1-.933,2.565,6.573,6.573,0,0,0-1.572,2.324,1.03,1.03,0,0,0,0,.747,1.121,1.121,0,0,0,.47.4,6.72,6.72,0,0,0,5.684.373c1.2-.488,2.276-1.325,3.517-1.758a8.133,8.133,0,0,0,1.554-.6,3.228,3.228,0,0,0,1.379-2.065,8.517,8.517,0,0,0,.09-2.535,29.149,29.149,0,0,0-2.071-9.532,1.205,1.205,0,0,0-.349-.506,1.114,1.114,0,0,0-.6-.163c-1.542-.163-4.071-.951-5.558-.379a3.926,3.926,0,0,0-1.313,1.168C556.269,317.6,554.528,318.979,554.528,319.382Z" transform="translate(-284.165 -203.19)" fill="#a1616a"/>
  <path id="Path_107" data-name="Path 107" d="M542.566,282.23c0-1.469-1.807-5.016,1.066-5.251,0-1.572-2.222-2.547-1.807-4.215.132-.554.6-1.006.656-1.572.181-1.608-2.722-2.481-2.24-4.022.181-.6.819-.951.957-1.548.325-1.391-2.162-2.011-2.21-3.438,0-.482.271-.933.247-1.415,0-.6-.524-1.06-.813-1.584-.753-1.343-.385-3.42-1.758-4.113.909.078,1.2-1.271.831-2.1s-1.138-1.542-1.144-2.457a3.709,3.709,0,0,0,0-1c-.253-.879-1.692-.951-1.933-1.806a7.686,7.686,0,0,1-.03-.988c-.1-.68-.795-1.114-1.451-1.307a5.919,5.919,0,0,1-1.939-.692c-.422-.319-.909-.849-1.361-.6-.169.1-.253.3-.379.44-.542.632-1.578.355-2.258-.108-2.011-1.367-3.011-3.818-3.438-6.208s-.416-4.859-.951-7.226a15.446,15.446,0,0,0-.65-2.168,11.4,11.4,0,0,1-1.012-2.156c-.108-1.385,2.758-.44,3.848-.3a17.139,17.139,0,0,1,3.125.6,33.425,33.425,0,0,1,3.2,1.4c4.348,1.921,9.6,2.156,13.091,5.383,1.15,1.06,2.12,2.451,3.613,2.933a16.352,16.352,0,0,1,2.023.524c1.656.777,1.915,2.975,2.818,4.564a8.951,8.951,0,0,1,.741,1.325,5.1,5.1,0,0,1,.241,1.686l.126,4.173a153.88,153.88,0,0,1-.337,20.949c-.241,2.294-.6,4.655.078,6.859.181.6.434,1.168.6,1.776a10.839,10.839,0,0,1,.229,2.168l.1,2.7a.843.843,0,0,1-.132.6.867.867,0,0,1-.729.175c-3.763-.337-7.569-2.457-11.122-1.174" transform="translate(-272.171 -164.919)" fill="#464353"/>
  <ellipse id="Ellipse_26" data-name="Ellipse 26" cx="44.536" cy="6.437" rx="44.536" ry="6.437" transform="translate(387.392 299.485)" fill="#504f60"/>
  <path id="Path_108" data-name="Path 108" d="M814.184,463.894c-.783-3.354-1.271-6.3-1.271-6.3a12.979,12.979,0,0,0-1.457-6.389v-.915h0v-6.744a22.994,22.994,0,0,1,1.7-3.535c1.2-2.12,0-9.888,0-9.888s-4.5-10.953-3.408-17.9-9.237-30.855-9.237-30.855a30.465,30.465,0,0,1,.969-6.829,5.211,5.211,0,0,0,.132-1.433v-.12c-.157-4.582-3.782-13.169-3.782-13.169l.488-16.367s2.312-9.635-1.457-22.611c-1.319-4.522-2.162-8.141-2.7-10.935-.06-.313-.12-.6-.169-.909,7.762-1.2,13.693-2.168,13.693-2.168s-4.5-18.842-7.545-22.142-5.474-13.663-5.474-13.663-1.584-13.3.975-17.192,2.921-10.6,2.921-10.6,5.835-4.215,6.57-6.124a31.245,31.245,0,0,0,1.945-8.358c0-2.234-.729-4.215-.488-5.419s-1.7-5.654-.729-7.774a5.7,5.7,0,0,0,.385-2.041.261.261,0,0,0,0-.06h0a28.609,28.609,0,0,0-.512-5.528,15.686,15.686,0,0,0-5.781-3.089l-.126-.506-.331-1.325a6.422,6.422,0,0,0-.572-.337v-.482l-.054-1.915.915-4.3c1.807-7.479-8.183-8.593-8.183-8.593a5.269,5.269,0,0,0-2.83-2.481c-2.005-.7-.331,11.248.6,12.043.7.6,2.884,4.324,3.938,6.166h0l.169.3a4.21,4.21,0,0,0-.458.482l.379,2.6.06.4a10.772,10.772,0,0,0-1.6,2.716,5.859,5.859,0,0,1,1.463,4.215,13.5,13.5,0,0,0,.6,5.179c-.108-.126-1.391-1.511-2.674-1.174s-4.865,1.415-4.865,1.415-2.674.47-2.409,1.06-1.807,3.179-1.807,3.179L775,216.657c-.072-.2-.151-.409-.211-.6a16.572,16.572,0,0,1-.6-3.011,16.447,16.447,0,0,0,2.3-.729,4.962,4.962,0,0,0,1.987-1.277,7.707,7.707,0,0,0,1.162-3.1c.566-2.1,1.806-3.956,2.667-5.949a19.34,19.34,0,0,0,1.355-10.706,6.986,6.986,0,0,0-1.1-3.131c-1.174-1.614-3.306-2.27-4.854-3.559s-2.547-3.258-4.354-4.215a8.634,8.634,0,0,0-5.456-.47,29.4,29.4,0,0,0-10.195,3.709c-1.048.6-2.2,1.343-3.408,1.12a4.45,4.45,0,0,1-2.457-1.806.119.119,0,0,0-.048-.193,12.7,12.7,0,0,0-1.12,5.383,6.629,6.629,0,0,0,.036.861v.548h0a1.371,1.371,0,0,1-.054.379,2.739,2.739,0,0,1-.674.97,6.508,6.508,0,0,0-.6.8.993.993,0,0,1,.1-.3,4.282,4.282,0,0,0-.747,2.27,2.319,2.319,0,0,0,.542,1.626,7.828,7.828,0,0,0,1.174.939,13.692,13.692,0,0,0-.217,2.409A13.916,13.916,0,0,0,757,210.5c.084.2.163.4.241.6a17.145,17.145,0,0,1,1.307,7.828,3.68,3.68,0,0,1-.084.566c-.03.187-.181.2-.259.3h0s-11.881.12-14.675-2.409-7.057,6.184-7.057,6.184-4.257.825-5.112,0-5.835-.114-5.835-.114a10.737,10.737,0,0,0-7.425-2.71,21.792,21.792,0,0,0-5.419-3.011h0l-.132-.048h0a6.07,6.07,0,0,0-2.68-.337s-5.841-4.817-7.545-7.419-9.815-12.206-9.851-12.248v-.464l-.09-1.4a5.006,5.006,0,0,1-.729.06c-.042-.138-.1-.3-.162-.488a26.94,26.94,0,0,0-1.722-3.956s0-1.764.512-2.21-.211-6.919-.211-6.919-5.263-12.3-9.978-3.119c0,0-8.912,5.943-1.433,12.868,0,0,3.011,1.445,3.408,2.589.277.741,1.289,2.818,1.969,4.215l.307.6-.084.072.108,1.156.048.446c-1.409.8-2.367,1.6-2.132,2.192a13.17,13.17,0,0,1,.849,3.179S693.474,219.469,694.811,225c0,0,27.742,16.487,36.864,17.661l-1.614,8.22a65.58,65.58,0,0,0-.361,6.714c.12,1.764-1.1,9.773-1.1,9.773s-1.584,11.778-2.92,13.428-1.1,8.713-1.1,8.713a59.532,59.532,0,0,1-1.807,10.008c-1.337,4.474-.367,10.014-.367,10.014s-4.619,10.6,6.449,3.414c0,0,5.419-.337,11.694-.554v.6c0,.807,0,1.68-.042,2.6-.084,6.07-.12,14.452.157,20.763.488,11.188,3.9,33.33,3.9,33.33v11.146a15.172,15.172,0,0,0-.325,3.179,20.69,20.69,0,0,0,3.011,11.134l.855,7.419s2,4.89,2.035,7.828a4.1,4.1,0,0,1-.084.7,4.738,4.738,0,0,0-.1,1.138c-.114,3.372,1.915,11.441,1.915,11.441s.12,8.123,1.337,8.6c1.042.4-1.391,4.679-2.114,5.907a1.683,1.683,0,0,1-.042-.229l-.151.241a5.767,5.767,0,0,0-.379,2.059,2.951,2.951,0,0,0,1.349,2.854c2.312,1.415,3.553,2.589,1.59,3.059a20.449,20.449,0,0,0-2.144.452.929.929,0,0,0-.1-.271,1.289,1.289,0,0,0-.8,1.421,6.021,6.021,0,0,0,.717,2.734,29.827,29.827,0,0,0,3.294,6.022l.933-.1a4.551,4.551,0,0,1-.542,1.006,3.877,3.877,0,0,1-1.373,1.2,4.251,4.251,0,0,1-1.668.572,4.7,4.7,0,0,0-3.444,1.674c-1.2,1.572-1.975,3.709.422,5.588l8.7,3.011s14.97,1.945,14.175-1.415-1.277-6.3-1.277-6.3a13.279,13.279,0,0,0-1.2-5.955,7.755,7.755,0,0,0-.53-.879l.53-.054s1.1-7.425,2.553-8.834c.337-.325.415-.6.337-.771.151-.4-.235-.638-.723-.777l-.108.3a7.1,7.1,0,0,0-1.451-.163s-.488-3.884,1.1-5.3a1.5,1.5,0,0,0,.307-1.156,6.214,6.214,0,0,0-.169-1.584.774.774,0,0,1-.054.1,57.048,57.048,0,0,0-3.492-9.135s-.12-3.529.855-4.944-.126-19.2-.126-19.2.367-8.593-.729-12.6,1.337-8.719,1.337-8.719v-.313l-.138-1.355a.348.348,0,0,0,0,.084c-.247-2.276-.711-6.4-1.054-8.3-.488-2.71.126-15.656.126-15.656l2.186-5.54,3.9,9.544,4.137,12.718a10.865,10.865,0,0,1,2.1,5.419v.4a6.96,6.96,0,0,0-.048.849,7.563,7.563,0,0,0,1.258,4.534s1.1,6.022,2.8,7.533,1.7,4.474,1.7,4.474,2.065,8.719,3.011,10.237c.819,1.289.861,4.817.855,5.919h0v.313s.289,3.119.277,5.733v.933a.261.261,0,0,0,0-.066,9.07,9.07,0,0,1-.253,2.12l-.036.12a1.537,1.537,0,0,1,.042-.44,22.132,22.132,0,0,0-.6,5.419c-.054,3.131.422,6.841,2.318,9.032,3.288,3.77,5.353,3.3,5.353,3.3s-1.578,4.709-3.529,5.654a.916.916,0,0,0-.2.132,2.058,2.058,0,0,0-.048-.277,2.294,2.294,0,0,0-.6,1.758,12.632,12.632,0,0,0,2.409,6.979,3.933,3.933,0,0,0,1.644.963,2.6,2.6,0,0,1-.307.187,6.553,6.553,0,0,1-.668.319,3.512,3.512,0,0,1-.994.259,4.637,4.637,0,0,0-3.444,1.674c-1.2,1.566-1.975,3.7.421,5.582l8.7,3.011S814.967,467.248,814.184,463.894Z" transform="translate(-342.763 -141.128)" fill="url(#linear-gradient)"/>
  <path id="Path_109" data-name="Path 109" d="M804.216,652.571l-8.43-3.011c-2.324-1.879-1.584-4.016-.409-5.588a4.5,4.5,0,0,1,3.336-1.674,4,4,0,0,0,1.608-.572,3.854,3.854,0,0,0,1.337-1.2,6.22,6.22,0,0,0,.957-3.258s9.249-2.71,11.778,0a6.845,6.845,0,0,1,1.12,1.644,13.76,13.76,0,0,1,1.2,5.955s.47,2.939,1.234,6.3S804.216,652.571,804.216,652.571Z" transform="translate(-389.345 -340.728)" fill="#2d293d"/>
  <path id="Path_110" data-name="Path 110" d="M872.656,645.663l-8.43-3.011c-2.324-1.879-1.584-4.016-.409-5.582a4.45,4.45,0,0,1,3.33-1.674,3.125,3.125,0,0,0,.963-.259,6.407,6.407,0,0,0,.65-.319c2.354-1.295,2.294-4.474,2.294-4.474s9.243-2.71,11.778,0a6.67,6.67,0,0,1,.885,1.2,13.38,13.38,0,0,1,1.409,6.4s.47,2.945,1.2,6.3S872.656,645.663,872.656,645.663Z" transform="translate(-418.739 -337.754)" fill="#2d293d"/>
  <path id="Path_111" data-name="Path 111" d="M819.29,637.253a6.846,6.846,0,0,1,1.12,1.644h0L806.56,640.5a6.22,6.22,0,0,0,.957-3.258S816.761,634.544,819.29,637.253Z" transform="translate(-394.26 -340.208)" opacity="0.1"/>
  <path id="Path_112" data-name="Path 112" d="M887.308,631.569v2.6c-2.156,3.547-12.579,2.77-15.608.994a6.389,6.389,0,0,0,.65-.319c2.354-1.295,2.294-4.474,2.294-4.474s9.243-2.71,11.778,0A6.665,6.665,0,0,1,887.308,631.569Z" transform="translate(-422.277 -337.374)" opacity="0.1"/>
  <path id="Path_113" data-name="Path 113" d="M853.844,523.623a23.588,23.588,0,0,0-1.644,3.535v9.3c-2.36,3.884-14.6,2.589-16.258.47s-3.384-7.635-1.523-8.593,3.414-5.654,3.414-5.654-2.005.47-5.185-3.3-2.234-12.128-1.644-14.127,0-8.713,0-8.713.12-4.715-.819-6.244-2.945-10.237-2.945-10.237,0-2.945-1.65-4.474-2.71-7.539-2.71-7.539a7.726,7.726,0,0,1-1.174-5.064c.349-2.945-2.005-6.124-2.005-6.124l-4-12.724-3.77-9.538-2.12,5.534s-.6,12.953-.114,15.656,1.2,9.893,1.2,9.893-2.354,4.709-1.295,8.713.674,12.609.674,12.609,1.06,17.776.114,19.191-.825,4.95-.825,4.95,4.817,10.357,3.3,11.772-1.06,5.3-1.06,5.3,3.294,0,1.885,1.415-2.475,8.834-2.475,8.834l-14.241,1.668a29.618,29.618,0,0,1-3.185-6.022c-1.885-4.378.349-3.884,2.246-4.36s.7-1.644-1.542-3.059-.939-4.594-.939-4.594,3.414-5.769,2.234-6.238-1.295-8.6-1.295-8.6-2.354-9.635-1.764-12.248-1.885-8.828-1.885-8.828l-.825-7.419a20.413,20.413,0,0,1-2.589-14.018V453.308s-3.3-22.136-3.77-33.324c-.3-7.166-.217-16.945-.12-23.045.06-3.42.12-5.69.12-5.69l50.871-5.3a42.5,42.5,0,0,0,.921,7.557c.524,2.794,1.337,6.413,2.613,10.935,3.649,12.953,1.415,22.605,1.415,22.605l-.476,16.373s4.474,10.947,3.535,14.717a31.393,31.393,0,0,0-.951,6.841s10.008,23.906,8.948,30.855,3.294,17.9,3.294,17.9S855.024,521.5,853.844,523.623Z" transform="translate(-386.563 -237.855)" fill="#464353"/>
  <path id="Path_114" data-name="Path 114" d="M852.05,511.335l15.488-2.065S858.764,518.224,852.05,511.335Z" transform="translate(-413.84 -285.867)" opacity="0.05"/>
  <path id="Path_115" data-name="Path 115" d="M872.184,484.14s.53,5.48-2.824,7.539C869.36,491.679,875.364,490.74,872.184,484.14Z" transform="translate(-420.809 -275.175)" opacity="0.1"/>
  <path id="Path_116" data-name="Path 116" d="M860.375,455.2s-12.947,10.658-17.655,9.773S860.375,455.2,860.375,455.2Z" transform="translate(-409.665 -262.822)" opacity="0.1"/>
  <path id="Path_117" data-name="Path 117" d="M813.474,521s-9.833,2.234-10.128,6.184S813.474,521,813.474,521Z" transform="translate(-392.744 -290.971)" opacity="0.1"/>
  <path id="Path_118" data-name="Path 118" d="M816.722,602.56s-13.892,2.589-9.948,4.354a67.439,67.439,0,0,0,10.423,3.179S821.684,610.328,816.722,602.56Z" transform="translate(-394.018 -325.967)" opacity="0.05"/>
  <g id="Group_13" data-name="Group 13" transform="translate(396.886 152.9)" opacity="0.05">
    <path id="Path_119" data-name="Path 119" d="M801.4,613.121a2.74,2.74,0,0,1-1.271-2.011l-.145.247s-1.295,3.179.945,4.589c.253.163.5.325.723.482.415-.078.861-.138,1.289-.247C804.838,615.711,803.639,614.536,801.4,613.121Z" transform="translate(-789.879 -480.459)"/>
    <path id="Path_120" data-name="Path 120" d="M831.87,611.289c.385-.349.373-1.253.138-2.409a6.77,6.77,0,0,0-.789,3.408A2.938,2.938,0,0,1,831.87,611.289Z" transform="translate(-802.454 -479.571)"/>
    <path id="Path_121" data-name="Path 121" d="M828.129,515.59a16.06,16.06,0,0,0-.939,4.33,17.461,17.461,0,0,1,1.078-2.975Z" transform="translate(-800.85 -442.457)"/>
    <path id="Path_122" data-name="Path 122" d="M881.419,504.479a5.522,5.522,0,0,0,.126-1.289c-.175.879-.3,1.692-.385,2.409C881.238,505.231,881.323,504.882,881.419,504.479Z" transform="translate(-822.322 -437.524)"/>
    <path id="Path_123" data-name="Path 123" d="M827.981,583.389a7.546,7.546,0,0,0,.349-2.619,8.893,8.893,0,0,0-.68,3.306,3.161,3.161,0,0,1,.331-.686Z" transform="translate(-801.033 -468.388)"/>
    <path id="Path_124" data-name="Path 124" d="M819.628,622a46.741,46.741,0,0,0-1.62,7.226l-14.241,1.644a29.618,29.618,0,0,1-3.185-6.022,10.912,10.912,0,0,1-.4-1.036c-.855.391-1.2,1.277-.072,3.86a30.1,30.1,0,0,0,3.191,6.022l14.241-1.65s1.06-7.419,2.469-8.834C820.73,622.53,820.285,622.175,819.628,622Z" transform="translate(-789.79 -484.791)"/>
    <path id="Path_125" data-name="Path 125" d="M794.5,510.2s.114,8.123,1.295,8.593h0c.6-1.343.994-2.619.464-2.83-1.2-.47-1.295-8.6-1.295-8.6s-2.354-9.635-1.764-12.248-1.885-8.828-1.885-8.828l-.825-7.419a20.413,20.413,0,0,1-2.589-14.018V453.411s-3.3-22.136-3.77-33.324c-.3-7.166-.217-16.945-.12-23.045,0-1.1.036-2.077.054-2.9l-.4.042s-.066,2.264-.12,5.69c-.1,6.1-.187,15.879.12,23.039.47,11.188,3.764,33.33,3.764,33.33v11.441a20.425,20.425,0,0,0,2.6,14.012l.819,7.419s2.475,6.238,1.885,8.834S794.5,510.2,794.5,510.2Z" transform="translate(-783.448 -394.14)"/>
    <path id="Path_126" data-name="Path 126" d="M869.561,627.764a13.772,13.772,0,0,1-2.258-5.594c-1.451,1.313.217,6.407,1.807,8.43,1.644,2.12,13.892,3.414,16.258-.476v-2.24C882.158,631.034,871.114,629.769,869.561,627.764Z" transform="translate(-816.587 -484.859)"/>
    <path id="Path_127" data-name="Path 127" d="M900.05,609.308a23.791,23.791,0,0,0-1.65,3.535v1.668a24.711,24.711,0,0,1,1.2-2.36,7.227,7.227,0,0,0,.518-2.92S900.068,609.284,900.05,609.308Z" transform="translate(-829.18 -479.711)"/>
    <path id="Path_128" data-name="Path 128" d="M868.164,600.953a23.273,23.273,0,0,0,1.162-2.8s-2.005.47-5.185-3.3c-2.312-2.74-2.445-7.918-2.114-11.3-.6,2.005-1.536,10.363,1.644,14.133C865.749,600.146,867.321,600.8,868.164,600.953Z" transform="translate(-814.468 -469.494)"/>
    <path id="Path_129" data-name="Path 129" d="M848.679,526.285a62.761,62.761,0,0,1,.235,6.979,9.526,9.526,0,0,1,.241-1.09c.6-2.005,0-8.713,0-8.713s.12-4.715-.825-6.244-2.914-10.249-2.914-10.249,0-2.945-1.65-4.474-2.71-7.539-2.71-7.539a7.75,7.75,0,0,1-1.2-5.064c.355-2.945-2-6.124-2-6.124l-4-12.718-3.77-9.538-2.126,5.54s0,.7-.072,1.806l1.722-4.5,3.77,9.52,4,12.718s2.354,3.179,2,6.124a7.75,7.75,0,0,0,1.2,5.064s1.06,6.022,2.71,7.539,1.644,4.474,1.644,4.474,2.005,8.713,2.945,10.237S848.679,526.285,848.679,526.285Z" transform="translate(-801.125 -420.942)"/>
  </g>
  <path id="Path_130" data-name="Path 130" d="M871.194,201.952l-.885,4.3.054,1.915.036,1.409-4.914.506-.548-1.018h0c-1.018-1.843-3.131-5.588-3.812-6.166-.909-.759-2.529-12.718-.6-12.007a5.137,5.137,0,0,1,2.734,2.475S872.934,194.473,871.194,201.952Z" transform="translate(-416.944 -147.125)" fill="#ffcdd3"/>
  <path id="Path_131" data-name="Path 131" d="M873.912,220.629l-4.914.506-.548-1.018h0a4.33,4.33,0,0,1,5.419-.891Z" transform="translate(-420.485 -158.179)" opacity="0.1"/>
  <path id="Path_132" data-name="Path 132" d="M874.965,223.254l-6.479,1.5-.138-.963-.367-2.6a4.459,4.459,0,0,1,6.275-.855l.325,1.319Z" transform="translate(-420.342 -158.473)" fill="#21deba"/>
  <path id="Path_133" data-name="Path 133" d="M694.966,196.4l-6.919,3.709-.6-1.3c-.656-1.379-1.638-3.456-1.909-4.215-.409-1.144-3.294-2.589-3.294-2.589-7.226-6.919,1.385-12.868,1.385-12.868,4.564-9.183,9.635,3.119,9.635,3.119s.711,6.485.211,6.919-.5,2.21-.5,2.21a27.177,27.177,0,0,1,1.668,3.956C694.851,196,694.966,196.4,694.966,196.4Z" transform="translate(-339.738 -141.108)" fill="#ffcdd3"/>
  <path id="Path_134" data-name="Path 134" d="M700.311,209.338l-6.919,3.709-.6-1.3c.976-.819,4.438-3.613,5.576-3.5a8.335,8.335,0,0,0,1.638.042C700.2,208.934,700.311,209.338,700.311,209.338Z" transform="translate(-345.257 -154.041)" opacity="0.1"/>
  <path id="Path_135" data-name="Path 135" d="M701.139,211.741l-7.774,3.83-.157-1.668-.108-1.156s4.5-3.86,5.835-3.709a7.075,7.075,0,0,0,2.029,0l.09,1.4Z" transform="translate(-345.406 -154.355)" fill="#21deba"/>
  <path id="Path_136" data-name="Path 136" d="M828.824,239.355s-33.89,3.824-27.555,1.764c4.408-1.439,6.16-4.215,6.527-7.346a17.646,17.646,0,0,0-1.259-7.828,34.135,34.135,0,0,0-3.011-6.124s25.893-14.247,20.72-1.295a20.886,20.886,0,0,0-1.469,6.136,17.336,17.336,0,0,0,.668,6.214,18.5,18.5,0,0,0,5.377,8.478Z" transform="translate(-392.187 -155.968)" fill="#ffcdd3"/>
  <path id="Path_137" data-name="Path 137" d="M826.242,218.5a20.882,20.882,0,0,0-1.469,6.136c-2.439,2.053-5.112,1.915-8.551,1.915-2.638,0-5.564.638-7.672-.632a34.125,34.125,0,0,0-3.011-6.124S831.427,205.544,826.242,218.5Z" transform="translate(-394.1 -155.956)" opacity="0.1"/>
  <circle id="Ellipse_27" data-name="Ellipse 27" cx="14.012" cy="14.012" r="14.012" transform="translate(407.603 43.47)" fill="#ffcdd3"/>
  <path id="Path_138" data-name="Path 138" d="M828.824,250.13s-33.89,3.824-27.555,1.764c4.408-1.439,6.16-4.215,6.527-7.346,1.686-1.806,5.076-3.149,7.226-3.848a10.141,10.141,0,0,1,6.142-.1,8.732,8.732,0,0,1,2.234,1.036A18.5,18.5,0,0,0,828.824,250.13Z" transform="translate(-392.187 -170.579)" opacity="0.1"/>
  <path id="Path_139" data-name="Path 139" d="M875.208,224.605l-6.479,1.5-.138-.963a5.733,5.733,0,0,1,6.232-2.132Z" transform="translate(-420.59 -159.825)" opacity="0.1"/>
  <path id="Path_140" data-name="Path 140" d="M701.211,212.663l-7.774,3.83-.157-1.668a56.7,56.7,0,0,1,7.828-3.474Z" transform="translate(-345.48 -155.277)" opacity="0.1"/>
  <path id="Path_141" data-name="Path 141" d="M835.513,393.527c-13.133,2.1-31.8,4.769-34.763,3.866-2.463-.747-10.315-.668-17.15-.434.06-3.42.12-5.69.12-5.69l50.871-5.3A42.515,42.515,0,0,0,835.513,393.527Z" transform="translate(-385.84 -233.153)" opacity="0.1"/>
  <path id="Path_142" data-name="Path 142" d="M811.324,321.28S768.107,328.7,763.47,327.3s-28.452.114-28.452.114C724.3,334.6,728.773,324,728.773,324s-.939-5.534.355-10.008a61.146,61.146,0,0,0,1.776-10.02s-.235-7.069,1.06-8.719,2.83-13.422,2.83-13.422,1.174-8.009,1.06-9.773.349-6.714.349-6.714l1.536-8.244c-8.834-1.174-35.684-17.661-35.684-17.661-1.295-5.534-11.3-18.486-11.3-18.486a13.626,13.626,0,0,0-.825-3.179c-.7-1.885,9.893-5.654,9.893-5.654s7.888,9.635,9.538,12.248,7.3,7.419,7.3,7.419a5.678,5.678,0,0,1,2.589.337l.138.042h0a20.988,20.988,0,0,1,5.269,3.011,10.237,10.237,0,0,1,7.184,2.71s4.817-.711,5.654.114,4.944,0,4.944,0,4.119-8.713,6.828-6.184,14.205,2.409,14.205,2.409c1.529-2.035,5.257-3.493,7.587-4.215a10.183,10.183,0,0,1,6.142-.1,7.791,7.791,0,0,1,2.409,1.2l6.991,6.829s2-2.6,1.764-3.179,2.354-1.06,2.354-1.06,3.414-1.06,4.709-1.415,2.481,1.048,2.589,1.174a14.078,14.078,0,0,1-.6-5.179A6.118,6.118,0,0,0,796,224.067c4.119-10.128,13.422-1.65,13.422-1.65s1.06,5.534.12,7.654.939,6.594.7,7.774.476,3.179.476,5.419a33.112,33.112,0,0,1-1.885,8.358c-.68,1.885-6.359,6.124-6.359,6.124s-.355,6.714-2.83,10.6-.921,17.168-.921,17.168,2.354,10.363,5.3,13.663S811.324,321.28,811.324,321.28Z" transform="translate(-348.186 -155.583)" fill="#3f3d56"/>
  <path id="Path_143" data-name="Path 143" d="M783.039,259.966s-1.295-3.884-2.475-4.215a27.238,27.238,0,0,1-3.414-1.529l.759-1.451s4.42,1.2,5.13,2.511S783.039,259.966,783.039,259.966Z" transform="translate(-381.378 -175.933)" opacity="0.1"/>
  <path id="Path_144" data-name="Path 144" d="M740.539,248.417c-.235,1.2-10.719,2.234-10.719,2.234l5.3-5.311h0l.133.048h0a20.992,20.992,0,0,1,5.287,3.029Z" transform="translate(-361.235 -172.728)" opacity="0.1"/>
  <circle id="Ellipse_28" data-name="Ellipse 28" cx="0.939" cy="0.939" r="0.939" transform="translate(349.364 62.517)" fill="#575988"/>
  <circle id="Ellipse_29" data-name="Ellipse 29" cx="0.939" cy="0.939" r="0.939" transform="translate(350.507 64.401)" fill="#575988"/>
  <circle id="Ellipse_30" data-name="Ellipse 30" cx="0.939" cy="0.939" r="0.939" transform="translate(351.628 66.142)" fill="#575988"/>
  <circle id="Ellipse_31" data-name="Ellipse 31" cx="0.939" cy="0.939" r="0.939" transform="translate(352.799 68.02)" fill="#575988"/>
  <circle id="Ellipse_32" data-name="Ellipse 32" cx="0.765" cy="0.765" r="0.765" transform="translate(458.341 68.093)" fill="#575988"/>
  <circle id="Ellipse_33" data-name="Ellipse 33" cx="0.765" cy="0.765" r="0.765" transform="translate(458.456 69.833)" fill="#575988"/>
  <circle id="Ellipse_34" data-name="Ellipse 34" cx="0.765" cy="0.765" r="0.765" transform="translate(458.553 71.567)" fill="#575988"/>
  <path id="Path_145" data-name="Path 145" d="M787,317.72c-.114-.138,26.435,33.384,47.041,14.012C834.059,331.738,801.5,336.152,787,317.72Z" transform="translate(-387.111 -203.994)" opacity="0.1"/>
  <path id="Path_146" data-name="Path 146" d="M761.7,346.66s15.885.434,17.547,5v4.757a3.047,3.047,0,0,1-2.957,0c-1.6-.867-11.206-5.745-14.59-3.4Z" transform="translate(-375.141 -216.254)" opacity="0.1"/>
  <path id="Path_147" data-name="Path 147" d="M762.19,346.66s15.193.416,16.782,4.775v4.528a2.914,2.914,0,0,1-2.83,0c-1.529-.819-10.712-5.474-13.952-3.234Z" transform="translate(-375.325 -216.245)" fill="#3f3d56"/>
  <path id="Path_148" data-name="Path 148" d="M776.1,289.38a51.111,51.111,0,0,0,6.16,10.568,41.465,41.465,0,0,0,9.635,9.315S776.365,291.56,776.1,289.38Z" transform="translate(-381.26 -191.808)" opacity="0.1"/>
  <path id="Path_149" data-name="Path 149" d="M767.47,258.73s2.65,11.441,9.478,15.325Z" transform="translate(-377.34 -178.579)" opacity="0.1"/>
  <path id="Path_150" data-name="Path 150" d="M760.564,260.648c-.066-.211-2.354,9.032,8.8,14.169C769.367,274.817,764.628,273.209,760.564,260.648Z" transform="translate(-374.262 -179.388)" opacity="0.1"/>
  <path id="Path_151" data-name="Path 151" d="M875.907,247.9c-.175,0,5.5,3.613,7.051,5.3C882.959,253.2,879.261,247.664,875.907,247.9Z" transform="translate(-423.742 -173.824)" opacity="0.1"/>
  <path id="Path_152" data-name="Path 152" d="M808.531,213.884a2.21,2.21,0,0,0,2.409,2.186c4.269.265,8.719.452,12.645-1.2a4.817,4.817,0,0,0,1.927-1.277,7.922,7.922,0,0,0,1.12-3.1,45.088,45.088,0,0,1,2.583-5.949,19.931,19.931,0,0,0,1.391-10.688,7.225,7.225,0,0,0-1.072-3.125c-1.132-1.62-3.2-2.276-4.7-3.565s-2.463-3.258-4.215-4.215a8.093,8.093,0,0,0-5.287-.47,27.753,27.753,0,0,0-9.863,3.7c-1.018.6-2.132,1.343-3.3,1.12a4.413,4.413,0,0,1-2.409-1.861,13.043,13.043,0,0,0-1.006,6.112,2.626,2.626,0,0,1-.03.921,2.77,2.77,0,0,1-.656.969c-1.054,1.2-1.71,3.161-.668,4.4.452.536,1.15.831,1.59,1.379.789.982.524,2.409.506,3.661a1.884,1.884,0,0,0,.313,1.24,1.806,1.806,0,0,0,1.728.415,4.7,4.7,0,0,1,1.843-.175,3.089,3.089,0,0,1,1.6,1.2C806.929,208.1,807.7,210.862,808.531,213.884Z" transform="translate(-390.852 -143.702)" fill="#2d293d"/>
  <g id="Group_14" data-name="Group 14" transform="translate(406.205 41.61)" opacity="0.1">
    <path id="Path_153" data-name="Path 153" d="M826.012,220.259a4.817,4.817,0,0,1-1.927,1.277c-3.95,1.644-8.394,1.457-12.645,1.2a2.216,2.216,0,0,1-2.415-2.192c-.831-3.011-1.6-5.775-3.571-8.286a3.1,3.1,0,0,0-1.6-1.234,4.938,4.938,0,0,0-1.843.175,1.806,1.806,0,0,1-1.728-.409,1.885,1.885,0,0,1-.313-1.24c0-1.265.283-2.68-.506-3.661-.44-.548-1.138-.843-1.59-1.385a2.746,2.746,0,0,1-.271-2.806c-.753,1.2-1.072,2.716-.2,3.751.452.536,1.15.831,1.59,1.379.789.988.524,2.409.506,3.661a1.873,1.873,0,0,0,.307,1.24,1.807,1.807,0,0,0,1.734.416,4.7,4.7,0,0,1,1.843-.175,3.089,3.089,0,0,1,1.6,1.2c1.969,2.511,2.74,5.269,3.571,8.292a3.01,3.01,0,0,0,1.042,1.909,2.92,2.92,0,0,0,1.325.289c4.269.265,8.719.458,12.646-1.2a4.77,4.77,0,0,0,1.927-1.277,3.681,3.681,0,0,0,.6-1.132A.3.3,0,0,1,826.012,220.259Z" transform="translate(-796.877 -193.047)"/>
    <path id="Path_154" data-name="Path 154" d="M799.974,194.122a2.06,2.06,0,0,0,.428-.711,2.625,2.625,0,0,0,0-.921,13.06,13.06,0,0,1,.656-5.07l-.078-.09a12.947,12.947,0,0,0-1.006,6.106,4.347,4.347,0,0,1,0,.686Z" transform="translate(-798.094 -187.33)"/>
  </g>
  <path id="Path_155" data-name="Path 155" d="M812.08,248.677s17.5,2.324,19.077-.307" transform="translate(-396.822 -170.004)" opacity="0.1"/>
  <path id="Path_156" data-name="Path 156" d="M868.59,236.85s9.731,0,11.869,3.661" transform="translate(-420.794 -165.421)" opacity="0.1"/>
  <path id="Path_157" data-name="Path 157" d="M950.5,771.434a15.434,15.434,0,0,1-10.508,3.926c-.988,0-2.354.187-2.36,1.174a1.656,1.656,0,0,0,.289.807,9.664,9.664,0,0,0,5.419,4.257,19.152,19.152,0,0,0,6.558.416l6.413-.331c1.2-.066,2.409-.126,3.613-.277s2.517-.4,3.776-.6a49.381,49.381,0,0,1,9.339-.434,2.827,2.827,0,0,0,2.3-.6c.494-.6.241-1.752.054-2.656-.385-1.861,0-3.812-.355-5.678-.6-3.276-3.438-5.787-6.546-6.973-2.89-1.1-8.009-2.354-10.743-.524C954.864,765.858,953.1,769.067,950.5,771.434Z" transform="translate(-455.901 -395.448)" fill="#3f3d56"/>
  <path id="Path_158" data-name="Path 158" d="M961.072,585.907c.566,2.692,3.173,4.751,3.246,7.5.066,2.2-1.505,4.053-2.638,5.937a39.6,39.6,0,0,0-2.692,6.094,93.089,93.089,0,0,1-7.9,15.716c-1.505,2.409-3.191,4.98-2.848,7.78a11.658,11.658,0,0,0,1.367,3.721l4.516,8.972a25.974,25.974,0,0,1,2.306,5.666c.391,1.7.428,3.468.656,5.2.711,5.5,3.294,11.044,1.764,16.379-.132.458-.6,1.012-.969.693,1.493,2.788,2.692,5.594,2.577,8.755-.06,1.656-.566,3.384.042,4.926a5.394,5.394,0,0,1,.7,1.939,12.388,12.388,0,0,1-.259,1.331c-.126,1.271,1.042,2.33,2.252,2.734s2.529.373,3.751.741c2.348.7,4.028,2.728,6.022,4.131a12.821,12.821,0,0,0,6.937,2.258,1.747,1.747,0,0,0,1.024-.2,1.656,1.656,0,0,0,.566-1.24,6.889,6.889,0,0,0-2.481-5.985,2.711,2.711,0,0,1-.921-.963,2.325,2.325,0,0,1-.084-1.078,81.154,81.154,0,0,0-.265-14.813,22.5,22.5,0,0,1-.235-4.715,19.26,19.26,0,0,0,.379-3.92,20.815,20.815,0,0,0-1.2-3.758c-.7-2.24-.506-4.649-.6-6.991a61.307,61.307,0,0,0-1.981-12.043,9.108,9.108,0,0,0-1.873-4.348c-.939-.982-2.457-1.921-2.1-3.228a3.823,3.823,0,0,1,.861-1.283,5.149,5.149,0,0,0,1.072-3.926,1.764,1.764,0,0,0,2.029-.951,31.749,31.749,0,0,0,15.885-18.065,5.965,5.965,0,0,1,.711-1.614,7.271,7.271,0,0,1,2.908-1.885c3.288-1.656,5.558-4.757,7.641-7.792a13.773,13.773,0,0,0,3.354-9.725l.187-7.075a3.823,3.823,0,0,0-.132-1.385,3.463,3.463,0,0,0-.765-1.12,13.6,13.6,0,0,0-7.5-4.047c-1.927-.343-3.9-.277-5.847-.44-3.782-.313-7.515-1.487-11.3-1.2-5.943.44-11.236,4.558-14.036,9.821C964.216,584.257,963.18,585.871,961.072,585.907Z" transform="translate(-460.104 -319.671)" fill="#464353"/>
  <path id="Path_159" data-name="Path 159" d="M910.441,508.017a7.906,7.906,0,0,1-.434,3.222,2.251,2.251,0,0,1-2.643,1.355c.307-.693-.506-1.481-1.265-1.4a2.366,2.366,0,0,0-1.668,1.433,5.329,5.329,0,0,0-.482,3.27c.241,1.385,1.042,2.716.831,4.107-.169,1.156-1.018,2.306-.566,3.378a5.474,5.474,0,0,0,1.09,1.307,3.685,3.685,0,0,1-.391,5.058l11.393.229c-.415,1.9.44,3.848,1.415,5.54a34.926,34.926,0,0,0,26.038,17,2.264,2.264,0,0,0-.548,3.462,3.217,3.217,0,0,0,3.661.211A26.054,26.054,0,0,0,950,553.841a9.634,9.634,0,0,1,6.437-1.734c1.427.138,2.812.6,4.245.674,4.215.223,7.828-2.812,11.887-4.053,2.957-.909,6.311-.909,8.792-2.758a3.5,3.5,0,0,0,1.638-3.39,5.666,5.666,0,0,0-1.2-1.993,34.433,34.433,0,0,1-3.294-6.172,36.919,36.919,0,0,0-8.232-11.032,73.649,73.649,0,0,0-8.165-6.19,13.928,13.928,0,0,0-2.2-1.331,24.7,24.7,0,0,1-3.011-1.2c-1.337-.843-2.108-2.33-3.137-3.529-2.258-2.637-5.727-3.848-8.509-5.919-1.867-1.391-3.517-3.222-5.745-3.89-1.084-.331-2.234-.355-3.318-.68-2.463-.747-4.257-2.933-6.672-3.818-1.909-.7-4.016-.518-6.022-.765a14.1,14.1,0,0,1-6.293-2.4,7.467,7.467,0,0,0-2.005-1.168c-3.053-.927-3.3,4.757-3.613,6.726C911.176,502.146,910.441,505.054,910.441,508.017Z" transform="translate(-442.472 -280.629)" fill="#21deba"/>
  <path id="Path_160" data-name="Path 160" d="M891.839,543.869c.512,5.552-3.679,10.929-2.457,16.367.259,1.156.759,2.258.939,3.432.512,3.222-1.415,6.275-3.252,8.972l-15.777,23.153a14.563,14.563,0,0,1-2.252,2.782c-3.011,2.68-7.539,2.409-11.5,3.2a19.872,19.872,0,0,0-7.708,3.408.5.5,0,0,0-.1.693,6.624,6.624,0,0,0,5.727,2.692c.415.542,0,1.349-.572,1.74-.843.6-2.011.741-2.18,2.18a2.409,2.409,0,0,0,.289,1.445,4.5,4.5,0,0,0,2.758,1.915c5.462,1.674,11.363-1.265,15.451-5.257s7.021-9.032,11.032-13.091c2.222-2.252,4.745-4.173,7.033-6.353,4.564-4.354,8.117-9.635,11.537-14.928a16.521,16.521,0,0,0,2.5-5.082c.428-1.849.229-3.721.717-5.51.638-2.342,2.354-4.215,3.782-6.178,2.8-3.854,4.673-8.569,4.3-13.32s-3.312-9.436-7.792-11.05a7,7,0,0,0-4.366-.265c-1.837.566-3.191,2.084-4.444,3.541l-3.011,3.456a8.061,8.061,0,0,0-1.692,2.655,2.776,2.776,0,0,0,.6,2.951" transform="translate(-414.781 -299.75)" fill="#fbbebe"/>
  <path id="Path_161" data-name="Path 161" d="M926.26,512.047c-2.071.12-4.354.325-5.817,1.807a8.282,8.282,0,0,0-1.469,2.3c-1.421,2.9-2.806,5.925-2.908,9.153-.084,2.577.662,5.1,1.054,7.648.325,2.12-.5,4.281-.656,6.425a44.592,44.592,0,0,0,8.3-3.192,27.791,27.791,0,0,1,4.859-2.523c2.475-.825,6.624.6,8.978,1.746.126-1.65-1.114-4.528-.982-6.184a6.908,6.908,0,0,1,.367-2.047,12.409,12.409,0,0,1,1.247-1.981,8.105,8.105,0,0,0-.729-9.5c-2.089-2.348-5.359-3.228-8.478-3.613a36.67,36.67,0,0,0-5.919-.2" transform="translate(-441.687 -287.7)" fill="#21deba"/>
</svg>
